G04 #@! TF.GenerationSoftware,KiCad,Pcbnew,9.0.1*
G04 #@! TF.CreationDate,2025-12-21T20:36:20+01:00*
G04 #@! TF.ProjectId,1551-RAMBoard2-FirstBank,31353531-2d52-4414-9d42-6f617264322d,1*
G04 #@! TF.SameCoordinates,Original*
G04 #@! TF.FileFunction,Soldermask,Top*
G04 #@! TF.FilePolarity,Negative*
%FSLAX46Y46*%
G04 Gerber Fmt 4.6, Leading zero omitted, Abs format (unit mm)*
G04 Created by KiCad (PCBNEW 9.0.1) date 2025-12-21 20:36:20*
%MOMM*%
%LPD*%
G01*
G04 APERTURE LIST*
G04 Aperture macros list*
%AMRoundRect*
0 Rectangle with rounded corners*
0 $1 Rounding radius*
0 $2 $3 $4 $5 $6 $7 $8 $9 X,Y pos of 4 corners*
0 Add a 4 corners polygon primitive as box body*
4,1,4,$2,$3,$4,$5,$6,$7,$8,$9,$2,$3,0*
0 Add four circle primitives for the rounded corners*
1,1,$1+$1,$2,$3*
1,1,$1+$1,$4,$5*
1,1,$1+$1,$6,$7*
1,1,$1+$1,$8,$9*
0 Add four rect primitives between the rounded corners*
20,1,$1+$1,$2,$3,$4,$5,0*
20,1,$1+$1,$4,$5,$6,$7,0*
20,1,$1+$1,$6,$7,$8,$9,0*
20,1,$1+$1,$8,$9,$2,$3,0*%
%AMFreePoly0*
4,1,23,0.500000,-0.750000,0.000000,-0.750000,0.000000,-0.745722,-0.065263,-0.745722,-0.191342,-0.711940,-0.304381,-0.646677,-0.396677,-0.554381,-0.461940,-0.441342,-0.495722,-0.315263,-0.495722,-0.250000,-0.500000,-0.250000,-0.500000,0.250000,-0.495722,0.250000,-0.495722,0.315263,-0.461940,0.441342,-0.396677,0.554381,-0.304381,0.646677,-0.191342,0.711940,-0.065263,0.745722,0.000000,0.745722,
0.000000,0.750000,0.500000,0.750000,0.500000,-0.750000,0.500000,-0.750000,$1*%
%AMFreePoly1*
4,1,23,0.000000,0.745722,0.065263,0.745722,0.191342,0.711940,0.304381,0.646677,0.396677,0.554381,0.461940,0.441342,0.495722,0.315263,0.495722,0.250000,0.500000,0.250000,0.500000,-0.250000,0.495722,-0.250000,0.495722,-0.315263,0.461940,-0.441342,0.396677,-0.554381,0.304381,-0.646677,0.191342,-0.711940,0.065263,-0.745722,0.000000,-0.745722,0.000000,-0.750000,-0.500000,-0.750000,
-0.500000,0.750000,0.000000,0.750000,0.000000,0.745722,0.000000,0.745722,$1*%
G04 Aperture macros list end*
%ADD10FreePoly0,0.000000*%
%ADD11FreePoly1,0.000000*%
%ADD12RoundRect,0.250000X0.950000X0.550000X-0.950000X0.550000X-0.950000X-0.550000X0.950000X-0.550000X0*%
%ADD13O,2.400000X1.600000*%
%ADD14R,2.400000X1.600000*%
%ADD15R,1.700000X1.700000*%
%ADD16C,1.700000*%
%ADD17C,1.600000*%
%ADD18O,1.600000X1.600000*%
%ADD19O,1.700000X1.700000*%
G04 APERTURE END LIST*
G36*
X167490000Y-122948000D02*
G01*
X167790000Y-122948000D01*
X167790000Y-124448000D01*
X167490000Y-124448000D01*
X167490000Y-122948000D01*
G37*
G36*
X174206000Y-122948000D02*
G01*
X174506000Y-122948000D01*
X174506000Y-124448000D01*
X174206000Y-124448000D01*
X174206000Y-122948000D01*
G37*
D10*
X166990000Y-123698000D03*
D11*
X168290000Y-123698000D03*
D10*
X173706000Y-123698000D03*
D11*
X175006000Y-123698000D03*
D12*
X189992000Y-123190000D03*
D13*
X189992000Y-120650000D03*
X189992000Y-118110000D03*
X189992000Y-115570000D03*
X189992000Y-113030000D03*
X189992000Y-110490000D03*
X189992000Y-107950000D03*
X182372000Y-107950000D03*
X182372000Y-110490000D03*
X182372000Y-113030000D03*
X182372000Y-115570000D03*
X182372000Y-118110000D03*
X182372000Y-120650000D03*
X182372000Y-123190000D03*
D14*
X155707000Y-119903000D03*
D13*
X155707000Y-117363000D03*
X155707000Y-114823000D03*
X155707000Y-112283000D03*
X155707000Y-109743000D03*
X155707000Y-107203000D03*
X155707000Y-104663000D03*
X155707000Y-102123000D03*
X155707000Y-99583000D03*
X155707000Y-97043000D03*
X155707000Y-94503000D03*
X155707000Y-91963000D03*
X155707000Y-89423000D03*
X155707000Y-86883000D03*
X140467000Y-86883000D03*
X140467000Y-89423000D03*
X140467000Y-91963000D03*
X140467000Y-94503000D03*
X140467000Y-97043000D03*
X140467000Y-99583000D03*
X140467000Y-102123000D03*
X140467000Y-104663000D03*
X140467000Y-107203000D03*
X140467000Y-109743000D03*
X140467000Y-112283000D03*
X140467000Y-114823000D03*
X140467000Y-117363000D03*
X140467000Y-119903000D03*
D14*
X159359000Y-119903000D03*
D13*
X159359000Y-117363000D03*
X159359000Y-114823000D03*
X159359000Y-112283000D03*
X159359000Y-109743000D03*
X159359000Y-107203000D03*
X159359000Y-104663000D03*
X159359000Y-102123000D03*
X159359000Y-99583000D03*
X159359000Y-97043000D03*
X159359000Y-94503000D03*
X159359000Y-91963000D03*
X159359000Y-89423000D03*
X159359000Y-86883000D03*
X144119000Y-86883000D03*
X144119000Y-89423000D03*
X144119000Y-91963000D03*
X144119000Y-94503000D03*
X144119000Y-97043000D03*
X144119000Y-99583000D03*
X144119000Y-102123000D03*
X144119000Y-104663000D03*
X144119000Y-107203000D03*
X144119000Y-109743000D03*
X144119000Y-112283000D03*
X144119000Y-114823000D03*
X144119000Y-117363000D03*
X144119000Y-119903000D03*
D14*
X189992000Y-104648000D03*
D13*
X189992000Y-102108000D03*
X189992000Y-99568000D03*
X189992000Y-97028000D03*
X189992000Y-94488000D03*
X189992000Y-91948000D03*
X189992000Y-89408000D03*
X189992000Y-86868000D03*
X182372000Y-86868000D03*
X182372000Y-89408000D03*
X182372000Y-91948000D03*
X182372000Y-94488000D03*
X182372000Y-97028000D03*
X182372000Y-99568000D03*
X182372000Y-102108000D03*
X182372000Y-104648000D03*
D15*
X193548000Y-120650000D03*
D16*
X193548000Y-118110000D03*
X193548000Y-115570000D03*
D17*
X148082000Y-123698000D03*
D18*
X155702000Y-123698000D03*
D14*
X178562000Y-119888000D03*
D13*
X178562000Y-117348000D03*
X178562000Y-114808000D03*
X178562000Y-112268000D03*
X178562000Y-109728000D03*
X178562000Y-107188000D03*
X178562000Y-104648000D03*
X178562000Y-102108000D03*
X178562000Y-99568000D03*
X178562000Y-97028000D03*
X178562000Y-94488000D03*
X178562000Y-91948000D03*
X178562000Y-89408000D03*
X178562000Y-86868000D03*
X163322000Y-86868000D03*
X163322000Y-89408000D03*
X163322000Y-91948000D03*
X163322000Y-94488000D03*
X163322000Y-97028000D03*
X163322000Y-99568000D03*
X163322000Y-102108000D03*
X163322000Y-104648000D03*
X163322000Y-107188000D03*
X163322000Y-109728000D03*
X163322000Y-112268000D03*
X163322000Y-114808000D03*
X163322000Y-117348000D03*
X163322000Y-119888000D03*
D15*
X193548000Y-102103000D03*
D19*
X193548000Y-104643000D03*
M02*
