G04 #@! TF.GenerationSoftware,KiCad,Pcbnew,9.0.1*
G04 #@! TF.CreationDate,2025-12-21T20:36:20+01:00*
G04 #@! TF.ProjectId,1551-RAMBoard2-FirstBank,31353531-2d52-4414-9d42-6f617264322d,1*
G04 #@! TF.SameCoordinates,Original*
G04 #@! TF.FileFunction,Copper,L1,Top*
G04 #@! TF.FilePolarity,Positive*
%FSLAX46Y46*%
G04 Gerber Fmt 4.6, Leading zero omitted, Abs format (unit mm)*
G04 Created by KiCad (PCBNEW 9.0.1) date 2025-12-21 20:36:20*
%MOMM*%
%LPD*%
G01*
G04 APERTURE LIST*
G04 Aperture macros list*
%AMRoundRect*
0 Rectangle with rounded corners*
0 $1 Rounding radius*
0 $2 $3 $4 $5 $6 $7 $8 $9 X,Y pos of 4 corners*
0 Add a 4 corners polygon primitive as box body*
4,1,4,$2,$3,$4,$5,$6,$7,$8,$9,$2,$3,0*
0 Add four circle primitives for the rounded corners*
1,1,$1+$1,$2,$3*
1,1,$1+$1,$4,$5*
1,1,$1+$1,$6,$7*
1,1,$1+$1,$8,$9*
0 Add four rect primitives between the rounded corners*
20,1,$1+$1,$2,$3,$4,$5,0*
20,1,$1+$1,$4,$5,$6,$7,0*
20,1,$1+$1,$6,$7,$8,$9,0*
20,1,$1+$1,$8,$9,$2,$3,0*%
%AMFreePoly0*
4,1,23,0.500000,-0.750000,0.000000,-0.750000,0.000000,-0.745722,-0.065263,-0.745722,-0.191342,-0.711940,-0.304381,-0.646677,-0.396677,-0.554381,-0.461940,-0.441342,-0.495722,-0.315263,-0.495722,-0.250000,-0.500000,-0.250000,-0.500000,0.250000,-0.495722,0.250000,-0.495722,0.315263,-0.461940,0.441342,-0.396677,0.554381,-0.304381,0.646677,-0.191342,0.711940,-0.065263,0.745722,0.000000,0.745722,
0.000000,0.750000,0.500000,0.750000,0.500000,-0.750000,0.500000,-0.750000,$1*%
%AMFreePoly1*
4,1,23,0.000000,0.745722,0.065263,0.745722,0.191342,0.711940,0.304381,0.646677,0.396677,0.554381,0.461940,0.441342,0.495722,0.315263,0.495722,0.250000,0.500000,0.250000,0.500000,-0.250000,0.495722,-0.250000,0.495722,-0.315263,0.461940,-0.441342,0.396677,-0.554381,0.304381,-0.646677,0.191342,-0.711940,0.065263,-0.745722,0.000000,-0.745722,0.000000,-0.750000,-0.500000,-0.750000,
-0.500000,0.750000,0.000000,0.750000,0.000000,0.745722,0.000000,0.745722,$1*%
G04 Aperture macros list end*
G04 #@! TA.AperFunction,EtchedComponent*
%ADD10C,0.000000*%
G04 #@! TD*
G04 #@! TA.AperFunction,SMDPad,CuDef*
%ADD11FreePoly0,0.000000*%
G04 #@! TD*
G04 #@! TA.AperFunction,SMDPad,CuDef*
%ADD12FreePoly1,0.000000*%
G04 #@! TD*
G04 #@! TA.AperFunction,ComponentPad*
%ADD13RoundRect,0.250000X0.950000X0.550000X-0.950000X0.550000X-0.950000X-0.550000X0.950000X-0.550000X0*%
G04 #@! TD*
G04 #@! TA.AperFunction,ComponentPad*
%ADD14O,2.400000X1.600000*%
G04 #@! TD*
G04 #@! TA.AperFunction,ComponentPad*
%ADD15R,2.400000X1.600000*%
G04 #@! TD*
G04 #@! TA.AperFunction,ComponentPad*
%ADD16R,1.700000X1.700000*%
G04 #@! TD*
G04 #@! TA.AperFunction,ComponentPad*
%ADD17C,1.700000*%
G04 #@! TD*
G04 #@! TA.AperFunction,ComponentPad*
%ADD18C,1.600000*%
G04 #@! TD*
G04 #@! TA.AperFunction,ComponentPad*
%ADD19O,1.600000X1.600000*%
G04 #@! TD*
G04 #@! TA.AperFunction,ComponentPad*
%ADD20O,1.700000X1.700000*%
G04 #@! TD*
G04 #@! TA.AperFunction,ViaPad*
%ADD21C,0.800000*%
G04 #@! TD*
G04 #@! TA.AperFunction,Conductor*
%ADD22C,0.250000*%
G04 #@! TD*
G04 APERTURE END LIST*
D10*
G04 #@! TA.AperFunction,EtchedComponent*
G36*
X167890000Y-123998000D02*
G01*
X167390000Y-123998000D01*
X167390000Y-123398000D01*
X167890000Y-123398000D01*
X167890000Y-123998000D01*
G37*
G04 #@! TD.AperFunction*
G04 #@! TA.AperFunction,EtchedComponent*
G36*
X174606000Y-123998000D02*
G01*
X174106000Y-123998000D01*
X174106000Y-123398000D01*
X174606000Y-123398000D01*
X174606000Y-123998000D01*
G37*
G04 #@! TD.AperFunction*
D11*
X166990000Y-123698000D03*
D12*
X168290000Y-123698000D03*
D11*
X173706000Y-123698000D03*
D12*
X175006000Y-123698000D03*
D13*
X189992000Y-123190000D03*
D14*
X189992000Y-120650000D03*
X189992000Y-118110000D03*
X189992000Y-115570000D03*
X189992000Y-113030000D03*
X189992000Y-110490000D03*
X189992000Y-107950000D03*
X182372000Y-107950000D03*
X182372000Y-110490000D03*
X182372000Y-113030000D03*
X182372000Y-115570000D03*
X182372000Y-118110000D03*
X182372000Y-120650000D03*
X182372000Y-123190000D03*
D15*
X155707000Y-119903000D03*
D14*
X155707000Y-117363000D03*
X155707000Y-114823000D03*
X155707000Y-112283000D03*
X155707000Y-109743000D03*
X155707000Y-107203000D03*
X155707000Y-104663000D03*
X155707000Y-102123000D03*
X155707000Y-99583000D03*
X155707000Y-97043000D03*
X155707000Y-94503000D03*
X155707000Y-91963000D03*
X155707000Y-89423000D03*
X155707000Y-86883000D03*
X140467000Y-86883000D03*
X140467000Y-89423000D03*
X140467000Y-91963000D03*
X140467000Y-94503000D03*
X140467000Y-97043000D03*
X140467000Y-99583000D03*
X140467000Y-102123000D03*
X140467000Y-104663000D03*
X140467000Y-107203000D03*
X140467000Y-109743000D03*
X140467000Y-112283000D03*
X140467000Y-114823000D03*
X140467000Y-117363000D03*
X140467000Y-119903000D03*
D15*
X159359000Y-119903000D03*
D14*
X159359000Y-117363000D03*
X159359000Y-114823000D03*
X159359000Y-112283000D03*
X159359000Y-109743000D03*
X159359000Y-107203000D03*
X159359000Y-104663000D03*
X159359000Y-102123000D03*
X159359000Y-99583000D03*
X159359000Y-97043000D03*
X159359000Y-94503000D03*
X159359000Y-91963000D03*
X159359000Y-89423000D03*
X159359000Y-86883000D03*
X144119000Y-86883000D03*
X144119000Y-89423000D03*
X144119000Y-91963000D03*
X144119000Y-94503000D03*
X144119000Y-97043000D03*
X144119000Y-99583000D03*
X144119000Y-102123000D03*
X144119000Y-104663000D03*
X144119000Y-107203000D03*
X144119000Y-109743000D03*
X144119000Y-112283000D03*
X144119000Y-114823000D03*
X144119000Y-117363000D03*
X144119000Y-119903000D03*
D15*
X189992000Y-104648000D03*
D14*
X189992000Y-102108000D03*
X189992000Y-99568000D03*
X189992000Y-97028000D03*
X189992000Y-94488000D03*
X189992000Y-91948000D03*
X189992000Y-89408000D03*
X189992000Y-86868000D03*
X182372000Y-86868000D03*
X182372000Y-89408000D03*
X182372000Y-91948000D03*
X182372000Y-94488000D03*
X182372000Y-97028000D03*
X182372000Y-99568000D03*
X182372000Y-102108000D03*
X182372000Y-104648000D03*
D16*
X193548000Y-120650000D03*
D17*
X193548000Y-118110000D03*
X193548000Y-115570000D03*
D18*
X148082000Y-123698000D03*
D19*
X155702000Y-123698000D03*
D15*
X178562000Y-119888000D03*
D14*
X178562000Y-117348000D03*
X178562000Y-114808000D03*
X178562000Y-112268000D03*
X178562000Y-109728000D03*
X178562000Y-107188000D03*
X178562000Y-104648000D03*
X178562000Y-102108000D03*
X178562000Y-99568000D03*
X178562000Y-97028000D03*
X178562000Y-94488000D03*
X178562000Y-91948000D03*
X178562000Y-89408000D03*
X178562000Y-86868000D03*
X163322000Y-86868000D03*
X163322000Y-89408000D03*
X163322000Y-91948000D03*
X163322000Y-94488000D03*
X163322000Y-97028000D03*
X163322000Y-99568000D03*
X163322000Y-102108000D03*
X163322000Y-104648000D03*
X163322000Y-107188000D03*
X163322000Y-109728000D03*
X163322000Y-112268000D03*
X163322000Y-114808000D03*
X163322000Y-117348000D03*
X163322000Y-119888000D03*
D16*
X193548000Y-102103000D03*
D20*
X193548000Y-104643000D03*
D21*
X170967800Y-123278800D03*
X167740900Y-115588500D03*
X175815100Y-122456700D03*
X180065400Y-111078200D03*
X171631100Y-115761200D03*
X168962900Y-116641000D03*
X186817100Y-104836700D03*
X175819500Y-106456200D03*
X149992200Y-94780700D03*
X161291800Y-90733900D03*
X168049000Y-107188000D03*
X188182800Y-107950000D03*
X184175600Y-121789100D03*
X146779800Y-122556400D03*
X167742200Y-114559600D03*
D22*
X168709200Y-123278800D02*
X168290000Y-123698000D01*
X170967800Y-123278800D02*
X168709200Y-123278800D01*
X175006000Y-123265800D02*
X175006000Y-123698000D01*
X175815100Y-122456700D02*
X175006000Y-123265800D01*
X163322000Y-114808000D02*
X164848700Y-114808000D01*
X165629200Y-115588500D02*
X167740900Y-115588500D01*
X164848700Y-114808000D02*
X165629200Y-115588500D01*
X180065400Y-110795600D02*
X180065400Y-111078200D01*
X181641000Y-109220000D02*
X180065400Y-110795600D01*
X183302000Y-109220000D02*
X181641000Y-109220000D01*
X185978100Y-106543900D02*
X183302000Y-109220000D01*
X190562600Y-106543900D02*
X185978100Y-106543900D01*
X192371300Y-104735200D02*
X190562600Y-106543900D01*
X192371300Y-104088600D02*
X192371300Y-104735200D01*
X193180200Y-103279700D02*
X192371300Y-104088600D01*
X193548000Y-103279700D02*
X193180200Y-103279700D01*
X193548000Y-102103000D02*
X193548000Y-103279700D01*
X169842700Y-115761200D02*
X168962900Y-116641000D01*
X171631100Y-115761200D02*
X169842700Y-115761200D01*
X189992000Y-97028000D02*
X188465300Y-97028000D01*
X185925300Y-99568000D02*
X182372000Y-99568000D01*
X188465300Y-97028000D02*
X185925300Y-99568000D01*
X165982700Y-98434000D02*
X164848700Y-99568000D01*
X179711300Y-98434000D02*
X165982700Y-98434000D01*
X180845300Y-99568000D02*
X179711300Y-98434000D01*
X182372000Y-99568000D02*
X180845300Y-99568000D01*
X163322000Y-99568000D02*
X164848700Y-99568000D01*
X144119000Y-114823000D02*
X140467000Y-114823000D01*
X176275300Y-106000400D02*
X175819500Y-106456200D01*
X185653400Y-106000400D02*
X176275300Y-106000400D01*
X186817100Y-104836700D02*
X185653400Y-106000400D01*
X144119000Y-112283000D02*
X140467000Y-112283000D01*
X163322000Y-112268000D02*
X161795300Y-112268000D01*
X144119000Y-112283000D02*
X145645700Y-112283000D01*
X146807000Y-113444300D02*
X145645700Y-112283000D01*
X160619000Y-113444300D02*
X146807000Y-113444300D01*
X161795300Y-112268000D02*
X160619000Y-113444300D01*
X140467000Y-109743000D02*
X144119000Y-109743000D01*
X163322000Y-109728000D02*
X161795300Y-109728000D01*
X144119000Y-109743000D02*
X145645700Y-109743000D01*
X146834700Y-110932000D02*
X145645700Y-109743000D01*
X160591300Y-110932000D02*
X146834700Y-110932000D01*
X161795300Y-109728000D02*
X160591300Y-110932000D01*
X144119000Y-107203000D02*
X140467000Y-107203000D01*
X146836200Y-108393500D02*
X145645700Y-107203000D01*
X160589800Y-108393500D02*
X146836200Y-108393500D01*
X161795300Y-107188000D02*
X160589800Y-108393500D01*
X163322000Y-107188000D02*
X161795300Y-107188000D01*
X144119000Y-107203000D02*
X145645700Y-107203000D01*
X189992000Y-104648000D02*
X188465300Y-104648000D01*
X185925300Y-102108000D02*
X182372000Y-102108000D01*
X188465300Y-104648000D02*
X185925300Y-102108000D01*
X182372000Y-102108000D02*
X180845300Y-102108000D01*
X140467000Y-104663000D02*
X141993700Y-104663000D01*
X179575300Y-103378000D02*
X180845300Y-102108000D01*
X166118700Y-103378000D02*
X179575300Y-103378000D01*
X164848700Y-104648000D02*
X166118700Y-103378000D01*
X143163000Y-103493700D02*
X141993700Y-104663000D01*
X160641000Y-103493700D02*
X143163000Y-103493700D01*
X161795300Y-104648000D02*
X160641000Y-103493700D01*
X163322000Y-104648000D02*
X161795300Y-104648000D01*
X163322000Y-104648000D02*
X164848700Y-104648000D01*
X144119000Y-102123000D02*
X140467000Y-102123000D01*
X146773100Y-100995600D02*
X145645700Y-102123000D01*
X160682900Y-100995600D02*
X146773100Y-100995600D01*
X161795300Y-102108000D02*
X160682900Y-100995600D01*
X163322000Y-102108000D02*
X161795300Y-102108000D01*
X144119000Y-102123000D02*
X145645700Y-102123000D01*
X182372000Y-91948000D02*
X180845300Y-91948000D01*
X140467000Y-99583000D02*
X141993700Y-99583000D01*
X179439700Y-93353600D02*
X180845300Y-91948000D01*
X150008400Y-93353600D02*
X179439700Y-93353600D01*
X145074800Y-98287200D02*
X150008400Y-93353600D01*
X143289500Y-98287200D02*
X145074800Y-98287200D01*
X141993700Y-99583000D02*
X143289500Y-98287200D01*
X144119000Y-97043000D02*
X140467000Y-97043000D01*
X144119000Y-94503000D02*
X140467000Y-94503000D01*
X163322000Y-94488000D02*
X161795300Y-94488000D01*
X150860500Y-95649000D02*
X149992200Y-94780700D01*
X160634300Y-95649000D02*
X150860500Y-95649000D01*
X161795300Y-94488000D02*
X160634300Y-95649000D01*
X144119000Y-91963000D02*
X140467000Y-91963000D01*
X144119000Y-89423000D02*
X140467000Y-89423000D01*
X144119000Y-86883000D02*
X140467000Y-86883000D01*
X146804800Y-85723900D02*
X145645700Y-86883000D01*
X160651200Y-85723900D02*
X146804800Y-85723900D01*
X161795300Y-86868000D02*
X160651200Y-85723900D01*
X163322000Y-86868000D02*
X161795300Y-86868000D01*
X144119000Y-86883000D02*
X145645700Y-86883000D01*
X178562000Y-89408000D02*
X177035300Y-89408000D01*
X161137000Y-89423000D02*
X159359000Y-89423000D01*
X162263600Y-90549600D02*
X161137000Y-89423000D01*
X175893700Y-90549600D02*
X162263600Y-90549600D01*
X177035300Y-89408000D02*
X175893700Y-90549600D01*
X159359000Y-89423000D02*
X155707000Y-89423000D01*
X159359000Y-91963000D02*
X155707000Y-91963000D01*
X160885700Y-91140000D02*
X160885700Y-91963000D01*
X161291800Y-90733900D02*
X160885700Y-91140000D01*
X159359000Y-91963000D02*
X160885700Y-91963000D01*
X159359000Y-94503000D02*
X155707000Y-94503000D01*
X155707000Y-97043000D02*
X159359000Y-97043000D01*
X162034500Y-95894200D02*
X160885700Y-97043000D01*
X175901500Y-95894200D02*
X162034500Y-95894200D01*
X177035300Y-97028000D02*
X175901500Y-95894200D01*
X178562000Y-97028000D02*
X177035300Y-97028000D01*
X159359000Y-97043000D02*
X160885700Y-97043000D01*
X159359000Y-99583000D02*
X155707000Y-99583000D01*
X159359000Y-102123000D02*
X155707000Y-102123000D01*
X159359000Y-104663000D02*
X155707000Y-104663000D01*
X178562000Y-104648000D02*
X177035300Y-104648000D01*
X159359000Y-104663000D02*
X160885700Y-104663000D01*
X161998100Y-105775400D02*
X160885700Y-104663000D01*
X175472700Y-105775400D02*
X161998100Y-105775400D01*
X176600100Y-104648000D02*
X175472700Y-105775400D01*
X177035300Y-104648000D02*
X176600100Y-104648000D01*
X159359000Y-107203000D02*
X155707000Y-107203000D01*
X178562000Y-107188000D02*
X168049000Y-107188000D01*
X155707000Y-109743000D02*
X159359000Y-109743000D01*
X175874000Y-108566700D02*
X177035300Y-109728000D01*
X162062000Y-108566700D02*
X175874000Y-108566700D01*
X160885700Y-109743000D02*
X162062000Y-108566700D01*
X159359000Y-109743000D02*
X160885700Y-109743000D01*
X178562000Y-109728000D02*
X177035300Y-109728000D01*
X159359000Y-112283000D02*
X155707000Y-112283000D01*
X178562000Y-112268000D02*
X177035300Y-112268000D01*
X175886500Y-111119200D02*
X177035300Y-112268000D01*
X162049500Y-111119200D02*
X175886500Y-111119200D01*
X160885700Y-112283000D02*
X162049500Y-111119200D01*
X159359000Y-112283000D02*
X160885700Y-112283000D01*
X155707000Y-114823000D02*
X159359000Y-114823000D01*
X162029200Y-113679500D02*
X160885700Y-114823000D01*
X175906800Y-113679500D02*
X162029200Y-113679500D01*
X177035300Y-114808000D02*
X175906800Y-113679500D01*
X178562000Y-114808000D02*
X177035300Y-114808000D01*
X159359000Y-114823000D02*
X160885700Y-114823000D01*
X159359000Y-117363000D02*
X155707000Y-117363000D01*
X162066100Y-116182600D02*
X160885700Y-117363000D01*
X167307000Y-116182600D02*
X162066100Y-116182600D01*
X168558200Y-117433800D02*
X167307000Y-116182600D01*
X176949500Y-117433800D02*
X168558200Y-117433800D01*
X177035300Y-117348000D02*
X176949500Y-117433800D01*
X178562000Y-117348000D02*
X177035300Y-117348000D01*
X159359000Y-117363000D02*
X160885700Y-117363000D01*
X155707000Y-86883000D02*
X159359000Y-86883000D01*
X175843800Y-88059500D02*
X177035300Y-86868000D01*
X162062200Y-88059500D02*
X175843800Y-88059500D01*
X160885700Y-86883000D02*
X162062200Y-88059500D01*
X159359000Y-86883000D02*
X160885700Y-86883000D01*
X178562000Y-86868000D02*
X177035300Y-86868000D01*
X166990000Y-124169700D02*
X166990000Y-123698000D01*
X167639700Y-124819400D02*
X166990000Y-124169700D01*
X172584600Y-124819400D02*
X167639700Y-124819400D01*
X173706000Y-123698000D02*
X172584600Y-124819400D01*
X189992000Y-107950000D02*
X188182800Y-107950000D01*
X173706000Y-123273400D02*
X173706000Y-123698000D01*
X175263100Y-121716300D02*
X173706000Y-123273400D01*
X176360800Y-121716300D02*
X175263100Y-121716300D01*
X176433600Y-121789100D02*
X176360800Y-121716300D01*
X184175600Y-121789100D02*
X176433600Y-121789100D01*
X191518700Y-107849000D02*
X191518700Y-107950000D01*
X193548000Y-105819700D02*
X191518700Y-107849000D01*
X189992000Y-107950000D02*
X191518700Y-107950000D01*
X193548000Y-104643000D02*
X193548000Y-105819700D01*
X163322000Y-119888000D02*
X164848700Y-119888000D01*
X182372000Y-120650000D02*
X180845300Y-120650000D01*
X144119000Y-119903000D02*
X140467000Y-119903000D01*
X182372000Y-113030000D02*
X189992000Y-113030000D01*
X163322000Y-119888000D02*
X161795300Y-119888000D01*
X161795300Y-119959300D02*
X161795300Y-119888000D01*
X160712500Y-121042100D02*
X161795300Y-119959300D01*
X150737900Y-121042100D02*
X160712500Y-121042100D01*
X148082000Y-123698000D02*
X150737900Y-121042100D01*
X165990000Y-121029300D02*
X164848700Y-119888000D01*
X180466000Y-121029300D02*
X165990000Y-121029300D01*
X180845300Y-120650000D02*
X180466000Y-121029300D01*
X145645700Y-121422300D02*
X145645700Y-119903000D01*
X146779800Y-122556400D02*
X145645700Y-121422300D01*
X144119000Y-119903000D02*
X145645700Y-119903000D01*
X166191200Y-118690500D02*
X164848700Y-117348000D01*
X180774500Y-118690500D02*
X166191200Y-118690500D01*
X181557300Y-119473300D02*
X180774500Y-118690500D01*
X191194600Y-119473300D02*
X181557300Y-119473300D01*
X192371300Y-120650000D02*
X191194600Y-119473300D01*
X193548000Y-120650000D02*
X192371300Y-120650000D01*
X163322000Y-117348000D02*
X164848700Y-117348000D01*
X175679200Y-114559600D02*
X167742200Y-114559600D01*
X177106800Y-115987200D02*
X175679200Y-114559600D01*
X179194700Y-115987200D02*
X177106800Y-115987200D01*
X180047500Y-116840000D02*
X179194700Y-115987200D01*
X192278000Y-116840000D02*
X180047500Y-116840000D01*
X193548000Y-118110000D02*
X192278000Y-116840000D01*
G04 #@! TA.AperFunction,Conductor*
G36*
X188391324Y-107197085D02*
G01*
X188437079Y-107249889D01*
X188447023Y-107319047D01*
X188434770Y-107357694D01*
X188387245Y-107450967D01*
X188324009Y-107645586D01*
X188315391Y-107700000D01*
X189676314Y-107700000D01*
X189671920Y-107704394D01*
X189619259Y-107795606D01*
X189592000Y-107897339D01*
X189592000Y-108002661D01*
X189619259Y-108104394D01*
X189671920Y-108195606D01*
X189676314Y-108200000D01*
X188315391Y-108200000D01*
X188324009Y-108254413D01*
X188387244Y-108449029D01*
X188480140Y-108631349D01*
X188600417Y-108796894D01*
X188600417Y-108796895D01*
X188745104Y-108941582D01*
X188910652Y-109061861D01*
X188994818Y-109104745D01*
X189045614Y-109152719D01*
X189062410Y-109220540D01*
X189039873Y-109286675D01*
X188994820Y-109325714D01*
X188906195Y-109370871D01*
X188739576Y-109491926D01*
X188739571Y-109491930D01*
X188593930Y-109637571D01*
X188593926Y-109637576D01*
X188472873Y-109804193D01*
X188379367Y-109987705D01*
X188315719Y-110183591D01*
X188283500Y-110387019D01*
X188283500Y-110592980D01*
X188315719Y-110796408D01*
X188379367Y-110992294D01*
X188418679Y-111069446D01*
X188466792Y-111163873D01*
X188472873Y-111175806D01*
X188593926Y-111342423D01*
X188593930Y-111342428D01*
X188739571Y-111488069D01*
X188739576Y-111488073D01*
X188906195Y-111609128D01*
X188985459Y-111649516D01*
X189036254Y-111697490D01*
X189053049Y-111765311D01*
X189030511Y-111831446D01*
X188985459Y-111870484D01*
X188906195Y-111910871D01*
X188739576Y-112031926D01*
X188739571Y-112031930D01*
X188593930Y-112177571D01*
X188593926Y-112177576D01*
X188472007Y-112345385D01*
X188416677Y-112388051D01*
X188371689Y-112396500D01*
X183992311Y-112396500D01*
X183925272Y-112376815D01*
X183891993Y-112345385D01*
X183770073Y-112177576D01*
X183770069Y-112177571D01*
X183624428Y-112031930D01*
X183624423Y-112031926D01*
X183457806Y-111910873D01*
X183457805Y-111910872D01*
X183457803Y-111910871D01*
X183378540Y-111870484D01*
X183327745Y-111822510D01*
X183310950Y-111754689D01*
X183333487Y-111688554D01*
X183378541Y-111649515D01*
X183457803Y-111609129D01*
X183624430Y-111488068D01*
X183770068Y-111342430D01*
X183891129Y-111175803D01*
X183984634Y-110992290D01*
X184048280Y-110796408D01*
X184080500Y-110592981D01*
X184080500Y-110387019D01*
X184076458Y-110361500D01*
X184048280Y-110183591D01*
X183984632Y-109987705D01*
X183912419Y-109845981D01*
X183891129Y-109804197D01*
X183836635Y-109729191D01*
X183813157Y-109663387D01*
X183828983Y-109595333D01*
X183849270Y-109568632D01*
X186204185Y-107213719D01*
X186265508Y-107180234D01*
X186291866Y-107177400D01*
X188324285Y-107177400D01*
X188391324Y-107197085D01*
G37*
G04 #@! TD.AperFunction*
G04 #@! TA.AperFunction,Conductor*
G36*
X180974686Y-92817030D02*
G01*
X181019033Y-92845531D01*
X181119571Y-92946069D01*
X181119576Y-92946073D01*
X181286195Y-93067128D01*
X181365459Y-93107516D01*
X181416254Y-93155490D01*
X181433049Y-93223311D01*
X181410511Y-93289446D01*
X181365459Y-93328484D01*
X181286195Y-93368871D01*
X181119576Y-93489926D01*
X181119571Y-93489930D01*
X180973930Y-93635571D01*
X180973926Y-93635576D01*
X180852873Y-93802193D01*
X180759367Y-93985705D01*
X180695719Y-94181591D01*
X180663500Y-94385019D01*
X180663500Y-94590980D01*
X180695719Y-94794408D01*
X180759367Y-94990294D01*
X180852873Y-95173806D01*
X180973926Y-95340423D01*
X180973930Y-95340428D01*
X181119571Y-95486069D01*
X181119576Y-95486073D01*
X181256837Y-95585798D01*
X181286197Y-95607129D01*
X181374819Y-95652284D01*
X181425615Y-95700259D01*
X181442410Y-95768080D01*
X181419873Y-95834214D01*
X181374819Y-95873254D01*
X181290650Y-95916140D01*
X181125105Y-96036417D01*
X181125104Y-96036417D01*
X180980417Y-96181104D01*
X180980417Y-96181105D01*
X180860140Y-96346650D01*
X180767244Y-96528970D01*
X180704009Y-96723586D01*
X180695391Y-96778000D01*
X182056314Y-96778000D01*
X182051920Y-96782394D01*
X181999259Y-96873606D01*
X181972000Y-96975339D01*
X181972000Y-97080661D01*
X181999259Y-97182394D01*
X182051920Y-97273606D01*
X182056314Y-97278000D01*
X180695391Y-97278000D01*
X180704009Y-97332413D01*
X180767244Y-97527029D01*
X180860140Y-97709349D01*
X180980417Y-97874894D01*
X180980417Y-97874895D01*
X181125104Y-98019582D01*
X181290652Y-98139861D01*
X181374818Y-98182745D01*
X181425614Y-98230719D01*
X181442410Y-98298540D01*
X181419873Y-98364675D01*
X181374820Y-98403714D01*
X181286195Y-98448871D01*
X181119576Y-98569926D01*
X181119571Y-98569930D01*
X181019032Y-98670468D01*
X180957709Y-98703952D01*
X180888017Y-98698967D01*
X180843671Y-98670467D01*
X180115136Y-97941931D01*
X180115132Y-97941928D01*
X180087897Y-97923730D01*
X180043092Y-97870118D01*
X180034385Y-97800793D01*
X180056470Y-97747742D01*
X180081129Y-97713803D01*
X180174634Y-97530290D01*
X180238280Y-97334408D01*
X180270500Y-97130981D01*
X180270500Y-96925019D01*
X180238280Y-96721592D01*
X180228021Y-96690019D01*
X180205329Y-96620178D01*
X180174634Y-96525710D01*
X180174632Y-96525707D01*
X180174632Y-96525705D01*
X180120182Y-96418843D01*
X180081129Y-96342197D01*
X180020069Y-96258155D01*
X179960073Y-96175576D01*
X179960069Y-96175571D01*
X179814428Y-96029930D01*
X179814423Y-96029926D01*
X179647806Y-95908873D01*
X179647805Y-95908872D01*
X179647803Y-95908871D01*
X179568540Y-95868484D01*
X179517745Y-95820510D01*
X179500950Y-95752689D01*
X179523487Y-95686554D01*
X179568541Y-95647515D01*
X179647803Y-95607129D01*
X179814430Y-95486068D01*
X179960068Y-95340430D01*
X180081129Y-95173803D01*
X180174634Y-94990290D01*
X180238280Y-94794408D01*
X180270500Y-94590981D01*
X180270500Y-94385019D01*
X180261921Y-94330851D01*
X180238280Y-94181591D01*
X180194570Y-94047066D01*
X180174634Y-93985710D01*
X180174632Y-93985707D01*
X180174632Y-93985705D01*
X180111117Y-93861051D01*
X180081129Y-93802197D01*
X180061689Y-93775440D01*
X180038210Y-93709636D01*
X180054035Y-93641582D01*
X180074323Y-93614879D01*
X180843675Y-92845528D01*
X180904994Y-92812046D01*
X180974686Y-92817030D01*
G37*
G04 #@! TD.AperFunction*
G04 #@! TA.AperFunction,Conductor*
G36*
X154007245Y-86377085D02*
G01*
X154053000Y-86429889D01*
X154062944Y-86499047D01*
X154058137Y-86519719D01*
X154039009Y-86578588D01*
X154030391Y-86633000D01*
X155391314Y-86633000D01*
X155386920Y-86637394D01*
X155334259Y-86728606D01*
X155307000Y-86830339D01*
X155307000Y-86935661D01*
X155334259Y-87037394D01*
X155386920Y-87128606D01*
X155391314Y-87133000D01*
X154030391Y-87133000D01*
X154039009Y-87187413D01*
X154102244Y-87382029D01*
X154195140Y-87564349D01*
X154315417Y-87729894D01*
X154315417Y-87729895D01*
X154460104Y-87874582D01*
X154625652Y-87994861D01*
X154709818Y-88037745D01*
X154760614Y-88085719D01*
X154777410Y-88153540D01*
X154754873Y-88219675D01*
X154709820Y-88258714D01*
X154621195Y-88303871D01*
X154454576Y-88424926D01*
X154454571Y-88424930D01*
X154308930Y-88570571D01*
X154308926Y-88570576D01*
X154187873Y-88737193D01*
X154094367Y-88920705D01*
X154030719Y-89116591D01*
X153998500Y-89320019D01*
X153998500Y-89525980D01*
X154030719Y-89729408D01*
X154094367Y-89925294D01*
X154187873Y-90108806D01*
X154308926Y-90275423D01*
X154308930Y-90275428D01*
X154454571Y-90421069D01*
X154454576Y-90421073D01*
X154621195Y-90542128D01*
X154700459Y-90582516D01*
X154751254Y-90630490D01*
X154768049Y-90698311D01*
X154745511Y-90764446D01*
X154700459Y-90803484D01*
X154621195Y-90843871D01*
X154454576Y-90964926D01*
X154454571Y-90964930D01*
X154308930Y-91110571D01*
X154308926Y-91110576D01*
X154187873Y-91277193D01*
X154094367Y-91460705D01*
X154030719Y-91656591D01*
X153998500Y-91860019D01*
X153998500Y-92065980D01*
X154030719Y-92269408D01*
X154094367Y-92465294D01*
X154132333Y-92539805D01*
X154145229Y-92608475D01*
X154118953Y-92673215D01*
X154061846Y-92713472D01*
X154021848Y-92720100D01*
X149946001Y-92720100D01*
X149823622Y-92744443D01*
X149823614Y-92744445D01*
X149708327Y-92792198D01*
X149708318Y-92792203D01*
X149604567Y-92861528D01*
X149604563Y-92861531D01*
X145917715Y-96548379D01*
X145856392Y-96581864D01*
X145786700Y-96576880D01*
X145730767Y-96535008D01*
X145719551Y-96516997D01*
X145638129Y-96357197D01*
X145566171Y-96258155D01*
X145517073Y-96190576D01*
X145517069Y-96190571D01*
X145371428Y-96044930D01*
X145371423Y-96044926D01*
X145204806Y-95923873D01*
X145204805Y-95923872D01*
X145204803Y-95923871D01*
X145125540Y-95883484D01*
X145074745Y-95835510D01*
X145057950Y-95767689D01*
X145080487Y-95701554D01*
X145125541Y-95662515D01*
X145204803Y-95622129D01*
X145371430Y-95501068D01*
X145517068Y-95355430D01*
X145638129Y-95188803D01*
X145731634Y-95005290D01*
X145795280Y-94809408D01*
X145827500Y-94605981D01*
X145827500Y-94400019D01*
X145795280Y-94196592D01*
X145795279Y-94196590D01*
X145746696Y-94047066D01*
X145731634Y-94000710D01*
X145731632Y-94000707D01*
X145731632Y-94000705D01*
X145697709Y-93934128D01*
X145638129Y-93817197D01*
X145545543Y-93689762D01*
X145517073Y-93650576D01*
X145517069Y-93650571D01*
X145371428Y-93504930D01*
X145371423Y-93504926D01*
X145204806Y-93383873D01*
X145204805Y-93383872D01*
X145204803Y-93383871D01*
X145125540Y-93343484D01*
X145074745Y-93295510D01*
X145057950Y-93227689D01*
X145080487Y-93161554D01*
X145125541Y-93122515D01*
X145204803Y-93082129D01*
X145371430Y-92961068D01*
X145517068Y-92815430D01*
X145638129Y-92648803D01*
X145731634Y-92465290D01*
X145795280Y-92269408D01*
X145827500Y-92065981D01*
X145827500Y-91860019D01*
X145795280Y-91656592D01*
X145731634Y-91460710D01*
X145731632Y-91460707D01*
X145731632Y-91460705D01*
X145682049Y-91363395D01*
X145638129Y-91277197D01*
X145603828Y-91229986D01*
X145517073Y-91110576D01*
X145517069Y-91110571D01*
X145371428Y-90964930D01*
X145371423Y-90964926D01*
X145204806Y-90843873D01*
X145204805Y-90843872D01*
X145204803Y-90843871D01*
X145125540Y-90803484D01*
X145074745Y-90755510D01*
X145057950Y-90687689D01*
X145080487Y-90621554D01*
X145125541Y-90582515D01*
X145204803Y-90542129D01*
X145371430Y-90421068D01*
X145517068Y-90275430D01*
X145638129Y-90108803D01*
X145731634Y-89925290D01*
X145795280Y-89729408D01*
X145827500Y-89525981D01*
X145827500Y-89320019D01*
X145795280Y-89116592D01*
X145731634Y-88920710D01*
X145731632Y-88920707D01*
X145731632Y-88920705D01*
X145669539Y-88798843D01*
X145638129Y-88737197D01*
X145622661Y-88715908D01*
X145517073Y-88570576D01*
X145517069Y-88570571D01*
X145371428Y-88424930D01*
X145371423Y-88424926D01*
X145204806Y-88303873D01*
X145204805Y-88303872D01*
X145204803Y-88303871D01*
X145125540Y-88263484D01*
X145074745Y-88215510D01*
X145057950Y-88147689D01*
X145080487Y-88081554D01*
X145125541Y-88042515D01*
X145204803Y-88002129D01*
X145371430Y-87881068D01*
X145517068Y-87735430D01*
X145531988Y-87714894D01*
X145640993Y-87564862D01*
X145642517Y-87565969D01*
X145688361Y-87524473D01*
X145718114Y-87514507D01*
X145733679Y-87511410D01*
X145830485Y-87492155D01*
X145945775Y-87444400D01*
X146049533Y-87375071D01*
X147030885Y-86393719D01*
X147092208Y-86360234D01*
X147118566Y-86357400D01*
X153940206Y-86357400D01*
X154007245Y-86377085D01*
G37*
G04 #@! TD.AperFunction*
G04 #@! TA.AperFunction,Conductor*
G36*
X161184145Y-87162124D02*
G01*
X161217114Y-87185720D01*
X161391466Y-87360072D01*
X161429208Y-87385290D01*
X161495225Y-87429401D01*
X161574254Y-87462135D01*
X161610515Y-87477155D01*
X161726333Y-87500192D01*
X161729724Y-87501069D01*
X161756831Y-87517263D01*
X161784796Y-87531892D01*
X161788005Y-87535888D01*
X161789705Y-87536904D01*
X161791138Y-87539789D01*
X161799514Y-87550219D01*
X161800007Y-87549862D01*
X161923926Y-87720423D01*
X161923930Y-87720428D01*
X162069571Y-87866069D01*
X162069576Y-87866073D01*
X162236195Y-87987128D01*
X162315459Y-88027516D01*
X162366254Y-88075490D01*
X162383049Y-88143311D01*
X162360511Y-88209446D01*
X162315459Y-88248484D01*
X162236195Y-88288871D01*
X162069576Y-88409926D01*
X162069571Y-88409930D01*
X161923930Y-88555571D01*
X161923926Y-88555576D01*
X161802873Y-88722193D01*
X161720326Y-88884200D01*
X161672351Y-88934996D01*
X161604530Y-88951791D01*
X161540950Y-88931007D01*
X161437081Y-88861603D01*
X161437072Y-88861598D01*
X161321785Y-88813845D01*
X161321777Y-88813843D01*
X161199398Y-88789500D01*
X161199394Y-88789500D01*
X160979311Y-88789500D01*
X160912272Y-88769815D01*
X160878993Y-88738385D01*
X160757073Y-88570576D01*
X160757069Y-88570571D01*
X160611428Y-88424930D01*
X160611423Y-88424926D01*
X160444806Y-88303873D01*
X160444805Y-88303872D01*
X160444803Y-88303871D01*
X160365541Y-88263485D01*
X160356180Y-88258715D01*
X160305384Y-88210740D01*
X160288589Y-88142919D01*
X160311127Y-88076784D01*
X160356181Y-88037745D01*
X160440347Y-87994861D01*
X160605894Y-87874582D01*
X160605895Y-87874582D01*
X160750582Y-87729895D01*
X160750582Y-87729894D01*
X160870859Y-87564349D01*
X160963755Y-87382029D01*
X161011502Y-87235083D01*
X161050940Y-87177407D01*
X161115298Y-87150209D01*
X161184145Y-87162124D01*
G37*
G04 #@! TD.AperFunction*
G04 #@! TA.AperFunction,Conductor*
G36*
X157659245Y-86377085D02*
G01*
X157705000Y-86429889D01*
X157714944Y-86499047D01*
X157710137Y-86519719D01*
X157691009Y-86578588D01*
X157682391Y-86633000D01*
X159043314Y-86633000D01*
X159038920Y-86637394D01*
X158986259Y-86728606D01*
X158959000Y-86830339D01*
X158959000Y-86935661D01*
X158986259Y-87037394D01*
X159038920Y-87128606D01*
X159043314Y-87133000D01*
X157682391Y-87133000D01*
X157691009Y-87187413D01*
X157754244Y-87382029D01*
X157847140Y-87564349D01*
X157967417Y-87729894D01*
X157967417Y-87729895D01*
X158112104Y-87874582D01*
X158277652Y-87994861D01*
X158361818Y-88037745D01*
X158412614Y-88085719D01*
X158429410Y-88153540D01*
X158406873Y-88219675D01*
X158361820Y-88258714D01*
X158273195Y-88303871D01*
X158106576Y-88424926D01*
X158106571Y-88424930D01*
X157960930Y-88570571D01*
X157960926Y-88570576D01*
X157839007Y-88738385D01*
X157783677Y-88781051D01*
X157738689Y-88789500D01*
X157327311Y-88789500D01*
X157260272Y-88769815D01*
X157226993Y-88738385D01*
X157105073Y-88570576D01*
X157105069Y-88570571D01*
X156959428Y-88424930D01*
X156959423Y-88424926D01*
X156792806Y-88303873D01*
X156792805Y-88303872D01*
X156792803Y-88303871D01*
X156713541Y-88263485D01*
X156704180Y-88258715D01*
X156653384Y-88210740D01*
X156636589Y-88142919D01*
X156659127Y-88076784D01*
X156704181Y-88037745D01*
X156788347Y-87994861D01*
X156953894Y-87874582D01*
X156953895Y-87874582D01*
X157098582Y-87729895D01*
X157098582Y-87729894D01*
X157218859Y-87564349D01*
X157311755Y-87382029D01*
X157374990Y-87187413D01*
X157383609Y-87133000D01*
X156022686Y-87133000D01*
X156027080Y-87128606D01*
X156079741Y-87037394D01*
X156107000Y-86935661D01*
X156107000Y-86830339D01*
X156079741Y-86728606D01*
X156027080Y-86637394D01*
X156022686Y-86633000D01*
X157383609Y-86633000D01*
X157374990Y-86578588D01*
X157355863Y-86519719D01*
X157355059Y-86491597D01*
X157351056Y-86463753D01*
X157354075Y-86457141D01*
X157353868Y-86449877D01*
X157368394Y-86425787D01*
X157380081Y-86400197D01*
X157386194Y-86396267D01*
X157389948Y-86390044D01*
X157415194Y-86377631D01*
X157438859Y-86362423D01*
X157449129Y-86360946D01*
X157452649Y-86359216D01*
X157473794Y-86357400D01*
X157592206Y-86357400D01*
X157659245Y-86377085D01*
G37*
G04 #@! TD.AperFunction*
G04 #@! TA.AperFunction,Conductor*
G36*
X196792539Y-84856185D02*
G01*
X196838294Y-84908989D01*
X196849500Y-84960500D01*
X196849500Y-125351500D01*
X196829815Y-125418539D01*
X196777011Y-125464294D01*
X196725500Y-125475500D01*
X138300500Y-125475500D01*
X138233461Y-125455815D01*
X138187706Y-125403011D01*
X138176500Y-125351500D01*
X138176500Y-86780019D01*
X138758500Y-86780019D01*
X138758500Y-86985980D01*
X138790719Y-87189408D01*
X138854367Y-87385294D01*
X138947873Y-87568806D01*
X139068926Y-87735423D01*
X139068930Y-87735428D01*
X139214571Y-87881069D01*
X139214576Y-87881073D01*
X139381195Y-88002128D01*
X139460459Y-88042516D01*
X139511254Y-88090490D01*
X139528049Y-88158311D01*
X139505511Y-88224446D01*
X139460459Y-88263484D01*
X139381195Y-88303871D01*
X139214576Y-88424926D01*
X139214571Y-88424930D01*
X139068930Y-88570571D01*
X139068926Y-88570576D01*
X138947873Y-88737193D01*
X138854367Y-88920705D01*
X138790719Y-89116591D01*
X138758500Y-89320019D01*
X138758500Y-89525980D01*
X138790719Y-89729408D01*
X138854367Y-89925294D01*
X138947873Y-90108806D01*
X139068926Y-90275423D01*
X139068930Y-90275428D01*
X139214571Y-90421069D01*
X139214576Y-90421073D01*
X139381195Y-90542128D01*
X139460459Y-90582516D01*
X139511254Y-90630490D01*
X139528049Y-90698311D01*
X139505511Y-90764446D01*
X139460459Y-90803484D01*
X139381195Y-90843871D01*
X139214576Y-90964926D01*
X139214571Y-90964930D01*
X139068930Y-91110571D01*
X139068926Y-91110576D01*
X138947873Y-91277193D01*
X138854367Y-91460705D01*
X138790719Y-91656591D01*
X138758500Y-91860019D01*
X138758500Y-92065980D01*
X138790719Y-92269408D01*
X138854367Y-92465294D01*
X138879642Y-92514897D01*
X138944011Y-92641228D01*
X138947873Y-92648806D01*
X139068926Y-92815423D01*
X139068930Y-92815428D01*
X139214571Y-92961069D01*
X139214576Y-92961073D01*
X139381195Y-93082128D01*
X139460459Y-93122516D01*
X139511254Y-93170490D01*
X139528049Y-93238311D01*
X139505511Y-93304446D01*
X139460459Y-93343484D01*
X139381195Y-93383871D01*
X139214576Y-93504926D01*
X139214571Y-93504930D01*
X139068930Y-93650571D01*
X139068926Y-93650576D01*
X138947873Y-93817193D01*
X138854367Y-94000705D01*
X138790719Y-94196591D01*
X138758500Y-94400019D01*
X138758500Y-94605980D01*
X138790719Y-94809408D01*
X138854367Y-95005294D01*
X138912331Y-95119053D01*
X138947569Y-95188211D01*
X138947873Y-95188806D01*
X139068926Y-95355423D01*
X139068930Y-95355428D01*
X139214571Y-95501069D01*
X139214576Y-95501073D01*
X139381195Y-95622128D01*
X139460459Y-95662516D01*
X139511254Y-95710490D01*
X139528049Y-95778311D01*
X139505511Y-95844446D01*
X139460459Y-95883484D01*
X139381195Y-95923871D01*
X139214576Y-96044926D01*
X139214571Y-96044930D01*
X139068930Y-96190571D01*
X139068926Y-96190576D01*
X138947873Y-96357193D01*
X138854367Y-96540705D01*
X138790719Y-96736591D01*
X138758500Y-96940019D01*
X138758500Y-97145980D01*
X138790719Y-97349408D01*
X138854367Y-97545294D01*
X138947873Y-97728806D01*
X139068926Y-97895423D01*
X139068930Y-97895428D01*
X139214571Y-98041069D01*
X139214576Y-98041073D01*
X139381195Y-98162128D01*
X139460459Y-98202516D01*
X139511254Y-98250490D01*
X139528049Y-98318311D01*
X139505511Y-98384446D01*
X139460459Y-98423484D01*
X139381195Y-98463871D01*
X139214576Y-98584926D01*
X139214571Y-98584930D01*
X139068930Y-98730571D01*
X139068926Y-98730576D01*
X138947873Y-98897193D01*
X138854367Y-99080705D01*
X138790719Y-99276591D01*
X138758500Y-99480019D01*
X138758500Y-99685980D01*
X138790719Y-99889408D01*
X138854367Y-100085294D01*
X138886190Y-100147748D01*
X138938286Y-100249992D01*
X138947873Y-100268806D01*
X139068926Y-100435423D01*
X139068930Y-100435428D01*
X139214571Y-100581069D01*
X139214576Y-100581073D01*
X139381195Y-100702128D01*
X139460459Y-100742516D01*
X139511254Y-100790490D01*
X139528049Y-100858311D01*
X139505511Y-100924446D01*
X139460459Y-100963484D01*
X139381195Y-101003871D01*
X139214576Y-101124926D01*
X139214571Y-101124930D01*
X139068930Y-101270571D01*
X139068926Y-101270576D01*
X138947873Y-101437193D01*
X138854367Y-101620705D01*
X138790719Y-101816591D01*
X138758500Y-102020019D01*
X138758500Y-102225980D01*
X138790719Y-102429408D01*
X138854367Y-102625294D01*
X138915107Y-102744500D01*
X138928801Y-102771377D01*
X138947873Y-102808806D01*
X139068926Y-102975423D01*
X139068930Y-102975428D01*
X139214571Y-103121069D01*
X139214576Y-103121073D01*
X139381195Y-103242128D01*
X139460459Y-103282516D01*
X139511254Y-103330490D01*
X139528049Y-103398311D01*
X139505511Y-103464446D01*
X139460459Y-103503484D01*
X139381195Y-103543871D01*
X139214576Y-103664926D01*
X139214571Y-103664930D01*
X139068930Y-103810571D01*
X139068926Y-103810576D01*
X138947873Y-103977193D01*
X138854367Y-104160705D01*
X138790719Y-104356591D01*
X138760876Y-104545019D01*
X138758500Y-104560019D01*
X138758500Y-104765981D01*
X138762905Y-104793794D01*
X138790719Y-104969408D01*
X138854367Y-105165294D01*
X138908816Y-105272154D01*
X138941764Y-105336818D01*
X138947873Y-105348806D01*
X139068926Y-105515423D01*
X139068930Y-105515428D01*
X139214571Y-105661069D01*
X139214576Y-105661073D01*
X139381195Y-105782128D01*
X139460459Y-105822516D01*
X139511254Y-105870490D01*
X139528049Y-105938311D01*
X139505511Y-106004446D01*
X139460459Y-106043484D01*
X139381195Y-106083871D01*
X139214576Y-106204926D01*
X139214571Y-106204930D01*
X139068930Y-106350571D01*
X139068926Y-106350576D01*
X138947873Y-106517193D01*
X138854367Y-106700705D01*
X138790719Y-106896591D01*
X138780927Y-106958419D01*
X138758500Y-107100019D01*
X138758500Y-107305981D01*
X138762905Y-107333794D01*
X138790719Y-107509408D01*
X138854367Y-107705294D01*
X138906183Y-107806987D01*
X138940515Y-107874367D01*
X138947873Y-107888806D01*
X139068926Y-108055423D01*
X139068930Y-108055428D01*
X139214571Y-108201069D01*
X139214576Y-108201073D01*
X139381195Y-108322128D01*
X139460459Y-108362516D01*
X139511254Y-108410490D01*
X139528049Y-108478311D01*
X139505511Y-108544446D01*
X139460459Y-108583484D01*
X139381195Y-108623871D01*
X139214576Y-108744926D01*
X139214571Y-108744930D01*
X139068930Y-108890571D01*
X139068926Y-108890576D01*
X138947873Y-109057193D01*
X138854367Y-109240705D01*
X138790719Y-109436591D01*
X138758500Y-109640019D01*
X138758500Y-109845980D01*
X138790719Y-110049408D01*
X138854367Y-110245294D01*
X138912563Y-110359507D01*
X138939926Y-110413211D01*
X138947873Y-110428806D01*
X139068926Y-110595423D01*
X139068930Y-110595428D01*
X139214571Y-110741069D01*
X139214576Y-110741073D01*
X139381195Y-110862128D01*
X139460459Y-110902516D01*
X139511254Y-110950490D01*
X139528049Y-111018311D01*
X139505511Y-111084446D01*
X139460459Y-111123484D01*
X139381195Y-111163871D01*
X139214576Y-111284926D01*
X139214571Y-111284930D01*
X139068930Y-111430571D01*
X139068926Y-111430576D01*
X138947873Y-111597193D01*
X138854367Y-111780705D01*
X138790719Y-111976591D01*
X138758500Y-112180019D01*
X138758500Y-112385980D01*
X138790719Y-112589408D01*
X138854367Y-112785294D01*
X138947873Y-112968806D01*
X139068926Y-113135423D01*
X139068930Y-113135428D01*
X139214571Y-113281069D01*
X139214576Y-113281073D01*
X139381195Y-113402128D01*
X139460459Y-113442516D01*
X139511254Y-113490490D01*
X139528049Y-113558311D01*
X139505511Y-113624446D01*
X139460459Y-113663484D01*
X139381195Y-113703871D01*
X139214576Y-113824926D01*
X139214571Y-113824930D01*
X139068930Y-113970571D01*
X139068926Y-113970576D01*
X138947873Y-114137193D01*
X138854367Y-114320705D01*
X138790719Y-114516591D01*
X138764047Y-114684996D01*
X138758500Y-114720019D01*
X138758500Y-114925981D01*
X138759978Y-114935315D01*
X138790719Y-115129408D01*
X138854367Y-115325294D01*
X138891568Y-115398303D01*
X138942886Y-115499020D01*
X138947873Y-115508806D01*
X139068926Y-115675423D01*
X139068930Y-115675428D01*
X139214571Y-115821069D01*
X139214576Y-115821073D01*
X139381195Y-115942128D01*
X139460459Y-115982516D01*
X139511254Y-116030490D01*
X139528049Y-116098311D01*
X139505511Y-116164446D01*
X139460459Y-116203484D01*
X139381195Y-116243871D01*
X139214576Y-116364926D01*
X139214571Y-116364930D01*
X139068930Y-116510571D01*
X139068926Y-116510576D01*
X138947873Y-116677193D01*
X138854367Y-116860705D01*
X138790719Y-117056591D01*
X138758500Y-117260019D01*
X138758500Y-117465980D01*
X138790719Y-117669408D01*
X138854367Y-117865294D01*
X138899038Y-117952964D01*
X138944891Y-118042955D01*
X138947873Y-118048806D01*
X139068926Y-118215423D01*
X139068930Y-118215428D01*
X139214571Y-118361069D01*
X139214576Y-118361073D01*
X139381195Y-118482128D01*
X139460459Y-118522516D01*
X139511254Y-118570490D01*
X139528049Y-118638311D01*
X139505511Y-118704446D01*
X139460459Y-118743484D01*
X139381195Y-118783871D01*
X139214576Y-118904926D01*
X139214571Y-118904930D01*
X139068930Y-119050571D01*
X139068926Y-119050576D01*
X138947873Y-119217193D01*
X138854367Y-119400705D01*
X138790719Y-119596591D01*
X138758500Y-119800019D01*
X138758500Y-120005980D01*
X138790719Y-120209408D01*
X138854367Y-120405294D01*
X138947873Y-120588806D01*
X139068926Y-120755423D01*
X139068930Y-120755428D01*
X139214571Y-120901069D01*
X139214576Y-120901073D01*
X139320866Y-120978296D01*
X139381197Y-121022129D01*
X139498128Y-121081709D01*
X139564705Y-121115632D01*
X139564707Y-121115632D01*
X139564710Y-121115634D01*
X139623977Y-121134891D01*
X139760591Y-121179280D01*
X139862305Y-121195390D01*
X139964019Y-121211500D01*
X139964020Y-121211500D01*
X140969980Y-121211500D01*
X140969981Y-121211500D01*
X141173408Y-121179280D01*
X141369290Y-121115634D01*
X141552803Y-121022129D01*
X141719430Y-120901068D01*
X141865068Y-120755430D01*
X141911801Y-120691107D01*
X141986993Y-120587615D01*
X142042323Y-120544949D01*
X142087311Y-120536500D01*
X142498689Y-120536500D01*
X142565728Y-120556185D01*
X142599007Y-120587615D01*
X142720926Y-120755423D01*
X142720930Y-120755428D01*
X142866571Y-120901069D01*
X142866576Y-120901073D01*
X142972866Y-120978296D01*
X143033197Y-121022129D01*
X143150128Y-121081709D01*
X143216705Y-121115632D01*
X143216707Y-121115632D01*
X143216710Y-121115634D01*
X143275977Y-121134891D01*
X143412591Y-121179280D01*
X143514305Y-121195390D01*
X143616019Y-121211500D01*
X143616020Y-121211500D01*
X144621980Y-121211500D01*
X144621981Y-121211500D01*
X144825408Y-121179280D01*
X144849881Y-121171327D01*
X144919721Y-121169331D01*
X144979554Y-121205411D01*
X145010384Y-121268111D01*
X145012200Y-121289258D01*
X145012200Y-121484698D01*
X145036543Y-121607077D01*
X145036545Y-121607085D01*
X145084298Y-121722372D01*
X145084303Y-121722381D01*
X145153628Y-121826132D01*
X145153631Y-121826136D01*
X145834981Y-122507485D01*
X145868466Y-122568808D01*
X145871300Y-122595166D01*
X145871300Y-122645883D01*
X145906211Y-122821392D01*
X145906213Y-122821400D01*
X145974696Y-122986732D01*
X145974701Y-122986742D01*
X146074121Y-123135534D01*
X146074124Y-123135538D01*
X146200661Y-123262075D01*
X146200665Y-123262078D01*
X146349457Y-123361498D01*
X146349461Y-123361500D01*
X146349464Y-123361502D01*
X146514800Y-123429987D01*
X146650257Y-123456930D01*
X146674228Y-123461699D01*
X146736139Y-123494083D01*
X146770713Y-123554799D01*
X146773434Y-123590147D01*
X146773500Y-123590147D01*
X146773500Y-123591007D01*
X146773656Y-123593034D01*
X146773500Y-123595018D01*
X146773500Y-123800980D01*
X146805719Y-124004408D01*
X146869367Y-124200294D01*
X146962873Y-124383806D01*
X147083926Y-124550423D01*
X147083930Y-124550428D01*
X147229571Y-124696069D01*
X147229576Y-124696073D01*
X147362704Y-124792795D01*
X147396197Y-124817129D01*
X147477653Y-124858633D01*
X147579705Y-124910632D01*
X147579707Y-124910632D01*
X147579710Y-124910634D01*
X147672244Y-124940700D01*
X147775591Y-124974280D01*
X147877305Y-124990390D01*
X147979019Y-125006500D01*
X147979020Y-125006500D01*
X148184980Y-125006500D01*
X148184981Y-125006500D01*
X148388408Y-124974280D01*
X148584290Y-124910634D01*
X148585682Y-124909925D01*
X148588927Y-124908271D01*
X148767803Y-124817129D01*
X148934430Y-124696068D01*
X149080068Y-124550430D01*
X149201129Y-124383803D01*
X149294634Y-124200290D01*
X149358280Y-124004408D01*
X149390500Y-123800981D01*
X149390500Y-123595019D01*
X154393500Y-123595019D01*
X154393500Y-123800980D01*
X154425719Y-124004408D01*
X154489367Y-124200294D01*
X154582873Y-124383806D01*
X154703926Y-124550423D01*
X154703930Y-124550428D01*
X154849571Y-124696069D01*
X154849576Y-124696073D01*
X154982704Y-124792795D01*
X155016197Y-124817129D01*
X155097653Y-124858633D01*
X155199705Y-124910632D01*
X155199707Y-124910632D01*
X155199710Y-124910634D01*
X155292244Y-124940700D01*
X155395591Y-124974280D01*
X155497305Y-124990390D01*
X155599019Y-125006500D01*
X155599020Y-125006500D01*
X155804980Y-125006500D01*
X155804981Y-125006500D01*
X156008408Y-124974280D01*
X156204290Y-124910634D01*
X156205682Y-124909925D01*
X156208927Y-124908271D01*
X156387803Y-124817129D01*
X156554430Y-124696068D01*
X156700068Y-124550430D01*
X156821129Y-124383803D01*
X156914634Y-124200290D01*
X156978280Y-124004408D01*
X157010500Y-123800981D01*
X157010500Y-123595019D01*
X156985669Y-123438242D01*
X156978280Y-123391591D01*
X156936109Y-123261803D01*
X156914634Y-123195710D01*
X156914632Y-123195707D01*
X156914632Y-123195705D01*
X156859253Y-123087019D01*
X156821129Y-123012197D01*
X156802628Y-122986732D01*
X156774487Y-122947999D01*
X167276500Y-122947999D01*
X167276500Y-124448002D01*
X167281726Y-124521077D01*
X167281727Y-124521083D01*
X167322902Y-124661313D01*
X167322902Y-124661314D01*
X167401921Y-124784269D01*
X167401922Y-124784270D01*
X167401923Y-124784271D01*
X167512381Y-124879984D01*
X167577942Y-124909925D01*
X167645326Y-124940699D01*
X167645329Y-124940699D01*
X167645330Y-124940700D01*
X167790000Y-124961500D01*
X167790003Y-124961500D01*
X168355819Y-124961500D01*
X168355826Y-124961500D01*
X168488732Y-124944002D01*
X168615899Y-124909927D01*
X168707006Y-124872189D01*
X168739734Y-124858633D01*
X168739737Y-124858631D01*
X168739743Y-124858629D01*
X168853757Y-124792803D01*
X168960106Y-124711198D01*
X168960110Y-124711193D01*
X168960115Y-124711190D01*
X169053190Y-124618115D01*
X169053193Y-124618110D01*
X169053198Y-124618106D01*
X169134803Y-124511757D01*
X169200629Y-124397743D01*
X169251927Y-124273899D01*
X169286002Y-124146732D01*
X169302672Y-124020113D01*
X169330939Y-123956218D01*
X169389263Y-123917747D01*
X169425611Y-123912300D01*
X170265125Y-123912300D01*
X170332164Y-123931985D01*
X170352807Y-123948620D01*
X170388661Y-123984475D01*
X170388665Y-123984478D01*
X170537457Y-124083898D01*
X170537461Y-124083900D01*
X170537464Y-124083902D01*
X170702800Y-124152387D01*
X170878316Y-124187299D01*
X170878320Y-124187300D01*
X170878321Y-124187300D01*
X171057280Y-124187300D01*
X171057281Y-124187299D01*
X171232800Y-124152387D01*
X171398136Y-124083902D01*
X171546935Y-123984478D01*
X171673478Y-123857935D01*
X171772902Y-123709136D01*
X171841387Y-123543800D01*
X171876300Y-123368279D01*
X171876300Y-123189321D01*
X171841387Y-123013800D01*
X171772902Y-122848464D01*
X171772900Y-122848461D01*
X171772898Y-122848457D01*
X171673478Y-122699665D01*
X171673475Y-122699661D01*
X171546938Y-122573124D01*
X171546934Y-122573121D01*
X171398142Y-122473701D01*
X171398132Y-122473696D01*
X171232800Y-122405213D01*
X171232792Y-122405211D01*
X171057283Y-122370300D01*
X171057279Y-122370300D01*
X170878321Y-122370300D01*
X170878316Y-122370300D01*
X170702807Y-122405211D01*
X170702799Y-122405213D01*
X170537467Y-122473696D01*
X170537457Y-122473701D01*
X170388665Y-122573121D01*
X170388661Y-122573124D01*
X170352807Y-122608980D01*
X170291485Y-122642466D01*
X170265125Y-122645300D01*
X168950719Y-122645300D01*
X168883680Y-122625615D01*
X168875238Y-122619680D01*
X168853757Y-122603197D01*
X168853751Y-122603193D01*
X168853749Y-122603192D01*
X168739750Y-122537374D01*
X168739734Y-122537366D01*
X168615902Y-122486074D01*
X168615900Y-122486073D01*
X168615899Y-122486073D01*
X168488732Y-122451998D01*
X168488731Y-122451997D01*
X168488728Y-122451997D01*
X168355833Y-122434500D01*
X168355826Y-122434500D01*
X167790000Y-122434500D01*
X167789997Y-122434500D01*
X167716922Y-122439726D01*
X167716916Y-122439727D01*
X167576686Y-122480902D01*
X167576685Y-122480902D01*
X167453730Y-122559921D01*
X167358017Y-122670379D01*
X167358014Y-122670385D01*
X167297300Y-122803326D01*
X167297299Y-122803331D01*
X167276500Y-122947999D01*
X156774487Y-122947999D01*
X156700073Y-122845576D01*
X156700069Y-122845571D01*
X156554428Y-122699930D01*
X156554423Y-122699926D01*
X156387806Y-122578873D01*
X156387805Y-122578872D01*
X156387803Y-122578871D01*
X156323642Y-122546179D01*
X156204294Y-122485367D01*
X156008408Y-122421719D01*
X155832794Y-122393905D01*
X155804981Y-122389500D01*
X155599019Y-122389500D01*
X155574550Y-122393375D01*
X155395591Y-122421719D01*
X155199705Y-122485367D01*
X155016193Y-122578873D01*
X154849576Y-122699926D01*
X154849571Y-122699930D01*
X154703930Y-122845571D01*
X154703926Y-122845576D01*
X154582873Y-123012193D01*
X154489367Y-123195705D01*
X154425719Y-123391591D01*
X154393500Y-123595019D01*
X149390500Y-123595019D01*
X149358280Y-123391592D01*
X149358269Y-123391558D01*
X149357984Y-123389717D01*
X149362560Y-123355238D01*
X149367005Y-123320845D01*
X149367154Y-123320626D01*
X149367177Y-123320455D01*
X149367666Y-123319877D01*
X149392839Y-123283063D01*
X150963986Y-121711919D01*
X151025309Y-121678434D01*
X151051667Y-121675600D01*
X160774895Y-121675600D01*
X160774896Y-121675599D01*
X160897285Y-121651255D01*
X161012575Y-121603500D01*
X161116333Y-121534171D01*
X161829323Y-120821179D01*
X161890644Y-120787696D01*
X161960335Y-120792680D01*
X162004683Y-120821181D01*
X162069571Y-120886069D01*
X162069576Y-120886073D01*
X162197157Y-120978765D01*
X162236197Y-121007129D01*
X162336339Y-121058154D01*
X162419705Y-121100632D01*
X162419707Y-121100632D01*
X162419710Y-121100634D01*
X162474964Y-121118587D01*
X162615591Y-121164280D01*
X162710291Y-121179279D01*
X162819019Y-121196500D01*
X162819020Y-121196500D01*
X163824980Y-121196500D01*
X163824981Y-121196500D01*
X164028408Y-121164280D01*
X164224290Y-121100634D01*
X164407803Y-121007129D01*
X164574430Y-120886068D01*
X164674966Y-120785532D01*
X164736289Y-120752047D01*
X164805981Y-120757031D01*
X164850328Y-120785532D01*
X165497929Y-121433133D01*
X165549490Y-121484694D01*
X165586168Y-121521372D01*
X165689918Y-121590696D01*
X165689924Y-121590699D01*
X165689925Y-121590700D01*
X165805215Y-121638455D01*
X165927601Y-121662799D01*
X165927605Y-121662800D01*
X165927606Y-121662800D01*
X175024824Y-121662800D01*
X175091863Y-121682485D01*
X175137618Y-121735289D01*
X175147562Y-121804447D01*
X175118537Y-121868003D01*
X175112505Y-121874481D01*
X175109424Y-121877561D01*
X175109421Y-121877565D01*
X175010001Y-122026357D01*
X175009996Y-122026367D01*
X174941513Y-122191699D01*
X174941511Y-122191707D01*
X174913070Y-122334691D01*
X174880685Y-122396602D01*
X174819970Y-122431176D01*
X174791453Y-122434500D01*
X174505997Y-122434500D01*
X174432922Y-122439726D01*
X174432916Y-122439727D01*
X174292686Y-122480902D01*
X174292685Y-122480902D01*
X174169730Y-122559921D01*
X174074017Y-122670379D01*
X174074014Y-122670385D01*
X174013300Y-122803326D01*
X174013299Y-122803331D01*
X173992500Y-122947999D01*
X173992500Y-124448002D01*
X173997726Y-124521077D01*
X173997727Y-124521083D01*
X174038902Y-124661313D01*
X174038902Y-124661314D01*
X174117921Y-124784269D01*
X174117922Y-124784270D01*
X174117923Y-124784271D01*
X174228381Y-124879984D01*
X174293942Y-124909925D01*
X174361326Y-124940699D01*
X174361329Y-124940699D01*
X174361330Y-124940700D01*
X174506000Y-124961500D01*
X174506003Y-124961500D01*
X175071819Y-124961500D01*
X175071826Y-124961500D01*
X175204732Y-124944002D01*
X175331899Y-124909927D01*
X175423006Y-124872189D01*
X175455734Y-124858633D01*
X175455737Y-124858631D01*
X175455743Y-124858629D01*
X175569757Y-124792803D01*
X175676106Y-124711198D01*
X175676110Y-124711193D01*
X175676115Y-124711190D01*
X175769190Y-124618115D01*
X175769193Y-124618110D01*
X175769198Y-124618106D01*
X175850803Y-124511757D01*
X175916629Y-124397743D01*
X175967927Y-124273899D01*
X176002002Y-124146732D01*
X176019500Y-124013826D01*
X176019500Y-123438242D01*
X176039185Y-123371203D01*
X176091989Y-123325448D01*
X176096024Y-123323690D01*
X176245436Y-123261802D01*
X176394235Y-123162378D01*
X176520778Y-123035835D01*
X176620202Y-122887036D01*
X176688687Y-122721700D01*
X176723600Y-122546179D01*
X176723600Y-122367221D01*
X176723600Y-122367220D01*
X176723599Y-122367211D01*
X176688733Y-122191932D01*
X176688687Y-122191700D01*
X176620202Y-122026364D01*
X176620200Y-122026361D01*
X176620198Y-122026357D01*
X176520778Y-121877565D01*
X176520775Y-121877561D01*
X176517695Y-121874481D01*
X176484210Y-121813158D01*
X176489194Y-121743466D01*
X176531066Y-121687533D01*
X176596530Y-121663116D01*
X176605376Y-121662800D01*
X180528395Y-121662800D01*
X180528396Y-121662799D01*
X180650785Y-121638455D01*
X180766075Y-121590700D01*
X180858978Y-121528624D01*
X180925653Y-121507747D01*
X180993033Y-121526231D01*
X181015548Y-121544046D01*
X181119571Y-121648069D01*
X181119576Y-121648073D01*
X181286195Y-121769128D01*
X181365459Y-121809516D01*
X181416254Y-121857490D01*
X181433049Y-121925311D01*
X181410511Y-121991446D01*
X181365459Y-122030484D01*
X181286195Y-122070871D01*
X181119576Y-122191926D01*
X181119571Y-122191930D01*
X180973930Y-122337571D01*
X180973926Y-122337576D01*
X180852873Y-122504193D01*
X180759367Y-122687705D01*
X180695719Y-122883591D01*
X180671607Y-123035834D01*
X180663500Y-123087019D01*
X180663500Y-123292981D01*
X180667879Y-123320626D01*
X180695719Y-123496408D01*
X180759367Y-123692294D01*
X180814747Y-123800981D01*
X180843768Y-123857938D01*
X180852873Y-123875806D01*
X180973926Y-124042423D01*
X180973930Y-124042428D01*
X181119571Y-124188069D01*
X181119576Y-124188073D01*
X181237707Y-124273899D01*
X181286197Y-124309129D01*
X181403128Y-124368709D01*
X181469705Y-124402632D01*
X181469707Y-124402632D01*
X181469710Y-124402634D01*
X181560437Y-124432113D01*
X181665591Y-124466280D01*
X181767305Y-124482390D01*
X181869019Y-124498500D01*
X181869020Y-124498500D01*
X182874980Y-124498500D01*
X182874981Y-124498500D01*
X183078408Y-124466280D01*
X183274290Y-124402634D01*
X183457803Y-124309129D01*
X183624430Y-124188068D01*
X183770068Y-124042430D01*
X183891129Y-123875803D01*
X183984634Y-123692290D01*
X184048280Y-123496408D01*
X184080500Y-123292981D01*
X184080500Y-123087019D01*
X184058481Y-122947999D01*
X184048280Y-122883591D01*
X183988605Y-122699932D01*
X183984634Y-122687710D01*
X183984632Y-122687707D01*
X183984632Y-122687705D01*
X183934566Y-122589447D01*
X183891129Y-122504197D01*
X183874204Y-122480902D01*
X183770073Y-122337576D01*
X183770069Y-122337571D01*
X183624428Y-122191930D01*
X183624423Y-122191926D01*
X183457806Y-122070873D01*
X183457805Y-122070872D01*
X183457803Y-122070871D01*
X183378540Y-122030484D01*
X183327745Y-121982510D01*
X183310950Y-121914689D01*
X183333487Y-121848554D01*
X183378541Y-121809515D01*
X183457803Y-121769129D01*
X183624430Y-121648068D01*
X183770068Y-121502430D01*
X183891129Y-121335803D01*
X183984634Y-121152290D01*
X184048280Y-120956408D01*
X184080500Y-120752981D01*
X184080500Y-120547019D01*
X184058052Y-120405290D01*
X184048280Y-120343591D01*
X184024082Y-120269119D01*
X184022087Y-120199278D01*
X184058167Y-120139445D01*
X184120867Y-120108616D01*
X184142013Y-120106800D01*
X188221987Y-120106800D01*
X188289026Y-120126485D01*
X188334781Y-120179289D01*
X188344725Y-120248447D01*
X188339918Y-120269119D01*
X188315719Y-120343591D01*
X188294004Y-120480700D01*
X188283500Y-120547019D01*
X188283500Y-120752981D01*
X188287905Y-120780794D01*
X188315719Y-120956408D01*
X188379367Y-121152294D01*
X188472873Y-121335806D01*
X188593926Y-121502423D01*
X188593930Y-121502428D01*
X188593932Y-121502430D01*
X188739570Y-121648068D01*
X188821138Y-121707330D01*
X188863803Y-121762659D01*
X188869782Y-121832272D01*
X188837177Y-121894068D01*
X188787257Y-121925354D01*
X188719262Y-121947885D01*
X188719259Y-121947886D01*
X188568346Y-122040971D01*
X188442971Y-122166346D01*
X188349886Y-122317259D01*
X188349884Y-122317264D01*
X188294113Y-122485572D01*
X188283500Y-122589447D01*
X188283500Y-123790537D01*
X188283501Y-123790553D01*
X188294113Y-123894427D01*
X188312071Y-123948620D01*
X188349885Y-124062738D01*
X188442970Y-124213652D01*
X188568348Y-124339030D01*
X188719262Y-124432115D01*
X188887574Y-124487887D01*
X188991455Y-124498500D01*
X190992544Y-124498499D01*
X191096426Y-124487887D01*
X191264738Y-124432115D01*
X191415652Y-124339030D01*
X191541030Y-124213652D01*
X191634115Y-124062738D01*
X191689887Y-123894426D01*
X191700500Y-123790545D01*
X191700499Y-122589456D01*
X191689887Y-122485574D01*
X191634115Y-122317262D01*
X191541030Y-122166348D01*
X191415652Y-122040970D01*
X191312364Y-121977261D01*
X191264740Y-121947886D01*
X191264735Y-121947884D01*
X191196743Y-121925354D01*
X191139298Y-121885581D01*
X191112475Y-121821065D01*
X191124790Y-121752290D01*
X191162861Y-121707330D01*
X191240042Y-121651256D01*
X191244426Y-121648071D01*
X191244426Y-121648070D01*
X191244430Y-121648068D01*
X191390068Y-121502430D01*
X191511129Y-121335803D01*
X191604634Y-121152290D01*
X191633591Y-121063168D01*
X191635143Y-121060898D01*
X191635340Y-121058154D01*
X191654747Y-121032229D01*
X191673029Y-121005494D01*
X191675563Y-121004422D01*
X191677212Y-121002221D01*
X191707551Y-120990904D01*
X191737388Y-120978296D01*
X191740098Y-120978765D01*
X191742676Y-120977804D01*
X191774318Y-120984687D01*
X191806234Y-120990211D01*
X191809083Y-120992250D01*
X191810949Y-120992656D01*
X191839203Y-121013807D01*
X191879229Y-121053833D01*
X191926028Y-121100632D01*
X191967468Y-121142072D01*
X192071218Y-121211396D01*
X192071230Y-121211403D01*
X192112952Y-121228684D01*
X192167356Y-121272524D01*
X192189421Y-121338818D01*
X192189500Y-121343245D01*
X192189500Y-121548654D01*
X192196011Y-121609202D01*
X192196011Y-121609204D01*
X192232611Y-121707329D01*
X192247111Y-121746204D01*
X192334739Y-121863261D01*
X192451796Y-121950889D01*
X192588799Y-122001989D01*
X192616050Y-122004918D01*
X192649345Y-122008499D01*
X192649362Y-122008500D01*
X194446638Y-122008500D01*
X194446654Y-122008499D01*
X194473692Y-122005591D01*
X194507201Y-122001989D01*
X194644204Y-121950889D01*
X194761261Y-121863261D01*
X194848889Y-121746204D01*
X194899989Y-121609201D01*
X194903591Y-121575692D01*
X194906499Y-121548654D01*
X194906500Y-121548637D01*
X194906500Y-119751362D01*
X194906499Y-119751345D01*
X194902686Y-119715886D01*
X194899989Y-119690799D01*
X194885095Y-119650868D01*
X194864851Y-119596591D01*
X194848889Y-119553796D01*
X194761261Y-119436739D01*
X194644204Y-119349111D01*
X194644202Y-119349110D01*
X194644204Y-119349110D01*
X194523375Y-119304043D01*
X194467441Y-119262172D01*
X194443025Y-119196707D01*
X194457877Y-119128434D01*
X194479022Y-119100187D01*
X194584206Y-118995004D01*
X194709894Y-118822009D01*
X194806972Y-118631483D01*
X194873049Y-118428116D01*
X194906500Y-118216916D01*
X194906500Y-118003084D01*
X194873049Y-117791884D01*
X194828381Y-117654408D01*
X194806973Y-117588519D01*
X194806972Y-117588516D01*
X194728365Y-117434243D01*
X194709894Y-117397991D01*
X194584206Y-117224996D01*
X194433004Y-117073794D01*
X194260009Y-116948106D01*
X194260005Y-116948103D01*
X194256132Y-116945730D01*
X194209254Y-116893920D01*
X194197829Y-116824991D01*
X194225483Y-116760827D01*
X194256132Y-116734270D01*
X194260005Y-116731896D01*
X194260004Y-116731896D01*
X194260009Y-116731894D01*
X194433004Y-116606206D01*
X194584206Y-116455004D01*
X194709894Y-116282009D01*
X194806972Y-116091483D01*
X194873049Y-115888116D01*
X194906500Y-115676916D01*
X194906500Y-115463084D01*
X194873049Y-115251884D01*
X194835537Y-115136433D01*
X194806973Y-115048519D01*
X194806972Y-115048516D01*
X194749293Y-114935315D01*
X194709894Y-114857991D01*
X194584206Y-114684996D01*
X194433004Y-114533794D01*
X194260009Y-114408106D01*
X194215621Y-114385489D01*
X194069483Y-114311027D01*
X194069480Y-114311026D01*
X193866117Y-114244951D01*
X193705091Y-114219447D01*
X193654916Y-114211500D01*
X193441084Y-114211500D01*
X193390909Y-114219447D01*
X193229882Y-114244951D01*
X193026519Y-114311026D01*
X193026516Y-114311027D01*
X192835990Y-114408106D01*
X192662993Y-114533796D01*
X192511796Y-114684993D01*
X192386106Y-114857990D01*
X192289027Y-115048516D01*
X192289026Y-115048519D01*
X192222951Y-115251882D01*
X192190858Y-115454507D01*
X192189500Y-115463084D01*
X192189500Y-115676916D01*
X192191656Y-115690527D01*
X192222951Y-115888117D01*
X192273659Y-116044182D01*
X192275654Y-116114023D01*
X192239573Y-116173856D01*
X192176872Y-116204684D01*
X192155728Y-116206500D01*
X191731698Y-116206500D01*
X191664659Y-116186815D01*
X191618904Y-116134011D01*
X191608960Y-116064853D01*
X191613767Y-116044182D01*
X191668279Y-115876412D01*
X191668279Y-115876411D01*
X191668280Y-115876408D01*
X191700500Y-115672981D01*
X191700500Y-115467019D01*
X191689616Y-115398303D01*
X191668280Y-115263591D01*
X191619432Y-115113254D01*
X191604634Y-115067710D01*
X191604632Y-115067707D01*
X191604632Y-115067705D01*
X191537175Y-114935315D01*
X191511129Y-114884197D01*
X191492089Y-114857990D01*
X191390073Y-114717576D01*
X191390069Y-114717571D01*
X191244428Y-114571930D01*
X191244423Y-114571926D01*
X191077806Y-114450873D01*
X191077805Y-114450872D01*
X191077803Y-114450871D01*
X190998540Y-114410484D01*
X190947745Y-114362510D01*
X190930950Y-114294689D01*
X190953487Y-114228554D01*
X190998541Y-114189515D01*
X191077803Y-114149129D01*
X191244430Y-114028068D01*
X191390068Y-113882430D01*
X191511129Y-113715803D01*
X191604634Y-113532290D01*
X191668280Y-113336408D01*
X191700500Y-113132981D01*
X191700500Y-112927019D01*
X191674058Y-112760072D01*
X191668280Y-112723591D01*
X191604632Y-112527705D01*
X191570709Y-112461128D01*
X191511129Y-112344197D01*
X191495661Y-112322908D01*
X191390073Y-112177576D01*
X191390069Y-112177571D01*
X191244428Y-112031930D01*
X191244423Y-112031926D01*
X191077806Y-111910873D01*
X191077805Y-111910872D01*
X191077803Y-111910871D01*
X190998540Y-111870484D01*
X190947745Y-111822510D01*
X190930950Y-111754689D01*
X190953487Y-111688554D01*
X190998541Y-111649515D01*
X191077803Y-111609129D01*
X191244430Y-111488068D01*
X191390068Y-111342430D01*
X191511129Y-111175803D01*
X191604634Y-110992290D01*
X191668280Y-110796408D01*
X191700500Y-110592981D01*
X191700500Y-110387019D01*
X191696458Y-110361500D01*
X191668280Y-110183591D01*
X191604632Y-109987705D01*
X191570709Y-109921128D01*
X191511129Y-109804197D01*
X191495661Y-109782908D01*
X191390073Y-109637576D01*
X191390069Y-109637571D01*
X191244428Y-109491930D01*
X191244423Y-109491926D01*
X191077806Y-109370873D01*
X191077805Y-109370872D01*
X191077803Y-109370871D01*
X190989180Y-109325715D01*
X190938384Y-109277740D01*
X190921589Y-109209919D01*
X190944127Y-109143784D01*
X190989181Y-109104745D01*
X191073347Y-109061861D01*
X191238894Y-108941582D01*
X191238895Y-108941582D01*
X191383582Y-108796895D01*
X191383582Y-108796894D01*
X191503859Y-108631349D01*
X191596755Y-108449029D01*
X191659990Y-108254413D01*
X191668609Y-108200000D01*
X190307686Y-108200000D01*
X190312080Y-108195606D01*
X190364741Y-108104394D01*
X190392000Y-108002661D01*
X190392000Y-107897339D01*
X190364741Y-107795606D01*
X190312080Y-107704394D01*
X190307686Y-107700000D01*
X191668609Y-107700000D01*
X191659990Y-107645586D01*
X191596755Y-107450970D01*
X191503859Y-107268650D01*
X191383582Y-107103105D01*
X191383582Y-107103104D01*
X191238897Y-106958419D01*
X191235773Y-106955751D01*
X191197580Y-106897244D01*
X191197080Y-106827377D01*
X191228620Y-106773783D01*
X192411430Y-105590973D01*
X192472749Y-105557491D01*
X192542441Y-105562475D01*
X192586788Y-105590976D01*
X192668535Y-105672723D01*
X192668540Y-105672727D01*
X192840442Y-105797620D01*
X193029782Y-105894095D01*
X193231871Y-105959757D01*
X193298000Y-105970231D01*
X193298000Y-105076012D01*
X193355007Y-105108925D01*
X193482174Y-105143000D01*
X193613826Y-105143000D01*
X193740993Y-105108925D01*
X193798000Y-105076012D01*
X193798000Y-105970230D01*
X193864126Y-105959757D01*
X193864129Y-105959757D01*
X194066217Y-105894095D01*
X194255557Y-105797620D01*
X194427459Y-105672727D01*
X194427464Y-105672723D01*
X194577723Y-105522464D01*
X194577727Y-105522459D01*
X194702620Y-105350557D01*
X194799095Y-105161217D01*
X194864757Y-104959129D01*
X194864757Y-104959126D01*
X194875231Y-104893000D01*
X193981012Y-104893000D01*
X194013925Y-104835993D01*
X194048000Y-104708826D01*
X194048000Y-104577174D01*
X194013925Y-104450007D01*
X193981012Y-104393000D01*
X194875231Y-104393000D01*
X194864757Y-104326873D01*
X194864757Y-104326870D01*
X194799095Y-104124782D01*
X194702620Y-103935442D01*
X194577727Y-103763540D01*
X194577723Y-103763535D01*
X194470272Y-103656084D01*
X194436787Y-103594761D01*
X194441771Y-103525069D01*
X194483643Y-103469136D01*
X194514612Y-103452224D01*
X194644204Y-103403889D01*
X194761261Y-103316261D01*
X194848889Y-103199204D01*
X194899989Y-103062201D01*
X194903591Y-103028692D01*
X194906499Y-103001654D01*
X194906500Y-103001637D01*
X194906500Y-101204362D01*
X194906499Y-101204345D01*
X194903157Y-101173270D01*
X194899989Y-101143799D01*
X194887356Y-101109930D01*
X194877522Y-101083564D01*
X194848889Y-101006796D01*
X194761261Y-100889739D01*
X194644204Y-100802111D01*
X194626839Y-100795634D01*
X194507203Y-100751011D01*
X194446654Y-100744500D01*
X194446638Y-100744500D01*
X192649362Y-100744500D01*
X192649345Y-100744500D01*
X192588797Y-100751011D01*
X192588795Y-100751011D01*
X192451795Y-100802111D01*
X192334739Y-100889739D01*
X192247111Y-101006795D01*
X192196011Y-101143795D01*
X192196011Y-101143797D01*
X192189500Y-101204345D01*
X192189500Y-103001654D01*
X192196011Y-103062202D01*
X192196011Y-103062204D01*
X192250210Y-103207512D01*
X192247393Y-103208562D01*
X192259037Y-103262158D01*
X192234601Y-103327615D01*
X192223037Y-103340958D01*
X192094860Y-103469136D01*
X191967467Y-103596529D01*
X191879229Y-103684767D01*
X191875583Y-103690223D01*
X191867451Y-103698515D01*
X191846619Y-103710154D01*
X191828293Y-103725437D01*
X191816676Y-103726883D01*
X191806456Y-103732594D01*
X191782636Y-103731122D01*
X191758959Y-103734071D01*
X191748404Y-103729007D01*
X191736720Y-103728286D01*
X191717478Y-103714171D01*
X191695963Y-103703850D01*
X191688545Y-103692948D01*
X191680382Y-103686960D01*
X191675082Y-103673160D01*
X191662742Y-103655025D01*
X191642889Y-103601796D01*
X191555261Y-103484739D01*
X191438204Y-103397111D01*
X191412943Y-103387689D01*
X191301204Y-103346011D01*
X191284101Y-103344172D01*
X191219551Y-103317432D01*
X191179705Y-103260038D01*
X191177214Y-103190212D01*
X191212869Y-103130125D01*
X191224479Y-103120563D01*
X191244430Y-103106068D01*
X191390068Y-102960430D01*
X191511129Y-102793803D01*
X191604634Y-102610290D01*
X191668280Y-102414408D01*
X191700500Y-102210981D01*
X191700500Y-102005019D01*
X191668280Y-101801592D01*
X191604634Y-101605710D01*
X191604632Y-101605707D01*
X191604632Y-101605705D01*
X191550182Y-101498843D01*
X191511129Y-101422197D01*
X191495661Y-101400908D01*
X191390073Y-101255576D01*
X191390069Y-101255571D01*
X191244428Y-101109930D01*
X191244423Y-101109926D01*
X191077806Y-100988873D01*
X191077805Y-100988872D01*
X191077803Y-100988871D01*
X190998540Y-100948484D01*
X190947745Y-100900510D01*
X190930950Y-100832689D01*
X190953487Y-100766554D01*
X190998541Y-100727515D01*
X191077803Y-100687129D01*
X191244430Y-100566068D01*
X191390068Y-100420430D01*
X191511129Y-100253803D01*
X191604634Y-100070290D01*
X191668280Y-99874408D01*
X191700500Y-99670981D01*
X191700500Y-99465019D01*
X191668280Y-99261592D01*
X191668279Y-99261590D01*
X191617016Y-99103819D01*
X191604634Y-99065710D01*
X191604632Y-99065707D01*
X191604632Y-99065705D01*
X191570709Y-98999128D01*
X191511129Y-98882197D01*
X191495661Y-98860908D01*
X191390073Y-98715576D01*
X191390069Y-98715571D01*
X191244428Y-98569930D01*
X191244423Y-98569926D01*
X191077806Y-98448873D01*
X191077805Y-98448872D01*
X191077803Y-98448871D01*
X190998540Y-98408484D01*
X190947745Y-98360510D01*
X190930950Y-98292689D01*
X190953487Y-98226554D01*
X190998541Y-98187515D01*
X191077803Y-98147129D01*
X191244430Y-98026068D01*
X191390068Y-97880430D01*
X191511129Y-97713803D01*
X191604634Y-97530290D01*
X191668280Y-97334408D01*
X191700500Y-97130981D01*
X191700500Y-96925019D01*
X191668280Y-96721592D01*
X191658021Y-96690019D01*
X191635329Y-96620178D01*
X191604634Y-96525710D01*
X191604632Y-96525707D01*
X191604632Y-96525705D01*
X191550182Y-96418843D01*
X191511129Y-96342197D01*
X191450069Y-96258155D01*
X191390073Y-96175576D01*
X191390069Y-96175571D01*
X191244428Y-96029930D01*
X191244423Y-96029926D01*
X191077806Y-95908873D01*
X191077805Y-95908872D01*
X191077803Y-95908871D01*
X190998540Y-95868484D01*
X190947745Y-95820510D01*
X190930950Y-95752689D01*
X190953487Y-95686554D01*
X190998541Y-95647515D01*
X191077803Y-95607129D01*
X191244430Y-95486068D01*
X191390068Y-95340430D01*
X191511129Y-95173803D01*
X191604634Y-94990290D01*
X191668280Y-94794408D01*
X191700500Y-94590981D01*
X191700500Y-94385019D01*
X191691921Y-94330851D01*
X191668280Y-94181591D01*
X191624570Y-94047066D01*
X191604634Y-93985710D01*
X191604632Y-93985707D01*
X191604632Y-93985705D01*
X191570709Y-93919128D01*
X191511129Y-93802197D01*
X191429441Y-93689762D01*
X191390073Y-93635576D01*
X191390069Y-93635571D01*
X191244428Y-93489930D01*
X191244423Y-93489926D01*
X191077806Y-93368873D01*
X191077805Y-93368872D01*
X191077803Y-93368871D01*
X190998540Y-93328484D01*
X190947745Y-93280510D01*
X190930950Y-93212689D01*
X190953487Y-93146554D01*
X190998541Y-93107515D01*
X191077803Y-93067129D01*
X191244430Y-92946068D01*
X191390068Y-92800430D01*
X191511129Y-92633803D01*
X191604634Y-92450290D01*
X191668280Y-92254408D01*
X191700500Y-92050981D01*
X191700500Y-91845019D01*
X191668280Y-91641592D01*
X191604634Y-91445710D01*
X191604632Y-91445707D01*
X191604632Y-91445705D01*
X191562692Y-91363395D01*
X191511129Y-91262197D01*
X191495661Y-91240908D01*
X191390073Y-91095576D01*
X191390069Y-91095571D01*
X191244428Y-90949930D01*
X191244423Y-90949926D01*
X191077806Y-90828873D01*
X191077805Y-90828872D01*
X191077803Y-90828871D01*
X190998540Y-90788484D01*
X190947745Y-90740510D01*
X190930950Y-90672689D01*
X190953487Y-90606554D01*
X190998541Y-90567515D01*
X191077803Y-90527129D01*
X191244430Y-90406068D01*
X191390068Y-90260430D01*
X191511129Y-90093803D01*
X191604634Y-89910290D01*
X191668280Y-89714408D01*
X191700500Y-89510981D01*
X191700500Y-89305019D01*
X191668280Y-89101592D01*
X191604634Y-88905710D01*
X191604632Y-88905707D01*
X191604632Y-88905705D01*
X191550182Y-88798843D01*
X191511129Y-88722197D01*
X191495661Y-88700908D01*
X191390073Y-88555576D01*
X191390069Y-88555571D01*
X191244428Y-88409930D01*
X191244423Y-88409926D01*
X191077806Y-88288873D01*
X191077805Y-88288872D01*
X191077803Y-88288871D01*
X190998541Y-88248485D01*
X190989180Y-88243715D01*
X190938384Y-88195740D01*
X190921589Y-88127919D01*
X190944127Y-88061784D01*
X190989181Y-88022745D01*
X191073347Y-87979861D01*
X191238894Y-87859582D01*
X191238895Y-87859582D01*
X191383582Y-87714895D01*
X191383582Y-87714894D01*
X191503859Y-87549349D01*
X191596755Y-87367029D01*
X191659990Y-87172413D01*
X191668609Y-87118000D01*
X190307686Y-87118000D01*
X190312080Y-87113606D01*
X190364741Y-87022394D01*
X190392000Y-86920661D01*
X190392000Y-86815339D01*
X190364741Y-86713606D01*
X190312080Y-86622394D01*
X190307686Y-86618000D01*
X191668609Y-86618000D01*
X191659990Y-86563586D01*
X191596755Y-86368970D01*
X191503859Y-86186650D01*
X191383582Y-86021105D01*
X191383582Y-86021104D01*
X191238895Y-85876417D01*
X191073349Y-85756140D01*
X190891031Y-85663244D01*
X190696417Y-85600009D01*
X190494317Y-85568000D01*
X190242000Y-85568000D01*
X190242000Y-86552314D01*
X190237606Y-86547920D01*
X190146394Y-86495259D01*
X190044661Y-86468000D01*
X189939339Y-86468000D01*
X189837606Y-86495259D01*
X189746394Y-86547920D01*
X189742000Y-86552314D01*
X189742000Y-85568000D01*
X189489683Y-85568000D01*
X189287582Y-85600009D01*
X189092968Y-85663244D01*
X188910650Y-85756140D01*
X188745105Y-85876417D01*
X188745104Y-85876417D01*
X188600417Y-86021104D01*
X188600417Y-86021105D01*
X188480140Y-86186650D01*
X188387244Y-86368970D01*
X188324009Y-86563586D01*
X188315391Y-86618000D01*
X189676314Y-86618000D01*
X189671920Y-86622394D01*
X189619259Y-86713606D01*
X189592000Y-86815339D01*
X189592000Y-86920661D01*
X189619259Y-87022394D01*
X189671920Y-87113606D01*
X189676314Y-87118000D01*
X188315391Y-87118000D01*
X188324009Y-87172413D01*
X188387244Y-87367029D01*
X188480140Y-87549349D01*
X188600417Y-87714894D01*
X188600417Y-87714895D01*
X188745104Y-87859582D01*
X188910652Y-87979861D01*
X188994818Y-88022745D01*
X189045614Y-88070719D01*
X189062410Y-88138540D01*
X189039873Y-88204675D01*
X188994820Y-88243714D01*
X188906195Y-88288871D01*
X188739576Y-88409926D01*
X188739571Y-88409930D01*
X188593930Y-88555571D01*
X188593926Y-88555576D01*
X188472873Y-88722193D01*
X188379367Y-88905705D01*
X188315719Y-89101591D01*
X188283500Y-89305019D01*
X188283500Y-89510980D01*
X188315719Y-89714408D01*
X188379367Y-89910294D01*
X188472873Y-90093806D01*
X188593926Y-90260423D01*
X188593930Y-90260428D01*
X188739571Y-90406069D01*
X188739576Y-90406073D01*
X188906195Y-90527128D01*
X188985459Y-90567516D01*
X189036254Y-90615490D01*
X189053049Y-90683311D01*
X189030511Y-90749446D01*
X188985459Y-90788484D01*
X188906195Y-90828871D01*
X188739576Y-90949926D01*
X188739571Y-90949930D01*
X188593930Y-91095571D01*
X188593926Y-91095576D01*
X188472873Y-91262193D01*
X188379367Y-91445705D01*
X188315719Y-91641591D01*
X188283500Y-91845019D01*
X188283500Y-92050980D01*
X188315719Y-92254408D01*
X188379367Y-92450294D01*
X188412285Y-92514897D01*
X188460383Y-92609295D01*
X188472873Y-92633806D01*
X188593926Y-92800423D01*
X188593930Y-92800428D01*
X188739571Y-92946069D01*
X188739576Y-92946073D01*
X188906195Y-93067128D01*
X188985459Y-93107516D01*
X189036254Y-93155490D01*
X189053049Y-93223311D01*
X189030511Y-93289446D01*
X188985459Y-93328484D01*
X188906195Y-93368871D01*
X188739576Y-93489926D01*
X188739571Y-93489930D01*
X188593930Y-93635571D01*
X188593926Y-93635576D01*
X188472873Y-93802193D01*
X188379367Y-93985705D01*
X188315719Y-94181591D01*
X188283500Y-94385019D01*
X188283500Y-94590980D01*
X188315719Y-94794408D01*
X188379367Y-94990294D01*
X188472873Y-95173806D01*
X188593926Y-95340423D01*
X188593930Y-95340428D01*
X188739571Y-95486069D01*
X188739576Y-95486073D01*
X188906195Y-95607128D01*
X188985459Y-95647516D01*
X189036254Y-95695490D01*
X189053049Y-95763311D01*
X189030511Y-95829446D01*
X188985459Y-95868484D01*
X188906195Y-95908871D01*
X188739576Y-96029926D01*
X188739571Y-96029930D01*
X188593930Y-96175571D01*
X188593926Y-96175576D01*
X188470007Y-96346138D01*
X188468497Y-96345041D01*
X188422558Y-96386565D01*
X188392886Y-96396492D01*
X188280520Y-96418843D01*
X188280514Y-96418845D01*
X188171828Y-96463864D01*
X188171828Y-96463865D01*
X188166187Y-96466201D01*
X188165220Y-96466602D01*
X188061467Y-96535928D01*
X188061463Y-96535931D01*
X185699215Y-98898181D01*
X185637892Y-98931666D01*
X185611534Y-98934500D01*
X183992311Y-98934500D01*
X183925272Y-98914815D01*
X183891993Y-98883385D01*
X183770073Y-98715576D01*
X183770069Y-98715571D01*
X183624428Y-98569930D01*
X183624423Y-98569926D01*
X183457806Y-98448873D01*
X183457805Y-98448872D01*
X183457803Y-98448871D01*
X183378541Y-98408485D01*
X183369180Y-98403715D01*
X183318384Y-98355740D01*
X183301589Y-98287919D01*
X183324127Y-98221784D01*
X183369181Y-98182745D01*
X183453347Y-98139861D01*
X183618894Y-98019582D01*
X183618895Y-98019582D01*
X183763582Y-97874895D01*
X183763582Y-97874894D01*
X183883859Y-97709349D01*
X183976755Y-97527029D01*
X184039990Y-97332413D01*
X184048609Y-97278000D01*
X182687686Y-97278000D01*
X182692080Y-97273606D01*
X182744741Y-97182394D01*
X182772000Y-97080661D01*
X182772000Y-96975339D01*
X182744741Y-96873606D01*
X182692080Y-96782394D01*
X182687686Y-96778000D01*
X184048609Y-96778000D01*
X184039990Y-96723586D01*
X183976755Y-96528970D01*
X183883859Y-96346650D01*
X183763582Y-96181105D01*
X183763582Y-96181104D01*
X183618895Y-96036417D01*
X183453349Y-95916140D01*
X183369180Y-95873254D01*
X183318384Y-95825280D01*
X183301589Y-95757459D01*
X183324126Y-95691324D01*
X183369179Y-95652284D01*
X183457803Y-95607129D01*
X183624430Y-95486068D01*
X183770068Y-95340430D01*
X183891129Y-95173803D01*
X183984634Y-94990290D01*
X184048280Y-94794408D01*
X184080500Y-94590981D01*
X184080500Y-94385019D01*
X184071921Y-94330851D01*
X184048280Y-94181591D01*
X184004570Y-94047066D01*
X183984634Y-93985710D01*
X183984632Y-93985707D01*
X183984632Y-93985705D01*
X183950709Y-93919128D01*
X183891129Y-93802197D01*
X183809441Y-93689762D01*
X183770073Y-93635576D01*
X183770069Y-93635571D01*
X183624428Y-93489930D01*
X183624423Y-93489926D01*
X183457806Y-93368873D01*
X183457805Y-93368872D01*
X183457803Y-93368871D01*
X183378540Y-93328484D01*
X183327745Y-93280510D01*
X183310950Y-93212689D01*
X183333487Y-93146554D01*
X183378541Y-93107515D01*
X183457803Y-93067129D01*
X183624430Y-92946068D01*
X183770068Y-92800430D01*
X183891129Y-92633803D01*
X183984634Y-92450290D01*
X184048280Y-92254408D01*
X184080500Y-92050981D01*
X184080500Y-91845019D01*
X184048280Y-91641592D01*
X183984634Y-91445710D01*
X183984632Y-91445707D01*
X183984632Y-91445705D01*
X183942692Y-91363395D01*
X183891129Y-91262197D01*
X183875661Y-91240908D01*
X183770073Y-91095576D01*
X183770069Y-91095571D01*
X183624428Y-90949930D01*
X183624423Y-90949926D01*
X183457806Y-90828873D01*
X183457805Y-90828872D01*
X183457803Y-90828871D01*
X183378540Y-90788484D01*
X183327745Y-90740510D01*
X183310950Y-90672689D01*
X183333487Y-90606554D01*
X183378541Y-90567515D01*
X183457803Y-90527129D01*
X183624430Y-90406068D01*
X183770068Y-90260430D01*
X183891129Y-90093803D01*
X183984634Y-89910290D01*
X184048280Y-89714408D01*
X184080500Y-89510981D01*
X184080500Y-89305019D01*
X184048280Y-89101592D01*
X183984634Y-88905710D01*
X183984632Y-88905707D01*
X183984632Y-88905705D01*
X183930182Y-88798843D01*
X183891129Y-88722197D01*
X183875661Y-88700908D01*
X183770073Y-88555576D01*
X183770069Y-88555571D01*
X183624428Y-88409930D01*
X183624423Y-88409926D01*
X183457806Y-88288873D01*
X183457805Y-88288872D01*
X183457803Y-88288871D01*
X183378540Y-88248484D01*
X183327745Y-88200510D01*
X183310950Y-88132689D01*
X183333487Y-88066554D01*
X183378541Y-88027515D01*
X183457803Y-87987129D01*
X183624430Y-87866068D01*
X183770068Y-87720430D01*
X183891129Y-87553803D01*
X183984634Y-87370290D01*
X184048280Y-87174408D01*
X184080500Y-86970981D01*
X184080500Y-86765019D01*
X184048280Y-86561592D01*
X183984634Y-86365710D01*
X183984632Y-86365707D01*
X183984632Y-86365705D01*
X183950709Y-86299128D01*
X183891129Y-86182197D01*
X183875661Y-86160908D01*
X183770073Y-86015576D01*
X183770069Y-86015571D01*
X183624428Y-85869930D01*
X183624423Y-85869926D01*
X183457806Y-85748873D01*
X183457805Y-85748872D01*
X183457803Y-85748871D01*
X183400496Y-85719671D01*
X183274294Y-85655367D01*
X183078408Y-85591719D01*
X182902794Y-85563905D01*
X182874981Y-85559500D01*
X181869019Y-85559500D01*
X181844550Y-85563375D01*
X181665591Y-85591719D01*
X181469705Y-85655367D01*
X181286193Y-85748873D01*
X181119576Y-85869926D01*
X181119571Y-85869930D01*
X180973930Y-86015571D01*
X180973926Y-86015576D01*
X180852873Y-86182193D01*
X180759367Y-86365705D01*
X180695719Y-86561591D01*
X180663500Y-86765019D01*
X180663500Y-86970980D01*
X180695719Y-87174408D01*
X180759367Y-87370294D01*
X180813817Y-87477155D01*
X180845730Y-87539789D01*
X180852873Y-87553806D01*
X180973926Y-87720423D01*
X180973930Y-87720428D01*
X181119571Y-87866069D01*
X181119576Y-87866073D01*
X181286195Y-87987128D01*
X181365459Y-88027516D01*
X181416254Y-88075490D01*
X181433049Y-88143311D01*
X181410511Y-88209446D01*
X181365459Y-88248484D01*
X181286195Y-88288871D01*
X181119576Y-88409926D01*
X181119571Y-88409930D01*
X180973930Y-88555571D01*
X180973926Y-88555576D01*
X180852873Y-88722193D01*
X180759367Y-88905705D01*
X180695719Y-89101591D01*
X180663500Y-89305019D01*
X180663500Y-89510980D01*
X180695719Y-89714408D01*
X180759367Y-89910294D01*
X180852873Y-90093806D01*
X180973926Y-90260423D01*
X180973930Y-90260428D01*
X181119571Y-90406069D01*
X181119576Y-90406073D01*
X181286195Y-90527128D01*
X181365459Y-90567516D01*
X181416254Y-90615490D01*
X181433049Y-90683311D01*
X181410511Y-90749446D01*
X181365459Y-90788484D01*
X181286195Y-90828871D01*
X181119576Y-90949926D01*
X181119571Y-90949930D01*
X180973930Y-91095571D01*
X180973926Y-91095576D01*
X180850007Y-91266138D01*
X180848497Y-91265041D01*
X180802558Y-91306565D01*
X180772886Y-91316492D01*
X180660517Y-91338844D01*
X180660514Y-91338845D01*
X180626748Y-91352829D01*
X180626749Y-91352830D01*
X180545226Y-91386598D01*
X180545222Y-91386600D01*
X180441471Y-91455924D01*
X180441468Y-91455926D01*
X180385659Y-91511735D01*
X180324335Y-91545219D01*
X180254643Y-91540234D01*
X180198710Y-91498363D01*
X180180047Y-91462370D01*
X180177953Y-91455926D01*
X180174634Y-91445710D01*
X180081129Y-91262197D01*
X180065661Y-91240908D01*
X179960073Y-91095576D01*
X179960069Y-91095571D01*
X179814428Y-90949930D01*
X179814423Y-90949926D01*
X179647806Y-90828873D01*
X179647805Y-90828872D01*
X179647803Y-90828871D01*
X179568540Y-90788484D01*
X179517745Y-90740510D01*
X179500950Y-90672689D01*
X179523487Y-90606554D01*
X179568541Y-90567515D01*
X179647803Y-90527129D01*
X179814430Y-90406068D01*
X179960068Y-90260430D01*
X180081129Y-90093803D01*
X180174634Y-89910290D01*
X180238280Y-89714408D01*
X180270500Y-89510981D01*
X180270500Y-89305019D01*
X180238280Y-89101592D01*
X180174634Y-88905710D01*
X180174632Y-88905707D01*
X180174632Y-88905705D01*
X180120182Y-88798843D01*
X180081129Y-88722197D01*
X180065661Y-88700908D01*
X179960073Y-88555576D01*
X179960069Y-88555571D01*
X179814428Y-88409930D01*
X179814423Y-88409926D01*
X179647806Y-88288873D01*
X179647805Y-88288872D01*
X179647803Y-88288871D01*
X179568541Y-88248485D01*
X179559180Y-88243715D01*
X179508384Y-88195740D01*
X179491589Y-88127919D01*
X179514127Y-88061784D01*
X179559181Y-88022745D01*
X179643347Y-87979861D01*
X179808894Y-87859582D01*
X179808895Y-87859582D01*
X179953582Y-87714895D01*
X179953582Y-87714894D01*
X180073859Y-87549349D01*
X180166755Y-87367029D01*
X180229990Y-87172413D01*
X180238609Y-87118000D01*
X178877686Y-87118000D01*
X178882080Y-87113606D01*
X178934741Y-87022394D01*
X178962000Y-86920661D01*
X178962000Y-86815339D01*
X178934741Y-86713606D01*
X178882080Y-86622394D01*
X178877686Y-86618000D01*
X180238609Y-86618000D01*
X180229990Y-86563586D01*
X180166755Y-86368970D01*
X180073859Y-86186650D01*
X179953582Y-86021105D01*
X179953582Y-86021104D01*
X179808895Y-85876417D01*
X179643349Y-85756140D01*
X179461031Y-85663244D01*
X179266417Y-85600009D01*
X179064317Y-85568000D01*
X178812000Y-85568000D01*
X178812000Y-86552314D01*
X178807606Y-86547920D01*
X178716394Y-86495259D01*
X178614661Y-86468000D01*
X178509339Y-86468000D01*
X178407606Y-86495259D01*
X178316394Y-86547920D01*
X178312000Y-86552314D01*
X178312000Y-85568000D01*
X178059683Y-85568000D01*
X177857582Y-85600009D01*
X177662968Y-85663244D01*
X177480650Y-85756140D01*
X177315105Y-85876417D01*
X177315104Y-85876417D01*
X177170417Y-86021104D01*
X177170417Y-86021105D01*
X177050140Y-86186650D01*
X176957244Y-86368970D01*
X176894009Y-86563586D01*
X176885391Y-86618000D01*
X178246314Y-86618000D01*
X178241920Y-86622394D01*
X178189259Y-86713606D01*
X178162000Y-86815339D01*
X178162000Y-86920661D01*
X178189259Y-87022394D01*
X178241920Y-87113606D01*
X178246314Y-87118000D01*
X176885391Y-87118000D01*
X176894009Y-87172413D01*
X176957244Y-87367029D01*
X177050140Y-87549349D01*
X177170417Y-87714894D01*
X177170417Y-87714895D01*
X177315104Y-87859582D01*
X177480652Y-87979861D01*
X177564818Y-88022745D01*
X177615614Y-88070719D01*
X177632410Y-88138540D01*
X177609873Y-88204675D01*
X177564820Y-88243714D01*
X177476195Y-88288871D01*
X177309576Y-88409926D01*
X177309571Y-88409930D01*
X177163930Y-88555571D01*
X177163926Y-88555576D01*
X177040007Y-88726138D01*
X177038497Y-88725041D01*
X176992558Y-88766565D01*
X176962886Y-88776492D01*
X176850520Y-88798843D01*
X176850514Y-88798845D01*
X176735227Y-88846598D01*
X176735218Y-88846603D01*
X176631467Y-88915928D01*
X176631463Y-88915931D01*
X175667615Y-89879781D01*
X175606292Y-89913266D01*
X175579934Y-89916100D01*
X165103418Y-89916100D01*
X165036379Y-89896415D01*
X164990624Y-89843611D01*
X164980680Y-89774453D01*
X164985487Y-89753781D01*
X164998280Y-89714408D01*
X165030500Y-89510980D01*
X165030500Y-89305019D01*
X164998280Y-89101591D01*
X164968749Y-89010707D01*
X164934634Y-88905710D01*
X164934632Y-88905707D01*
X164934632Y-88905705D01*
X164880182Y-88798843D01*
X164841129Y-88722197D01*
X164825661Y-88700908D01*
X164720073Y-88555576D01*
X164720069Y-88555571D01*
X164574428Y-88409930D01*
X164574423Y-88409926D01*
X164407806Y-88288873D01*
X164407805Y-88288872D01*
X164407803Y-88288871D01*
X164328540Y-88248484D01*
X164277745Y-88200510D01*
X164260950Y-88132689D01*
X164283487Y-88066554D01*
X164328541Y-88027515D01*
X164407803Y-87987129D01*
X164574430Y-87866068D01*
X164720068Y-87720430D01*
X164841129Y-87553803D01*
X164934634Y-87370290D01*
X164998280Y-87174408D01*
X165030500Y-86970981D01*
X165030500Y-86765019D01*
X164998280Y-86561592D01*
X164934634Y-86365710D01*
X164934632Y-86365707D01*
X164934632Y-86365705D01*
X164900709Y-86299128D01*
X164841129Y-86182197D01*
X164825661Y-86160908D01*
X164720073Y-86015576D01*
X164720069Y-86015571D01*
X164574428Y-85869930D01*
X164574423Y-85869926D01*
X164407806Y-85748873D01*
X164407805Y-85748872D01*
X164407803Y-85748871D01*
X164350496Y-85719671D01*
X164224294Y-85655367D01*
X164028408Y-85591719D01*
X163852794Y-85563905D01*
X163824981Y-85559500D01*
X162819019Y-85559500D01*
X162794550Y-85563375D01*
X162615591Y-85591719D01*
X162419705Y-85655367D01*
X162236193Y-85748873D01*
X162069577Y-85869925D01*
X161969034Y-85970468D01*
X161907711Y-86003952D01*
X161838019Y-85998968D01*
X161793672Y-85970467D01*
X161055036Y-85231831D01*
X161055032Y-85231828D01*
X160951281Y-85162503D01*
X160951272Y-85162498D01*
X160835985Y-85114745D01*
X160835977Y-85114743D01*
X160713598Y-85090400D01*
X160713594Y-85090400D01*
X146867194Y-85090400D01*
X146742406Y-85090400D01*
X146742401Y-85090400D01*
X146620022Y-85114743D01*
X146620014Y-85114745D01*
X146504727Y-85162498D01*
X146504718Y-85162503D01*
X146400967Y-85231828D01*
X146400963Y-85231831D01*
X145647327Y-85985467D01*
X145586004Y-86018952D01*
X145516312Y-86013968D01*
X145471965Y-85985467D01*
X145371428Y-85884930D01*
X145371423Y-85884926D01*
X145204806Y-85763873D01*
X145204805Y-85763872D01*
X145204803Y-85763871D01*
X145147496Y-85734671D01*
X145021294Y-85670367D01*
X144825408Y-85606719D01*
X144649794Y-85578905D01*
X144621981Y-85574500D01*
X143616019Y-85574500D01*
X143591550Y-85578375D01*
X143412591Y-85606719D01*
X143216705Y-85670367D01*
X143033193Y-85763873D01*
X142866576Y-85884926D01*
X142866571Y-85884930D01*
X142720930Y-86030571D01*
X142720926Y-86030576D01*
X142599007Y-86198385D01*
X142543677Y-86241051D01*
X142498689Y-86249500D01*
X142087311Y-86249500D01*
X142020272Y-86229815D01*
X141986993Y-86198385D01*
X141865073Y-86030576D01*
X141865069Y-86030571D01*
X141719428Y-85884930D01*
X141719423Y-85884926D01*
X141552806Y-85763873D01*
X141552805Y-85763872D01*
X141552803Y-85763871D01*
X141495496Y-85734671D01*
X141369294Y-85670367D01*
X141173408Y-85606719D01*
X140997794Y-85578905D01*
X140969981Y-85574500D01*
X139964019Y-85574500D01*
X139939550Y-85578375D01*
X139760591Y-85606719D01*
X139564705Y-85670367D01*
X139381193Y-85763873D01*
X139214576Y-85884926D01*
X139214571Y-85884930D01*
X139068930Y-86030571D01*
X139068926Y-86030576D01*
X138947873Y-86197193D01*
X138854367Y-86380705D01*
X138790719Y-86576591D01*
X138758500Y-86780019D01*
X138176500Y-86780019D01*
X138176500Y-84960500D01*
X138196185Y-84893461D01*
X138248989Y-84847706D01*
X138300500Y-84836500D01*
X196725500Y-84836500D01*
X196792539Y-84856185D01*
G37*
G04 #@! TD.AperFunction*
M02*
