M48
; DRILL file {KiCad 9.0.6} date 2025-12-27T13:45:02+0100
; FORMAT={-:-/ absolute / metric / decimal}
; #@! TF.CreationDate,2025-12-27T13:45:02+01:00
; #@! TF.GenerationSoftware,Kicad,Pcbnew,9.0.6
; #@! TF.FileFunction,Plated,1,2,PTH
FMAT,2
METRIC
; #@! TA.AperFunction,Plated,PTH,ViaDrill
T1C0.400
; #@! TA.AperFunction,Plated,PTH,ComponentDrill
T2C0.800
; #@! TA.AperFunction,Plated,PTH,ComponentDrill
T3C1.000
%
G90
G05
T1
X142.641Y-121.122
X143.695Y-123.665
X152.995Y-98.956
X158.896Y-85.465
X161.626Y-100.975
X161.852Y-95.901
X164.771Y-120.885
X165.036Y-92.692
X165.724Y-117.086
X165.851Y-123.668
X165.901Y-124.765
X166.511Y-119.074
X170.381Y-122.511
X171.439Y-97.146
X175.007Y-115.937
X176.739Y-103.552
X176.982Y-122.652
X179.797Y-85.633
X180.35Y-105.918
X180.358Y-100.718
X180.467Y-99.603
X180.467Y-101.834
X180.506Y-111.75
X180.506Y-115.794
X180.544Y-123.688
X184.191Y-113.568
X184.242Y-93.218
X184.257Y-98.298
X184.372Y-110.442
X184.372Y-117.965
X184.452Y-104.061
X184.887Y-108.615
X186.983Y-123.665
X186.984Y-105.156
X186.984Y-118.749
X191.921Y-94.652
X191.921Y-96.617
X191.945Y-115.169
X191.946Y-110.442
X192.109Y-99.743
X192.367Y-111.653
X193.688Y-92.905
X194.933Y-86.647
X195.595Y-97.73
X195.619Y-120.163
X195.852Y-108.868
T2
X140.467Y-86.883
X140.467Y-89.423
X140.467Y-91.963
X140.467Y-94.503
X140.467Y-97.043
X140.467Y-99.583
X140.467Y-102.123
X140.467Y-104.663
X140.467Y-107.203
X140.467Y-109.743
X140.467Y-112.283
X140.467Y-114.823
X140.467Y-117.363
X140.467Y-119.903
X144.119Y-86.883
X144.119Y-89.423
X144.119Y-91.963
X144.119Y-94.503
X144.119Y-97.043
X144.119Y-99.583
X144.119Y-102.123
X144.119Y-104.663
X144.119Y-107.203
X144.119Y-109.743
X144.119Y-112.283
X144.119Y-114.823
X144.119Y-117.363
X144.119Y-119.903
X146.19Y-123.698
X153.81Y-123.698
X155.707Y-86.883
X155.707Y-89.423
X155.707Y-91.963
X155.707Y-94.503
X155.707Y-97.043
X155.707Y-99.583
X155.707Y-102.123
X155.707Y-104.663
X155.707Y-107.203
X155.707Y-109.743
X155.707Y-112.283
X155.707Y-114.823
X155.707Y-117.363
X155.707Y-119.903
X159.359Y-86.883
X159.359Y-89.423
X159.359Y-91.963
X159.359Y-94.503
X159.359Y-97.043
X159.359Y-99.583
X159.359Y-102.123
X159.359Y-104.663
X159.359Y-107.203
X159.359Y-109.743
X159.359Y-112.283
X159.359Y-114.823
X159.359Y-117.363
X159.359Y-119.903
X163.322Y-86.868
X163.322Y-89.408
X163.322Y-91.948
X163.322Y-94.488
X163.322Y-97.028
X163.322Y-99.568
X163.322Y-102.108
X163.322Y-104.648
X163.322Y-107.188
X163.322Y-109.728
X163.322Y-112.268
X163.322Y-114.808
X163.322Y-117.348
X163.322Y-119.888
X178.562Y-86.868
X178.562Y-89.408
X178.562Y-91.948
X178.562Y-94.488
X178.562Y-97.028
X178.562Y-99.568
X178.562Y-102.108
X178.562Y-104.648
X178.562Y-107.188
X178.562Y-109.728
X178.562Y-112.268
X178.562Y-114.808
X178.562Y-117.348
X178.562Y-119.888
X182.372Y-86.868
X182.372Y-89.408
X182.372Y-91.948
X182.372Y-94.488
X182.372Y-97.028
X182.372Y-99.568
X182.372Y-102.108
X182.372Y-104.648
X182.372Y-107.95
X182.372Y-110.49
X182.372Y-113.03
X182.372Y-115.57
X182.372Y-118.11
X182.372Y-120.65
X182.372Y-123.19
X189.992Y-86.868
X189.992Y-89.408
X189.992Y-91.948
X189.992Y-94.488
X189.992Y-97.028
X189.992Y-99.568
X189.992Y-102.108
X189.992Y-104.648
X189.992Y-107.95
X189.992Y-110.49
X189.992Y-113.03
X189.992Y-115.57
X189.992Y-118.11
X189.992Y-120.65
X189.992Y-123.19
X193.5Y-102.5
X193.5Y-110.12
T3
X193.5Y-94.5
X193.5Y-97.04
X193.548Y-115.57
X193.548Y-118.11
X193.548Y-120.65
M30
