G04 #@! TF.GenerationSoftware,KiCad,Pcbnew,9.0.6*
G04 #@! TF.CreationDate,2026-02-01T18:13:51+01:00*
G04 #@! TF.ProjectId,1551-RAMBoard2-FirstBank,31353531-2d52-4414-9d42-6f617264322d,1*
G04 #@! TF.SameCoordinates,Original*
G04 #@! TF.FileFunction,Legend,Bot*
G04 #@! TF.FilePolarity,Positive*
%FSLAX46Y46*%
G04 Gerber Fmt 4.6, Leading zero omitted, Abs format (unit mm)*
G04 Created by KiCad (PCBNEW 9.0.6) date 2026-02-01 18:13:51*
%MOMM*%
%LPD*%
G01*
G04 APERTURE LIST*
G04 Aperture macros list*
%AMRoundRect*
0 Rectangle with rounded corners*
0 $1 Rounding radius*
0 $2 $3 $4 $5 $6 $7 $8 $9 X,Y pos of 4 corners*
0 Add a 4 corners polygon primitive as box body*
4,1,4,$2,$3,$4,$5,$6,$7,$8,$9,$2,$3,0*
0 Add four circle primitives for the rounded corners*
1,1,$1+$1,$2,$3*
1,1,$1+$1,$4,$5*
1,1,$1+$1,$6,$7*
1,1,$1+$1,$8,$9*
0 Add four rect primitives between the rounded corners*
20,1,$1+$1,$2,$3,$4,$5,0*
20,1,$1+$1,$4,$5,$6,$7,0*
20,1,$1+$1,$6,$7,$8,$9,0*
20,1,$1+$1,$8,$9,$2,$3,0*%
G04 Aperture macros list end*
%ADD10C,0.150000*%
%ADD11C,1.600000*%
%ADD12RoundRect,0.250000X0.950000X0.550000X-0.950000X0.550000X-0.950000X-0.550000X0.950000X-0.550000X0*%
%ADD13O,2.400000X1.600000*%
%ADD14R,1.700000X1.700000*%
%ADD15C,1.700000*%
G04 APERTURE END LIST*
D10*
X165757592Y-87025350D02*
X165424259Y-86792017D01*
X165757592Y-86625350D02*
X165057592Y-86625350D01*
X165057592Y-86625350D02*
X165057592Y-86892017D01*
X165057592Y-86892017D02*
X165090925Y-86958684D01*
X165090925Y-86958684D02*
X165124259Y-86992017D01*
X165124259Y-86992017D02*
X165190925Y-87025350D01*
X165190925Y-87025350D02*
X165290925Y-87025350D01*
X165290925Y-87025350D02*
X165357592Y-86992017D01*
X165357592Y-86992017D02*
X165390925Y-86958684D01*
X165390925Y-86958684D02*
X165424259Y-86892017D01*
X165424259Y-86892017D02*
X165424259Y-86625350D01*
X165557592Y-87292017D02*
X165557592Y-87625350D01*
X165757592Y-87225350D02*
X165057592Y-87458684D01*
X165057592Y-87458684D02*
X165757592Y-87692017D01*
X165757592Y-87925350D02*
X165057592Y-87925350D01*
X165057592Y-87925350D02*
X165557592Y-88158684D01*
X165557592Y-88158684D02*
X165057592Y-88392017D01*
X165057592Y-88392017D02*
X165757592Y-88392017D01*
X165824259Y-88558684D02*
X165824259Y-89092017D01*
X165557592Y-89225350D02*
X165557592Y-89558683D01*
X165757592Y-89158683D02*
X165057592Y-89392017D01*
X165057592Y-89392017D02*
X165757592Y-89625350D01*
X165757592Y-90225350D02*
X165757592Y-89825350D01*
X165757592Y-90025350D02*
X165057592Y-90025350D01*
X165057592Y-90025350D02*
X165157592Y-89958683D01*
X165157592Y-89958683D02*
X165224259Y-89892017D01*
X165224259Y-89892017D02*
X165257592Y-89825350D01*
X165057592Y-90458684D02*
X165057592Y-90892017D01*
X165057592Y-90892017D02*
X165324259Y-90658684D01*
X165324259Y-90658684D02*
X165324259Y-90758684D01*
X165324259Y-90758684D02*
X165357592Y-90825350D01*
X165357592Y-90825350D02*
X165390925Y-90858684D01*
X165390925Y-90858684D02*
X165457592Y-90892017D01*
X165457592Y-90892017D02*
X165624259Y-90892017D01*
X165624259Y-90892017D02*
X165690925Y-90858684D01*
X165690925Y-90858684D02*
X165724259Y-90825350D01*
X165724259Y-90825350D02*
X165757592Y-90758684D01*
X165757592Y-90758684D02*
X165757592Y-90558684D01*
X165757592Y-90558684D02*
X165724259Y-90492017D01*
X165724259Y-90492017D02*
X165690925Y-90458684D01*
X165690925Y-91192017D02*
X165724259Y-91225351D01*
X165724259Y-91225351D02*
X165757592Y-91192017D01*
X165757592Y-91192017D02*
X165724259Y-91158684D01*
X165724259Y-91158684D02*
X165690925Y-91192017D01*
X165690925Y-91192017D02*
X165757592Y-91192017D01*
X165324259Y-91192017D02*
X165357592Y-91225351D01*
X165357592Y-91225351D02*
X165390925Y-91192017D01*
X165390925Y-91192017D02*
X165357592Y-91158684D01*
X165357592Y-91158684D02*
X165324259Y-91192017D01*
X165324259Y-91192017D02*
X165390925Y-91192017D01*
X165757592Y-92158683D02*
X165724259Y-92092017D01*
X165724259Y-92092017D02*
X165690925Y-92058683D01*
X165690925Y-92058683D02*
X165624259Y-92025350D01*
X165624259Y-92025350D02*
X165424259Y-92025350D01*
X165424259Y-92025350D02*
X165357592Y-92058683D01*
X165357592Y-92058683D02*
X165324259Y-92092017D01*
X165324259Y-92092017D02*
X165290925Y-92158683D01*
X165290925Y-92158683D02*
X165290925Y-92258683D01*
X165290925Y-92258683D02*
X165324259Y-92325350D01*
X165324259Y-92325350D02*
X165357592Y-92358683D01*
X165357592Y-92358683D02*
X165424259Y-92392017D01*
X165424259Y-92392017D02*
X165624259Y-92392017D01*
X165624259Y-92392017D02*
X165690925Y-92358683D01*
X165690925Y-92358683D02*
X165724259Y-92325350D01*
X165724259Y-92325350D02*
X165757592Y-92258683D01*
X165757592Y-92258683D02*
X165757592Y-92158683D01*
X165290925Y-92692016D02*
X165990925Y-92692016D01*
X165324259Y-92692016D02*
X165290925Y-92758683D01*
X165290925Y-92758683D02*
X165290925Y-92892016D01*
X165290925Y-92892016D02*
X165324259Y-92958683D01*
X165324259Y-92958683D02*
X165357592Y-92992016D01*
X165357592Y-92992016D02*
X165424259Y-93025350D01*
X165424259Y-93025350D02*
X165624259Y-93025350D01*
X165624259Y-93025350D02*
X165690925Y-92992016D01*
X165690925Y-92992016D02*
X165724259Y-92958683D01*
X165724259Y-92958683D02*
X165757592Y-92892016D01*
X165757592Y-92892016D02*
X165757592Y-92758683D01*
X165757592Y-92758683D02*
X165724259Y-92692016D01*
X165724259Y-93592016D02*
X165757592Y-93525349D01*
X165757592Y-93525349D02*
X165757592Y-93392016D01*
X165757592Y-93392016D02*
X165724259Y-93325349D01*
X165724259Y-93325349D02*
X165657592Y-93292016D01*
X165657592Y-93292016D02*
X165390925Y-93292016D01*
X165390925Y-93292016D02*
X165324259Y-93325349D01*
X165324259Y-93325349D02*
X165290925Y-93392016D01*
X165290925Y-93392016D02*
X165290925Y-93525349D01*
X165290925Y-93525349D02*
X165324259Y-93592016D01*
X165324259Y-93592016D02*
X165390925Y-93625349D01*
X165390925Y-93625349D02*
X165457592Y-93625349D01*
X165457592Y-93625349D02*
X165524259Y-93292016D01*
X165290925Y-93925349D02*
X165757592Y-93925349D01*
X165357592Y-93925349D02*
X165324259Y-93958683D01*
X165324259Y-93958683D02*
X165290925Y-94025349D01*
X165290925Y-94025349D02*
X165290925Y-94125349D01*
X165290925Y-94125349D02*
X165324259Y-94192016D01*
X165324259Y-94192016D02*
X165390925Y-94225349D01*
X165390925Y-94225349D02*
X165757592Y-94225349D01*
X165290925Y-94992015D02*
X165290925Y-95258682D01*
X165757592Y-95092015D02*
X165157592Y-95092015D01*
X165157592Y-95092015D02*
X165090925Y-95125349D01*
X165090925Y-95125349D02*
X165057592Y-95192015D01*
X165057592Y-95192015D02*
X165057592Y-95258682D01*
X165757592Y-95592015D02*
X165724259Y-95525349D01*
X165724259Y-95525349D02*
X165690925Y-95492015D01*
X165690925Y-95492015D02*
X165624259Y-95458682D01*
X165624259Y-95458682D02*
X165424259Y-95458682D01*
X165424259Y-95458682D02*
X165357592Y-95492015D01*
X165357592Y-95492015D02*
X165324259Y-95525349D01*
X165324259Y-95525349D02*
X165290925Y-95592015D01*
X165290925Y-95592015D02*
X165290925Y-95692015D01*
X165290925Y-95692015D02*
X165324259Y-95758682D01*
X165324259Y-95758682D02*
X165357592Y-95792015D01*
X165357592Y-95792015D02*
X165424259Y-95825349D01*
X165424259Y-95825349D02*
X165624259Y-95825349D01*
X165624259Y-95825349D02*
X165690925Y-95792015D01*
X165690925Y-95792015D02*
X165724259Y-95758682D01*
X165724259Y-95758682D02*
X165757592Y-95692015D01*
X165757592Y-95692015D02*
X165757592Y-95592015D01*
X165757592Y-96125348D02*
X165290925Y-96125348D01*
X165424259Y-96125348D02*
X165357592Y-96158682D01*
X165357592Y-96158682D02*
X165324259Y-96192015D01*
X165324259Y-96192015D02*
X165290925Y-96258682D01*
X165290925Y-96258682D02*
X165290925Y-96325348D01*
X165057592Y-97392014D02*
X165057592Y-97258681D01*
X165057592Y-97258681D02*
X165090925Y-97192014D01*
X165090925Y-97192014D02*
X165124259Y-97158681D01*
X165124259Y-97158681D02*
X165224259Y-97092014D01*
X165224259Y-97092014D02*
X165357592Y-97058681D01*
X165357592Y-97058681D02*
X165624259Y-97058681D01*
X165624259Y-97058681D02*
X165690925Y-97092014D01*
X165690925Y-97092014D02*
X165724259Y-97125348D01*
X165724259Y-97125348D02*
X165757592Y-97192014D01*
X165757592Y-97192014D02*
X165757592Y-97325348D01*
X165757592Y-97325348D02*
X165724259Y-97392014D01*
X165724259Y-97392014D02*
X165690925Y-97425348D01*
X165690925Y-97425348D02*
X165624259Y-97458681D01*
X165624259Y-97458681D02*
X165457592Y-97458681D01*
X165457592Y-97458681D02*
X165390925Y-97425348D01*
X165390925Y-97425348D02*
X165357592Y-97392014D01*
X165357592Y-97392014D02*
X165324259Y-97325348D01*
X165324259Y-97325348D02*
X165324259Y-97192014D01*
X165324259Y-97192014D02*
X165357592Y-97125348D01*
X165357592Y-97125348D02*
X165390925Y-97092014D01*
X165390925Y-97092014D02*
X165457592Y-97058681D01*
X165124259Y-97725348D02*
X165090925Y-97758681D01*
X165090925Y-97758681D02*
X165057592Y-97825348D01*
X165057592Y-97825348D02*
X165057592Y-97992015D01*
X165057592Y-97992015D02*
X165090925Y-98058681D01*
X165090925Y-98058681D02*
X165124259Y-98092015D01*
X165124259Y-98092015D02*
X165190925Y-98125348D01*
X165190925Y-98125348D02*
X165257592Y-98125348D01*
X165257592Y-98125348D02*
X165357592Y-98092015D01*
X165357592Y-98092015D02*
X165757592Y-97692015D01*
X165757592Y-97692015D02*
X165757592Y-98125348D01*
X165057592Y-98725348D02*
X165057592Y-98592015D01*
X165057592Y-98592015D02*
X165090925Y-98525348D01*
X165090925Y-98525348D02*
X165124259Y-98492015D01*
X165124259Y-98492015D02*
X165224259Y-98425348D01*
X165224259Y-98425348D02*
X165357592Y-98392015D01*
X165357592Y-98392015D02*
X165624259Y-98392015D01*
X165624259Y-98392015D02*
X165690925Y-98425348D01*
X165690925Y-98425348D02*
X165724259Y-98458682D01*
X165724259Y-98458682D02*
X165757592Y-98525348D01*
X165757592Y-98525348D02*
X165757592Y-98658682D01*
X165757592Y-98658682D02*
X165724259Y-98725348D01*
X165724259Y-98725348D02*
X165690925Y-98758682D01*
X165690925Y-98758682D02*
X165624259Y-98792015D01*
X165624259Y-98792015D02*
X165457592Y-98792015D01*
X165457592Y-98792015D02*
X165390925Y-98758682D01*
X165390925Y-98758682D02*
X165357592Y-98725348D01*
X165357592Y-98725348D02*
X165324259Y-98658682D01*
X165324259Y-98658682D02*
X165324259Y-98525348D01*
X165324259Y-98525348D02*
X165357592Y-98458682D01*
X165357592Y-98458682D02*
X165390925Y-98425348D01*
X165390925Y-98425348D02*
X165457592Y-98392015D01*
X165290925Y-99392015D02*
X165757592Y-99392015D01*
X165024259Y-99225349D02*
X165524259Y-99058682D01*
X165524259Y-99058682D02*
X165524259Y-99492015D01*
X166024259Y-100492015D02*
X165990925Y-100458682D01*
X165990925Y-100458682D02*
X165890925Y-100392015D01*
X165890925Y-100392015D02*
X165824259Y-100358682D01*
X165824259Y-100358682D02*
X165724259Y-100325349D01*
X165724259Y-100325349D02*
X165557592Y-100292015D01*
X165557592Y-100292015D02*
X165424259Y-100292015D01*
X165424259Y-100292015D02*
X165257592Y-100325349D01*
X165257592Y-100325349D02*
X165157592Y-100358682D01*
X165157592Y-100358682D02*
X165090925Y-100392015D01*
X165090925Y-100392015D02*
X164990925Y-100458682D01*
X164990925Y-100458682D02*
X164957592Y-100492015D01*
X165290925Y-100692016D02*
X165757592Y-100825349D01*
X165757592Y-100825349D02*
X165424259Y-100958682D01*
X165424259Y-100958682D02*
X165757592Y-101092016D01*
X165757592Y-101092016D02*
X165290925Y-101225349D01*
X165757592Y-101492015D02*
X165290925Y-101492015D01*
X165057592Y-101492015D02*
X165090925Y-101458682D01*
X165090925Y-101458682D02*
X165124259Y-101492015D01*
X165124259Y-101492015D02*
X165090925Y-101525349D01*
X165090925Y-101525349D02*
X165057592Y-101492015D01*
X165057592Y-101492015D02*
X165124259Y-101492015D01*
X165290925Y-101725348D02*
X165290925Y-101992015D01*
X165057592Y-101825348D02*
X165657592Y-101825348D01*
X165657592Y-101825348D02*
X165724259Y-101858682D01*
X165724259Y-101858682D02*
X165757592Y-101925348D01*
X165757592Y-101925348D02*
X165757592Y-101992015D01*
X165757592Y-102225348D02*
X165057592Y-102225348D01*
X165757592Y-102525348D02*
X165390925Y-102525348D01*
X165390925Y-102525348D02*
X165324259Y-102492015D01*
X165324259Y-102492015D02*
X165290925Y-102425348D01*
X165290925Y-102425348D02*
X165290925Y-102325348D01*
X165290925Y-102325348D02*
X165324259Y-102258682D01*
X165324259Y-102258682D02*
X165357592Y-102225348D01*
X165757592Y-103792014D02*
X165424259Y-103558681D01*
X165757592Y-103392014D02*
X165057592Y-103392014D01*
X165057592Y-103392014D02*
X165057592Y-103658681D01*
X165057592Y-103658681D02*
X165090925Y-103725348D01*
X165090925Y-103725348D02*
X165124259Y-103758681D01*
X165124259Y-103758681D02*
X165190925Y-103792014D01*
X165190925Y-103792014D02*
X165290925Y-103792014D01*
X165290925Y-103792014D02*
X165357592Y-103758681D01*
X165357592Y-103758681D02*
X165390925Y-103725348D01*
X165390925Y-103725348D02*
X165424259Y-103658681D01*
X165424259Y-103658681D02*
X165424259Y-103392014D01*
X165757592Y-104458681D02*
X165757592Y-104058681D01*
X165757592Y-104258681D02*
X165057592Y-104258681D01*
X165057592Y-104258681D02*
X165157592Y-104192014D01*
X165157592Y-104192014D02*
X165224259Y-104125348D01*
X165224259Y-104125348D02*
X165257592Y-104058681D01*
X165057592Y-104692015D02*
X165057592Y-105125348D01*
X165057592Y-105125348D02*
X165324259Y-104892015D01*
X165324259Y-104892015D02*
X165324259Y-104992015D01*
X165324259Y-104992015D02*
X165357592Y-105058681D01*
X165357592Y-105058681D02*
X165390925Y-105092015D01*
X165390925Y-105092015D02*
X165457592Y-105125348D01*
X165457592Y-105125348D02*
X165624259Y-105125348D01*
X165624259Y-105125348D02*
X165690925Y-105092015D01*
X165690925Y-105092015D02*
X165724259Y-105058681D01*
X165724259Y-105058681D02*
X165757592Y-104992015D01*
X165757592Y-104992015D02*
X165757592Y-104792015D01*
X165757592Y-104792015D02*
X165724259Y-104725348D01*
X165724259Y-104725348D02*
X165690925Y-104692015D01*
X165290925Y-105958681D02*
X165990925Y-105958681D01*
X165324259Y-105958681D02*
X165290925Y-106025348D01*
X165290925Y-106025348D02*
X165290925Y-106158681D01*
X165290925Y-106158681D02*
X165324259Y-106225348D01*
X165324259Y-106225348D02*
X165357592Y-106258681D01*
X165357592Y-106258681D02*
X165424259Y-106292015D01*
X165424259Y-106292015D02*
X165624259Y-106292015D01*
X165624259Y-106292015D02*
X165690925Y-106258681D01*
X165690925Y-106258681D02*
X165724259Y-106225348D01*
X165724259Y-106225348D02*
X165757592Y-106158681D01*
X165757592Y-106158681D02*
X165757592Y-106025348D01*
X165757592Y-106025348D02*
X165724259Y-105958681D01*
X165290925Y-106892014D02*
X165757592Y-106892014D01*
X165290925Y-106592014D02*
X165657592Y-106592014D01*
X165657592Y-106592014D02*
X165724259Y-106625348D01*
X165724259Y-106625348D02*
X165757592Y-106692014D01*
X165757592Y-106692014D02*
X165757592Y-106792014D01*
X165757592Y-106792014D02*
X165724259Y-106858681D01*
X165724259Y-106858681D02*
X165690925Y-106892014D01*
X165757592Y-107325347D02*
X165724259Y-107258681D01*
X165724259Y-107258681D02*
X165657592Y-107225347D01*
X165657592Y-107225347D02*
X165057592Y-107225347D01*
X165757592Y-107692014D02*
X165724259Y-107625348D01*
X165724259Y-107625348D02*
X165657592Y-107592014D01*
X165657592Y-107592014D02*
X165057592Y-107592014D01*
X165290925Y-108258681D02*
X165757592Y-108258681D01*
X165290925Y-107958681D02*
X165657592Y-107958681D01*
X165657592Y-107958681D02*
X165724259Y-107992015D01*
X165724259Y-107992015D02*
X165757592Y-108058681D01*
X165757592Y-108058681D02*
X165757592Y-108158681D01*
X165757592Y-108158681D02*
X165724259Y-108225348D01*
X165724259Y-108225348D02*
X165690925Y-108258681D01*
X165290925Y-108592014D02*
X165990925Y-108592014D01*
X165324259Y-108592014D02*
X165290925Y-108658681D01*
X165290925Y-108658681D02*
X165290925Y-108792014D01*
X165290925Y-108792014D02*
X165324259Y-108858681D01*
X165324259Y-108858681D02*
X165357592Y-108892014D01*
X165357592Y-108892014D02*
X165424259Y-108925348D01*
X165424259Y-108925348D02*
X165624259Y-108925348D01*
X165624259Y-108925348D02*
X165690925Y-108892014D01*
X165690925Y-108892014D02*
X165724259Y-108858681D01*
X165724259Y-108858681D02*
X165757592Y-108792014D01*
X165757592Y-108792014D02*
X165757592Y-108658681D01*
X165757592Y-108658681D02*
X165724259Y-108592014D01*
X166024259Y-109158681D02*
X165990925Y-109192014D01*
X165990925Y-109192014D02*
X165890925Y-109258681D01*
X165890925Y-109258681D02*
X165824259Y-109292014D01*
X165824259Y-109292014D02*
X165724259Y-109325347D01*
X165724259Y-109325347D02*
X165557592Y-109358681D01*
X165557592Y-109358681D02*
X165424259Y-109358681D01*
X165424259Y-109358681D02*
X165257592Y-109325347D01*
X165257592Y-109325347D02*
X165157592Y-109292014D01*
X165157592Y-109292014D02*
X165090925Y-109258681D01*
X165090925Y-109258681D02*
X164990925Y-109192014D01*
X164990925Y-109192014D02*
X164957592Y-109158681D01*
X166884553Y-87025350D02*
X166551220Y-86792017D01*
X166884553Y-86625350D02*
X166184553Y-86625350D01*
X166184553Y-86625350D02*
X166184553Y-86892017D01*
X166184553Y-86892017D02*
X166217886Y-86958684D01*
X166217886Y-86958684D02*
X166251220Y-86992017D01*
X166251220Y-86992017D02*
X166317886Y-87025350D01*
X166317886Y-87025350D02*
X166417886Y-87025350D01*
X166417886Y-87025350D02*
X166484553Y-86992017D01*
X166484553Y-86992017D02*
X166517886Y-86958684D01*
X166517886Y-86958684D02*
X166551220Y-86892017D01*
X166551220Y-86892017D02*
X166551220Y-86625350D01*
X166684553Y-87292017D02*
X166684553Y-87625350D01*
X166884553Y-87225350D02*
X166184553Y-87458684D01*
X166184553Y-87458684D02*
X166884553Y-87692017D01*
X166884553Y-87925350D02*
X166184553Y-87925350D01*
X166184553Y-87925350D02*
X166684553Y-88158684D01*
X166684553Y-88158684D02*
X166184553Y-88392017D01*
X166184553Y-88392017D02*
X166884553Y-88392017D01*
X166951220Y-88558684D02*
X166951220Y-89092017D01*
X166684553Y-89225350D02*
X166684553Y-89558683D01*
X166884553Y-89158683D02*
X166184553Y-89392017D01*
X166184553Y-89392017D02*
X166884553Y-89625350D01*
X166884553Y-90225350D02*
X166884553Y-89825350D01*
X166884553Y-90025350D02*
X166184553Y-90025350D01*
X166184553Y-90025350D02*
X166284553Y-89958683D01*
X166284553Y-89958683D02*
X166351220Y-89892017D01*
X166351220Y-89892017D02*
X166384553Y-89825350D01*
X166417886Y-90825350D02*
X166884553Y-90825350D01*
X166151220Y-90658684D02*
X166651220Y-90492017D01*
X166651220Y-90492017D02*
X166651220Y-90925350D01*
X166817886Y-91192017D02*
X166851220Y-91225351D01*
X166851220Y-91225351D02*
X166884553Y-91192017D01*
X166884553Y-91192017D02*
X166851220Y-91158684D01*
X166851220Y-91158684D02*
X166817886Y-91192017D01*
X166817886Y-91192017D02*
X166884553Y-91192017D01*
X166451220Y-91192017D02*
X166484553Y-91225351D01*
X166484553Y-91225351D02*
X166517886Y-91192017D01*
X166517886Y-91192017D02*
X166484553Y-91158684D01*
X166484553Y-91158684D02*
X166451220Y-91192017D01*
X166451220Y-91192017D02*
X166517886Y-91192017D01*
X166851220Y-92358683D02*
X166884553Y-92292017D01*
X166884553Y-92292017D02*
X166884553Y-92158683D01*
X166884553Y-92158683D02*
X166851220Y-92092017D01*
X166851220Y-92092017D02*
X166817886Y-92058683D01*
X166817886Y-92058683D02*
X166751220Y-92025350D01*
X166751220Y-92025350D02*
X166551220Y-92025350D01*
X166551220Y-92025350D02*
X166484553Y-92058683D01*
X166484553Y-92058683D02*
X166451220Y-92092017D01*
X166451220Y-92092017D02*
X166417886Y-92158683D01*
X166417886Y-92158683D02*
X166417886Y-92292017D01*
X166417886Y-92292017D02*
X166451220Y-92358683D01*
X166884553Y-92758683D02*
X166851220Y-92692017D01*
X166851220Y-92692017D02*
X166784553Y-92658683D01*
X166784553Y-92658683D02*
X166184553Y-92658683D01*
X166884553Y-93125350D02*
X166851220Y-93058684D01*
X166851220Y-93058684D02*
X166817886Y-93025350D01*
X166817886Y-93025350D02*
X166751220Y-92992017D01*
X166751220Y-92992017D02*
X166551220Y-92992017D01*
X166551220Y-92992017D02*
X166484553Y-93025350D01*
X166484553Y-93025350D02*
X166451220Y-93058684D01*
X166451220Y-93058684D02*
X166417886Y-93125350D01*
X166417886Y-93125350D02*
X166417886Y-93225350D01*
X166417886Y-93225350D02*
X166451220Y-93292017D01*
X166451220Y-93292017D02*
X166484553Y-93325350D01*
X166484553Y-93325350D02*
X166551220Y-93358684D01*
X166551220Y-93358684D02*
X166751220Y-93358684D01*
X166751220Y-93358684D02*
X166817886Y-93325350D01*
X166817886Y-93325350D02*
X166851220Y-93292017D01*
X166851220Y-93292017D02*
X166884553Y-93225350D01*
X166884553Y-93225350D02*
X166884553Y-93125350D01*
X166851220Y-93625350D02*
X166884553Y-93692017D01*
X166884553Y-93692017D02*
X166884553Y-93825350D01*
X166884553Y-93825350D02*
X166851220Y-93892017D01*
X166851220Y-93892017D02*
X166784553Y-93925350D01*
X166784553Y-93925350D02*
X166751220Y-93925350D01*
X166751220Y-93925350D02*
X166684553Y-93892017D01*
X166684553Y-93892017D02*
X166651220Y-93825350D01*
X166651220Y-93825350D02*
X166651220Y-93725350D01*
X166651220Y-93725350D02*
X166617886Y-93658683D01*
X166617886Y-93658683D02*
X166551220Y-93625350D01*
X166551220Y-93625350D02*
X166517886Y-93625350D01*
X166517886Y-93625350D02*
X166451220Y-93658683D01*
X166451220Y-93658683D02*
X166417886Y-93725350D01*
X166417886Y-93725350D02*
X166417886Y-93825350D01*
X166417886Y-93825350D02*
X166451220Y-93892017D01*
X166851220Y-94492017D02*
X166884553Y-94425350D01*
X166884553Y-94425350D02*
X166884553Y-94292017D01*
X166884553Y-94292017D02*
X166851220Y-94225350D01*
X166851220Y-94225350D02*
X166784553Y-94192017D01*
X166784553Y-94192017D02*
X166517886Y-94192017D01*
X166517886Y-94192017D02*
X166451220Y-94225350D01*
X166451220Y-94225350D02*
X166417886Y-94292017D01*
X166417886Y-94292017D02*
X166417886Y-94425350D01*
X166417886Y-94425350D02*
X166451220Y-94492017D01*
X166451220Y-94492017D02*
X166517886Y-94525350D01*
X166517886Y-94525350D02*
X166584553Y-94525350D01*
X166584553Y-94525350D02*
X166651220Y-94192017D01*
X166884553Y-95125350D02*
X166184553Y-95125350D01*
X166851220Y-95125350D02*
X166884553Y-95058684D01*
X166884553Y-95058684D02*
X166884553Y-94925350D01*
X166884553Y-94925350D02*
X166851220Y-94858684D01*
X166851220Y-94858684D02*
X166817886Y-94825350D01*
X166817886Y-94825350D02*
X166751220Y-94792017D01*
X166751220Y-94792017D02*
X166551220Y-94792017D01*
X166551220Y-94792017D02*
X166484553Y-94825350D01*
X166484553Y-94825350D02*
X166451220Y-94858684D01*
X166451220Y-94858684D02*
X166417886Y-94925350D01*
X166417886Y-94925350D02*
X166417886Y-95058684D01*
X166417886Y-95058684D02*
X166451220Y-95125350D01*
X167311514Y-86925350D02*
X167311514Y-86792017D01*
X167311514Y-86792017D02*
X167344847Y-86725350D01*
X167344847Y-86725350D02*
X167378181Y-86692017D01*
X167378181Y-86692017D02*
X167478181Y-86625350D01*
X167478181Y-86625350D02*
X167611514Y-86592017D01*
X167611514Y-86592017D02*
X167878181Y-86592017D01*
X167878181Y-86592017D02*
X167944847Y-86625350D01*
X167944847Y-86625350D02*
X167978181Y-86658684D01*
X167978181Y-86658684D02*
X168011514Y-86725350D01*
X168011514Y-86725350D02*
X168011514Y-86858684D01*
X168011514Y-86858684D02*
X167978181Y-86925350D01*
X167978181Y-86925350D02*
X167944847Y-86958684D01*
X167944847Y-86958684D02*
X167878181Y-86992017D01*
X167878181Y-86992017D02*
X167711514Y-86992017D01*
X167711514Y-86992017D02*
X167644847Y-86958684D01*
X167644847Y-86958684D02*
X167611514Y-86925350D01*
X167611514Y-86925350D02*
X167578181Y-86858684D01*
X167578181Y-86858684D02*
X167578181Y-86725350D01*
X167578181Y-86725350D02*
X167611514Y-86658684D01*
X167611514Y-86658684D02*
X167644847Y-86625350D01*
X167644847Y-86625350D02*
X167711514Y-86592017D01*
X167378181Y-87258684D02*
X167344847Y-87292017D01*
X167344847Y-87292017D02*
X167311514Y-87358684D01*
X167311514Y-87358684D02*
X167311514Y-87525351D01*
X167311514Y-87525351D02*
X167344847Y-87592017D01*
X167344847Y-87592017D02*
X167378181Y-87625351D01*
X167378181Y-87625351D02*
X167444847Y-87658684D01*
X167444847Y-87658684D02*
X167511514Y-87658684D01*
X167511514Y-87658684D02*
X167611514Y-87625351D01*
X167611514Y-87625351D02*
X168011514Y-87225351D01*
X168011514Y-87225351D02*
X168011514Y-87658684D01*
X167378181Y-87925351D02*
X167344847Y-87958684D01*
X167344847Y-87958684D02*
X167311514Y-88025351D01*
X167311514Y-88025351D02*
X167311514Y-88192018D01*
X167311514Y-88192018D02*
X167344847Y-88258684D01*
X167344847Y-88258684D02*
X167378181Y-88292018D01*
X167378181Y-88292018D02*
X167444847Y-88325351D01*
X167444847Y-88325351D02*
X167511514Y-88325351D01*
X167511514Y-88325351D02*
X167611514Y-88292018D01*
X167611514Y-88292018D02*
X168011514Y-87892018D01*
X168011514Y-87892018D02*
X168011514Y-88325351D01*
X167311514Y-88958685D02*
X167311514Y-88625351D01*
X167311514Y-88625351D02*
X167644847Y-88592018D01*
X167644847Y-88592018D02*
X167611514Y-88625351D01*
X167611514Y-88625351D02*
X167578181Y-88692018D01*
X167578181Y-88692018D02*
X167578181Y-88858685D01*
X167578181Y-88858685D02*
X167611514Y-88925351D01*
X167611514Y-88925351D02*
X167644847Y-88958685D01*
X167644847Y-88958685D02*
X167711514Y-88992018D01*
X167711514Y-88992018D02*
X167878181Y-88992018D01*
X167878181Y-88992018D02*
X167944847Y-88958685D01*
X167944847Y-88958685D02*
X167978181Y-88925351D01*
X167978181Y-88925351D02*
X168011514Y-88858685D01*
X168011514Y-88858685D02*
X168011514Y-88692018D01*
X168011514Y-88692018D02*
X167978181Y-88625351D01*
X167978181Y-88625351D02*
X167944847Y-88592018D01*
X167311514Y-89592018D02*
X167311514Y-89458685D01*
X167311514Y-89458685D02*
X167344847Y-89392018D01*
X167344847Y-89392018D02*
X167378181Y-89358685D01*
X167378181Y-89358685D02*
X167478181Y-89292018D01*
X167478181Y-89292018D02*
X167611514Y-89258685D01*
X167611514Y-89258685D02*
X167878181Y-89258685D01*
X167878181Y-89258685D02*
X167944847Y-89292018D01*
X167944847Y-89292018D02*
X167978181Y-89325352D01*
X167978181Y-89325352D02*
X168011514Y-89392018D01*
X168011514Y-89392018D02*
X168011514Y-89525352D01*
X168011514Y-89525352D02*
X167978181Y-89592018D01*
X167978181Y-89592018D02*
X167944847Y-89625352D01*
X167944847Y-89625352D02*
X167878181Y-89658685D01*
X167878181Y-89658685D02*
X167711514Y-89658685D01*
X167711514Y-89658685D02*
X167644847Y-89625352D01*
X167644847Y-89625352D02*
X167611514Y-89592018D01*
X167611514Y-89592018D02*
X167578181Y-89525352D01*
X167578181Y-89525352D02*
X167578181Y-89392018D01*
X167578181Y-89392018D02*
X167611514Y-89325352D01*
X167611514Y-89325352D02*
X167644847Y-89292018D01*
X167644847Y-89292018D02*
X167711514Y-89258685D01*
X167944847Y-89958685D02*
X167978181Y-89992019D01*
X167978181Y-89992019D02*
X168011514Y-89958685D01*
X168011514Y-89958685D02*
X167978181Y-89925352D01*
X167978181Y-89925352D02*
X167944847Y-89958685D01*
X167944847Y-89958685D02*
X168011514Y-89958685D01*
X167578181Y-89958685D02*
X167611514Y-89992019D01*
X167611514Y-89992019D02*
X167644847Y-89958685D01*
X167644847Y-89958685D02*
X167611514Y-89925352D01*
X167611514Y-89925352D02*
X167578181Y-89958685D01*
X167578181Y-89958685D02*
X167644847Y-89958685D01*
X168011514Y-90925351D02*
X167978181Y-90858685D01*
X167978181Y-90858685D02*
X167911514Y-90825351D01*
X167911514Y-90825351D02*
X167311514Y-90825351D01*
X168011514Y-91192018D02*
X167544847Y-91192018D01*
X167311514Y-91192018D02*
X167344847Y-91158685D01*
X167344847Y-91158685D02*
X167378181Y-91192018D01*
X167378181Y-91192018D02*
X167344847Y-91225352D01*
X167344847Y-91225352D02*
X167311514Y-91192018D01*
X167311514Y-91192018D02*
X167378181Y-91192018D01*
X168011514Y-91525351D02*
X167311514Y-91525351D01*
X167744847Y-91592018D02*
X168011514Y-91792018D01*
X167544847Y-91792018D02*
X167811514Y-91525351D01*
X167978181Y-92358685D02*
X168011514Y-92292018D01*
X168011514Y-92292018D02*
X168011514Y-92158685D01*
X168011514Y-92158685D02*
X167978181Y-92092018D01*
X167978181Y-92092018D02*
X167911514Y-92058685D01*
X167911514Y-92058685D02*
X167644847Y-92058685D01*
X167644847Y-92058685D02*
X167578181Y-92092018D01*
X167578181Y-92092018D02*
X167544847Y-92158685D01*
X167544847Y-92158685D02*
X167544847Y-92292018D01*
X167544847Y-92292018D02*
X167578181Y-92358685D01*
X167578181Y-92358685D02*
X167644847Y-92392018D01*
X167644847Y-92392018D02*
X167711514Y-92392018D01*
X167711514Y-92392018D02*
X167778181Y-92058685D01*
X167544847Y-93125351D02*
X167544847Y-93392018D01*
X168011514Y-93225351D02*
X167411514Y-93225351D01*
X167411514Y-93225351D02*
X167344847Y-93258685D01*
X167344847Y-93258685D02*
X167311514Y-93325351D01*
X167311514Y-93325351D02*
X167311514Y-93392018D01*
X168011514Y-93725351D02*
X167978181Y-93658685D01*
X167978181Y-93658685D02*
X167944847Y-93625351D01*
X167944847Y-93625351D02*
X167878181Y-93592018D01*
X167878181Y-93592018D02*
X167678181Y-93592018D01*
X167678181Y-93592018D02*
X167611514Y-93625351D01*
X167611514Y-93625351D02*
X167578181Y-93658685D01*
X167578181Y-93658685D02*
X167544847Y-93725351D01*
X167544847Y-93725351D02*
X167544847Y-93825351D01*
X167544847Y-93825351D02*
X167578181Y-93892018D01*
X167578181Y-93892018D02*
X167611514Y-93925351D01*
X167611514Y-93925351D02*
X167678181Y-93958685D01*
X167678181Y-93958685D02*
X167878181Y-93958685D01*
X167878181Y-93958685D02*
X167944847Y-93925351D01*
X167944847Y-93925351D02*
X167978181Y-93892018D01*
X167978181Y-93892018D02*
X168011514Y-93825351D01*
X168011514Y-93825351D02*
X168011514Y-93725351D01*
X168011514Y-94258684D02*
X167544847Y-94258684D01*
X167678181Y-94258684D02*
X167611514Y-94292018D01*
X167611514Y-94292018D02*
X167578181Y-94325351D01*
X167578181Y-94325351D02*
X167544847Y-94392018D01*
X167544847Y-94392018D02*
X167544847Y-94458684D01*
X167311514Y-95525350D02*
X167311514Y-95392017D01*
X167311514Y-95392017D02*
X167344847Y-95325350D01*
X167344847Y-95325350D02*
X167378181Y-95292017D01*
X167378181Y-95292017D02*
X167478181Y-95225350D01*
X167478181Y-95225350D02*
X167611514Y-95192017D01*
X167611514Y-95192017D02*
X167878181Y-95192017D01*
X167878181Y-95192017D02*
X167944847Y-95225350D01*
X167944847Y-95225350D02*
X167978181Y-95258684D01*
X167978181Y-95258684D02*
X168011514Y-95325350D01*
X168011514Y-95325350D02*
X168011514Y-95458684D01*
X168011514Y-95458684D02*
X167978181Y-95525350D01*
X167978181Y-95525350D02*
X167944847Y-95558684D01*
X167944847Y-95558684D02*
X167878181Y-95592017D01*
X167878181Y-95592017D02*
X167711514Y-95592017D01*
X167711514Y-95592017D02*
X167644847Y-95558684D01*
X167644847Y-95558684D02*
X167611514Y-95525350D01*
X167611514Y-95525350D02*
X167578181Y-95458684D01*
X167578181Y-95458684D02*
X167578181Y-95325350D01*
X167578181Y-95325350D02*
X167611514Y-95258684D01*
X167611514Y-95258684D02*
X167644847Y-95225350D01*
X167644847Y-95225350D02*
X167711514Y-95192017D01*
X167378181Y-95858684D02*
X167344847Y-95892017D01*
X167344847Y-95892017D02*
X167311514Y-95958684D01*
X167311514Y-95958684D02*
X167311514Y-96125351D01*
X167311514Y-96125351D02*
X167344847Y-96192017D01*
X167344847Y-96192017D02*
X167378181Y-96225351D01*
X167378181Y-96225351D02*
X167444847Y-96258684D01*
X167444847Y-96258684D02*
X167511514Y-96258684D01*
X167511514Y-96258684D02*
X167611514Y-96225351D01*
X167611514Y-96225351D02*
X168011514Y-95825351D01*
X168011514Y-95825351D02*
X168011514Y-96258684D01*
X167311514Y-96858684D02*
X167311514Y-96725351D01*
X167311514Y-96725351D02*
X167344847Y-96658684D01*
X167344847Y-96658684D02*
X167378181Y-96625351D01*
X167378181Y-96625351D02*
X167478181Y-96558684D01*
X167478181Y-96558684D02*
X167611514Y-96525351D01*
X167611514Y-96525351D02*
X167878181Y-96525351D01*
X167878181Y-96525351D02*
X167944847Y-96558684D01*
X167944847Y-96558684D02*
X167978181Y-96592018D01*
X167978181Y-96592018D02*
X168011514Y-96658684D01*
X168011514Y-96658684D02*
X168011514Y-96792018D01*
X168011514Y-96792018D02*
X167978181Y-96858684D01*
X167978181Y-96858684D02*
X167944847Y-96892018D01*
X167944847Y-96892018D02*
X167878181Y-96925351D01*
X167878181Y-96925351D02*
X167711514Y-96925351D01*
X167711514Y-96925351D02*
X167644847Y-96892018D01*
X167644847Y-96892018D02*
X167611514Y-96858684D01*
X167611514Y-96858684D02*
X167578181Y-96792018D01*
X167578181Y-96792018D02*
X167578181Y-96658684D01*
X167578181Y-96658684D02*
X167611514Y-96592018D01*
X167611514Y-96592018D02*
X167644847Y-96558684D01*
X167644847Y-96558684D02*
X167711514Y-96525351D01*
X167544847Y-97525351D02*
X168011514Y-97525351D01*
X167278181Y-97358685D02*
X167778181Y-97192018D01*
X167778181Y-97192018D02*
X167778181Y-97625351D01*
X168011514Y-98525351D02*
X167978181Y-98458685D01*
X167978181Y-98458685D02*
X167944847Y-98425351D01*
X167944847Y-98425351D02*
X167878181Y-98392018D01*
X167878181Y-98392018D02*
X167678181Y-98392018D01*
X167678181Y-98392018D02*
X167611514Y-98425351D01*
X167611514Y-98425351D02*
X167578181Y-98458685D01*
X167578181Y-98458685D02*
X167544847Y-98525351D01*
X167544847Y-98525351D02*
X167544847Y-98625351D01*
X167544847Y-98625351D02*
X167578181Y-98692018D01*
X167578181Y-98692018D02*
X167611514Y-98725351D01*
X167611514Y-98725351D02*
X167678181Y-98758685D01*
X167678181Y-98758685D02*
X167878181Y-98758685D01*
X167878181Y-98758685D02*
X167944847Y-98725351D01*
X167944847Y-98725351D02*
X167978181Y-98692018D01*
X167978181Y-98692018D02*
X168011514Y-98625351D01*
X168011514Y-98625351D02*
X168011514Y-98525351D01*
X168011514Y-99058684D02*
X167544847Y-99058684D01*
X167678181Y-99058684D02*
X167611514Y-99092018D01*
X167611514Y-99092018D02*
X167578181Y-99125351D01*
X167578181Y-99125351D02*
X167544847Y-99192018D01*
X167544847Y-99192018D02*
X167544847Y-99258684D01*
X168011514Y-100125350D02*
X167978181Y-100058684D01*
X167978181Y-100058684D02*
X167944847Y-100025350D01*
X167944847Y-100025350D02*
X167878181Y-99992017D01*
X167878181Y-99992017D02*
X167678181Y-99992017D01*
X167678181Y-99992017D02*
X167611514Y-100025350D01*
X167611514Y-100025350D02*
X167578181Y-100058684D01*
X167578181Y-100058684D02*
X167544847Y-100125350D01*
X167544847Y-100125350D02*
X167544847Y-100225350D01*
X167544847Y-100225350D02*
X167578181Y-100292017D01*
X167578181Y-100292017D02*
X167611514Y-100325350D01*
X167611514Y-100325350D02*
X167678181Y-100358684D01*
X167678181Y-100358684D02*
X167878181Y-100358684D01*
X167878181Y-100358684D02*
X167944847Y-100325350D01*
X167944847Y-100325350D02*
X167978181Y-100292017D01*
X167978181Y-100292017D02*
X168011514Y-100225350D01*
X168011514Y-100225350D02*
X168011514Y-100125350D01*
X167544847Y-100658683D02*
X168244847Y-100658683D01*
X167578181Y-100658683D02*
X167544847Y-100725350D01*
X167544847Y-100725350D02*
X167544847Y-100858683D01*
X167544847Y-100858683D02*
X167578181Y-100925350D01*
X167578181Y-100925350D02*
X167611514Y-100958683D01*
X167611514Y-100958683D02*
X167678181Y-100992017D01*
X167678181Y-100992017D02*
X167878181Y-100992017D01*
X167878181Y-100992017D02*
X167944847Y-100958683D01*
X167944847Y-100958683D02*
X167978181Y-100925350D01*
X167978181Y-100925350D02*
X168011514Y-100858683D01*
X168011514Y-100858683D02*
X168011514Y-100725350D01*
X168011514Y-100725350D02*
X167978181Y-100658683D01*
X167978181Y-101558683D02*
X168011514Y-101492016D01*
X168011514Y-101492016D02*
X168011514Y-101358683D01*
X168011514Y-101358683D02*
X167978181Y-101292016D01*
X167978181Y-101292016D02*
X167911514Y-101258683D01*
X167911514Y-101258683D02*
X167644847Y-101258683D01*
X167644847Y-101258683D02*
X167578181Y-101292016D01*
X167578181Y-101292016D02*
X167544847Y-101358683D01*
X167544847Y-101358683D02*
X167544847Y-101492016D01*
X167544847Y-101492016D02*
X167578181Y-101558683D01*
X167578181Y-101558683D02*
X167644847Y-101592016D01*
X167644847Y-101592016D02*
X167711514Y-101592016D01*
X167711514Y-101592016D02*
X167778181Y-101258683D01*
X167544847Y-101892016D02*
X168011514Y-101892016D01*
X167611514Y-101892016D02*
X167578181Y-101925350D01*
X167578181Y-101925350D02*
X167544847Y-101992016D01*
X167544847Y-101992016D02*
X167544847Y-102092016D01*
X167544847Y-102092016D02*
X167578181Y-102158683D01*
X167578181Y-102158683D02*
X167644847Y-102192016D01*
X167644847Y-102192016D02*
X168011514Y-102192016D01*
X167978181Y-102792016D02*
X168011514Y-102725349D01*
X168011514Y-102725349D02*
X168011514Y-102592016D01*
X168011514Y-102592016D02*
X167978181Y-102525349D01*
X167978181Y-102525349D02*
X167911514Y-102492016D01*
X167911514Y-102492016D02*
X167644847Y-102492016D01*
X167644847Y-102492016D02*
X167578181Y-102525349D01*
X167578181Y-102525349D02*
X167544847Y-102592016D01*
X167544847Y-102592016D02*
X167544847Y-102725349D01*
X167544847Y-102725349D02*
X167578181Y-102792016D01*
X167578181Y-102792016D02*
X167644847Y-102825349D01*
X167644847Y-102825349D02*
X167711514Y-102825349D01*
X167711514Y-102825349D02*
X167778181Y-102492016D01*
X168011514Y-103425349D02*
X167311514Y-103425349D01*
X167978181Y-103425349D02*
X168011514Y-103358683D01*
X168011514Y-103358683D02*
X168011514Y-103225349D01*
X168011514Y-103225349D02*
X167978181Y-103158683D01*
X167978181Y-103158683D02*
X167944847Y-103125349D01*
X167944847Y-103125349D02*
X167878181Y-103092016D01*
X167878181Y-103092016D02*
X167678181Y-103092016D01*
X167678181Y-103092016D02*
X167611514Y-103125349D01*
X167611514Y-103125349D02*
X167578181Y-103158683D01*
X167578181Y-103158683D02*
X167544847Y-103225349D01*
X167544847Y-103225349D02*
X167544847Y-103358683D01*
X167544847Y-103358683D02*
X167578181Y-103425349D01*
X168011514Y-104592015D02*
X167644847Y-104592015D01*
X167644847Y-104592015D02*
X167578181Y-104558682D01*
X167578181Y-104558682D02*
X167544847Y-104492015D01*
X167544847Y-104492015D02*
X167544847Y-104358682D01*
X167544847Y-104358682D02*
X167578181Y-104292015D01*
X167978181Y-104592015D02*
X168011514Y-104525349D01*
X168011514Y-104525349D02*
X168011514Y-104358682D01*
X168011514Y-104358682D02*
X167978181Y-104292015D01*
X167978181Y-104292015D02*
X167911514Y-104258682D01*
X167911514Y-104258682D02*
X167844847Y-104258682D01*
X167844847Y-104258682D02*
X167778181Y-104292015D01*
X167778181Y-104292015D02*
X167744847Y-104358682D01*
X167744847Y-104358682D02*
X167744847Y-104525349D01*
X167744847Y-104525349D02*
X167711514Y-104592015D01*
X167544847Y-104925348D02*
X168011514Y-104925348D01*
X167611514Y-104925348D02*
X167578181Y-104958682D01*
X167578181Y-104958682D02*
X167544847Y-105025348D01*
X167544847Y-105025348D02*
X167544847Y-105125348D01*
X167544847Y-105125348D02*
X167578181Y-105192015D01*
X167578181Y-105192015D02*
X167644847Y-105225348D01*
X167644847Y-105225348D02*
X168011514Y-105225348D01*
X168011514Y-105858681D02*
X167311514Y-105858681D01*
X167978181Y-105858681D02*
X168011514Y-105792015D01*
X168011514Y-105792015D02*
X168011514Y-105658681D01*
X168011514Y-105658681D02*
X167978181Y-105592015D01*
X167978181Y-105592015D02*
X167944847Y-105558681D01*
X167944847Y-105558681D02*
X167878181Y-105525348D01*
X167878181Y-105525348D02*
X167678181Y-105525348D01*
X167678181Y-105525348D02*
X167611514Y-105558681D01*
X167611514Y-105558681D02*
X167578181Y-105592015D01*
X167578181Y-105592015D02*
X167544847Y-105658681D01*
X167544847Y-105658681D02*
X167544847Y-105792015D01*
X167544847Y-105792015D02*
X167578181Y-105858681D01*
X167978181Y-107025347D02*
X168011514Y-106958681D01*
X168011514Y-106958681D02*
X168011514Y-106825347D01*
X168011514Y-106825347D02*
X167978181Y-106758681D01*
X167978181Y-106758681D02*
X167944847Y-106725347D01*
X167944847Y-106725347D02*
X167878181Y-106692014D01*
X167878181Y-106692014D02*
X167678181Y-106692014D01*
X167678181Y-106692014D02*
X167611514Y-106725347D01*
X167611514Y-106725347D02*
X167578181Y-106758681D01*
X167578181Y-106758681D02*
X167544847Y-106825347D01*
X167544847Y-106825347D02*
X167544847Y-106958681D01*
X167544847Y-106958681D02*
X167578181Y-107025347D01*
X168011514Y-107425347D02*
X167978181Y-107358681D01*
X167978181Y-107358681D02*
X167944847Y-107325347D01*
X167944847Y-107325347D02*
X167878181Y-107292014D01*
X167878181Y-107292014D02*
X167678181Y-107292014D01*
X167678181Y-107292014D02*
X167611514Y-107325347D01*
X167611514Y-107325347D02*
X167578181Y-107358681D01*
X167578181Y-107358681D02*
X167544847Y-107425347D01*
X167544847Y-107425347D02*
X167544847Y-107525347D01*
X167544847Y-107525347D02*
X167578181Y-107592014D01*
X167578181Y-107592014D02*
X167611514Y-107625347D01*
X167611514Y-107625347D02*
X167678181Y-107658681D01*
X167678181Y-107658681D02*
X167878181Y-107658681D01*
X167878181Y-107658681D02*
X167944847Y-107625347D01*
X167944847Y-107625347D02*
X167978181Y-107592014D01*
X167978181Y-107592014D02*
X168011514Y-107525347D01*
X168011514Y-107525347D02*
X168011514Y-107425347D01*
X167544847Y-107958680D02*
X168011514Y-107958680D01*
X167611514Y-107958680D02*
X167578181Y-107992014D01*
X167578181Y-107992014D02*
X167544847Y-108058680D01*
X167544847Y-108058680D02*
X167544847Y-108158680D01*
X167544847Y-108158680D02*
X167578181Y-108225347D01*
X167578181Y-108225347D02*
X167644847Y-108258680D01*
X167644847Y-108258680D02*
X168011514Y-108258680D01*
X167544847Y-108592013D02*
X168011514Y-108592013D01*
X167611514Y-108592013D02*
X167578181Y-108625347D01*
X167578181Y-108625347D02*
X167544847Y-108692013D01*
X167544847Y-108692013D02*
X167544847Y-108792013D01*
X167544847Y-108792013D02*
X167578181Y-108858680D01*
X167578181Y-108858680D02*
X167644847Y-108892013D01*
X167644847Y-108892013D02*
X168011514Y-108892013D01*
X167978181Y-109492013D02*
X168011514Y-109425346D01*
X168011514Y-109425346D02*
X168011514Y-109292013D01*
X168011514Y-109292013D02*
X167978181Y-109225346D01*
X167978181Y-109225346D02*
X167911514Y-109192013D01*
X167911514Y-109192013D02*
X167644847Y-109192013D01*
X167644847Y-109192013D02*
X167578181Y-109225346D01*
X167578181Y-109225346D02*
X167544847Y-109292013D01*
X167544847Y-109292013D02*
X167544847Y-109425346D01*
X167544847Y-109425346D02*
X167578181Y-109492013D01*
X167578181Y-109492013D02*
X167644847Y-109525346D01*
X167644847Y-109525346D02*
X167711514Y-109525346D01*
X167711514Y-109525346D02*
X167778181Y-109192013D01*
X167978181Y-110125346D02*
X168011514Y-110058680D01*
X168011514Y-110058680D02*
X168011514Y-109925346D01*
X168011514Y-109925346D02*
X167978181Y-109858680D01*
X167978181Y-109858680D02*
X167944847Y-109825346D01*
X167944847Y-109825346D02*
X167878181Y-109792013D01*
X167878181Y-109792013D02*
X167678181Y-109792013D01*
X167678181Y-109792013D02*
X167611514Y-109825346D01*
X167611514Y-109825346D02*
X167578181Y-109858680D01*
X167578181Y-109858680D02*
X167544847Y-109925346D01*
X167544847Y-109925346D02*
X167544847Y-110058680D01*
X167544847Y-110058680D02*
X167578181Y-110125346D01*
X167544847Y-110325346D02*
X167544847Y-110592013D01*
X167311514Y-110425346D02*
X167911514Y-110425346D01*
X167911514Y-110425346D02*
X167978181Y-110458680D01*
X167978181Y-110458680D02*
X168011514Y-110525346D01*
X168011514Y-110525346D02*
X168011514Y-110592013D01*
X167978181Y-111092013D02*
X168011514Y-111025346D01*
X168011514Y-111025346D02*
X168011514Y-110892013D01*
X168011514Y-110892013D02*
X167978181Y-110825346D01*
X167978181Y-110825346D02*
X167911514Y-110792013D01*
X167911514Y-110792013D02*
X167644847Y-110792013D01*
X167644847Y-110792013D02*
X167578181Y-110825346D01*
X167578181Y-110825346D02*
X167544847Y-110892013D01*
X167544847Y-110892013D02*
X167544847Y-111025346D01*
X167544847Y-111025346D02*
X167578181Y-111092013D01*
X167578181Y-111092013D02*
X167644847Y-111125346D01*
X167644847Y-111125346D02*
X167711514Y-111125346D01*
X167711514Y-111125346D02*
X167778181Y-110792013D01*
X168011514Y-111725346D02*
X167311514Y-111725346D01*
X167978181Y-111725346D02*
X168011514Y-111658680D01*
X168011514Y-111658680D02*
X168011514Y-111525346D01*
X168011514Y-111525346D02*
X167978181Y-111458680D01*
X167978181Y-111458680D02*
X167944847Y-111425346D01*
X167944847Y-111425346D02*
X167878181Y-111392013D01*
X167878181Y-111392013D02*
X167678181Y-111392013D01*
X167678181Y-111392013D02*
X167611514Y-111425346D01*
X167611514Y-111425346D02*
X167578181Y-111458680D01*
X167578181Y-111458680D02*
X167544847Y-111525346D01*
X167544847Y-111525346D02*
X167544847Y-111658680D01*
X167544847Y-111658680D02*
X167578181Y-111725346D01*
X168671808Y-86525350D02*
X168671808Y-86792017D01*
X168438475Y-86625350D02*
X169038475Y-86625350D01*
X169038475Y-86625350D02*
X169105142Y-86658684D01*
X169105142Y-86658684D02*
X169138475Y-86725350D01*
X169138475Y-86725350D02*
X169138475Y-86792017D01*
X169138475Y-87125350D02*
X169105142Y-87058684D01*
X169105142Y-87058684D02*
X169071808Y-87025350D01*
X169071808Y-87025350D02*
X169005142Y-86992017D01*
X169005142Y-86992017D02*
X168805142Y-86992017D01*
X168805142Y-86992017D02*
X168738475Y-87025350D01*
X168738475Y-87025350D02*
X168705142Y-87058684D01*
X168705142Y-87058684D02*
X168671808Y-87125350D01*
X168671808Y-87125350D02*
X168671808Y-87225350D01*
X168671808Y-87225350D02*
X168705142Y-87292017D01*
X168705142Y-87292017D02*
X168738475Y-87325350D01*
X168738475Y-87325350D02*
X168805142Y-87358684D01*
X168805142Y-87358684D02*
X169005142Y-87358684D01*
X169005142Y-87358684D02*
X169071808Y-87325350D01*
X169071808Y-87325350D02*
X169105142Y-87292017D01*
X169105142Y-87292017D02*
X169138475Y-87225350D01*
X169138475Y-87225350D02*
X169138475Y-87125350D01*
X169071808Y-88292016D02*
X169105142Y-88325350D01*
X169105142Y-88325350D02*
X169138475Y-88292016D01*
X169138475Y-88292016D02*
X169105142Y-88258683D01*
X169105142Y-88258683D02*
X169071808Y-88292016D01*
X169071808Y-88292016D02*
X169138475Y-88292016D01*
X168471808Y-88158683D02*
X168438475Y-88225350D01*
X168438475Y-88225350D02*
X168438475Y-88392016D01*
X168438475Y-88392016D02*
X168471808Y-88458683D01*
X168471808Y-88458683D02*
X168538475Y-88492016D01*
X168538475Y-88492016D02*
X168605142Y-88492016D01*
X168605142Y-88492016D02*
X168671808Y-88458683D01*
X168671808Y-88458683D02*
X168705142Y-88425350D01*
X168705142Y-88425350D02*
X168738475Y-88358683D01*
X168738475Y-88358683D02*
X168771808Y-88325350D01*
X168771808Y-88325350D02*
X168838475Y-88292016D01*
X168838475Y-88292016D02*
X168871808Y-88292016D01*
X169071808Y-88892016D02*
X169105142Y-88925350D01*
X169105142Y-88925350D02*
X169138475Y-88892016D01*
X169138475Y-88892016D02*
X169105142Y-88858683D01*
X169105142Y-88858683D02*
X169071808Y-88892016D01*
X169071808Y-88892016D02*
X169138475Y-88892016D01*
X168471808Y-88758683D02*
X168438475Y-88825350D01*
X168438475Y-88825350D02*
X168438475Y-88992016D01*
X168438475Y-88992016D02*
X168471808Y-89058683D01*
X168471808Y-89058683D02*
X168538475Y-89092016D01*
X168538475Y-89092016D02*
X168605142Y-89092016D01*
X168605142Y-89092016D02*
X168671808Y-89058683D01*
X168671808Y-89058683D02*
X168705142Y-89025350D01*
X168705142Y-89025350D02*
X168738475Y-88958683D01*
X168738475Y-88958683D02*
X168771808Y-88925350D01*
X168771808Y-88925350D02*
X168838475Y-88892016D01*
X168838475Y-88892016D02*
X168871808Y-88892016D01*
X169071808Y-89492016D02*
X169105142Y-89525350D01*
X169105142Y-89525350D02*
X169138475Y-89492016D01*
X169138475Y-89492016D02*
X169105142Y-89458683D01*
X169105142Y-89458683D02*
X169071808Y-89492016D01*
X169071808Y-89492016D02*
X169138475Y-89492016D01*
X168471808Y-89358683D02*
X168438475Y-89425350D01*
X168438475Y-89425350D02*
X168438475Y-89592016D01*
X168438475Y-89592016D02*
X168471808Y-89658683D01*
X168471808Y-89658683D02*
X168538475Y-89692016D01*
X168538475Y-89692016D02*
X168605142Y-89692016D01*
X168605142Y-89692016D02*
X168671808Y-89658683D01*
X168671808Y-89658683D02*
X168705142Y-89625350D01*
X168705142Y-89625350D02*
X168738475Y-89558683D01*
X168738475Y-89558683D02*
X168771808Y-89525350D01*
X168771808Y-89525350D02*
X168838475Y-89492016D01*
X168838475Y-89492016D02*
X168871808Y-89492016D01*
X168671808Y-90425349D02*
X168671808Y-90692016D01*
X168438475Y-90525349D02*
X169038475Y-90525349D01*
X169038475Y-90525349D02*
X169105142Y-90558683D01*
X169105142Y-90558683D02*
X169138475Y-90625349D01*
X169138475Y-90625349D02*
X169138475Y-90692016D01*
X169138475Y-91025349D02*
X169105142Y-90958683D01*
X169105142Y-90958683D02*
X169071808Y-90925349D01*
X169071808Y-90925349D02*
X169005142Y-90892016D01*
X169005142Y-90892016D02*
X168805142Y-90892016D01*
X168805142Y-90892016D02*
X168738475Y-90925349D01*
X168738475Y-90925349D02*
X168705142Y-90958683D01*
X168705142Y-90958683D02*
X168671808Y-91025349D01*
X168671808Y-91025349D02*
X168671808Y-91125349D01*
X168671808Y-91125349D02*
X168705142Y-91192016D01*
X168705142Y-91192016D02*
X168738475Y-91225349D01*
X168738475Y-91225349D02*
X168805142Y-91258683D01*
X168805142Y-91258683D02*
X169005142Y-91258683D01*
X169005142Y-91258683D02*
X169071808Y-91225349D01*
X169071808Y-91225349D02*
X169105142Y-91192016D01*
X169105142Y-91192016D02*
X169138475Y-91125349D01*
X169138475Y-91125349D02*
X169138475Y-91025349D01*
X169105142Y-92058682D02*
X169138475Y-92125349D01*
X169138475Y-92125349D02*
X169138475Y-92258682D01*
X169138475Y-92258682D02*
X169105142Y-92325349D01*
X169105142Y-92325349D02*
X169038475Y-92358682D01*
X169038475Y-92358682D02*
X169005142Y-92358682D01*
X169005142Y-92358682D02*
X168938475Y-92325349D01*
X168938475Y-92325349D02*
X168905142Y-92258682D01*
X168905142Y-92258682D02*
X168905142Y-92158682D01*
X168905142Y-92158682D02*
X168871808Y-92092015D01*
X168871808Y-92092015D02*
X168805142Y-92058682D01*
X168805142Y-92058682D02*
X168771808Y-92058682D01*
X168771808Y-92058682D02*
X168705142Y-92092015D01*
X168705142Y-92092015D02*
X168671808Y-92158682D01*
X168671808Y-92158682D02*
X168671808Y-92258682D01*
X168671808Y-92258682D02*
X168705142Y-92325349D01*
X169105142Y-92925349D02*
X169138475Y-92858682D01*
X169138475Y-92858682D02*
X169138475Y-92725349D01*
X169138475Y-92725349D02*
X169105142Y-92658682D01*
X169105142Y-92658682D02*
X169038475Y-92625349D01*
X169038475Y-92625349D02*
X168771808Y-92625349D01*
X168771808Y-92625349D02*
X168705142Y-92658682D01*
X168705142Y-92658682D02*
X168671808Y-92725349D01*
X168671808Y-92725349D02*
X168671808Y-92858682D01*
X168671808Y-92858682D02*
X168705142Y-92925349D01*
X168705142Y-92925349D02*
X168771808Y-92958682D01*
X168771808Y-92958682D02*
X168838475Y-92958682D01*
X168838475Y-92958682D02*
X168905142Y-92625349D01*
X169138475Y-93358682D02*
X169105142Y-93292016D01*
X169105142Y-93292016D02*
X169038475Y-93258682D01*
X169038475Y-93258682D02*
X168438475Y-93258682D01*
X169105142Y-93892016D02*
X169138475Y-93825349D01*
X169138475Y-93825349D02*
X169138475Y-93692016D01*
X169138475Y-93692016D02*
X169105142Y-93625349D01*
X169105142Y-93625349D02*
X169038475Y-93592016D01*
X169038475Y-93592016D02*
X168771808Y-93592016D01*
X168771808Y-93592016D02*
X168705142Y-93625349D01*
X168705142Y-93625349D02*
X168671808Y-93692016D01*
X168671808Y-93692016D02*
X168671808Y-93825349D01*
X168671808Y-93825349D02*
X168705142Y-93892016D01*
X168705142Y-93892016D02*
X168771808Y-93925349D01*
X168771808Y-93925349D02*
X168838475Y-93925349D01*
X168838475Y-93925349D02*
X168905142Y-93592016D01*
X169105142Y-94525349D02*
X169138475Y-94458683D01*
X169138475Y-94458683D02*
X169138475Y-94325349D01*
X169138475Y-94325349D02*
X169105142Y-94258683D01*
X169105142Y-94258683D02*
X169071808Y-94225349D01*
X169071808Y-94225349D02*
X169005142Y-94192016D01*
X169005142Y-94192016D02*
X168805142Y-94192016D01*
X168805142Y-94192016D02*
X168738475Y-94225349D01*
X168738475Y-94225349D02*
X168705142Y-94258683D01*
X168705142Y-94258683D02*
X168671808Y-94325349D01*
X168671808Y-94325349D02*
X168671808Y-94458683D01*
X168671808Y-94458683D02*
X168705142Y-94525349D01*
X168671808Y-94725349D02*
X168671808Y-94992016D01*
X168438475Y-94825349D02*
X169038475Y-94825349D01*
X169038475Y-94825349D02*
X169105142Y-94858683D01*
X169105142Y-94858683D02*
X169138475Y-94925349D01*
X169138475Y-94925349D02*
X169138475Y-94992016D01*
X169138475Y-95858682D02*
X169105142Y-95792016D01*
X169105142Y-95792016D02*
X169071808Y-95758682D01*
X169071808Y-95758682D02*
X169005142Y-95725349D01*
X169005142Y-95725349D02*
X168805142Y-95725349D01*
X168805142Y-95725349D02*
X168738475Y-95758682D01*
X168738475Y-95758682D02*
X168705142Y-95792016D01*
X168705142Y-95792016D02*
X168671808Y-95858682D01*
X168671808Y-95858682D02*
X168671808Y-95958682D01*
X168671808Y-95958682D02*
X168705142Y-96025349D01*
X168705142Y-96025349D02*
X168738475Y-96058682D01*
X168738475Y-96058682D02*
X168805142Y-96092016D01*
X168805142Y-96092016D02*
X169005142Y-96092016D01*
X169005142Y-96092016D02*
X169071808Y-96058682D01*
X169071808Y-96058682D02*
X169105142Y-96025349D01*
X169105142Y-96025349D02*
X169138475Y-95958682D01*
X169138475Y-95958682D02*
X169138475Y-95858682D01*
X168671808Y-96392015D02*
X169138475Y-96392015D01*
X168738475Y-96392015D02*
X168705142Y-96425349D01*
X168705142Y-96425349D02*
X168671808Y-96492015D01*
X168671808Y-96492015D02*
X168671808Y-96592015D01*
X168671808Y-96592015D02*
X168705142Y-96658682D01*
X168705142Y-96658682D02*
X168771808Y-96692015D01*
X168771808Y-96692015D02*
X169138475Y-96692015D01*
X169105142Y-97292015D02*
X169138475Y-97225348D01*
X169138475Y-97225348D02*
X169138475Y-97092015D01*
X169138475Y-97092015D02*
X169105142Y-97025348D01*
X169105142Y-97025348D02*
X169038475Y-96992015D01*
X169038475Y-96992015D02*
X168771808Y-96992015D01*
X168771808Y-96992015D02*
X168705142Y-97025348D01*
X168705142Y-97025348D02*
X168671808Y-97092015D01*
X168671808Y-97092015D02*
X168671808Y-97225348D01*
X168671808Y-97225348D02*
X168705142Y-97292015D01*
X168705142Y-97292015D02*
X168771808Y-97325348D01*
X168771808Y-97325348D02*
X168838475Y-97325348D01*
X168838475Y-97325348D02*
X168905142Y-96992015D01*
X169138475Y-98258681D02*
X169105142Y-98192015D01*
X169105142Y-98192015D02*
X169071808Y-98158681D01*
X169071808Y-98158681D02*
X169005142Y-98125348D01*
X169005142Y-98125348D02*
X168805142Y-98125348D01*
X168805142Y-98125348D02*
X168738475Y-98158681D01*
X168738475Y-98158681D02*
X168705142Y-98192015D01*
X168705142Y-98192015D02*
X168671808Y-98258681D01*
X168671808Y-98258681D02*
X168671808Y-98358681D01*
X168671808Y-98358681D02*
X168705142Y-98425348D01*
X168705142Y-98425348D02*
X168738475Y-98458681D01*
X168738475Y-98458681D02*
X168805142Y-98492015D01*
X168805142Y-98492015D02*
X169005142Y-98492015D01*
X169005142Y-98492015D02*
X169071808Y-98458681D01*
X169071808Y-98458681D02*
X169105142Y-98425348D01*
X169105142Y-98425348D02*
X169138475Y-98358681D01*
X169138475Y-98358681D02*
X169138475Y-98258681D01*
X168671808Y-98692014D02*
X168671808Y-98958681D01*
X169138475Y-98792014D02*
X168538475Y-98792014D01*
X168538475Y-98792014D02*
X168471808Y-98825348D01*
X168471808Y-98825348D02*
X168438475Y-98892014D01*
X168438475Y-98892014D02*
X168438475Y-98958681D01*
X168671808Y-99625347D02*
X168671808Y-99892014D01*
X169138475Y-99725347D02*
X168538475Y-99725347D01*
X168538475Y-99725347D02*
X168471808Y-99758681D01*
X168471808Y-99758681D02*
X168438475Y-99825347D01*
X168438475Y-99825347D02*
X168438475Y-99892014D01*
X169138475Y-100225347D02*
X169105142Y-100158681D01*
X169105142Y-100158681D02*
X169071808Y-100125347D01*
X169071808Y-100125347D02*
X169005142Y-100092014D01*
X169005142Y-100092014D02*
X168805142Y-100092014D01*
X168805142Y-100092014D02*
X168738475Y-100125347D01*
X168738475Y-100125347D02*
X168705142Y-100158681D01*
X168705142Y-100158681D02*
X168671808Y-100225347D01*
X168671808Y-100225347D02*
X168671808Y-100325347D01*
X168671808Y-100325347D02*
X168705142Y-100392014D01*
X168705142Y-100392014D02*
X168738475Y-100425347D01*
X168738475Y-100425347D02*
X168805142Y-100458681D01*
X168805142Y-100458681D02*
X169005142Y-100458681D01*
X169005142Y-100458681D02*
X169071808Y-100425347D01*
X169071808Y-100425347D02*
X169105142Y-100392014D01*
X169105142Y-100392014D02*
X169138475Y-100325347D01*
X169138475Y-100325347D02*
X169138475Y-100225347D01*
X168671808Y-101058680D02*
X169138475Y-101058680D01*
X168671808Y-100758680D02*
X169038475Y-100758680D01*
X169038475Y-100758680D02*
X169105142Y-100792014D01*
X169105142Y-100792014D02*
X169138475Y-100858680D01*
X169138475Y-100858680D02*
X169138475Y-100958680D01*
X169138475Y-100958680D02*
X169105142Y-101025347D01*
X169105142Y-101025347D02*
X169071808Y-101058680D01*
X169138475Y-101392013D02*
X168671808Y-101392013D01*
X168805142Y-101392013D02*
X168738475Y-101425347D01*
X168738475Y-101425347D02*
X168705142Y-101458680D01*
X168705142Y-101458680D02*
X168671808Y-101525347D01*
X168671808Y-101525347D02*
X168671808Y-101592013D01*
X168738475Y-102458679D02*
X168705142Y-102392013D01*
X168705142Y-102392013D02*
X168671808Y-102358679D01*
X168671808Y-102358679D02*
X168605142Y-102325346D01*
X168605142Y-102325346D02*
X168571808Y-102325346D01*
X168571808Y-102325346D02*
X168505142Y-102358679D01*
X168505142Y-102358679D02*
X168471808Y-102392013D01*
X168471808Y-102392013D02*
X168438475Y-102458679D01*
X168438475Y-102458679D02*
X168438475Y-102592013D01*
X168438475Y-102592013D02*
X168471808Y-102658679D01*
X168471808Y-102658679D02*
X168505142Y-102692013D01*
X168505142Y-102692013D02*
X168571808Y-102725346D01*
X168571808Y-102725346D02*
X168605142Y-102725346D01*
X168605142Y-102725346D02*
X168671808Y-102692013D01*
X168671808Y-102692013D02*
X168705142Y-102658679D01*
X168705142Y-102658679D02*
X168738475Y-102592013D01*
X168738475Y-102592013D02*
X168738475Y-102458679D01*
X168738475Y-102458679D02*
X168771808Y-102392013D01*
X168771808Y-102392013D02*
X168805142Y-102358679D01*
X168805142Y-102358679D02*
X168871808Y-102325346D01*
X168871808Y-102325346D02*
X169005142Y-102325346D01*
X169005142Y-102325346D02*
X169071808Y-102358679D01*
X169071808Y-102358679D02*
X169105142Y-102392013D01*
X169105142Y-102392013D02*
X169138475Y-102458679D01*
X169138475Y-102458679D02*
X169138475Y-102592013D01*
X169138475Y-102592013D02*
X169105142Y-102658679D01*
X169105142Y-102658679D02*
X169071808Y-102692013D01*
X169071808Y-102692013D02*
X169005142Y-102725346D01*
X169005142Y-102725346D02*
X168871808Y-102725346D01*
X168871808Y-102725346D02*
X168805142Y-102692013D01*
X168805142Y-102692013D02*
X168771808Y-102658679D01*
X168771808Y-102658679D02*
X168738475Y-102592013D01*
X169138475Y-103025346D02*
X168438475Y-103025346D01*
X169138475Y-103425346D02*
X168738475Y-103125346D01*
X168438475Y-103425346D02*
X168838475Y-103025346D01*
X169138475Y-104258679D02*
X168438475Y-104258679D01*
X168705142Y-104258679D02*
X168671808Y-104325346D01*
X168671808Y-104325346D02*
X168671808Y-104458679D01*
X168671808Y-104458679D02*
X168705142Y-104525346D01*
X168705142Y-104525346D02*
X168738475Y-104558679D01*
X168738475Y-104558679D02*
X168805142Y-104592013D01*
X168805142Y-104592013D02*
X169005142Y-104592013D01*
X169005142Y-104592013D02*
X169071808Y-104558679D01*
X169071808Y-104558679D02*
X169105142Y-104525346D01*
X169105142Y-104525346D02*
X169138475Y-104458679D01*
X169138475Y-104458679D02*
X169138475Y-104325346D01*
X169138475Y-104325346D02*
X169105142Y-104258679D01*
X169138475Y-105192012D02*
X168771808Y-105192012D01*
X168771808Y-105192012D02*
X168705142Y-105158679D01*
X168705142Y-105158679D02*
X168671808Y-105092012D01*
X168671808Y-105092012D02*
X168671808Y-104958679D01*
X168671808Y-104958679D02*
X168705142Y-104892012D01*
X169105142Y-105192012D02*
X169138475Y-105125346D01*
X169138475Y-105125346D02*
X169138475Y-104958679D01*
X169138475Y-104958679D02*
X169105142Y-104892012D01*
X169105142Y-104892012D02*
X169038475Y-104858679D01*
X169038475Y-104858679D02*
X168971808Y-104858679D01*
X168971808Y-104858679D02*
X168905142Y-104892012D01*
X168905142Y-104892012D02*
X168871808Y-104958679D01*
X168871808Y-104958679D02*
X168871808Y-105125346D01*
X168871808Y-105125346D02*
X168838475Y-105192012D01*
X168671808Y-105525345D02*
X169138475Y-105525345D01*
X168738475Y-105525345D02*
X168705142Y-105558679D01*
X168705142Y-105558679D02*
X168671808Y-105625345D01*
X168671808Y-105625345D02*
X168671808Y-105725345D01*
X168671808Y-105725345D02*
X168705142Y-105792012D01*
X168705142Y-105792012D02*
X168771808Y-105825345D01*
X168771808Y-105825345D02*
X169138475Y-105825345D01*
X169138475Y-106158678D02*
X168438475Y-106158678D01*
X168871808Y-106225345D02*
X169138475Y-106425345D01*
X168671808Y-106425345D02*
X168938475Y-106158678D01*
X169105142Y-106692012D02*
X169138475Y-106758679D01*
X169138475Y-106758679D02*
X169138475Y-106892012D01*
X169138475Y-106892012D02*
X169105142Y-106958679D01*
X169105142Y-106958679D02*
X169038475Y-106992012D01*
X169038475Y-106992012D02*
X169005142Y-106992012D01*
X169005142Y-106992012D02*
X168938475Y-106958679D01*
X168938475Y-106958679D02*
X168905142Y-106892012D01*
X168905142Y-106892012D02*
X168905142Y-106792012D01*
X168905142Y-106792012D02*
X168871808Y-106725345D01*
X168871808Y-106725345D02*
X168805142Y-106692012D01*
X168805142Y-106692012D02*
X168771808Y-106692012D01*
X168771808Y-106692012D02*
X168705142Y-106725345D01*
X168705142Y-106725345D02*
X168671808Y-106792012D01*
X168671808Y-106792012D02*
X168671808Y-106892012D01*
X168671808Y-106892012D02*
X168705142Y-106958679D01*
X172733072Y-86825350D02*
X173233072Y-86825350D01*
X173233072Y-86825350D02*
X173333072Y-86792017D01*
X173333072Y-86792017D02*
X173399739Y-86725350D01*
X173399739Y-86725350D02*
X173433072Y-86625350D01*
X173433072Y-86625350D02*
X173433072Y-86558684D01*
X173433072Y-87525350D02*
X173433072Y-87125350D01*
X173433072Y-87325350D02*
X172733072Y-87325350D01*
X172733072Y-87325350D02*
X172833072Y-87258683D01*
X172833072Y-87258683D02*
X172899739Y-87192017D01*
X172899739Y-87192017D02*
X172933072Y-87125350D01*
X173366405Y-87825350D02*
X173399739Y-87858684D01*
X173399739Y-87858684D02*
X173433072Y-87825350D01*
X173433072Y-87825350D02*
X173399739Y-87792017D01*
X173399739Y-87792017D02*
X173366405Y-87825350D01*
X173366405Y-87825350D02*
X173433072Y-87825350D01*
X172999739Y-87825350D02*
X173033072Y-87858684D01*
X173033072Y-87858684D02*
X173066405Y-87825350D01*
X173066405Y-87825350D02*
X173033072Y-87792017D01*
X173033072Y-87792017D02*
X172999739Y-87825350D01*
X172999739Y-87825350D02*
X173066405Y-87825350D01*
X174526700Y-86592017D02*
X174560033Y-86658684D01*
X174560033Y-86658684D02*
X174560033Y-86792017D01*
X174560033Y-86792017D02*
X174526700Y-86858684D01*
X174526700Y-86858684D02*
X174460033Y-86892017D01*
X174460033Y-86892017D02*
X174426700Y-86892017D01*
X174426700Y-86892017D02*
X174360033Y-86858684D01*
X174360033Y-86858684D02*
X174326700Y-86792017D01*
X174326700Y-86792017D02*
X174326700Y-86692017D01*
X174326700Y-86692017D02*
X174293366Y-86625350D01*
X174293366Y-86625350D02*
X174226700Y-86592017D01*
X174226700Y-86592017D02*
X174193366Y-86592017D01*
X174193366Y-86592017D02*
X174126700Y-86625350D01*
X174126700Y-86625350D02*
X174093366Y-86692017D01*
X174093366Y-86692017D02*
X174093366Y-86792017D01*
X174093366Y-86792017D02*
X174126700Y-86858684D01*
X174560033Y-87192017D02*
X173860033Y-87192017D01*
X174560033Y-87492017D02*
X174193366Y-87492017D01*
X174193366Y-87492017D02*
X174126700Y-87458684D01*
X174126700Y-87458684D02*
X174093366Y-87392017D01*
X174093366Y-87392017D02*
X174093366Y-87292017D01*
X174093366Y-87292017D02*
X174126700Y-87225351D01*
X174126700Y-87225351D02*
X174160033Y-87192017D01*
X174560033Y-87925350D02*
X174526700Y-87858684D01*
X174526700Y-87858684D02*
X174493366Y-87825350D01*
X174493366Y-87825350D02*
X174426700Y-87792017D01*
X174426700Y-87792017D02*
X174226700Y-87792017D01*
X174226700Y-87792017D02*
X174160033Y-87825350D01*
X174160033Y-87825350D02*
X174126700Y-87858684D01*
X174126700Y-87858684D02*
X174093366Y-87925350D01*
X174093366Y-87925350D02*
X174093366Y-88025350D01*
X174093366Y-88025350D02*
X174126700Y-88092017D01*
X174126700Y-88092017D02*
X174160033Y-88125350D01*
X174160033Y-88125350D02*
X174226700Y-88158684D01*
X174226700Y-88158684D02*
X174426700Y-88158684D01*
X174426700Y-88158684D02*
X174493366Y-88125350D01*
X174493366Y-88125350D02*
X174526700Y-88092017D01*
X174526700Y-88092017D02*
X174560033Y-88025350D01*
X174560033Y-88025350D02*
X174560033Y-87925350D01*
X174560033Y-88458683D02*
X174093366Y-88458683D01*
X174226700Y-88458683D02*
X174160033Y-88492017D01*
X174160033Y-88492017D02*
X174126700Y-88525350D01*
X174126700Y-88525350D02*
X174093366Y-88592017D01*
X174093366Y-88592017D02*
X174093366Y-88658683D01*
X174093366Y-88792016D02*
X174093366Y-89058683D01*
X173860033Y-88892016D02*
X174460033Y-88892016D01*
X174460033Y-88892016D02*
X174526700Y-88925350D01*
X174526700Y-88925350D02*
X174560033Y-88992016D01*
X174560033Y-88992016D02*
X174560033Y-89058683D01*
X174493366Y-89292016D02*
X174526700Y-89325350D01*
X174526700Y-89325350D02*
X174560033Y-89292016D01*
X174560033Y-89292016D02*
X174526700Y-89258683D01*
X174526700Y-89258683D02*
X174493366Y-89292016D01*
X174493366Y-89292016D02*
X174560033Y-89292016D01*
X174126700Y-89292016D02*
X174160033Y-89325350D01*
X174160033Y-89325350D02*
X174193366Y-89292016D01*
X174193366Y-89292016D02*
X174160033Y-89258683D01*
X174160033Y-89258683D02*
X174126700Y-89292016D01*
X174126700Y-89292016D02*
X174193366Y-89292016D01*
X174560033Y-90158682D02*
X173860033Y-90158682D01*
X174126700Y-90158682D02*
X174093366Y-90225349D01*
X174093366Y-90225349D02*
X174093366Y-90358682D01*
X174093366Y-90358682D02*
X174126700Y-90425349D01*
X174126700Y-90425349D02*
X174160033Y-90458682D01*
X174160033Y-90458682D02*
X174226700Y-90492016D01*
X174226700Y-90492016D02*
X174426700Y-90492016D01*
X174426700Y-90492016D02*
X174493366Y-90458682D01*
X174493366Y-90458682D02*
X174526700Y-90425349D01*
X174526700Y-90425349D02*
X174560033Y-90358682D01*
X174560033Y-90358682D02*
X174560033Y-90225349D01*
X174560033Y-90225349D02*
X174526700Y-90158682D01*
X174560033Y-90892015D02*
X174526700Y-90825349D01*
X174526700Y-90825349D02*
X174493366Y-90792015D01*
X174493366Y-90792015D02*
X174426700Y-90758682D01*
X174426700Y-90758682D02*
X174226700Y-90758682D01*
X174226700Y-90758682D02*
X174160033Y-90792015D01*
X174160033Y-90792015D02*
X174126700Y-90825349D01*
X174126700Y-90825349D02*
X174093366Y-90892015D01*
X174093366Y-90892015D02*
X174093366Y-90992015D01*
X174093366Y-90992015D02*
X174126700Y-91058682D01*
X174126700Y-91058682D02*
X174160033Y-91092015D01*
X174160033Y-91092015D02*
X174226700Y-91125349D01*
X174226700Y-91125349D02*
X174426700Y-91125349D01*
X174426700Y-91125349D02*
X174493366Y-91092015D01*
X174493366Y-91092015D02*
X174526700Y-91058682D01*
X174526700Y-91058682D02*
X174560033Y-90992015D01*
X174560033Y-90992015D02*
X174560033Y-90892015D01*
X174093366Y-91325348D02*
X174093366Y-91592015D01*
X173860033Y-91425348D02*
X174460033Y-91425348D01*
X174460033Y-91425348D02*
X174526700Y-91458682D01*
X174526700Y-91458682D02*
X174560033Y-91525348D01*
X174560033Y-91525348D02*
X174560033Y-91592015D01*
X174093366Y-91725348D02*
X174093366Y-91992015D01*
X173860033Y-91825348D02*
X174460033Y-91825348D01*
X174460033Y-91825348D02*
X174526700Y-91858682D01*
X174526700Y-91858682D02*
X174560033Y-91925348D01*
X174560033Y-91925348D02*
X174560033Y-91992015D01*
X174560033Y-92325348D02*
X174526700Y-92258682D01*
X174526700Y-92258682D02*
X174493366Y-92225348D01*
X174493366Y-92225348D02*
X174426700Y-92192015D01*
X174426700Y-92192015D02*
X174226700Y-92192015D01*
X174226700Y-92192015D02*
X174160033Y-92225348D01*
X174160033Y-92225348D02*
X174126700Y-92258682D01*
X174126700Y-92258682D02*
X174093366Y-92325348D01*
X174093366Y-92325348D02*
X174093366Y-92425348D01*
X174093366Y-92425348D02*
X174126700Y-92492015D01*
X174126700Y-92492015D02*
X174160033Y-92525348D01*
X174160033Y-92525348D02*
X174226700Y-92558682D01*
X174226700Y-92558682D02*
X174426700Y-92558682D01*
X174426700Y-92558682D02*
X174493366Y-92525348D01*
X174493366Y-92525348D02*
X174526700Y-92492015D01*
X174526700Y-92492015D02*
X174560033Y-92425348D01*
X174560033Y-92425348D02*
X174560033Y-92325348D01*
X174560033Y-92858681D02*
X174093366Y-92858681D01*
X174160033Y-92858681D02*
X174126700Y-92892015D01*
X174126700Y-92892015D02*
X174093366Y-92958681D01*
X174093366Y-92958681D02*
X174093366Y-93058681D01*
X174093366Y-93058681D02*
X174126700Y-93125348D01*
X174126700Y-93125348D02*
X174193366Y-93158681D01*
X174193366Y-93158681D02*
X174560033Y-93158681D01*
X174193366Y-93158681D02*
X174126700Y-93192015D01*
X174126700Y-93192015D02*
X174093366Y-93258681D01*
X174093366Y-93258681D02*
X174093366Y-93358681D01*
X174093366Y-93358681D02*
X174126700Y-93425348D01*
X174126700Y-93425348D02*
X174193366Y-93458681D01*
X174193366Y-93458681D02*
X174560033Y-93458681D01*
X173860033Y-94258681D02*
X173860033Y-94692014D01*
X173860033Y-94692014D02*
X174126700Y-94458681D01*
X174126700Y-94458681D02*
X174126700Y-94558681D01*
X174126700Y-94558681D02*
X174160033Y-94625347D01*
X174160033Y-94625347D02*
X174193366Y-94658681D01*
X174193366Y-94658681D02*
X174260033Y-94692014D01*
X174260033Y-94692014D02*
X174426700Y-94692014D01*
X174426700Y-94692014D02*
X174493366Y-94658681D01*
X174493366Y-94658681D02*
X174526700Y-94625347D01*
X174526700Y-94625347D02*
X174560033Y-94558681D01*
X174560033Y-94558681D02*
X174560033Y-94358681D01*
X174560033Y-94358681D02*
X174526700Y-94292014D01*
X174526700Y-94292014D02*
X174493366Y-94258681D01*
X173926700Y-94958681D02*
X173893366Y-94992014D01*
X173893366Y-94992014D02*
X173860033Y-95058681D01*
X173860033Y-95058681D02*
X173860033Y-95225348D01*
X173860033Y-95225348D02*
X173893366Y-95292014D01*
X173893366Y-95292014D02*
X173926700Y-95325348D01*
X173926700Y-95325348D02*
X173993366Y-95358681D01*
X173993366Y-95358681D02*
X174060033Y-95358681D01*
X174060033Y-95358681D02*
X174160033Y-95325348D01*
X174160033Y-95325348D02*
X174560033Y-94925348D01*
X174560033Y-94925348D02*
X174560033Y-95358681D01*
X174560033Y-95658681D02*
X173860033Y-95658681D01*
X174560033Y-96058681D02*
X174160033Y-95758681D01*
X173860033Y-96058681D02*
X174260033Y-95658681D01*
X174560033Y-96992014D02*
X174526700Y-96925348D01*
X174526700Y-96925348D02*
X174493366Y-96892014D01*
X174493366Y-96892014D02*
X174426700Y-96858681D01*
X174426700Y-96858681D02*
X174226700Y-96858681D01*
X174226700Y-96858681D02*
X174160033Y-96892014D01*
X174160033Y-96892014D02*
X174126700Y-96925348D01*
X174126700Y-96925348D02*
X174093366Y-96992014D01*
X174093366Y-96992014D02*
X174093366Y-97092014D01*
X174093366Y-97092014D02*
X174126700Y-97158681D01*
X174126700Y-97158681D02*
X174160033Y-97192014D01*
X174160033Y-97192014D02*
X174226700Y-97225348D01*
X174226700Y-97225348D02*
X174426700Y-97225348D01*
X174426700Y-97225348D02*
X174493366Y-97192014D01*
X174493366Y-97192014D02*
X174526700Y-97158681D01*
X174526700Y-97158681D02*
X174560033Y-97092014D01*
X174560033Y-97092014D02*
X174560033Y-96992014D01*
X174093366Y-97425347D02*
X174093366Y-97692014D01*
X174560033Y-97525347D02*
X173960033Y-97525347D01*
X173960033Y-97525347D02*
X173893366Y-97558681D01*
X173893366Y-97558681D02*
X173860033Y-97625347D01*
X173860033Y-97625347D02*
X173860033Y-97692014D01*
X173860033Y-98758680D02*
X173860033Y-98625347D01*
X173860033Y-98625347D02*
X173893366Y-98558680D01*
X173893366Y-98558680D02*
X173926700Y-98525347D01*
X173926700Y-98525347D02*
X174026700Y-98458680D01*
X174026700Y-98458680D02*
X174160033Y-98425347D01*
X174160033Y-98425347D02*
X174426700Y-98425347D01*
X174426700Y-98425347D02*
X174493366Y-98458680D01*
X174493366Y-98458680D02*
X174526700Y-98492014D01*
X174526700Y-98492014D02*
X174560033Y-98558680D01*
X174560033Y-98558680D02*
X174560033Y-98692014D01*
X174560033Y-98692014D02*
X174526700Y-98758680D01*
X174526700Y-98758680D02*
X174493366Y-98792014D01*
X174493366Y-98792014D02*
X174426700Y-98825347D01*
X174426700Y-98825347D02*
X174260033Y-98825347D01*
X174260033Y-98825347D02*
X174193366Y-98792014D01*
X174193366Y-98792014D02*
X174160033Y-98758680D01*
X174160033Y-98758680D02*
X174126700Y-98692014D01*
X174126700Y-98692014D02*
X174126700Y-98558680D01*
X174126700Y-98558680D02*
X174160033Y-98492014D01*
X174160033Y-98492014D02*
X174193366Y-98458680D01*
X174193366Y-98458680D02*
X174260033Y-98425347D01*
X174093366Y-99425347D02*
X174560033Y-99425347D01*
X173826700Y-99258681D02*
X174326700Y-99092014D01*
X174326700Y-99092014D02*
X174326700Y-99525347D01*
X174560033Y-99792014D02*
X173860033Y-99792014D01*
X174560033Y-100192014D02*
X174160033Y-99892014D01*
X173860033Y-100192014D02*
X174260033Y-99792014D01*
X174560033Y-101425347D02*
X174226700Y-101192014D01*
X174560033Y-101025347D02*
X173860033Y-101025347D01*
X173860033Y-101025347D02*
X173860033Y-101292014D01*
X173860033Y-101292014D02*
X173893366Y-101358681D01*
X173893366Y-101358681D02*
X173926700Y-101392014D01*
X173926700Y-101392014D02*
X173993366Y-101425347D01*
X173993366Y-101425347D02*
X174093366Y-101425347D01*
X174093366Y-101425347D02*
X174160033Y-101392014D01*
X174160033Y-101392014D02*
X174193366Y-101358681D01*
X174193366Y-101358681D02*
X174226700Y-101292014D01*
X174226700Y-101292014D02*
X174226700Y-101025347D01*
X173860033Y-101858681D02*
X173860033Y-101992014D01*
X173860033Y-101992014D02*
X173893366Y-102058681D01*
X173893366Y-102058681D02*
X173960033Y-102125347D01*
X173960033Y-102125347D02*
X174093366Y-102158681D01*
X174093366Y-102158681D02*
X174326700Y-102158681D01*
X174326700Y-102158681D02*
X174460033Y-102125347D01*
X174460033Y-102125347D02*
X174526700Y-102058681D01*
X174526700Y-102058681D02*
X174560033Y-101992014D01*
X174560033Y-101992014D02*
X174560033Y-101858681D01*
X174560033Y-101858681D02*
X174526700Y-101792014D01*
X174526700Y-101792014D02*
X174460033Y-101725347D01*
X174460033Y-101725347D02*
X174326700Y-101692014D01*
X174326700Y-101692014D02*
X174093366Y-101692014D01*
X174093366Y-101692014D02*
X173960033Y-101725347D01*
X173960033Y-101725347D02*
X173893366Y-101792014D01*
X173893366Y-101792014D02*
X173860033Y-101858681D01*
X174560033Y-102458680D02*
X173860033Y-102458680D01*
X173860033Y-102458680D02*
X174360033Y-102692014D01*
X174360033Y-102692014D02*
X173860033Y-102925347D01*
X173860033Y-102925347D02*
X174560033Y-102925347D01*
X175686994Y-86725350D02*
X175653661Y-86658684D01*
X175653661Y-86658684D02*
X175620327Y-86625350D01*
X175620327Y-86625350D02*
X175553661Y-86592017D01*
X175553661Y-86592017D02*
X175353661Y-86592017D01*
X175353661Y-86592017D02*
X175286994Y-86625350D01*
X175286994Y-86625350D02*
X175253661Y-86658684D01*
X175253661Y-86658684D02*
X175220327Y-86725350D01*
X175220327Y-86725350D02*
X175220327Y-86825350D01*
X175220327Y-86825350D02*
X175253661Y-86892017D01*
X175253661Y-86892017D02*
X175286994Y-86925350D01*
X175286994Y-86925350D02*
X175353661Y-86958684D01*
X175353661Y-86958684D02*
X175553661Y-86958684D01*
X175553661Y-86958684D02*
X175620327Y-86925350D01*
X175620327Y-86925350D02*
X175653661Y-86892017D01*
X175653661Y-86892017D02*
X175686994Y-86825350D01*
X175686994Y-86825350D02*
X175686994Y-86725350D01*
X175220327Y-87258683D02*
X175920327Y-87258683D01*
X175253661Y-87258683D02*
X175220327Y-87325350D01*
X175220327Y-87325350D02*
X175220327Y-87458683D01*
X175220327Y-87458683D02*
X175253661Y-87525350D01*
X175253661Y-87525350D02*
X175286994Y-87558683D01*
X175286994Y-87558683D02*
X175353661Y-87592017D01*
X175353661Y-87592017D02*
X175553661Y-87592017D01*
X175553661Y-87592017D02*
X175620327Y-87558683D01*
X175620327Y-87558683D02*
X175653661Y-87525350D01*
X175653661Y-87525350D02*
X175686994Y-87458683D01*
X175686994Y-87458683D02*
X175686994Y-87325350D01*
X175686994Y-87325350D02*
X175653661Y-87258683D01*
X175653661Y-88158683D02*
X175686994Y-88092016D01*
X175686994Y-88092016D02*
X175686994Y-87958683D01*
X175686994Y-87958683D02*
X175653661Y-87892016D01*
X175653661Y-87892016D02*
X175586994Y-87858683D01*
X175586994Y-87858683D02*
X175320327Y-87858683D01*
X175320327Y-87858683D02*
X175253661Y-87892016D01*
X175253661Y-87892016D02*
X175220327Y-87958683D01*
X175220327Y-87958683D02*
X175220327Y-88092016D01*
X175220327Y-88092016D02*
X175253661Y-88158683D01*
X175253661Y-88158683D02*
X175320327Y-88192016D01*
X175320327Y-88192016D02*
X175386994Y-88192016D01*
X175386994Y-88192016D02*
X175453661Y-87858683D01*
X175220327Y-88492016D02*
X175686994Y-88492016D01*
X175286994Y-88492016D02*
X175253661Y-88525350D01*
X175253661Y-88525350D02*
X175220327Y-88592016D01*
X175220327Y-88592016D02*
X175220327Y-88692016D01*
X175220327Y-88692016D02*
X175253661Y-88758683D01*
X175253661Y-88758683D02*
X175320327Y-88792016D01*
X175320327Y-88792016D02*
X175686994Y-88792016D01*
X175620327Y-89125349D02*
X175653661Y-89158683D01*
X175653661Y-89158683D02*
X175686994Y-89125349D01*
X175686994Y-89125349D02*
X175653661Y-89092016D01*
X175653661Y-89092016D02*
X175620327Y-89125349D01*
X175620327Y-89125349D02*
X175686994Y-89125349D01*
X175253661Y-89125349D02*
X175286994Y-89158683D01*
X175286994Y-89158683D02*
X175320327Y-89125349D01*
X175320327Y-89125349D02*
X175286994Y-89092016D01*
X175286994Y-89092016D02*
X175253661Y-89125349D01*
X175253661Y-89125349D02*
X175320327Y-89125349D01*
X175220327Y-90425348D02*
X175220327Y-90692015D01*
X174986994Y-90525348D02*
X175586994Y-90525348D01*
X175586994Y-90525348D02*
X175653661Y-90558682D01*
X175653661Y-90558682D02*
X175686994Y-90625348D01*
X175686994Y-90625348D02*
X175686994Y-90692015D01*
X175686994Y-91025348D02*
X175653661Y-90958682D01*
X175653661Y-90958682D02*
X175620327Y-90925348D01*
X175620327Y-90925348D02*
X175553661Y-90892015D01*
X175553661Y-90892015D02*
X175353661Y-90892015D01*
X175353661Y-90892015D02*
X175286994Y-90925348D01*
X175286994Y-90925348D02*
X175253661Y-90958682D01*
X175253661Y-90958682D02*
X175220327Y-91025348D01*
X175220327Y-91025348D02*
X175220327Y-91125348D01*
X175220327Y-91125348D02*
X175253661Y-91192015D01*
X175253661Y-91192015D02*
X175286994Y-91225348D01*
X175286994Y-91225348D02*
X175353661Y-91258682D01*
X175353661Y-91258682D02*
X175553661Y-91258682D01*
X175553661Y-91258682D02*
X175620327Y-91225348D01*
X175620327Y-91225348D02*
X175653661Y-91192015D01*
X175653661Y-91192015D02*
X175686994Y-91125348D01*
X175686994Y-91125348D02*
X175686994Y-91025348D01*
X175220327Y-91558681D02*
X175920327Y-91558681D01*
X175253661Y-91558681D02*
X175220327Y-91625348D01*
X175220327Y-91625348D02*
X175220327Y-91758681D01*
X175220327Y-91758681D02*
X175253661Y-91825348D01*
X175253661Y-91825348D02*
X175286994Y-91858681D01*
X175286994Y-91858681D02*
X175353661Y-91892015D01*
X175353661Y-91892015D02*
X175553661Y-91892015D01*
X175553661Y-91892015D02*
X175620327Y-91858681D01*
X175620327Y-91858681D02*
X175653661Y-91825348D01*
X175653661Y-91825348D02*
X175686994Y-91758681D01*
X175686994Y-91758681D02*
X175686994Y-91625348D01*
X175686994Y-91625348D02*
X175653661Y-91558681D01*
X174986994Y-92658681D02*
X174986994Y-93092014D01*
X174986994Y-93092014D02*
X175253661Y-92858681D01*
X175253661Y-92858681D02*
X175253661Y-92958681D01*
X175253661Y-92958681D02*
X175286994Y-93025347D01*
X175286994Y-93025347D02*
X175320327Y-93058681D01*
X175320327Y-93058681D02*
X175386994Y-93092014D01*
X175386994Y-93092014D02*
X175553661Y-93092014D01*
X175553661Y-93092014D02*
X175620327Y-93058681D01*
X175620327Y-93058681D02*
X175653661Y-93025347D01*
X175653661Y-93025347D02*
X175686994Y-92958681D01*
X175686994Y-92958681D02*
X175686994Y-92758681D01*
X175686994Y-92758681D02*
X175653661Y-92692014D01*
X175653661Y-92692014D02*
X175620327Y-92658681D01*
X175053661Y-93358681D02*
X175020327Y-93392014D01*
X175020327Y-93392014D02*
X174986994Y-93458681D01*
X174986994Y-93458681D02*
X174986994Y-93625348D01*
X174986994Y-93625348D02*
X175020327Y-93692014D01*
X175020327Y-93692014D02*
X175053661Y-93725348D01*
X175053661Y-93725348D02*
X175120327Y-93758681D01*
X175120327Y-93758681D02*
X175186994Y-93758681D01*
X175186994Y-93758681D02*
X175286994Y-93725348D01*
X175286994Y-93725348D02*
X175686994Y-93325348D01*
X175686994Y-93325348D02*
X175686994Y-93758681D01*
X175686994Y-94058681D02*
X174986994Y-94058681D01*
X175686994Y-94458681D02*
X175286994Y-94158681D01*
X174986994Y-94458681D02*
X175386994Y-94058681D01*
X175686994Y-95392014D02*
X175653661Y-95325348D01*
X175653661Y-95325348D02*
X175620327Y-95292014D01*
X175620327Y-95292014D02*
X175553661Y-95258681D01*
X175553661Y-95258681D02*
X175353661Y-95258681D01*
X175353661Y-95258681D02*
X175286994Y-95292014D01*
X175286994Y-95292014D02*
X175253661Y-95325348D01*
X175253661Y-95325348D02*
X175220327Y-95392014D01*
X175220327Y-95392014D02*
X175220327Y-95492014D01*
X175220327Y-95492014D02*
X175253661Y-95558681D01*
X175253661Y-95558681D02*
X175286994Y-95592014D01*
X175286994Y-95592014D02*
X175353661Y-95625348D01*
X175353661Y-95625348D02*
X175553661Y-95625348D01*
X175553661Y-95625348D02*
X175620327Y-95592014D01*
X175620327Y-95592014D02*
X175653661Y-95558681D01*
X175653661Y-95558681D02*
X175686994Y-95492014D01*
X175686994Y-95492014D02*
X175686994Y-95392014D01*
X175220327Y-95825347D02*
X175220327Y-96092014D01*
X175686994Y-95925347D02*
X175086994Y-95925347D01*
X175086994Y-95925347D02*
X175020327Y-95958681D01*
X175020327Y-95958681D02*
X174986994Y-96025347D01*
X174986994Y-96025347D02*
X174986994Y-96092014D01*
X174986994Y-97158680D02*
X174986994Y-97025347D01*
X174986994Y-97025347D02*
X175020327Y-96958680D01*
X175020327Y-96958680D02*
X175053661Y-96925347D01*
X175053661Y-96925347D02*
X175153661Y-96858680D01*
X175153661Y-96858680D02*
X175286994Y-96825347D01*
X175286994Y-96825347D02*
X175553661Y-96825347D01*
X175553661Y-96825347D02*
X175620327Y-96858680D01*
X175620327Y-96858680D02*
X175653661Y-96892014D01*
X175653661Y-96892014D02*
X175686994Y-96958680D01*
X175686994Y-96958680D02*
X175686994Y-97092014D01*
X175686994Y-97092014D02*
X175653661Y-97158680D01*
X175653661Y-97158680D02*
X175620327Y-97192014D01*
X175620327Y-97192014D02*
X175553661Y-97225347D01*
X175553661Y-97225347D02*
X175386994Y-97225347D01*
X175386994Y-97225347D02*
X175320327Y-97192014D01*
X175320327Y-97192014D02*
X175286994Y-97158680D01*
X175286994Y-97158680D02*
X175253661Y-97092014D01*
X175253661Y-97092014D02*
X175253661Y-96958680D01*
X175253661Y-96958680D02*
X175286994Y-96892014D01*
X175286994Y-96892014D02*
X175320327Y-96858680D01*
X175320327Y-96858680D02*
X175386994Y-96825347D01*
X175220327Y-97825347D02*
X175686994Y-97825347D01*
X174953661Y-97658681D02*
X175453661Y-97492014D01*
X175453661Y-97492014D02*
X175453661Y-97925347D01*
X175686994Y-98192014D02*
X174986994Y-98192014D01*
X175686994Y-98592014D02*
X175286994Y-98292014D01*
X174986994Y-98592014D02*
X175386994Y-98192014D01*
X175686994Y-99825347D02*
X175353661Y-99592014D01*
X175686994Y-99425347D02*
X174986994Y-99425347D01*
X174986994Y-99425347D02*
X174986994Y-99692014D01*
X174986994Y-99692014D02*
X175020327Y-99758681D01*
X175020327Y-99758681D02*
X175053661Y-99792014D01*
X175053661Y-99792014D02*
X175120327Y-99825347D01*
X175120327Y-99825347D02*
X175220327Y-99825347D01*
X175220327Y-99825347D02*
X175286994Y-99792014D01*
X175286994Y-99792014D02*
X175320327Y-99758681D01*
X175320327Y-99758681D02*
X175353661Y-99692014D01*
X175353661Y-99692014D02*
X175353661Y-99425347D01*
X174986994Y-100258681D02*
X174986994Y-100392014D01*
X174986994Y-100392014D02*
X175020327Y-100458681D01*
X175020327Y-100458681D02*
X175086994Y-100525347D01*
X175086994Y-100525347D02*
X175220327Y-100558681D01*
X175220327Y-100558681D02*
X175453661Y-100558681D01*
X175453661Y-100558681D02*
X175586994Y-100525347D01*
X175586994Y-100525347D02*
X175653661Y-100458681D01*
X175653661Y-100458681D02*
X175686994Y-100392014D01*
X175686994Y-100392014D02*
X175686994Y-100258681D01*
X175686994Y-100258681D02*
X175653661Y-100192014D01*
X175653661Y-100192014D02*
X175586994Y-100125347D01*
X175586994Y-100125347D02*
X175453661Y-100092014D01*
X175453661Y-100092014D02*
X175220327Y-100092014D01*
X175220327Y-100092014D02*
X175086994Y-100125347D01*
X175086994Y-100125347D02*
X175020327Y-100192014D01*
X175020327Y-100192014D02*
X174986994Y-100258681D01*
X175686994Y-100858680D02*
X174986994Y-100858680D01*
X174986994Y-100858680D02*
X175486994Y-101092014D01*
X175486994Y-101092014D02*
X174986994Y-101325347D01*
X174986994Y-101325347D02*
X175686994Y-101325347D01*
X185680553Y-92072017D02*
X185680553Y-91672017D01*
X185680553Y-91872017D02*
X184980553Y-91872017D01*
X184980553Y-91872017D02*
X185080553Y-91805350D01*
X185080553Y-91805350D02*
X185147220Y-91738684D01*
X185147220Y-91738684D02*
X185180553Y-91672017D01*
X184980553Y-92705351D02*
X184980553Y-92372017D01*
X184980553Y-92372017D02*
X185313886Y-92338684D01*
X185313886Y-92338684D02*
X185280553Y-92372017D01*
X185280553Y-92372017D02*
X185247220Y-92438684D01*
X185247220Y-92438684D02*
X185247220Y-92605351D01*
X185247220Y-92605351D02*
X185280553Y-92672017D01*
X185280553Y-92672017D02*
X185313886Y-92705351D01*
X185313886Y-92705351D02*
X185380553Y-92738684D01*
X185380553Y-92738684D02*
X185547220Y-92738684D01*
X185547220Y-92738684D02*
X185613886Y-92705351D01*
X185613886Y-92705351D02*
X185647220Y-92672017D01*
X185647220Y-92672017D02*
X185680553Y-92605351D01*
X185680553Y-92605351D02*
X185680553Y-92438684D01*
X185680553Y-92438684D02*
X185647220Y-92372017D01*
X185647220Y-92372017D02*
X185613886Y-92338684D01*
X184980553Y-93372018D02*
X184980553Y-93038684D01*
X184980553Y-93038684D02*
X185313886Y-93005351D01*
X185313886Y-93005351D02*
X185280553Y-93038684D01*
X185280553Y-93038684D02*
X185247220Y-93105351D01*
X185247220Y-93105351D02*
X185247220Y-93272018D01*
X185247220Y-93272018D02*
X185280553Y-93338684D01*
X185280553Y-93338684D02*
X185313886Y-93372018D01*
X185313886Y-93372018D02*
X185380553Y-93405351D01*
X185380553Y-93405351D02*
X185547220Y-93405351D01*
X185547220Y-93405351D02*
X185613886Y-93372018D01*
X185613886Y-93372018D02*
X185647220Y-93338684D01*
X185647220Y-93338684D02*
X185680553Y-93272018D01*
X185680553Y-93272018D02*
X185680553Y-93105351D01*
X185680553Y-93105351D02*
X185647220Y-93038684D01*
X185647220Y-93038684D02*
X185613886Y-93005351D01*
X185680553Y-94072018D02*
X185680553Y-93672018D01*
X185680553Y-93872018D02*
X184980553Y-93872018D01*
X184980553Y-93872018D02*
X185080553Y-93805351D01*
X185080553Y-93805351D02*
X185147220Y-93738685D01*
X185147220Y-93738685D02*
X185180553Y-93672018D01*
X185413886Y-94372018D02*
X185413886Y-94905352D01*
X185680553Y-95638685D02*
X185347220Y-95405352D01*
X185680553Y-95238685D02*
X184980553Y-95238685D01*
X184980553Y-95238685D02*
X184980553Y-95505352D01*
X184980553Y-95505352D02*
X185013886Y-95572019D01*
X185013886Y-95572019D02*
X185047220Y-95605352D01*
X185047220Y-95605352D02*
X185113886Y-95638685D01*
X185113886Y-95638685D02*
X185213886Y-95638685D01*
X185213886Y-95638685D02*
X185280553Y-95605352D01*
X185280553Y-95605352D02*
X185313886Y-95572019D01*
X185313886Y-95572019D02*
X185347220Y-95505352D01*
X185347220Y-95505352D02*
X185347220Y-95238685D01*
X185480553Y-95905352D02*
X185480553Y-96238685D01*
X185680553Y-95838685D02*
X184980553Y-96072019D01*
X184980553Y-96072019D02*
X185680553Y-96305352D01*
X185680553Y-96538685D02*
X184980553Y-96538685D01*
X184980553Y-96538685D02*
X185480553Y-96772019D01*
X185480553Y-96772019D02*
X184980553Y-97005352D01*
X184980553Y-97005352D02*
X185680553Y-97005352D01*
X185313886Y-97572019D02*
X185347220Y-97672019D01*
X185347220Y-97672019D02*
X185380553Y-97705352D01*
X185380553Y-97705352D02*
X185447220Y-97738685D01*
X185447220Y-97738685D02*
X185547220Y-97738685D01*
X185547220Y-97738685D02*
X185613886Y-97705352D01*
X185613886Y-97705352D02*
X185647220Y-97672019D01*
X185647220Y-97672019D02*
X185680553Y-97605352D01*
X185680553Y-97605352D02*
X185680553Y-97338685D01*
X185680553Y-97338685D02*
X184980553Y-97338685D01*
X184980553Y-97338685D02*
X184980553Y-97572019D01*
X184980553Y-97572019D02*
X185013886Y-97638685D01*
X185013886Y-97638685D02*
X185047220Y-97672019D01*
X185047220Y-97672019D02*
X185113886Y-97705352D01*
X185113886Y-97705352D02*
X185180553Y-97705352D01*
X185180553Y-97705352D02*
X185247220Y-97672019D01*
X185247220Y-97672019D02*
X185280553Y-97638685D01*
X185280553Y-97638685D02*
X185313886Y-97572019D01*
X185313886Y-97572019D02*
X185313886Y-97338685D01*
X184980553Y-98172019D02*
X184980553Y-98305352D01*
X184980553Y-98305352D02*
X185013886Y-98372019D01*
X185013886Y-98372019D02*
X185080553Y-98438685D01*
X185080553Y-98438685D02*
X185213886Y-98472019D01*
X185213886Y-98472019D02*
X185447220Y-98472019D01*
X185447220Y-98472019D02*
X185580553Y-98438685D01*
X185580553Y-98438685D02*
X185647220Y-98372019D01*
X185647220Y-98372019D02*
X185680553Y-98305352D01*
X185680553Y-98305352D02*
X185680553Y-98172019D01*
X185680553Y-98172019D02*
X185647220Y-98105352D01*
X185647220Y-98105352D02*
X185580553Y-98038685D01*
X185580553Y-98038685D02*
X185447220Y-98005352D01*
X185447220Y-98005352D02*
X185213886Y-98005352D01*
X185213886Y-98005352D02*
X185080553Y-98038685D01*
X185080553Y-98038685D02*
X185013886Y-98105352D01*
X185013886Y-98105352D02*
X184980553Y-98172019D01*
X185680553Y-99072018D02*
X185313886Y-99072018D01*
X185313886Y-99072018D02*
X185247220Y-99038685D01*
X185247220Y-99038685D02*
X185213886Y-98972018D01*
X185213886Y-98972018D02*
X185213886Y-98838685D01*
X185213886Y-98838685D02*
X185247220Y-98772018D01*
X185647220Y-99072018D02*
X185680553Y-99005352D01*
X185680553Y-99005352D02*
X185680553Y-98838685D01*
X185680553Y-98838685D02*
X185647220Y-98772018D01*
X185647220Y-98772018D02*
X185580553Y-98738685D01*
X185580553Y-98738685D02*
X185513886Y-98738685D01*
X185513886Y-98738685D02*
X185447220Y-98772018D01*
X185447220Y-98772018D02*
X185413886Y-98838685D01*
X185413886Y-98838685D02*
X185413886Y-99005352D01*
X185413886Y-99005352D02*
X185380553Y-99072018D01*
X185680553Y-99405351D02*
X185213886Y-99405351D01*
X185347220Y-99405351D02*
X185280553Y-99438685D01*
X185280553Y-99438685D02*
X185247220Y-99472018D01*
X185247220Y-99472018D02*
X185213886Y-99538685D01*
X185213886Y-99538685D02*
X185213886Y-99605351D01*
X185680553Y-100138684D02*
X184980553Y-100138684D01*
X185647220Y-100138684D02*
X185680553Y-100072018D01*
X185680553Y-100072018D02*
X185680553Y-99938684D01*
X185680553Y-99938684D02*
X185647220Y-99872018D01*
X185647220Y-99872018D02*
X185613886Y-99838684D01*
X185613886Y-99838684D02*
X185547220Y-99805351D01*
X185547220Y-99805351D02*
X185347220Y-99805351D01*
X185347220Y-99805351D02*
X185280553Y-99838684D01*
X185280553Y-99838684D02*
X185247220Y-99872018D01*
X185247220Y-99872018D02*
X185213886Y-99938684D01*
X185213886Y-99938684D02*
X185213886Y-100072018D01*
X185213886Y-100072018D02*
X185247220Y-100138684D01*
X185913886Y-100405351D02*
X185913886Y-100572017D01*
X185913886Y-100572017D02*
X184913886Y-100572017D01*
X184913886Y-100572017D02*
X184913886Y-100405351D01*
X185913886Y-101138684D02*
X185913886Y-100972018D01*
X185913886Y-100972018D02*
X184913886Y-100972018D01*
X184913886Y-100972018D02*
X184913886Y-101138684D01*
X185213886Y-101872018D02*
X185680553Y-102038684D01*
X185680553Y-102038684D02*
X185213886Y-102205351D01*
X185680553Y-102838684D02*
X185680553Y-102438684D01*
X185680553Y-102638684D02*
X184980553Y-102638684D01*
X184980553Y-102638684D02*
X185080553Y-102572017D01*
X185080553Y-102572017D02*
X185147220Y-102505351D01*
X185147220Y-102505351D02*
X185180553Y-102438684D01*
X185613886Y-103138684D02*
X185647220Y-103172018D01*
X185647220Y-103172018D02*
X185680553Y-103138684D01*
X185680553Y-103138684D02*
X185647220Y-103105351D01*
X185647220Y-103105351D02*
X185613886Y-103138684D01*
X185613886Y-103138684D02*
X185680553Y-103138684D01*
X184980553Y-103605351D02*
X184980553Y-103672017D01*
X184980553Y-103672017D02*
X185013886Y-103738684D01*
X185013886Y-103738684D02*
X185047220Y-103772017D01*
X185047220Y-103772017D02*
X185113886Y-103805351D01*
X185113886Y-103805351D02*
X185247220Y-103838684D01*
X185247220Y-103838684D02*
X185413886Y-103838684D01*
X185413886Y-103838684D02*
X185547220Y-103805351D01*
X185547220Y-103805351D02*
X185613886Y-103772017D01*
X185613886Y-103772017D02*
X185647220Y-103738684D01*
X185647220Y-103738684D02*
X185680553Y-103672017D01*
X185680553Y-103672017D02*
X185680553Y-103605351D01*
X185680553Y-103605351D02*
X185647220Y-103538684D01*
X185647220Y-103538684D02*
X185613886Y-103505351D01*
X185613886Y-103505351D02*
X185547220Y-103472017D01*
X185547220Y-103472017D02*
X185413886Y-103438684D01*
X185413886Y-103438684D02*
X185247220Y-103438684D01*
X185247220Y-103438684D02*
X185113886Y-103472017D01*
X185113886Y-103472017D02*
X185047220Y-103505351D01*
X185047220Y-103505351D02*
X185013886Y-103538684D01*
X185013886Y-103538684D02*
X184980553Y-103605351D01*
X187074181Y-91905350D02*
X187040847Y-91872017D01*
X187040847Y-91872017D02*
X186940847Y-91805350D01*
X186940847Y-91805350D02*
X186874181Y-91772017D01*
X186874181Y-91772017D02*
X186774181Y-91738684D01*
X186774181Y-91738684D02*
X186607514Y-91705350D01*
X186607514Y-91705350D02*
X186474181Y-91705350D01*
X186474181Y-91705350D02*
X186307514Y-91738684D01*
X186307514Y-91738684D02*
X186207514Y-91772017D01*
X186207514Y-91772017D02*
X186140847Y-91805350D01*
X186140847Y-91805350D02*
X186040847Y-91872017D01*
X186040847Y-91872017D02*
X186007514Y-91905350D01*
X186774181Y-92472017D02*
X186807514Y-92405351D01*
X186807514Y-92405351D02*
X186807514Y-92272017D01*
X186807514Y-92272017D02*
X186774181Y-92205351D01*
X186774181Y-92205351D02*
X186740847Y-92172017D01*
X186740847Y-92172017D02*
X186674181Y-92138684D01*
X186674181Y-92138684D02*
X186474181Y-92138684D01*
X186474181Y-92138684D02*
X186407514Y-92172017D01*
X186407514Y-92172017D02*
X186374181Y-92205351D01*
X186374181Y-92205351D02*
X186340847Y-92272017D01*
X186340847Y-92272017D02*
X186340847Y-92405351D01*
X186340847Y-92405351D02*
X186374181Y-92472017D01*
X187074181Y-92705351D02*
X187040847Y-92738684D01*
X187040847Y-92738684D02*
X186940847Y-92805351D01*
X186940847Y-92805351D02*
X186874181Y-92838684D01*
X186874181Y-92838684D02*
X186774181Y-92872017D01*
X186774181Y-92872017D02*
X186607514Y-92905351D01*
X186607514Y-92905351D02*
X186474181Y-92905351D01*
X186474181Y-92905351D02*
X186307514Y-92872017D01*
X186307514Y-92872017D02*
X186207514Y-92838684D01*
X186207514Y-92838684D02*
X186140847Y-92805351D01*
X186140847Y-92805351D02*
X186040847Y-92738684D01*
X186040847Y-92738684D02*
X186007514Y-92705351D01*
X186107514Y-93705351D02*
X186807514Y-94172017D01*
X186107514Y-94172017D02*
X186807514Y-93705351D01*
X186807514Y-94438684D02*
X186107514Y-94438684D01*
X186807514Y-94772017D02*
X186107514Y-94772017D01*
X186174181Y-95605350D02*
X186140847Y-95638683D01*
X186140847Y-95638683D02*
X186107514Y-95705350D01*
X186107514Y-95705350D02*
X186107514Y-95872017D01*
X186107514Y-95872017D02*
X186140847Y-95938683D01*
X186140847Y-95938683D02*
X186174181Y-95972017D01*
X186174181Y-95972017D02*
X186240847Y-96005350D01*
X186240847Y-96005350D02*
X186307514Y-96005350D01*
X186307514Y-96005350D02*
X186407514Y-95972017D01*
X186407514Y-95972017D02*
X186807514Y-95572017D01*
X186807514Y-95572017D02*
X186807514Y-96005350D01*
X186107514Y-96438684D02*
X186107514Y-96505350D01*
X186107514Y-96505350D02*
X186140847Y-96572017D01*
X186140847Y-96572017D02*
X186174181Y-96605350D01*
X186174181Y-96605350D02*
X186240847Y-96638684D01*
X186240847Y-96638684D02*
X186374181Y-96672017D01*
X186374181Y-96672017D02*
X186540847Y-96672017D01*
X186540847Y-96672017D02*
X186674181Y-96638684D01*
X186674181Y-96638684D02*
X186740847Y-96605350D01*
X186740847Y-96605350D02*
X186774181Y-96572017D01*
X186774181Y-96572017D02*
X186807514Y-96505350D01*
X186807514Y-96505350D02*
X186807514Y-96438684D01*
X186807514Y-96438684D02*
X186774181Y-96372017D01*
X186774181Y-96372017D02*
X186740847Y-96338684D01*
X186740847Y-96338684D02*
X186674181Y-96305350D01*
X186674181Y-96305350D02*
X186540847Y-96272017D01*
X186540847Y-96272017D02*
X186374181Y-96272017D01*
X186374181Y-96272017D02*
X186240847Y-96305350D01*
X186240847Y-96305350D02*
X186174181Y-96338684D01*
X186174181Y-96338684D02*
X186140847Y-96372017D01*
X186140847Y-96372017D02*
X186107514Y-96438684D01*
X186174181Y-96938684D02*
X186140847Y-96972017D01*
X186140847Y-96972017D02*
X186107514Y-97038684D01*
X186107514Y-97038684D02*
X186107514Y-97205351D01*
X186107514Y-97205351D02*
X186140847Y-97272017D01*
X186140847Y-97272017D02*
X186174181Y-97305351D01*
X186174181Y-97305351D02*
X186240847Y-97338684D01*
X186240847Y-97338684D02*
X186307514Y-97338684D01*
X186307514Y-97338684D02*
X186407514Y-97305351D01*
X186407514Y-97305351D02*
X186807514Y-96905351D01*
X186807514Y-96905351D02*
X186807514Y-97338684D01*
X186107514Y-97972018D02*
X186107514Y-97638684D01*
X186107514Y-97638684D02*
X186440847Y-97605351D01*
X186440847Y-97605351D02*
X186407514Y-97638684D01*
X186407514Y-97638684D02*
X186374181Y-97705351D01*
X186374181Y-97705351D02*
X186374181Y-97872018D01*
X186374181Y-97872018D02*
X186407514Y-97938684D01*
X186407514Y-97938684D02*
X186440847Y-97972018D01*
X186440847Y-97972018D02*
X186507514Y-98005351D01*
X186507514Y-98005351D02*
X186674181Y-98005351D01*
X186674181Y-98005351D02*
X186740847Y-97972018D01*
X186740847Y-97972018D02*
X186774181Y-97938684D01*
X186774181Y-97938684D02*
X186807514Y-97872018D01*
X186807514Y-97872018D02*
X186807514Y-97705351D01*
X186807514Y-97705351D02*
X186774181Y-97638684D01*
X186774181Y-97638684D02*
X186740847Y-97605351D01*
X186807514Y-98838684D02*
X186107514Y-98838684D01*
X186107514Y-98838684D02*
X186607514Y-99072018D01*
X186607514Y-99072018D02*
X186107514Y-99305351D01*
X186107514Y-99305351D02*
X186807514Y-99305351D01*
X186807514Y-99938684D02*
X186440847Y-99938684D01*
X186440847Y-99938684D02*
X186374181Y-99905351D01*
X186374181Y-99905351D02*
X186340847Y-99838684D01*
X186340847Y-99838684D02*
X186340847Y-99705351D01*
X186340847Y-99705351D02*
X186374181Y-99638684D01*
X186774181Y-99938684D02*
X186807514Y-99872018D01*
X186807514Y-99872018D02*
X186807514Y-99705351D01*
X186807514Y-99705351D02*
X186774181Y-99638684D01*
X186774181Y-99638684D02*
X186707514Y-99605351D01*
X186707514Y-99605351D02*
X186640847Y-99605351D01*
X186640847Y-99605351D02*
X186574181Y-99638684D01*
X186574181Y-99638684D02*
X186540847Y-99705351D01*
X186540847Y-99705351D02*
X186540847Y-99872018D01*
X186540847Y-99872018D02*
X186507514Y-99938684D01*
X186774181Y-100572017D02*
X186807514Y-100505351D01*
X186807514Y-100505351D02*
X186807514Y-100372017D01*
X186807514Y-100372017D02*
X186774181Y-100305351D01*
X186774181Y-100305351D02*
X186740847Y-100272017D01*
X186740847Y-100272017D02*
X186674181Y-100238684D01*
X186674181Y-100238684D02*
X186474181Y-100238684D01*
X186474181Y-100238684D02*
X186407514Y-100272017D01*
X186407514Y-100272017D02*
X186374181Y-100305351D01*
X186374181Y-100305351D02*
X186340847Y-100372017D01*
X186340847Y-100372017D02*
X186340847Y-100505351D01*
X186340847Y-100505351D02*
X186374181Y-100572017D01*
X186807514Y-100872017D02*
X186340847Y-100872017D01*
X186107514Y-100872017D02*
X186140847Y-100838684D01*
X186140847Y-100838684D02*
X186174181Y-100872017D01*
X186174181Y-100872017D02*
X186140847Y-100905351D01*
X186140847Y-100905351D02*
X186107514Y-100872017D01*
X186107514Y-100872017D02*
X186174181Y-100872017D01*
X186774181Y-101472017D02*
X186807514Y-101405350D01*
X186807514Y-101405350D02*
X186807514Y-101272017D01*
X186807514Y-101272017D02*
X186774181Y-101205350D01*
X186774181Y-101205350D02*
X186707514Y-101172017D01*
X186707514Y-101172017D02*
X186440847Y-101172017D01*
X186440847Y-101172017D02*
X186374181Y-101205350D01*
X186374181Y-101205350D02*
X186340847Y-101272017D01*
X186340847Y-101272017D02*
X186340847Y-101405350D01*
X186340847Y-101405350D02*
X186374181Y-101472017D01*
X186374181Y-101472017D02*
X186440847Y-101505350D01*
X186440847Y-101505350D02*
X186507514Y-101505350D01*
X186507514Y-101505350D02*
X186574181Y-101172017D01*
X186340847Y-101805350D02*
X186940847Y-101805350D01*
X186940847Y-101805350D02*
X187007514Y-101772017D01*
X187007514Y-101772017D02*
X187040847Y-101705350D01*
X187040847Y-101705350D02*
X187040847Y-101672017D01*
X186107514Y-101805350D02*
X186140847Y-101772017D01*
X186140847Y-101772017D02*
X186174181Y-101805350D01*
X186174181Y-101805350D02*
X186140847Y-101838684D01*
X186140847Y-101838684D02*
X186107514Y-101805350D01*
X186107514Y-101805350D02*
X186174181Y-101805350D01*
X186107514Y-102605350D02*
X186807514Y-102772016D01*
X186807514Y-102772016D02*
X186307514Y-102905350D01*
X186307514Y-102905350D02*
X186807514Y-103038683D01*
X186807514Y-103038683D02*
X186107514Y-103205350D01*
X186807514Y-103472016D02*
X186340847Y-103472016D01*
X186107514Y-103472016D02*
X186140847Y-103438683D01*
X186140847Y-103438683D02*
X186174181Y-103472016D01*
X186174181Y-103472016D02*
X186140847Y-103505350D01*
X186140847Y-103505350D02*
X186107514Y-103472016D01*
X186107514Y-103472016D02*
X186174181Y-103472016D01*
X186340847Y-103705349D02*
X186340847Y-103972016D01*
X186107514Y-103805349D02*
X186707514Y-103805349D01*
X186707514Y-103805349D02*
X186774181Y-103838683D01*
X186774181Y-103838683D02*
X186807514Y-103905349D01*
X186807514Y-103905349D02*
X186807514Y-103972016D01*
X186807514Y-104205349D02*
X186107514Y-104205349D01*
X186540847Y-104272016D02*
X186807514Y-104472016D01*
X186340847Y-104472016D02*
X186607514Y-104205349D01*
X186807514Y-104872016D02*
X186774181Y-104805350D01*
X186774181Y-104805350D02*
X186740847Y-104772016D01*
X186740847Y-104772016D02*
X186674181Y-104738683D01*
X186674181Y-104738683D02*
X186474181Y-104738683D01*
X186474181Y-104738683D02*
X186407514Y-104772016D01*
X186407514Y-104772016D02*
X186374181Y-104805350D01*
X186374181Y-104805350D02*
X186340847Y-104872016D01*
X186340847Y-104872016D02*
X186340847Y-104972016D01*
X186340847Y-104972016D02*
X186374181Y-105038683D01*
X186374181Y-105038683D02*
X186407514Y-105072016D01*
X186407514Y-105072016D02*
X186474181Y-105105350D01*
X186474181Y-105105350D02*
X186674181Y-105105350D01*
X186674181Y-105105350D02*
X186740847Y-105072016D01*
X186740847Y-105072016D02*
X186774181Y-105038683D01*
X186774181Y-105038683D02*
X186807514Y-104972016D01*
X186807514Y-104972016D02*
X186807514Y-104872016D01*
X186340847Y-105338683D02*
X186807514Y-105472016D01*
X186807514Y-105472016D02*
X186474181Y-105605349D01*
X186474181Y-105605349D02*
X186807514Y-105738683D01*
X186807514Y-105738683D02*
X186340847Y-105872016D01*
X186807514Y-106138682D02*
X186340847Y-106138682D01*
X186107514Y-106138682D02*
X186140847Y-106105349D01*
X186140847Y-106105349D02*
X186174181Y-106138682D01*
X186174181Y-106138682D02*
X186140847Y-106172016D01*
X186140847Y-106172016D02*
X186107514Y-106138682D01*
X186107514Y-106138682D02*
X186174181Y-106138682D01*
X186807514Y-106772015D02*
X186440847Y-106772015D01*
X186440847Y-106772015D02*
X186374181Y-106738682D01*
X186374181Y-106738682D02*
X186340847Y-106672015D01*
X186340847Y-106672015D02*
X186340847Y-106538682D01*
X186340847Y-106538682D02*
X186374181Y-106472015D01*
X186774181Y-106772015D02*
X186807514Y-106705349D01*
X186807514Y-106705349D02*
X186807514Y-106538682D01*
X186807514Y-106538682D02*
X186774181Y-106472015D01*
X186774181Y-106472015D02*
X186707514Y-106438682D01*
X186707514Y-106438682D02*
X186640847Y-106438682D01*
X186640847Y-106438682D02*
X186574181Y-106472015D01*
X186574181Y-106472015D02*
X186540847Y-106538682D01*
X186540847Y-106538682D02*
X186540847Y-106705349D01*
X186540847Y-106705349D02*
X186507514Y-106772015D01*
X186807514Y-107105348D02*
X186107514Y-107105348D01*
X186540847Y-107172015D02*
X186807514Y-107372015D01*
X186340847Y-107372015D02*
X186607514Y-107105348D01*
X186774181Y-107705349D02*
X186807514Y-107705349D01*
X186807514Y-107705349D02*
X186874181Y-107672015D01*
X186874181Y-107672015D02*
X186907514Y-107638682D01*
X186340847Y-109072015D02*
X186540847Y-108538681D01*
X186540847Y-108538681D02*
X186740847Y-109072015D01*
X186340847Y-109338682D02*
X186807514Y-109505348D01*
X186340847Y-109672015D02*
X186807514Y-109505348D01*
X186807514Y-109505348D02*
X186974181Y-109438682D01*
X186974181Y-109438682D02*
X187007514Y-109405348D01*
X187007514Y-109405348D02*
X187040847Y-109338682D01*
X186340847Y-109838681D02*
X186340847Y-110105348D01*
X186107514Y-109938681D02*
X186707514Y-109938681D01*
X186707514Y-109938681D02*
X186774181Y-109972015D01*
X186774181Y-109972015D02*
X186807514Y-110038681D01*
X186807514Y-110038681D02*
X186807514Y-110105348D01*
X186807514Y-110338681D02*
X186340847Y-110338681D01*
X186407514Y-110338681D02*
X186374181Y-110372015D01*
X186374181Y-110372015D02*
X186340847Y-110438681D01*
X186340847Y-110438681D02*
X186340847Y-110538681D01*
X186340847Y-110538681D02*
X186374181Y-110605348D01*
X186374181Y-110605348D02*
X186440847Y-110638681D01*
X186440847Y-110638681D02*
X186807514Y-110638681D01*
X186440847Y-110638681D02*
X186374181Y-110672015D01*
X186374181Y-110672015D02*
X186340847Y-110738681D01*
X186340847Y-110738681D02*
X186340847Y-110838681D01*
X186340847Y-110838681D02*
X186374181Y-110905348D01*
X186374181Y-110905348D02*
X186440847Y-110938681D01*
X186440847Y-110938681D02*
X186807514Y-110938681D01*
X186474181Y-111705348D02*
X186440847Y-111672014D01*
X186440847Y-111672014D02*
X186407514Y-111605348D01*
X186407514Y-111605348D02*
X186407514Y-111538681D01*
X186407514Y-111538681D02*
X186440847Y-111472014D01*
X186440847Y-111472014D02*
X186474181Y-111438681D01*
X186474181Y-111438681D02*
X186540847Y-111405348D01*
X186540847Y-111405348D02*
X186607514Y-111405348D01*
X186607514Y-111405348D02*
X186674181Y-111438681D01*
X186674181Y-111438681D02*
X186707514Y-111472014D01*
X186707514Y-111472014D02*
X186740847Y-111538681D01*
X186740847Y-111538681D02*
X186740847Y-111605348D01*
X186740847Y-111605348D02*
X186707514Y-111672014D01*
X186707514Y-111672014D02*
X186674181Y-111705348D01*
X186407514Y-111705348D02*
X186674181Y-111705348D01*
X186674181Y-111705348D02*
X186707514Y-111738681D01*
X186707514Y-111738681D02*
X186707514Y-111772014D01*
X186707514Y-111772014D02*
X186674181Y-111838681D01*
X186674181Y-111838681D02*
X186607514Y-111872014D01*
X186607514Y-111872014D02*
X186440847Y-111872014D01*
X186440847Y-111872014D02*
X186340847Y-111805348D01*
X186340847Y-111805348D02*
X186274181Y-111705348D01*
X186274181Y-111705348D02*
X186240847Y-111572014D01*
X186240847Y-111572014D02*
X186274181Y-111438681D01*
X186274181Y-111438681D02*
X186340847Y-111338681D01*
X186340847Y-111338681D02*
X186440847Y-111272014D01*
X186440847Y-111272014D02*
X186574181Y-111238681D01*
X186574181Y-111238681D02*
X186707514Y-111272014D01*
X186707514Y-111272014D02*
X186807514Y-111338681D01*
X186807514Y-111338681D02*
X186874181Y-111438681D01*
X186874181Y-111438681D02*
X186907514Y-111572014D01*
X186907514Y-111572014D02*
X186874181Y-111705348D01*
X186874181Y-111705348D02*
X186807514Y-111805348D01*
X186774181Y-112438681D02*
X186807514Y-112372014D01*
X186807514Y-112372014D02*
X186807514Y-112238681D01*
X186807514Y-112238681D02*
X186774181Y-112172014D01*
X186774181Y-112172014D02*
X186707514Y-112138681D01*
X186707514Y-112138681D02*
X186440847Y-112138681D01*
X186440847Y-112138681D02*
X186374181Y-112172014D01*
X186374181Y-112172014D02*
X186340847Y-112238681D01*
X186340847Y-112238681D02*
X186340847Y-112372014D01*
X186340847Y-112372014D02*
X186374181Y-112438681D01*
X186374181Y-112438681D02*
X186440847Y-112472014D01*
X186440847Y-112472014D02*
X186507514Y-112472014D01*
X186507514Y-112472014D02*
X186574181Y-112138681D01*
X186807514Y-112872014D02*
X186774181Y-112805348D01*
X186774181Y-112805348D02*
X186707514Y-112772014D01*
X186707514Y-112772014D02*
X186107514Y-112772014D01*
X186340847Y-113072015D02*
X186807514Y-113238681D01*
X186340847Y-113405348D02*
X186807514Y-113238681D01*
X186807514Y-113238681D02*
X186974181Y-113172015D01*
X186974181Y-113172015D02*
X187007514Y-113138681D01*
X187007514Y-113138681D02*
X187040847Y-113072015D01*
X186774181Y-113638681D02*
X186807514Y-113705348D01*
X186807514Y-113705348D02*
X186807514Y-113838681D01*
X186807514Y-113838681D02*
X186774181Y-113905348D01*
X186774181Y-113905348D02*
X186707514Y-113938681D01*
X186707514Y-113938681D02*
X186674181Y-113938681D01*
X186674181Y-113938681D02*
X186607514Y-113905348D01*
X186607514Y-113905348D02*
X186574181Y-113838681D01*
X186574181Y-113838681D02*
X186574181Y-113738681D01*
X186574181Y-113738681D02*
X186540847Y-113672014D01*
X186540847Y-113672014D02*
X186474181Y-113638681D01*
X186474181Y-113638681D02*
X186440847Y-113638681D01*
X186440847Y-113638681D02*
X186374181Y-113672014D01*
X186374181Y-113672014D02*
X186340847Y-113738681D01*
X186340847Y-113738681D02*
X186340847Y-113838681D01*
X186340847Y-113838681D02*
X186374181Y-113905348D01*
X186807514Y-114238681D02*
X186340847Y-114238681D01*
X186107514Y-114238681D02*
X186140847Y-114205348D01*
X186140847Y-114205348D02*
X186174181Y-114238681D01*
X186174181Y-114238681D02*
X186140847Y-114272015D01*
X186140847Y-114272015D02*
X186107514Y-114238681D01*
X186107514Y-114238681D02*
X186174181Y-114238681D01*
X186340847Y-114872014D02*
X186807514Y-114872014D01*
X186340847Y-114572014D02*
X186707514Y-114572014D01*
X186707514Y-114572014D02*
X186774181Y-114605348D01*
X186774181Y-114605348D02*
X186807514Y-114672014D01*
X186807514Y-114672014D02*
X186807514Y-114772014D01*
X186807514Y-114772014D02*
X186774181Y-114838681D01*
X186774181Y-114838681D02*
X186740847Y-114872014D01*
X186807514Y-115205347D02*
X186340847Y-115205347D01*
X186407514Y-115205347D02*
X186374181Y-115238681D01*
X186374181Y-115238681D02*
X186340847Y-115305347D01*
X186340847Y-115305347D02*
X186340847Y-115405347D01*
X186340847Y-115405347D02*
X186374181Y-115472014D01*
X186374181Y-115472014D02*
X186440847Y-115505347D01*
X186440847Y-115505347D02*
X186807514Y-115505347D01*
X186440847Y-115505347D02*
X186374181Y-115538681D01*
X186374181Y-115538681D02*
X186340847Y-115605347D01*
X186340847Y-115605347D02*
X186340847Y-115705347D01*
X186340847Y-115705347D02*
X186374181Y-115772014D01*
X186374181Y-115772014D02*
X186440847Y-115805347D01*
X186440847Y-115805347D02*
X186807514Y-115805347D01*
X186740847Y-116138680D02*
X186774181Y-116172014D01*
X186774181Y-116172014D02*
X186807514Y-116138680D01*
X186807514Y-116138680D02*
X186774181Y-116105347D01*
X186774181Y-116105347D02*
X186740847Y-116138680D01*
X186740847Y-116138680D02*
X186807514Y-116138680D01*
X186340847Y-116472013D02*
X187040847Y-116472013D01*
X186374181Y-116472013D02*
X186340847Y-116538680D01*
X186340847Y-116538680D02*
X186340847Y-116672013D01*
X186340847Y-116672013D02*
X186374181Y-116738680D01*
X186374181Y-116738680D02*
X186407514Y-116772013D01*
X186407514Y-116772013D02*
X186474181Y-116805347D01*
X186474181Y-116805347D02*
X186674181Y-116805347D01*
X186674181Y-116805347D02*
X186740847Y-116772013D01*
X186740847Y-116772013D02*
X186774181Y-116738680D01*
X186774181Y-116738680D02*
X186807514Y-116672013D01*
X186807514Y-116672013D02*
X186807514Y-116538680D01*
X186807514Y-116538680D02*
X186774181Y-116472013D01*
X186807514Y-117205346D02*
X186774181Y-117138680D01*
X186774181Y-117138680D02*
X186707514Y-117105346D01*
X186707514Y-117105346D02*
X186107514Y-117105346D01*
X186340847Y-117472013D02*
X186540847Y-118005347D01*
X186540847Y-118005347D02*
X186740847Y-117472013D01*
X146968111Y-86825350D02*
X147468111Y-86825350D01*
X147468111Y-86825350D02*
X147568111Y-86792017D01*
X147568111Y-86792017D02*
X147634778Y-86725350D01*
X147634778Y-86725350D02*
X147668111Y-86625350D01*
X147668111Y-86625350D02*
X147668111Y-86558684D01*
X147034778Y-87125350D02*
X147001444Y-87158683D01*
X147001444Y-87158683D02*
X146968111Y-87225350D01*
X146968111Y-87225350D02*
X146968111Y-87392017D01*
X146968111Y-87392017D02*
X147001444Y-87458683D01*
X147001444Y-87458683D02*
X147034778Y-87492017D01*
X147034778Y-87492017D02*
X147101444Y-87525350D01*
X147101444Y-87525350D02*
X147168111Y-87525350D01*
X147168111Y-87525350D02*
X147268111Y-87492017D01*
X147268111Y-87492017D02*
X147668111Y-87092017D01*
X147668111Y-87092017D02*
X147668111Y-87525350D01*
X147601444Y-87825350D02*
X147634778Y-87858684D01*
X147634778Y-87858684D02*
X147668111Y-87825350D01*
X147668111Y-87825350D02*
X147634778Y-87792017D01*
X147634778Y-87792017D02*
X147601444Y-87825350D01*
X147601444Y-87825350D02*
X147668111Y-87825350D01*
X147234778Y-87825350D02*
X147268111Y-87858684D01*
X147268111Y-87858684D02*
X147301444Y-87825350D01*
X147301444Y-87825350D02*
X147268111Y-87792017D01*
X147268111Y-87792017D02*
X147234778Y-87825350D01*
X147234778Y-87825350D02*
X147301444Y-87825350D01*
X148528405Y-86625350D02*
X148528405Y-87158684D01*
X148595072Y-87992017D02*
X148595072Y-88325350D01*
X148795072Y-87925350D02*
X148095072Y-88158684D01*
X148095072Y-88158684D02*
X148795072Y-88392017D01*
X148795072Y-88992017D02*
X148795072Y-88592017D01*
X148795072Y-88792017D02*
X148095072Y-88792017D01*
X148095072Y-88792017D02*
X148195072Y-88725350D01*
X148195072Y-88725350D02*
X148261739Y-88658684D01*
X148261739Y-88658684D02*
X148295072Y-88592017D01*
X148328405Y-89592017D02*
X148795072Y-89592017D01*
X148061739Y-89425351D02*
X148561739Y-89258684D01*
X148561739Y-89258684D02*
X148561739Y-89692017D01*
X148328405Y-90392017D02*
X148328405Y-90658684D01*
X148795072Y-90492017D02*
X148195072Y-90492017D01*
X148195072Y-90492017D02*
X148128405Y-90525351D01*
X148128405Y-90525351D02*
X148095072Y-90592017D01*
X148095072Y-90592017D02*
X148095072Y-90658684D01*
X148795072Y-90892017D02*
X148328405Y-90892017D01*
X148461739Y-90892017D02*
X148395072Y-90925351D01*
X148395072Y-90925351D02*
X148361739Y-90958684D01*
X148361739Y-90958684D02*
X148328405Y-91025351D01*
X148328405Y-91025351D02*
X148328405Y-91092017D01*
X148795072Y-91425350D02*
X148761739Y-91358684D01*
X148761739Y-91358684D02*
X148728405Y-91325350D01*
X148728405Y-91325350D02*
X148661739Y-91292017D01*
X148661739Y-91292017D02*
X148461739Y-91292017D01*
X148461739Y-91292017D02*
X148395072Y-91325350D01*
X148395072Y-91325350D02*
X148361739Y-91358684D01*
X148361739Y-91358684D02*
X148328405Y-91425350D01*
X148328405Y-91425350D02*
X148328405Y-91525350D01*
X148328405Y-91525350D02*
X148361739Y-91592017D01*
X148361739Y-91592017D02*
X148395072Y-91625350D01*
X148395072Y-91625350D02*
X148461739Y-91658684D01*
X148461739Y-91658684D02*
X148661739Y-91658684D01*
X148661739Y-91658684D02*
X148728405Y-91625350D01*
X148728405Y-91625350D02*
X148761739Y-91592017D01*
X148761739Y-91592017D02*
X148795072Y-91525350D01*
X148795072Y-91525350D02*
X148795072Y-91425350D01*
X148795072Y-91958683D02*
X148328405Y-91958683D01*
X148395072Y-91958683D02*
X148361739Y-91992017D01*
X148361739Y-91992017D02*
X148328405Y-92058683D01*
X148328405Y-92058683D02*
X148328405Y-92158683D01*
X148328405Y-92158683D02*
X148361739Y-92225350D01*
X148361739Y-92225350D02*
X148428405Y-92258683D01*
X148428405Y-92258683D02*
X148795072Y-92258683D01*
X148428405Y-92258683D02*
X148361739Y-92292017D01*
X148361739Y-92292017D02*
X148328405Y-92358683D01*
X148328405Y-92358683D02*
X148328405Y-92458683D01*
X148328405Y-92458683D02*
X148361739Y-92525350D01*
X148361739Y-92525350D02*
X148428405Y-92558683D01*
X148428405Y-92558683D02*
X148795072Y-92558683D01*
X148728405Y-93825349D02*
X148761739Y-93792016D01*
X148761739Y-93792016D02*
X148795072Y-93692016D01*
X148795072Y-93692016D02*
X148795072Y-93625349D01*
X148795072Y-93625349D02*
X148761739Y-93525349D01*
X148761739Y-93525349D02*
X148695072Y-93458683D01*
X148695072Y-93458683D02*
X148628405Y-93425349D01*
X148628405Y-93425349D02*
X148495072Y-93392016D01*
X148495072Y-93392016D02*
X148395072Y-93392016D01*
X148395072Y-93392016D02*
X148261739Y-93425349D01*
X148261739Y-93425349D02*
X148195072Y-93458683D01*
X148195072Y-93458683D02*
X148128405Y-93525349D01*
X148128405Y-93525349D02*
X148095072Y-93625349D01*
X148095072Y-93625349D02*
X148095072Y-93692016D01*
X148095072Y-93692016D02*
X148128405Y-93792016D01*
X148128405Y-93792016D02*
X148161739Y-93825349D01*
X148795072Y-94125349D02*
X148095072Y-94125349D01*
X148095072Y-94125349D02*
X148095072Y-94392016D01*
X148095072Y-94392016D02*
X148128405Y-94458683D01*
X148128405Y-94458683D02*
X148161739Y-94492016D01*
X148161739Y-94492016D02*
X148228405Y-94525349D01*
X148228405Y-94525349D02*
X148328405Y-94525349D01*
X148328405Y-94525349D02*
X148395072Y-94492016D01*
X148395072Y-94492016D02*
X148428405Y-94458683D01*
X148428405Y-94458683D02*
X148461739Y-94392016D01*
X148461739Y-94392016D02*
X148461739Y-94125349D01*
X148095072Y-94825349D02*
X148661739Y-94825349D01*
X148661739Y-94825349D02*
X148728405Y-94858683D01*
X148728405Y-94858683D02*
X148761739Y-94892016D01*
X148761739Y-94892016D02*
X148795072Y-94958683D01*
X148795072Y-94958683D02*
X148795072Y-95092016D01*
X148795072Y-95092016D02*
X148761739Y-95158683D01*
X148761739Y-95158683D02*
X148728405Y-95192016D01*
X148728405Y-95192016D02*
X148661739Y-95225349D01*
X148661739Y-95225349D02*
X148095072Y-95225349D01*
X149061739Y-96292015D02*
X149028405Y-96258682D01*
X149028405Y-96258682D02*
X148928405Y-96192015D01*
X148928405Y-96192015D02*
X148861739Y-96158682D01*
X148861739Y-96158682D02*
X148761739Y-96125349D01*
X148761739Y-96125349D02*
X148595072Y-96092015D01*
X148595072Y-96092015D02*
X148461739Y-96092015D01*
X148461739Y-96092015D02*
X148295072Y-96125349D01*
X148295072Y-96125349D02*
X148195072Y-96158682D01*
X148195072Y-96158682D02*
X148128405Y-96192015D01*
X148128405Y-96192015D02*
X148028405Y-96258682D01*
X148028405Y-96258682D02*
X147995072Y-96292015D01*
X148095072Y-96558682D02*
X148661739Y-96558682D01*
X148661739Y-96558682D02*
X148728405Y-96592016D01*
X148728405Y-96592016D02*
X148761739Y-96625349D01*
X148761739Y-96625349D02*
X148795072Y-96692016D01*
X148795072Y-96692016D02*
X148795072Y-96825349D01*
X148795072Y-96825349D02*
X148761739Y-96892016D01*
X148761739Y-96892016D02*
X148728405Y-96925349D01*
X148728405Y-96925349D02*
X148661739Y-96958682D01*
X148661739Y-96958682D02*
X148095072Y-96958682D01*
X148161739Y-97258682D02*
X148128405Y-97292015D01*
X148128405Y-97292015D02*
X148095072Y-97358682D01*
X148095072Y-97358682D02*
X148095072Y-97525349D01*
X148095072Y-97525349D02*
X148128405Y-97592015D01*
X148128405Y-97592015D02*
X148161739Y-97625349D01*
X148161739Y-97625349D02*
X148228405Y-97658682D01*
X148228405Y-97658682D02*
X148295072Y-97658682D01*
X148295072Y-97658682D02*
X148395072Y-97625349D01*
X148395072Y-97625349D02*
X148795072Y-97225349D01*
X148795072Y-97225349D02*
X148795072Y-97658682D01*
X149061739Y-97892016D02*
X149028405Y-97925349D01*
X149028405Y-97925349D02*
X148928405Y-97992016D01*
X148928405Y-97992016D02*
X148861739Y-98025349D01*
X148861739Y-98025349D02*
X148761739Y-98058682D01*
X148761739Y-98058682D02*
X148595072Y-98092016D01*
X148595072Y-98092016D02*
X148461739Y-98092016D01*
X148461739Y-98092016D02*
X148295072Y-98058682D01*
X148295072Y-98058682D02*
X148195072Y-98025349D01*
X148195072Y-98025349D02*
X148128405Y-97992016D01*
X148128405Y-97992016D02*
X148028405Y-97925349D01*
X148028405Y-97925349D02*
X147995072Y-97892016D01*
X148328405Y-98958682D02*
X149028405Y-98958682D01*
X148361739Y-98958682D02*
X148328405Y-99025349D01*
X148328405Y-99025349D02*
X148328405Y-99158682D01*
X148328405Y-99158682D02*
X148361739Y-99225349D01*
X148361739Y-99225349D02*
X148395072Y-99258682D01*
X148395072Y-99258682D02*
X148461739Y-99292016D01*
X148461739Y-99292016D02*
X148661739Y-99292016D01*
X148661739Y-99292016D02*
X148728405Y-99258682D01*
X148728405Y-99258682D02*
X148761739Y-99225349D01*
X148761739Y-99225349D02*
X148795072Y-99158682D01*
X148795072Y-99158682D02*
X148795072Y-99025349D01*
X148795072Y-99025349D02*
X148761739Y-98958682D01*
X148795072Y-99592015D02*
X148328405Y-99592015D01*
X148095072Y-99592015D02*
X148128405Y-99558682D01*
X148128405Y-99558682D02*
X148161739Y-99592015D01*
X148161739Y-99592015D02*
X148128405Y-99625349D01*
X148128405Y-99625349D02*
X148095072Y-99592015D01*
X148095072Y-99592015D02*
X148161739Y-99592015D01*
X148328405Y-99925348D02*
X148795072Y-99925348D01*
X148395072Y-99925348D02*
X148361739Y-99958682D01*
X148361739Y-99958682D02*
X148328405Y-100025348D01*
X148328405Y-100025348D02*
X148328405Y-100125348D01*
X148328405Y-100125348D02*
X148361739Y-100192015D01*
X148361739Y-100192015D02*
X148428405Y-100225348D01*
X148428405Y-100225348D02*
X148795072Y-100225348D01*
X148161739Y-101058681D02*
X148128405Y-101092014D01*
X148128405Y-101092014D02*
X148095072Y-101158681D01*
X148095072Y-101158681D02*
X148095072Y-101325348D01*
X148095072Y-101325348D02*
X148128405Y-101392014D01*
X148128405Y-101392014D02*
X148161739Y-101425348D01*
X148161739Y-101425348D02*
X148228405Y-101458681D01*
X148228405Y-101458681D02*
X148295072Y-101458681D01*
X148295072Y-101458681D02*
X148395072Y-101425348D01*
X148395072Y-101425348D02*
X148795072Y-101025348D01*
X148795072Y-101025348D02*
X148795072Y-101458681D01*
X148795072Y-102125348D02*
X148795072Y-101725348D01*
X148795072Y-101925348D02*
X148095072Y-101925348D01*
X148095072Y-101925348D02*
X148195072Y-101858681D01*
X148195072Y-101858681D02*
X148261739Y-101792015D01*
X148261739Y-101792015D02*
X148295072Y-101725348D01*
X148795072Y-103058681D02*
X148761739Y-102992015D01*
X148761739Y-102992015D02*
X148728405Y-102958681D01*
X148728405Y-102958681D02*
X148661739Y-102925348D01*
X148661739Y-102925348D02*
X148461739Y-102925348D01*
X148461739Y-102925348D02*
X148395072Y-102958681D01*
X148395072Y-102958681D02*
X148361739Y-102992015D01*
X148361739Y-102992015D02*
X148328405Y-103058681D01*
X148328405Y-103058681D02*
X148328405Y-103158681D01*
X148328405Y-103158681D02*
X148361739Y-103225348D01*
X148361739Y-103225348D02*
X148395072Y-103258681D01*
X148395072Y-103258681D02*
X148461739Y-103292015D01*
X148461739Y-103292015D02*
X148661739Y-103292015D01*
X148661739Y-103292015D02*
X148728405Y-103258681D01*
X148728405Y-103258681D02*
X148761739Y-103225348D01*
X148761739Y-103225348D02*
X148795072Y-103158681D01*
X148795072Y-103158681D02*
X148795072Y-103058681D01*
X148795072Y-103592014D02*
X148328405Y-103592014D01*
X148461739Y-103592014D02*
X148395072Y-103625348D01*
X148395072Y-103625348D02*
X148361739Y-103658681D01*
X148361739Y-103658681D02*
X148328405Y-103725348D01*
X148328405Y-103725348D02*
X148328405Y-103792014D01*
X148095072Y-104558680D02*
X148661739Y-104558680D01*
X148661739Y-104558680D02*
X148728405Y-104592014D01*
X148728405Y-104592014D02*
X148761739Y-104625347D01*
X148761739Y-104625347D02*
X148795072Y-104692014D01*
X148795072Y-104692014D02*
X148795072Y-104825347D01*
X148795072Y-104825347D02*
X148761739Y-104892014D01*
X148761739Y-104892014D02*
X148728405Y-104925347D01*
X148728405Y-104925347D02*
X148661739Y-104958680D01*
X148661739Y-104958680D02*
X148095072Y-104958680D01*
X148095072Y-105225347D02*
X148095072Y-105692013D01*
X148095072Y-105692013D02*
X148795072Y-105392013D01*
X148328405Y-106492013D02*
X149028405Y-106492013D01*
X148361739Y-106492013D02*
X148328405Y-106558680D01*
X148328405Y-106558680D02*
X148328405Y-106692013D01*
X148328405Y-106692013D02*
X148361739Y-106758680D01*
X148361739Y-106758680D02*
X148395072Y-106792013D01*
X148395072Y-106792013D02*
X148461739Y-106825347D01*
X148461739Y-106825347D02*
X148661739Y-106825347D01*
X148661739Y-106825347D02*
X148728405Y-106792013D01*
X148728405Y-106792013D02*
X148761739Y-106758680D01*
X148761739Y-106758680D02*
X148795072Y-106692013D01*
X148795072Y-106692013D02*
X148795072Y-106558680D01*
X148795072Y-106558680D02*
X148761739Y-106492013D01*
X148795072Y-107125346D02*
X148328405Y-107125346D01*
X148095072Y-107125346D02*
X148128405Y-107092013D01*
X148128405Y-107092013D02*
X148161739Y-107125346D01*
X148161739Y-107125346D02*
X148128405Y-107158680D01*
X148128405Y-107158680D02*
X148095072Y-107125346D01*
X148095072Y-107125346D02*
X148161739Y-107125346D01*
X148328405Y-107458679D02*
X148795072Y-107458679D01*
X148395072Y-107458679D02*
X148361739Y-107492013D01*
X148361739Y-107492013D02*
X148328405Y-107558679D01*
X148328405Y-107558679D02*
X148328405Y-107658679D01*
X148328405Y-107658679D02*
X148361739Y-107725346D01*
X148361739Y-107725346D02*
X148428405Y-107758679D01*
X148428405Y-107758679D02*
X148795072Y-107758679D01*
X148095072Y-108558679D02*
X148095072Y-109025345D01*
X148095072Y-109025345D02*
X148795072Y-108725345D01*
X149655366Y-86625350D02*
X149655366Y-87158684D01*
X149722033Y-87992017D02*
X149722033Y-88325350D01*
X149922033Y-87925350D02*
X149222033Y-88158684D01*
X149222033Y-88158684D02*
X149922033Y-88392017D01*
X149922033Y-88992017D02*
X149922033Y-88592017D01*
X149922033Y-88792017D02*
X149222033Y-88792017D01*
X149222033Y-88792017D02*
X149322033Y-88725350D01*
X149322033Y-88725350D02*
X149388700Y-88658684D01*
X149388700Y-88658684D02*
X149422033Y-88592017D01*
X149222033Y-89625351D02*
X149222033Y-89292017D01*
X149222033Y-89292017D02*
X149555366Y-89258684D01*
X149555366Y-89258684D02*
X149522033Y-89292017D01*
X149522033Y-89292017D02*
X149488700Y-89358684D01*
X149488700Y-89358684D02*
X149488700Y-89525351D01*
X149488700Y-89525351D02*
X149522033Y-89592017D01*
X149522033Y-89592017D02*
X149555366Y-89625351D01*
X149555366Y-89625351D02*
X149622033Y-89658684D01*
X149622033Y-89658684D02*
X149788700Y-89658684D01*
X149788700Y-89658684D02*
X149855366Y-89625351D01*
X149855366Y-89625351D02*
X149888700Y-89592017D01*
X149888700Y-89592017D02*
X149922033Y-89525351D01*
X149922033Y-89525351D02*
X149922033Y-89358684D01*
X149922033Y-89358684D02*
X149888700Y-89292017D01*
X149888700Y-89292017D02*
X149855366Y-89258684D01*
X149455366Y-90392017D02*
X149455366Y-90658684D01*
X149922033Y-90492017D02*
X149322033Y-90492017D01*
X149322033Y-90492017D02*
X149255366Y-90525351D01*
X149255366Y-90525351D02*
X149222033Y-90592017D01*
X149222033Y-90592017D02*
X149222033Y-90658684D01*
X149922033Y-90892017D02*
X149455366Y-90892017D01*
X149588700Y-90892017D02*
X149522033Y-90925351D01*
X149522033Y-90925351D02*
X149488700Y-90958684D01*
X149488700Y-90958684D02*
X149455366Y-91025351D01*
X149455366Y-91025351D02*
X149455366Y-91092017D01*
X149922033Y-91425350D02*
X149888700Y-91358684D01*
X149888700Y-91358684D02*
X149855366Y-91325350D01*
X149855366Y-91325350D02*
X149788700Y-91292017D01*
X149788700Y-91292017D02*
X149588700Y-91292017D01*
X149588700Y-91292017D02*
X149522033Y-91325350D01*
X149522033Y-91325350D02*
X149488700Y-91358684D01*
X149488700Y-91358684D02*
X149455366Y-91425350D01*
X149455366Y-91425350D02*
X149455366Y-91525350D01*
X149455366Y-91525350D02*
X149488700Y-91592017D01*
X149488700Y-91592017D02*
X149522033Y-91625350D01*
X149522033Y-91625350D02*
X149588700Y-91658684D01*
X149588700Y-91658684D02*
X149788700Y-91658684D01*
X149788700Y-91658684D02*
X149855366Y-91625350D01*
X149855366Y-91625350D02*
X149888700Y-91592017D01*
X149888700Y-91592017D02*
X149922033Y-91525350D01*
X149922033Y-91525350D02*
X149922033Y-91425350D01*
X149922033Y-91958683D02*
X149455366Y-91958683D01*
X149522033Y-91958683D02*
X149488700Y-91992017D01*
X149488700Y-91992017D02*
X149455366Y-92058683D01*
X149455366Y-92058683D02*
X149455366Y-92158683D01*
X149455366Y-92158683D02*
X149488700Y-92225350D01*
X149488700Y-92225350D02*
X149555366Y-92258683D01*
X149555366Y-92258683D02*
X149922033Y-92258683D01*
X149555366Y-92258683D02*
X149488700Y-92292017D01*
X149488700Y-92292017D02*
X149455366Y-92358683D01*
X149455366Y-92358683D02*
X149455366Y-92458683D01*
X149455366Y-92458683D02*
X149488700Y-92525350D01*
X149488700Y-92525350D02*
X149555366Y-92558683D01*
X149555366Y-92558683D02*
X149922033Y-92558683D01*
X149855366Y-93825349D02*
X149888700Y-93792016D01*
X149888700Y-93792016D02*
X149922033Y-93692016D01*
X149922033Y-93692016D02*
X149922033Y-93625349D01*
X149922033Y-93625349D02*
X149888700Y-93525349D01*
X149888700Y-93525349D02*
X149822033Y-93458683D01*
X149822033Y-93458683D02*
X149755366Y-93425349D01*
X149755366Y-93425349D02*
X149622033Y-93392016D01*
X149622033Y-93392016D02*
X149522033Y-93392016D01*
X149522033Y-93392016D02*
X149388700Y-93425349D01*
X149388700Y-93425349D02*
X149322033Y-93458683D01*
X149322033Y-93458683D02*
X149255366Y-93525349D01*
X149255366Y-93525349D02*
X149222033Y-93625349D01*
X149222033Y-93625349D02*
X149222033Y-93692016D01*
X149222033Y-93692016D02*
X149255366Y-93792016D01*
X149255366Y-93792016D02*
X149288700Y-93825349D01*
X149922033Y-94125349D02*
X149222033Y-94125349D01*
X149222033Y-94125349D02*
X149222033Y-94392016D01*
X149222033Y-94392016D02*
X149255366Y-94458683D01*
X149255366Y-94458683D02*
X149288700Y-94492016D01*
X149288700Y-94492016D02*
X149355366Y-94525349D01*
X149355366Y-94525349D02*
X149455366Y-94525349D01*
X149455366Y-94525349D02*
X149522033Y-94492016D01*
X149522033Y-94492016D02*
X149555366Y-94458683D01*
X149555366Y-94458683D02*
X149588700Y-94392016D01*
X149588700Y-94392016D02*
X149588700Y-94125349D01*
X149222033Y-94825349D02*
X149788700Y-94825349D01*
X149788700Y-94825349D02*
X149855366Y-94858683D01*
X149855366Y-94858683D02*
X149888700Y-94892016D01*
X149888700Y-94892016D02*
X149922033Y-94958683D01*
X149922033Y-94958683D02*
X149922033Y-95092016D01*
X149922033Y-95092016D02*
X149888700Y-95158683D01*
X149888700Y-95158683D02*
X149855366Y-95192016D01*
X149855366Y-95192016D02*
X149788700Y-95225349D01*
X149788700Y-95225349D02*
X149222033Y-95225349D01*
X150188700Y-96292015D02*
X150155366Y-96258682D01*
X150155366Y-96258682D02*
X150055366Y-96192015D01*
X150055366Y-96192015D02*
X149988700Y-96158682D01*
X149988700Y-96158682D02*
X149888700Y-96125349D01*
X149888700Y-96125349D02*
X149722033Y-96092015D01*
X149722033Y-96092015D02*
X149588700Y-96092015D01*
X149588700Y-96092015D02*
X149422033Y-96125349D01*
X149422033Y-96125349D02*
X149322033Y-96158682D01*
X149322033Y-96158682D02*
X149255366Y-96192015D01*
X149255366Y-96192015D02*
X149155366Y-96258682D01*
X149155366Y-96258682D02*
X149122033Y-96292015D01*
X149222033Y-96558682D02*
X149788700Y-96558682D01*
X149788700Y-96558682D02*
X149855366Y-96592016D01*
X149855366Y-96592016D02*
X149888700Y-96625349D01*
X149888700Y-96625349D02*
X149922033Y-96692016D01*
X149922033Y-96692016D02*
X149922033Y-96825349D01*
X149922033Y-96825349D02*
X149888700Y-96892016D01*
X149888700Y-96892016D02*
X149855366Y-96925349D01*
X149855366Y-96925349D02*
X149788700Y-96958682D01*
X149788700Y-96958682D02*
X149222033Y-96958682D01*
X149288700Y-97258682D02*
X149255366Y-97292015D01*
X149255366Y-97292015D02*
X149222033Y-97358682D01*
X149222033Y-97358682D02*
X149222033Y-97525349D01*
X149222033Y-97525349D02*
X149255366Y-97592015D01*
X149255366Y-97592015D02*
X149288700Y-97625349D01*
X149288700Y-97625349D02*
X149355366Y-97658682D01*
X149355366Y-97658682D02*
X149422033Y-97658682D01*
X149422033Y-97658682D02*
X149522033Y-97625349D01*
X149522033Y-97625349D02*
X149922033Y-97225349D01*
X149922033Y-97225349D02*
X149922033Y-97658682D01*
X150188700Y-97892016D02*
X150155366Y-97925349D01*
X150155366Y-97925349D02*
X150055366Y-97992016D01*
X150055366Y-97992016D02*
X149988700Y-98025349D01*
X149988700Y-98025349D02*
X149888700Y-98058682D01*
X149888700Y-98058682D02*
X149722033Y-98092016D01*
X149722033Y-98092016D02*
X149588700Y-98092016D01*
X149588700Y-98092016D02*
X149422033Y-98058682D01*
X149422033Y-98058682D02*
X149322033Y-98025349D01*
X149322033Y-98025349D02*
X149255366Y-97992016D01*
X149255366Y-97992016D02*
X149155366Y-97925349D01*
X149155366Y-97925349D02*
X149122033Y-97892016D01*
X149455366Y-98958682D02*
X150155366Y-98958682D01*
X149488700Y-98958682D02*
X149455366Y-99025349D01*
X149455366Y-99025349D02*
X149455366Y-99158682D01*
X149455366Y-99158682D02*
X149488700Y-99225349D01*
X149488700Y-99225349D02*
X149522033Y-99258682D01*
X149522033Y-99258682D02*
X149588700Y-99292016D01*
X149588700Y-99292016D02*
X149788700Y-99292016D01*
X149788700Y-99292016D02*
X149855366Y-99258682D01*
X149855366Y-99258682D02*
X149888700Y-99225349D01*
X149888700Y-99225349D02*
X149922033Y-99158682D01*
X149922033Y-99158682D02*
X149922033Y-99025349D01*
X149922033Y-99025349D02*
X149888700Y-98958682D01*
X149922033Y-99592015D02*
X149455366Y-99592015D01*
X149222033Y-99592015D02*
X149255366Y-99558682D01*
X149255366Y-99558682D02*
X149288700Y-99592015D01*
X149288700Y-99592015D02*
X149255366Y-99625349D01*
X149255366Y-99625349D02*
X149222033Y-99592015D01*
X149222033Y-99592015D02*
X149288700Y-99592015D01*
X149455366Y-99925348D02*
X149922033Y-99925348D01*
X149522033Y-99925348D02*
X149488700Y-99958682D01*
X149488700Y-99958682D02*
X149455366Y-100025348D01*
X149455366Y-100025348D02*
X149455366Y-100125348D01*
X149455366Y-100125348D02*
X149488700Y-100192015D01*
X149488700Y-100192015D02*
X149555366Y-100225348D01*
X149555366Y-100225348D02*
X149922033Y-100225348D01*
X149288700Y-101058681D02*
X149255366Y-101092014D01*
X149255366Y-101092014D02*
X149222033Y-101158681D01*
X149222033Y-101158681D02*
X149222033Y-101325348D01*
X149222033Y-101325348D02*
X149255366Y-101392014D01*
X149255366Y-101392014D02*
X149288700Y-101425348D01*
X149288700Y-101425348D02*
X149355366Y-101458681D01*
X149355366Y-101458681D02*
X149422033Y-101458681D01*
X149422033Y-101458681D02*
X149522033Y-101425348D01*
X149522033Y-101425348D02*
X149922033Y-101025348D01*
X149922033Y-101025348D02*
X149922033Y-101458681D01*
X149288700Y-101725348D02*
X149255366Y-101758681D01*
X149255366Y-101758681D02*
X149222033Y-101825348D01*
X149222033Y-101825348D02*
X149222033Y-101992015D01*
X149222033Y-101992015D02*
X149255366Y-102058681D01*
X149255366Y-102058681D02*
X149288700Y-102092015D01*
X149288700Y-102092015D02*
X149355366Y-102125348D01*
X149355366Y-102125348D02*
X149422033Y-102125348D01*
X149422033Y-102125348D02*
X149522033Y-102092015D01*
X149522033Y-102092015D02*
X149922033Y-101692015D01*
X149922033Y-101692015D02*
X149922033Y-102125348D01*
X149922033Y-103058681D02*
X149888700Y-102992015D01*
X149888700Y-102992015D02*
X149855366Y-102958681D01*
X149855366Y-102958681D02*
X149788700Y-102925348D01*
X149788700Y-102925348D02*
X149588700Y-102925348D01*
X149588700Y-102925348D02*
X149522033Y-102958681D01*
X149522033Y-102958681D02*
X149488700Y-102992015D01*
X149488700Y-102992015D02*
X149455366Y-103058681D01*
X149455366Y-103058681D02*
X149455366Y-103158681D01*
X149455366Y-103158681D02*
X149488700Y-103225348D01*
X149488700Y-103225348D02*
X149522033Y-103258681D01*
X149522033Y-103258681D02*
X149588700Y-103292015D01*
X149588700Y-103292015D02*
X149788700Y-103292015D01*
X149788700Y-103292015D02*
X149855366Y-103258681D01*
X149855366Y-103258681D02*
X149888700Y-103225348D01*
X149888700Y-103225348D02*
X149922033Y-103158681D01*
X149922033Y-103158681D02*
X149922033Y-103058681D01*
X149922033Y-103592014D02*
X149455366Y-103592014D01*
X149588700Y-103592014D02*
X149522033Y-103625348D01*
X149522033Y-103625348D02*
X149488700Y-103658681D01*
X149488700Y-103658681D02*
X149455366Y-103725348D01*
X149455366Y-103725348D02*
X149455366Y-103792014D01*
X149222033Y-104558680D02*
X149788700Y-104558680D01*
X149788700Y-104558680D02*
X149855366Y-104592014D01*
X149855366Y-104592014D02*
X149888700Y-104625347D01*
X149888700Y-104625347D02*
X149922033Y-104692014D01*
X149922033Y-104692014D02*
X149922033Y-104825347D01*
X149922033Y-104825347D02*
X149888700Y-104892014D01*
X149888700Y-104892014D02*
X149855366Y-104925347D01*
X149855366Y-104925347D02*
X149788700Y-104958680D01*
X149788700Y-104958680D02*
X149222033Y-104958680D01*
X149222033Y-105225347D02*
X149222033Y-105692013D01*
X149222033Y-105692013D02*
X149922033Y-105392013D01*
X149455366Y-106492013D02*
X150155366Y-106492013D01*
X149488700Y-106492013D02*
X149455366Y-106558680D01*
X149455366Y-106558680D02*
X149455366Y-106692013D01*
X149455366Y-106692013D02*
X149488700Y-106758680D01*
X149488700Y-106758680D02*
X149522033Y-106792013D01*
X149522033Y-106792013D02*
X149588700Y-106825347D01*
X149588700Y-106825347D02*
X149788700Y-106825347D01*
X149788700Y-106825347D02*
X149855366Y-106792013D01*
X149855366Y-106792013D02*
X149888700Y-106758680D01*
X149888700Y-106758680D02*
X149922033Y-106692013D01*
X149922033Y-106692013D02*
X149922033Y-106558680D01*
X149922033Y-106558680D02*
X149888700Y-106492013D01*
X149922033Y-107125346D02*
X149455366Y-107125346D01*
X149222033Y-107125346D02*
X149255366Y-107092013D01*
X149255366Y-107092013D02*
X149288700Y-107125346D01*
X149288700Y-107125346D02*
X149255366Y-107158680D01*
X149255366Y-107158680D02*
X149222033Y-107125346D01*
X149222033Y-107125346D02*
X149288700Y-107125346D01*
X149455366Y-107458679D02*
X149922033Y-107458679D01*
X149522033Y-107458679D02*
X149488700Y-107492013D01*
X149488700Y-107492013D02*
X149455366Y-107558679D01*
X149455366Y-107558679D02*
X149455366Y-107658679D01*
X149455366Y-107658679D02*
X149488700Y-107725346D01*
X149488700Y-107725346D02*
X149555366Y-107758679D01*
X149555366Y-107758679D02*
X149922033Y-107758679D01*
X149222033Y-108925345D02*
X149222033Y-108792012D01*
X149222033Y-108792012D02*
X149255366Y-108725345D01*
X149255366Y-108725345D02*
X149288700Y-108692012D01*
X149288700Y-108692012D02*
X149388700Y-108625345D01*
X149388700Y-108625345D02*
X149522033Y-108592012D01*
X149522033Y-108592012D02*
X149788700Y-108592012D01*
X149788700Y-108592012D02*
X149855366Y-108625345D01*
X149855366Y-108625345D02*
X149888700Y-108658679D01*
X149888700Y-108658679D02*
X149922033Y-108725345D01*
X149922033Y-108725345D02*
X149922033Y-108858679D01*
X149922033Y-108858679D02*
X149888700Y-108925345D01*
X149888700Y-108925345D02*
X149855366Y-108958679D01*
X149855366Y-108958679D02*
X149788700Y-108992012D01*
X149788700Y-108992012D02*
X149622033Y-108992012D01*
X149622033Y-108992012D02*
X149555366Y-108958679D01*
X149555366Y-108958679D02*
X149522033Y-108925345D01*
X149522033Y-108925345D02*
X149488700Y-108858679D01*
X149488700Y-108858679D02*
X149488700Y-108725345D01*
X149488700Y-108725345D02*
X149522033Y-108658679D01*
X149522033Y-108658679D02*
X149555366Y-108625345D01*
X149555366Y-108625345D02*
X149622033Y-108592012D01*
X150782327Y-86625350D02*
X150782327Y-87158684D01*
X151048994Y-88425350D02*
X150715661Y-88192017D01*
X151048994Y-88025350D02*
X150348994Y-88025350D01*
X150348994Y-88025350D02*
X150348994Y-88292017D01*
X150348994Y-88292017D02*
X150382327Y-88358684D01*
X150382327Y-88358684D02*
X150415661Y-88392017D01*
X150415661Y-88392017D02*
X150482327Y-88425350D01*
X150482327Y-88425350D02*
X150582327Y-88425350D01*
X150582327Y-88425350D02*
X150648994Y-88392017D01*
X150648994Y-88392017D02*
X150682327Y-88358684D01*
X150682327Y-88358684D02*
X150715661Y-88292017D01*
X150715661Y-88292017D02*
X150715661Y-88025350D01*
X150315661Y-89225350D02*
X151215661Y-88625350D01*
X150348994Y-89392017D02*
X151048994Y-89558683D01*
X151048994Y-89558683D02*
X150548994Y-89692017D01*
X150548994Y-89692017D02*
X151048994Y-89825350D01*
X151048994Y-89825350D02*
X150348994Y-89992017D01*
X150154661Y-89362017D02*
X150154661Y-90022017D01*
X150582327Y-90692016D02*
X150582327Y-90958683D01*
X151048994Y-90792016D02*
X150448994Y-90792016D01*
X150448994Y-90792016D02*
X150382327Y-90825350D01*
X150382327Y-90825350D02*
X150348994Y-90892016D01*
X150348994Y-90892016D02*
X150348994Y-90958683D01*
X151048994Y-91192016D02*
X150582327Y-91192016D01*
X150715661Y-91192016D02*
X150648994Y-91225350D01*
X150648994Y-91225350D02*
X150615661Y-91258683D01*
X150615661Y-91258683D02*
X150582327Y-91325350D01*
X150582327Y-91325350D02*
X150582327Y-91392016D01*
X151048994Y-91725349D02*
X151015661Y-91658683D01*
X151015661Y-91658683D02*
X150982327Y-91625349D01*
X150982327Y-91625349D02*
X150915661Y-91592016D01*
X150915661Y-91592016D02*
X150715661Y-91592016D01*
X150715661Y-91592016D02*
X150648994Y-91625349D01*
X150648994Y-91625349D02*
X150615661Y-91658683D01*
X150615661Y-91658683D02*
X150582327Y-91725349D01*
X150582327Y-91725349D02*
X150582327Y-91825349D01*
X150582327Y-91825349D02*
X150615661Y-91892016D01*
X150615661Y-91892016D02*
X150648994Y-91925349D01*
X150648994Y-91925349D02*
X150715661Y-91958683D01*
X150715661Y-91958683D02*
X150915661Y-91958683D01*
X150915661Y-91958683D02*
X150982327Y-91925349D01*
X150982327Y-91925349D02*
X151015661Y-91892016D01*
X151015661Y-91892016D02*
X151048994Y-91825349D01*
X151048994Y-91825349D02*
X151048994Y-91725349D01*
X151048994Y-92258682D02*
X150582327Y-92258682D01*
X150648994Y-92258682D02*
X150615661Y-92292016D01*
X150615661Y-92292016D02*
X150582327Y-92358682D01*
X150582327Y-92358682D02*
X150582327Y-92458682D01*
X150582327Y-92458682D02*
X150615661Y-92525349D01*
X150615661Y-92525349D02*
X150682327Y-92558682D01*
X150682327Y-92558682D02*
X151048994Y-92558682D01*
X150682327Y-92558682D02*
X150615661Y-92592016D01*
X150615661Y-92592016D02*
X150582327Y-92658682D01*
X150582327Y-92658682D02*
X150582327Y-92758682D01*
X150582327Y-92758682D02*
X150615661Y-92825349D01*
X150615661Y-92825349D02*
X150682327Y-92858682D01*
X150682327Y-92858682D02*
X151048994Y-92858682D01*
X151048994Y-93825348D02*
X151015661Y-93758682D01*
X151015661Y-93758682D02*
X150982327Y-93725348D01*
X150982327Y-93725348D02*
X150915661Y-93692015D01*
X150915661Y-93692015D02*
X150715661Y-93692015D01*
X150715661Y-93692015D02*
X150648994Y-93725348D01*
X150648994Y-93725348D02*
X150615661Y-93758682D01*
X150615661Y-93758682D02*
X150582327Y-93825348D01*
X150582327Y-93825348D02*
X150582327Y-93925348D01*
X150582327Y-93925348D02*
X150615661Y-93992015D01*
X150615661Y-93992015D02*
X150648994Y-94025348D01*
X150648994Y-94025348D02*
X150715661Y-94058682D01*
X150715661Y-94058682D02*
X150915661Y-94058682D01*
X150915661Y-94058682D02*
X150982327Y-94025348D01*
X150982327Y-94025348D02*
X151015661Y-93992015D01*
X151015661Y-93992015D02*
X151048994Y-93925348D01*
X151048994Y-93925348D02*
X151048994Y-93825348D01*
X150582327Y-94358681D02*
X151048994Y-94358681D01*
X150648994Y-94358681D02*
X150615661Y-94392015D01*
X150615661Y-94392015D02*
X150582327Y-94458681D01*
X150582327Y-94458681D02*
X150582327Y-94558681D01*
X150582327Y-94558681D02*
X150615661Y-94625348D01*
X150615661Y-94625348D02*
X150682327Y-94658681D01*
X150682327Y-94658681D02*
X151048994Y-94658681D01*
X151048994Y-94992014D02*
X150348994Y-94992014D01*
X150615661Y-94992014D02*
X150582327Y-95058681D01*
X150582327Y-95058681D02*
X150582327Y-95192014D01*
X150582327Y-95192014D02*
X150615661Y-95258681D01*
X150615661Y-95258681D02*
X150648994Y-95292014D01*
X150648994Y-95292014D02*
X150715661Y-95325348D01*
X150715661Y-95325348D02*
X150915661Y-95325348D01*
X150915661Y-95325348D02*
X150982327Y-95292014D01*
X150982327Y-95292014D02*
X151015661Y-95258681D01*
X151015661Y-95258681D02*
X151048994Y-95192014D01*
X151048994Y-95192014D02*
X151048994Y-95058681D01*
X151048994Y-95058681D02*
X151015661Y-94992014D01*
X151048994Y-95725347D02*
X151015661Y-95658681D01*
X151015661Y-95658681D02*
X150982327Y-95625347D01*
X150982327Y-95625347D02*
X150915661Y-95592014D01*
X150915661Y-95592014D02*
X150715661Y-95592014D01*
X150715661Y-95592014D02*
X150648994Y-95625347D01*
X150648994Y-95625347D02*
X150615661Y-95658681D01*
X150615661Y-95658681D02*
X150582327Y-95725347D01*
X150582327Y-95725347D02*
X150582327Y-95825347D01*
X150582327Y-95825347D02*
X150615661Y-95892014D01*
X150615661Y-95892014D02*
X150648994Y-95925347D01*
X150648994Y-95925347D02*
X150715661Y-95958681D01*
X150715661Y-95958681D02*
X150915661Y-95958681D01*
X150915661Y-95958681D02*
X150982327Y-95925347D01*
X150982327Y-95925347D02*
X151015661Y-95892014D01*
X151015661Y-95892014D02*
X151048994Y-95825347D01*
X151048994Y-95825347D02*
X151048994Y-95725347D01*
X151048994Y-96558680D02*
X150682327Y-96558680D01*
X150682327Y-96558680D02*
X150615661Y-96525347D01*
X150615661Y-96525347D02*
X150582327Y-96458680D01*
X150582327Y-96458680D02*
X150582327Y-96325347D01*
X150582327Y-96325347D02*
X150615661Y-96258680D01*
X151015661Y-96558680D02*
X151048994Y-96492014D01*
X151048994Y-96492014D02*
X151048994Y-96325347D01*
X151048994Y-96325347D02*
X151015661Y-96258680D01*
X151015661Y-96258680D02*
X150948994Y-96225347D01*
X150948994Y-96225347D02*
X150882327Y-96225347D01*
X150882327Y-96225347D02*
X150815661Y-96258680D01*
X150815661Y-96258680D02*
X150782327Y-96325347D01*
X150782327Y-96325347D02*
X150782327Y-96492014D01*
X150782327Y-96492014D02*
X150748994Y-96558680D01*
X151048994Y-96892013D02*
X150582327Y-96892013D01*
X150715661Y-96892013D02*
X150648994Y-96925347D01*
X150648994Y-96925347D02*
X150615661Y-96958680D01*
X150615661Y-96958680D02*
X150582327Y-97025347D01*
X150582327Y-97025347D02*
X150582327Y-97092013D01*
X151048994Y-97625346D02*
X150348994Y-97625346D01*
X151015661Y-97625346D02*
X151048994Y-97558680D01*
X151048994Y-97558680D02*
X151048994Y-97425346D01*
X151048994Y-97425346D02*
X151015661Y-97358680D01*
X151015661Y-97358680D02*
X150982327Y-97325346D01*
X150982327Y-97325346D02*
X150915661Y-97292013D01*
X150915661Y-97292013D02*
X150715661Y-97292013D01*
X150715661Y-97292013D02*
X150648994Y-97325346D01*
X150648994Y-97325346D02*
X150615661Y-97358680D01*
X150615661Y-97358680D02*
X150582327Y-97425346D01*
X150582327Y-97425346D02*
X150582327Y-97558680D01*
X150582327Y-97558680D02*
X150615661Y-97625346D01*
X151048994Y-98892012D02*
X150715661Y-98658679D01*
X151048994Y-98492012D02*
X150348994Y-98492012D01*
X150348994Y-98492012D02*
X150348994Y-98758679D01*
X150348994Y-98758679D02*
X150382327Y-98825346D01*
X150382327Y-98825346D02*
X150415661Y-98858679D01*
X150415661Y-98858679D02*
X150482327Y-98892012D01*
X150482327Y-98892012D02*
X150582327Y-98892012D01*
X150582327Y-98892012D02*
X150648994Y-98858679D01*
X150648994Y-98858679D02*
X150682327Y-98825346D01*
X150682327Y-98825346D02*
X150715661Y-98758679D01*
X150715661Y-98758679D02*
X150715661Y-98492012D01*
X150848994Y-99158679D02*
X150848994Y-99492012D01*
X151048994Y-99092012D02*
X150348994Y-99325346D01*
X150348994Y-99325346D02*
X151048994Y-99558679D01*
X151048994Y-99792012D02*
X150348994Y-99792012D01*
X150348994Y-99792012D02*
X150848994Y-100025346D01*
X150848994Y-100025346D02*
X150348994Y-100258679D01*
X150348994Y-100258679D02*
X151048994Y-100258679D01*
X151315661Y-101325345D02*
X151282327Y-101292012D01*
X151282327Y-101292012D02*
X151182327Y-101225345D01*
X151182327Y-101225345D02*
X151115661Y-101192012D01*
X151115661Y-101192012D02*
X151015661Y-101158679D01*
X151015661Y-101158679D02*
X150848994Y-101125345D01*
X150848994Y-101125345D02*
X150715661Y-101125345D01*
X150715661Y-101125345D02*
X150548994Y-101158679D01*
X150548994Y-101158679D02*
X150448994Y-101192012D01*
X150448994Y-101192012D02*
X150382327Y-101225345D01*
X150382327Y-101225345D02*
X150282327Y-101292012D01*
X150282327Y-101292012D02*
X150248994Y-101325345D01*
X150348994Y-101592012D02*
X150915661Y-101592012D01*
X150915661Y-101592012D02*
X150982327Y-101625346D01*
X150982327Y-101625346D02*
X151015661Y-101658679D01*
X151015661Y-101658679D02*
X151048994Y-101725346D01*
X151048994Y-101725346D02*
X151048994Y-101858679D01*
X151048994Y-101858679D02*
X151015661Y-101925346D01*
X151015661Y-101925346D02*
X150982327Y-101958679D01*
X150982327Y-101958679D02*
X150915661Y-101992012D01*
X150915661Y-101992012D02*
X150348994Y-101992012D01*
X150348994Y-102658679D02*
X150348994Y-102325345D01*
X150348994Y-102325345D02*
X150682327Y-102292012D01*
X150682327Y-102292012D02*
X150648994Y-102325345D01*
X150648994Y-102325345D02*
X150615661Y-102392012D01*
X150615661Y-102392012D02*
X150615661Y-102558679D01*
X150615661Y-102558679D02*
X150648994Y-102625345D01*
X150648994Y-102625345D02*
X150682327Y-102658679D01*
X150682327Y-102658679D02*
X150748994Y-102692012D01*
X150748994Y-102692012D02*
X150915661Y-102692012D01*
X150915661Y-102692012D02*
X150982327Y-102658679D01*
X150982327Y-102658679D02*
X151015661Y-102625345D01*
X151015661Y-102625345D02*
X151048994Y-102558679D01*
X151048994Y-102558679D02*
X151048994Y-102392012D01*
X151048994Y-102392012D02*
X151015661Y-102325345D01*
X151015661Y-102325345D02*
X150982327Y-102292012D01*
X151315661Y-102925346D02*
X151282327Y-102958679D01*
X151282327Y-102958679D02*
X151182327Y-103025346D01*
X151182327Y-103025346D02*
X151115661Y-103058679D01*
X151115661Y-103058679D02*
X151015661Y-103092012D01*
X151015661Y-103092012D02*
X150848994Y-103125346D01*
X150848994Y-103125346D02*
X150715661Y-103125346D01*
X150715661Y-103125346D02*
X150548994Y-103092012D01*
X150548994Y-103092012D02*
X150448994Y-103058679D01*
X150448994Y-103058679D02*
X150382327Y-103025346D01*
X150382327Y-103025346D02*
X150282327Y-102958679D01*
X150282327Y-102958679D02*
X150248994Y-102925346D01*
X150582327Y-103992012D02*
X151282327Y-103992012D01*
X150615661Y-103992012D02*
X150582327Y-104058679D01*
X150582327Y-104058679D02*
X150582327Y-104192012D01*
X150582327Y-104192012D02*
X150615661Y-104258679D01*
X150615661Y-104258679D02*
X150648994Y-104292012D01*
X150648994Y-104292012D02*
X150715661Y-104325346D01*
X150715661Y-104325346D02*
X150915661Y-104325346D01*
X150915661Y-104325346D02*
X150982327Y-104292012D01*
X150982327Y-104292012D02*
X151015661Y-104258679D01*
X151015661Y-104258679D02*
X151048994Y-104192012D01*
X151048994Y-104192012D02*
X151048994Y-104058679D01*
X151048994Y-104058679D02*
X151015661Y-103992012D01*
X151048994Y-104625345D02*
X150582327Y-104625345D01*
X150348994Y-104625345D02*
X150382327Y-104592012D01*
X150382327Y-104592012D02*
X150415661Y-104625345D01*
X150415661Y-104625345D02*
X150382327Y-104658679D01*
X150382327Y-104658679D02*
X150348994Y-104625345D01*
X150348994Y-104625345D02*
X150415661Y-104625345D01*
X150582327Y-104958678D02*
X151048994Y-104958678D01*
X150648994Y-104958678D02*
X150615661Y-104992012D01*
X150615661Y-104992012D02*
X150582327Y-105058678D01*
X150582327Y-105058678D02*
X150582327Y-105158678D01*
X150582327Y-105158678D02*
X150615661Y-105225345D01*
X150615661Y-105225345D02*
X150682327Y-105258678D01*
X150682327Y-105258678D02*
X151048994Y-105258678D01*
X150415661Y-106092011D02*
X150382327Y-106125344D01*
X150382327Y-106125344D02*
X150348994Y-106192011D01*
X150348994Y-106192011D02*
X150348994Y-106358678D01*
X150348994Y-106358678D02*
X150382327Y-106425344D01*
X150382327Y-106425344D02*
X150415661Y-106458678D01*
X150415661Y-106458678D02*
X150482327Y-106492011D01*
X150482327Y-106492011D02*
X150548994Y-106492011D01*
X150548994Y-106492011D02*
X150648994Y-106458678D01*
X150648994Y-106458678D02*
X151048994Y-106058678D01*
X151048994Y-106058678D02*
X151048994Y-106492011D01*
X151048994Y-107158678D02*
X151048994Y-106758678D01*
X151048994Y-106958678D02*
X150348994Y-106958678D01*
X150348994Y-106958678D02*
X150448994Y-106892011D01*
X150448994Y-106892011D02*
X150515661Y-106825345D01*
X150515661Y-106825345D02*
X150548994Y-106758678D01*
X151048994Y-108092011D02*
X151015661Y-108025345D01*
X151015661Y-108025345D02*
X150982327Y-107992011D01*
X150982327Y-107992011D02*
X150915661Y-107958678D01*
X150915661Y-107958678D02*
X150715661Y-107958678D01*
X150715661Y-107958678D02*
X150648994Y-107992011D01*
X150648994Y-107992011D02*
X150615661Y-108025345D01*
X150615661Y-108025345D02*
X150582327Y-108092011D01*
X150582327Y-108092011D02*
X150582327Y-108192011D01*
X150582327Y-108192011D02*
X150615661Y-108258678D01*
X150615661Y-108258678D02*
X150648994Y-108292011D01*
X150648994Y-108292011D02*
X150715661Y-108325345D01*
X150715661Y-108325345D02*
X150915661Y-108325345D01*
X150915661Y-108325345D02*
X150982327Y-108292011D01*
X150982327Y-108292011D02*
X151015661Y-108258678D01*
X151015661Y-108258678D02*
X151048994Y-108192011D01*
X151048994Y-108192011D02*
X151048994Y-108092011D01*
X151048994Y-108625344D02*
X150582327Y-108625344D01*
X150715661Y-108625344D02*
X150648994Y-108658678D01*
X150648994Y-108658678D02*
X150615661Y-108692011D01*
X150615661Y-108692011D02*
X150582327Y-108758678D01*
X150582327Y-108758678D02*
X150582327Y-108825344D01*
X152175955Y-87792016D02*
X152142622Y-87725350D01*
X152142622Y-87725350D02*
X152109288Y-87692016D01*
X152109288Y-87692016D02*
X152042622Y-87658683D01*
X152042622Y-87658683D02*
X151842622Y-87658683D01*
X151842622Y-87658683D02*
X151775955Y-87692016D01*
X151775955Y-87692016D02*
X151742622Y-87725350D01*
X151742622Y-87725350D02*
X151709288Y-87792016D01*
X151709288Y-87792016D02*
X151709288Y-87892016D01*
X151709288Y-87892016D02*
X151742622Y-87958683D01*
X151742622Y-87958683D02*
X151775955Y-87992016D01*
X151775955Y-87992016D02*
X151842622Y-88025350D01*
X151842622Y-88025350D02*
X152042622Y-88025350D01*
X152042622Y-88025350D02*
X152109288Y-87992016D01*
X152109288Y-87992016D02*
X152142622Y-87958683D01*
X152142622Y-87958683D02*
X152175955Y-87892016D01*
X152175955Y-87892016D02*
X152175955Y-87792016D01*
X152175955Y-88325349D02*
X151709288Y-88325349D01*
X151842622Y-88325349D02*
X151775955Y-88358683D01*
X151775955Y-88358683D02*
X151742622Y-88392016D01*
X151742622Y-88392016D02*
X151709288Y-88458683D01*
X151709288Y-88458683D02*
X151709288Y-88525349D01*
X151475955Y-89292015D02*
X152042622Y-89292015D01*
X152042622Y-89292015D02*
X152109288Y-89325349D01*
X152109288Y-89325349D02*
X152142622Y-89358682D01*
X152142622Y-89358682D02*
X152175955Y-89425349D01*
X152175955Y-89425349D02*
X152175955Y-89558682D01*
X152175955Y-89558682D02*
X152142622Y-89625349D01*
X152142622Y-89625349D02*
X152109288Y-89658682D01*
X152109288Y-89658682D02*
X152042622Y-89692015D01*
X152042622Y-89692015D02*
X151475955Y-89692015D01*
X151475955Y-89958682D02*
X151475955Y-90392015D01*
X151475955Y-90392015D02*
X151742622Y-90158682D01*
X151742622Y-90158682D02*
X151742622Y-90258682D01*
X151742622Y-90258682D02*
X151775955Y-90325348D01*
X151775955Y-90325348D02*
X151809288Y-90358682D01*
X151809288Y-90358682D02*
X151875955Y-90392015D01*
X151875955Y-90392015D02*
X152042622Y-90392015D01*
X152042622Y-90392015D02*
X152109288Y-90358682D01*
X152109288Y-90358682D02*
X152142622Y-90325348D01*
X152142622Y-90325348D02*
X152175955Y-90258682D01*
X152175955Y-90258682D02*
X152175955Y-90058682D01*
X152175955Y-90058682D02*
X152142622Y-89992015D01*
X152142622Y-89992015D02*
X152109288Y-89958682D01*
X151709288Y-91225348D02*
X152409288Y-91225348D01*
X151742622Y-91225348D02*
X151709288Y-91292015D01*
X151709288Y-91292015D02*
X151709288Y-91425348D01*
X151709288Y-91425348D02*
X151742622Y-91492015D01*
X151742622Y-91492015D02*
X151775955Y-91525348D01*
X151775955Y-91525348D02*
X151842622Y-91558682D01*
X151842622Y-91558682D02*
X152042622Y-91558682D01*
X152042622Y-91558682D02*
X152109288Y-91525348D01*
X152109288Y-91525348D02*
X152142622Y-91492015D01*
X152142622Y-91492015D02*
X152175955Y-91425348D01*
X152175955Y-91425348D02*
X152175955Y-91292015D01*
X152175955Y-91292015D02*
X152142622Y-91225348D01*
X152175955Y-91858681D02*
X151709288Y-91858681D01*
X151475955Y-91858681D02*
X151509288Y-91825348D01*
X151509288Y-91825348D02*
X151542622Y-91858681D01*
X151542622Y-91858681D02*
X151509288Y-91892015D01*
X151509288Y-91892015D02*
X151475955Y-91858681D01*
X151475955Y-91858681D02*
X151542622Y-91858681D01*
X151709288Y-92192014D02*
X152175955Y-92192014D01*
X151775955Y-92192014D02*
X151742622Y-92225348D01*
X151742622Y-92225348D02*
X151709288Y-92292014D01*
X151709288Y-92292014D02*
X151709288Y-92392014D01*
X151709288Y-92392014D02*
X151742622Y-92458681D01*
X151742622Y-92458681D02*
X151809288Y-92492014D01*
X151809288Y-92492014D02*
X152175955Y-92492014D01*
X152175955Y-93725347D02*
X152175955Y-93325347D01*
X152175955Y-93525347D02*
X151475955Y-93525347D01*
X151475955Y-93525347D02*
X151575955Y-93458680D01*
X151575955Y-93458680D02*
X151642622Y-93392014D01*
X151642622Y-93392014D02*
X151675955Y-93325347D01*
X152175955Y-94058681D02*
X152175955Y-94192014D01*
X152175955Y-94192014D02*
X152142622Y-94258681D01*
X152142622Y-94258681D02*
X152109288Y-94292014D01*
X152109288Y-94292014D02*
X152009288Y-94358681D01*
X152009288Y-94358681D02*
X151875955Y-94392014D01*
X151875955Y-94392014D02*
X151609288Y-94392014D01*
X151609288Y-94392014D02*
X151542622Y-94358681D01*
X151542622Y-94358681D02*
X151509288Y-94325347D01*
X151509288Y-94325347D02*
X151475955Y-94258681D01*
X151475955Y-94258681D02*
X151475955Y-94125347D01*
X151475955Y-94125347D02*
X151509288Y-94058681D01*
X151509288Y-94058681D02*
X151542622Y-94025347D01*
X151542622Y-94025347D02*
X151609288Y-93992014D01*
X151609288Y-93992014D02*
X151775955Y-93992014D01*
X151775955Y-93992014D02*
X151842622Y-94025347D01*
X151842622Y-94025347D02*
X151875955Y-94058681D01*
X151875955Y-94058681D02*
X151909288Y-94125347D01*
X151909288Y-94125347D02*
X151909288Y-94258681D01*
X151909288Y-94258681D02*
X151875955Y-94325347D01*
X151875955Y-94325347D02*
X151842622Y-94358681D01*
X151842622Y-94358681D02*
X151775955Y-94392014D01*
%LPC*%
D11*
X193500000Y-102500000D03*
X193500000Y-110120000D03*
D12*
X189992000Y-123190000D03*
D13*
X189992000Y-120650000D03*
X189992000Y-118110000D03*
X189992000Y-115570000D03*
X189992000Y-113030000D03*
X189992000Y-110490000D03*
X189992000Y-107950000D03*
X182372000Y-107950000D03*
X182372000Y-110490000D03*
X182372000Y-113030000D03*
X182372000Y-115570000D03*
X182372000Y-118110000D03*
X182372000Y-120650000D03*
X182372000Y-123190000D03*
D12*
X155707000Y-119903000D03*
D13*
X155707000Y-117363000D03*
X155707000Y-114823000D03*
X155707000Y-112283000D03*
X155707000Y-109743000D03*
X155707000Y-107203000D03*
X155707000Y-104663000D03*
X155707000Y-102123000D03*
X155707000Y-99583000D03*
X155707000Y-97043000D03*
X155707000Y-94503000D03*
X155707000Y-91963000D03*
X155707000Y-89423000D03*
X155707000Y-86883000D03*
X140467000Y-86883000D03*
X140467000Y-89423000D03*
X140467000Y-91963000D03*
X140467000Y-94503000D03*
X140467000Y-97043000D03*
X140467000Y-99583000D03*
X140467000Y-102123000D03*
X140467000Y-104663000D03*
X140467000Y-107203000D03*
X140467000Y-109743000D03*
X140467000Y-112283000D03*
X140467000Y-114823000D03*
X140467000Y-117363000D03*
X140467000Y-119903000D03*
D12*
X159359000Y-119903000D03*
D13*
X159359000Y-117363000D03*
X159359000Y-114823000D03*
X159359000Y-112283000D03*
X159359000Y-109743000D03*
X159359000Y-107203000D03*
X159359000Y-104663000D03*
X159359000Y-102123000D03*
X159359000Y-99583000D03*
X159359000Y-97043000D03*
X159359000Y-94503000D03*
X159359000Y-91963000D03*
X159359000Y-89423000D03*
X159359000Y-86883000D03*
X144119000Y-86883000D03*
X144119000Y-89423000D03*
X144119000Y-91963000D03*
X144119000Y-94503000D03*
X144119000Y-97043000D03*
X144119000Y-99583000D03*
X144119000Y-102123000D03*
X144119000Y-104663000D03*
X144119000Y-107203000D03*
X144119000Y-109743000D03*
X144119000Y-112283000D03*
X144119000Y-114823000D03*
X144119000Y-117363000D03*
X144119000Y-119903000D03*
D12*
X189992000Y-104648000D03*
D13*
X189992000Y-102108000D03*
X189992000Y-99568000D03*
X189992000Y-97028000D03*
X189992000Y-94488000D03*
X189992000Y-91948000D03*
X189992000Y-89408000D03*
X189992000Y-86868000D03*
X182372000Y-86868000D03*
X182372000Y-89408000D03*
X182372000Y-91948000D03*
X182372000Y-94488000D03*
X182372000Y-97028000D03*
X182372000Y-99568000D03*
X182372000Y-102108000D03*
X182372000Y-104648000D03*
D14*
X193548000Y-120650000D03*
D15*
X193548000Y-118110000D03*
X193548000Y-115570000D03*
D11*
X146190000Y-123698000D03*
X153810000Y-123698000D03*
D12*
X178562000Y-119888000D03*
D13*
X178562000Y-117348000D03*
X178562000Y-114808000D03*
X178562000Y-112268000D03*
X178562000Y-109728000D03*
X178562000Y-107188000D03*
X178562000Y-104648000D03*
X178562000Y-102108000D03*
X178562000Y-99568000D03*
X178562000Y-97028000D03*
X178562000Y-94488000D03*
X178562000Y-91948000D03*
X178562000Y-89408000D03*
X178562000Y-86868000D03*
X163322000Y-86868000D03*
X163322000Y-89408000D03*
X163322000Y-91948000D03*
X163322000Y-94488000D03*
X163322000Y-97028000D03*
X163322000Y-99568000D03*
X163322000Y-102108000D03*
X163322000Y-104648000D03*
X163322000Y-107188000D03*
X163322000Y-109728000D03*
X163322000Y-112268000D03*
X163322000Y-114808000D03*
X163322000Y-117348000D03*
X163322000Y-119888000D03*
D14*
X193500000Y-94500000D03*
D15*
X193500000Y-97040000D03*
%LPD*%
M02*
