%TF.GenerationSoftware,KiCad,Pcbnew,9.0.6*%
%TF.CreationDate,2025-12-27T13:45:02+01:00*%
%TF.ProjectId,1551-RAMBoard2-FirstBank,31353531-2d52-4414-9d42-6f617264322d,1*%
%TF.SameCoordinates,Original*%
%TF.FileFunction,Drillmap*%
%TF.FilePolarity,Positive*%
%FSLAX45Y45*%
G04 Gerber Fmt 4.5, Leading zero omitted, Abs format (unit mm)*
G04 Created by KiCad (PCBNEW 9.0.6) date 2025-12-27 13:45:02*
%MOMM*%
%LPD*%
G01*
G04 APERTURE LIST*
%ADD10C,0.100000*%
%ADD11C,0.200000*%
G04 APERTURE END LIST*
D10*
X19685000Y-8483600D02*
X19685000Y-12547600D01*
X19685000Y-12547600D02*
X13817600Y-12547600D01*
X13817600Y-8483600D02*
X19685000Y-8483600D01*
X13817600Y-12547600D02*
X13817600Y-8483600D01*
D11*
X14073377Y-12864084D02*
X14073377Y-12664084D01*
X14073377Y-12664084D02*
X14120996Y-12664084D01*
X14120996Y-12664084D02*
X14149567Y-12673608D01*
X14149567Y-12673608D02*
X14168615Y-12692655D01*
X14168615Y-12692655D02*
X14178139Y-12711703D01*
X14178139Y-12711703D02*
X14187662Y-12749798D01*
X14187662Y-12749798D02*
X14187662Y-12778369D01*
X14187662Y-12778369D02*
X14178139Y-12816465D01*
X14178139Y-12816465D02*
X14168615Y-12835512D01*
X14168615Y-12835512D02*
X14149567Y-12854560D01*
X14149567Y-12854560D02*
X14120996Y-12864084D01*
X14120996Y-12864084D02*
X14073377Y-12864084D01*
X14273377Y-12864084D02*
X14273377Y-12730750D01*
X14273377Y-12768846D02*
X14282901Y-12749798D01*
X14282901Y-12749798D02*
X14292424Y-12740274D01*
X14292424Y-12740274D02*
X14311472Y-12730750D01*
X14311472Y-12730750D02*
X14330520Y-12730750D01*
X14397186Y-12864084D02*
X14397186Y-12730750D01*
X14397186Y-12664084D02*
X14387662Y-12673608D01*
X14387662Y-12673608D02*
X14397186Y-12683131D01*
X14397186Y-12683131D02*
X14406710Y-12673608D01*
X14406710Y-12673608D02*
X14397186Y-12664084D01*
X14397186Y-12664084D02*
X14397186Y-12683131D01*
X14520996Y-12864084D02*
X14501948Y-12854560D01*
X14501948Y-12854560D02*
X14492424Y-12835512D01*
X14492424Y-12835512D02*
X14492424Y-12664084D01*
X14625758Y-12864084D02*
X14606710Y-12854560D01*
X14606710Y-12854560D02*
X14597186Y-12835512D01*
X14597186Y-12835512D02*
X14597186Y-12664084D01*
X14854329Y-12864084D02*
X14854329Y-12664084D01*
X14854329Y-12664084D02*
X14920996Y-12806941D01*
X14920996Y-12806941D02*
X14987662Y-12664084D01*
X14987662Y-12664084D02*
X14987662Y-12864084D01*
X15168615Y-12864084D02*
X15168615Y-12759322D01*
X15168615Y-12759322D02*
X15159091Y-12740274D01*
X15159091Y-12740274D02*
X15140043Y-12730750D01*
X15140043Y-12730750D02*
X15101948Y-12730750D01*
X15101948Y-12730750D02*
X15082901Y-12740274D01*
X15168615Y-12854560D02*
X15149567Y-12864084D01*
X15149567Y-12864084D02*
X15101948Y-12864084D01*
X15101948Y-12864084D02*
X15082901Y-12854560D01*
X15082901Y-12854560D02*
X15073377Y-12835512D01*
X15073377Y-12835512D02*
X15073377Y-12816465D01*
X15073377Y-12816465D02*
X15082901Y-12797417D01*
X15082901Y-12797417D02*
X15101948Y-12787893D01*
X15101948Y-12787893D02*
X15149567Y-12787893D01*
X15149567Y-12787893D02*
X15168615Y-12778369D01*
X15263853Y-12730750D02*
X15263853Y-12930750D01*
X15263853Y-12740274D02*
X15282901Y-12730750D01*
X15282901Y-12730750D02*
X15320996Y-12730750D01*
X15320996Y-12730750D02*
X15340043Y-12740274D01*
X15340043Y-12740274D02*
X15349567Y-12749798D01*
X15349567Y-12749798D02*
X15359091Y-12768846D01*
X15359091Y-12768846D02*
X15359091Y-12825988D01*
X15359091Y-12825988D02*
X15349567Y-12845036D01*
X15349567Y-12845036D02*
X15340043Y-12854560D01*
X15340043Y-12854560D02*
X15320996Y-12864084D01*
X15320996Y-12864084D02*
X15282901Y-12864084D01*
X15282901Y-12864084D02*
X15263853Y-12854560D01*
X15444805Y-12845036D02*
X15454329Y-12854560D01*
X15454329Y-12854560D02*
X15444805Y-12864084D01*
X15444805Y-12864084D02*
X15435282Y-12854560D01*
X15435282Y-12854560D02*
X15444805Y-12845036D01*
X15444805Y-12845036D02*
X15444805Y-12864084D01*
X15444805Y-12740274D02*
X15454329Y-12749798D01*
X15454329Y-12749798D02*
X15444805Y-12759322D01*
X15444805Y-12759322D02*
X15435282Y-12749798D01*
X15435282Y-12749798D02*
X15444805Y-12740274D01*
X15444805Y-12740274D02*
X15444805Y-12759322D01*
M02*
