G04 #@! TF.GenerationSoftware,KiCad,Pcbnew,9.0.6*
G04 #@! TF.CreationDate,2026-02-01T18:13:51+01:00*
G04 #@! TF.ProjectId,1551-RAMBoard2-FirstBank,31353531-2d52-4414-9d42-6f617264322d,1*
G04 #@! TF.SameCoordinates,Original*
G04 #@! TF.FileFunction,Legend,Top*
G04 #@! TF.FilePolarity,Positive*
%FSLAX46Y46*%
G04 Gerber Fmt 4.6, Leading zero omitted, Abs format (unit mm)*
G04 Created by KiCad (PCBNEW 9.0.6) date 2026-02-01 18:13:51*
%MOMM*%
%LPD*%
G01*
G04 APERTURE LIST*
G04 Aperture macros list*
%AMRoundRect*
0 Rectangle with rounded corners*
0 $1 Rounding radius*
0 $2 $3 $4 $5 $6 $7 $8 $9 X,Y pos of 4 corners*
0 Add a 4 corners polygon primitive as box body*
4,1,4,$2,$3,$4,$5,$6,$7,$8,$9,$2,$3,0*
0 Add four circle primitives for the rounded corners*
1,1,$1+$1,$2,$3*
1,1,$1+$1,$4,$5*
1,1,$1+$1,$6,$7*
1,1,$1+$1,$8,$9*
0 Add four rect primitives between the rounded corners*
20,1,$1+$1,$2,$3,$4,$5,0*
20,1,$1+$1,$4,$5,$6,$7,0*
20,1,$1+$1,$6,$7,$8,$9,0*
20,1,$1+$1,$8,$9,$2,$3,0*%
%AMFreePoly0*
4,1,23,0.500000,-0.750000,0.000000,-0.750000,0.000000,-0.745722,-0.065263,-0.745722,-0.191342,-0.711940,-0.304381,-0.646677,-0.396677,-0.554381,-0.461940,-0.441342,-0.495722,-0.315263,-0.495722,-0.250000,-0.500000,-0.250000,-0.500000,0.250000,-0.495722,0.250000,-0.495722,0.315263,-0.461940,0.441342,-0.396677,0.554381,-0.304381,0.646677,-0.191342,0.711940,-0.065263,0.745722,0.000000,0.745722,
0.000000,0.750000,0.500000,0.750000,0.500000,-0.750000,0.500000,-0.750000,$1*%
%AMFreePoly1*
4,1,23,0.000000,0.745722,0.065263,0.745722,0.191342,0.711940,0.304381,0.646677,0.396677,0.554381,0.461940,0.441342,0.495722,0.315263,0.495722,0.250000,0.500000,0.250000,0.500000,-0.250000,0.495722,-0.250000,0.495722,-0.315263,0.461940,-0.441342,0.396677,-0.554381,0.304381,-0.646677,0.191342,-0.711940,0.065263,-0.745722,0.000000,-0.745722,0.000000,-0.750000,-0.500000,-0.750000,
-0.500000,0.750000,0.000000,0.750000,0.000000,0.745722,0.000000,0.745722,$1*%
G04 Aperture macros list end*
%ADD10C,0.150000*%
%ADD11C,0.120000*%
%ADD12FreePoly0,0.000000*%
%ADD13FreePoly1,0.000000*%
%ADD14C,1.600000*%
%ADD15RoundRect,0.250000X0.950000X0.550000X-0.950000X0.550000X-0.950000X-0.550000X0.950000X-0.550000X0*%
%ADD16O,2.400000X1.600000*%
%ADD17R,1.700000X1.700000*%
%ADD18C,1.700000*%
G04 APERTURE END LIST*
D10*
X140677333Y-121856700D02*
X140810667Y-121756700D01*
X140810667Y-121756700D02*
X140944000Y-121856700D01*
X141144000Y-122456700D02*
X141210667Y-122490033D01*
X141210667Y-122490033D02*
X141344000Y-122490033D01*
X141344000Y-122490033D02*
X141410667Y-122456700D01*
X141410667Y-122456700D02*
X141444000Y-122390033D01*
X141444000Y-122390033D02*
X141444000Y-122356700D01*
X141444000Y-122356700D02*
X141410667Y-122290033D01*
X141410667Y-122290033D02*
X141344000Y-122256700D01*
X141344000Y-122256700D02*
X141244000Y-122256700D01*
X141244000Y-122256700D02*
X141177333Y-122223366D01*
X141177333Y-122223366D02*
X141144000Y-122156700D01*
X141144000Y-122156700D02*
X141144000Y-122123366D01*
X141144000Y-122123366D02*
X141177333Y-122056700D01*
X141177333Y-122056700D02*
X141244000Y-122023366D01*
X141244000Y-122023366D02*
X141344000Y-122023366D01*
X141344000Y-122023366D02*
X141410667Y-122056700D01*
X141844000Y-122490033D02*
X141777334Y-122456700D01*
X141777334Y-122456700D02*
X141744000Y-122423366D01*
X141744000Y-122423366D02*
X141710667Y-122356700D01*
X141710667Y-122356700D02*
X141710667Y-122156700D01*
X141710667Y-122156700D02*
X141744000Y-122090033D01*
X141744000Y-122090033D02*
X141777334Y-122056700D01*
X141777334Y-122056700D02*
X141844000Y-122023366D01*
X141844000Y-122023366D02*
X141944000Y-122023366D01*
X141944000Y-122023366D02*
X142010667Y-122056700D01*
X142010667Y-122056700D02*
X142044000Y-122090033D01*
X142044000Y-122090033D02*
X142077334Y-122156700D01*
X142077334Y-122156700D02*
X142077334Y-122356700D01*
X142077334Y-122356700D02*
X142044000Y-122423366D01*
X142044000Y-122423366D02*
X142010667Y-122456700D01*
X142010667Y-122456700D02*
X141944000Y-122490033D01*
X141944000Y-122490033D02*
X141844000Y-122490033D01*
X142677333Y-122456700D02*
X142610667Y-122490033D01*
X142610667Y-122490033D02*
X142477333Y-122490033D01*
X142477333Y-122490033D02*
X142410667Y-122456700D01*
X142410667Y-122456700D02*
X142377333Y-122423366D01*
X142377333Y-122423366D02*
X142344000Y-122356700D01*
X142344000Y-122356700D02*
X142344000Y-122156700D01*
X142344000Y-122156700D02*
X142377333Y-122090033D01*
X142377333Y-122090033D02*
X142410667Y-122056700D01*
X142410667Y-122056700D02*
X142477333Y-122023366D01*
X142477333Y-122023366D02*
X142610667Y-122023366D01*
X142610667Y-122023366D02*
X142677333Y-122056700D01*
X142977333Y-122490033D02*
X142977333Y-121790033D01*
X143044000Y-122223366D02*
X143244000Y-122490033D01*
X143244000Y-122023366D02*
X142977333Y-122290033D01*
X143810667Y-122456700D02*
X143744000Y-122490033D01*
X143744000Y-122490033D02*
X143610667Y-122490033D01*
X143610667Y-122490033D02*
X143544000Y-122456700D01*
X143544000Y-122456700D02*
X143510667Y-122390033D01*
X143510667Y-122390033D02*
X143510667Y-122123366D01*
X143510667Y-122123366D02*
X143544000Y-122056700D01*
X143544000Y-122056700D02*
X143610667Y-122023366D01*
X143610667Y-122023366D02*
X143744000Y-122023366D01*
X143744000Y-122023366D02*
X143810667Y-122056700D01*
X143810667Y-122056700D02*
X143844000Y-122123366D01*
X143844000Y-122123366D02*
X143844000Y-122190033D01*
X143844000Y-122190033D02*
X143510667Y-122256700D01*
X144044000Y-122023366D02*
X144310667Y-122023366D01*
X144144000Y-121790033D02*
X144144000Y-122390033D01*
X144144000Y-122390033D02*
X144177334Y-122456700D01*
X144177334Y-122456700D02*
X144244000Y-122490033D01*
X144244000Y-122490033D02*
X144310667Y-122490033D01*
X196404033Y-122580666D02*
X196070700Y-122813999D01*
X196404033Y-122980666D02*
X195704033Y-122980666D01*
X195704033Y-122980666D02*
X195704033Y-122713999D01*
X195704033Y-122713999D02*
X195737366Y-122647333D01*
X195737366Y-122647333D02*
X195770700Y-122613999D01*
X195770700Y-122613999D02*
X195837366Y-122580666D01*
X195837366Y-122580666D02*
X195937366Y-122580666D01*
X195937366Y-122580666D02*
X196004033Y-122613999D01*
X196004033Y-122613999D02*
X196037366Y-122647333D01*
X196037366Y-122647333D02*
X196070700Y-122713999D01*
X196070700Y-122713999D02*
X196070700Y-122980666D01*
X195670700Y-121780666D02*
X196570700Y-122380666D01*
X195704033Y-121614000D02*
X196404033Y-121447333D01*
X196404033Y-121447333D02*
X195904033Y-121314000D01*
X195904033Y-121314000D02*
X196404033Y-121180666D01*
X196404033Y-121180666D02*
X195704033Y-121014000D01*
X195509700Y-121644000D02*
X195509700Y-120984000D01*
X196637366Y-120047333D02*
X195637366Y-120047333D01*
X196204033Y-119047333D02*
X196204033Y-118714000D01*
X196404033Y-119114000D02*
X195704033Y-118880667D01*
X195704033Y-118880667D02*
X196404033Y-118647333D01*
X196404033Y-118047333D02*
X196404033Y-118447333D01*
X196404033Y-118247333D02*
X195704033Y-118247333D01*
X195704033Y-118247333D02*
X195804033Y-118314000D01*
X195804033Y-118314000D02*
X195870700Y-118380667D01*
X195870700Y-118380667D02*
X195904033Y-118447333D01*
X195937366Y-117447333D02*
X196404033Y-117447333D01*
X195670700Y-117614000D02*
X196170700Y-117780666D01*
X196170700Y-117780666D02*
X196170700Y-117347333D01*
X196637366Y-116380666D02*
X195637366Y-116380666D01*
X196204033Y-115380666D02*
X196204033Y-115047333D01*
X196404033Y-115447333D02*
X195704033Y-115214000D01*
X195704033Y-115214000D02*
X196404033Y-114980666D01*
X196404033Y-114380666D02*
X196404033Y-114780666D01*
X196404033Y-114580666D02*
X195704033Y-114580666D01*
X195704033Y-114580666D02*
X195804033Y-114647333D01*
X195804033Y-114647333D02*
X195870700Y-114714000D01*
X195870700Y-114714000D02*
X195904033Y-114780666D01*
X195704033Y-113747333D02*
X195704033Y-114080666D01*
X195704033Y-114080666D02*
X196037366Y-114113999D01*
X196037366Y-114113999D02*
X196004033Y-114080666D01*
X196004033Y-114080666D02*
X195970700Y-114013999D01*
X195970700Y-114013999D02*
X195970700Y-113847333D01*
X195970700Y-113847333D02*
X196004033Y-113780666D01*
X196004033Y-113780666D02*
X196037366Y-113747333D01*
X196037366Y-113747333D02*
X196104033Y-113713999D01*
X196104033Y-113713999D02*
X196270700Y-113713999D01*
X196270700Y-113713999D02*
X196337366Y-113747333D01*
X196337366Y-113747333D02*
X196370700Y-113780666D01*
X196370700Y-113780666D02*
X196404033Y-113847333D01*
X196404033Y-113847333D02*
X196404033Y-114013999D01*
X196404033Y-114013999D02*
X196370700Y-114080666D01*
X196370700Y-114080666D02*
X196337366Y-114113999D01*
X157267316Y-122023366D02*
X157267316Y-122723366D01*
X157267316Y-122056700D02*
X157333983Y-122023366D01*
X157333983Y-122023366D02*
X157467316Y-122023366D01*
X157467316Y-122023366D02*
X157533983Y-122056700D01*
X157533983Y-122056700D02*
X157567316Y-122090033D01*
X157567316Y-122090033D02*
X157600650Y-122156700D01*
X157600650Y-122156700D02*
X157600650Y-122356700D01*
X157600650Y-122356700D02*
X157567316Y-122423366D01*
X157567316Y-122423366D02*
X157533983Y-122456700D01*
X157533983Y-122456700D02*
X157467316Y-122490033D01*
X157467316Y-122490033D02*
X157333983Y-122490033D01*
X157333983Y-122490033D02*
X157267316Y-122456700D01*
X157900649Y-122490033D02*
X157900649Y-122023366D01*
X157900649Y-121790033D02*
X157867316Y-121823366D01*
X157867316Y-121823366D02*
X157900649Y-121856700D01*
X157900649Y-121856700D02*
X157933983Y-121823366D01*
X157933983Y-121823366D02*
X157900649Y-121790033D01*
X157900649Y-121790033D02*
X157900649Y-121856700D01*
X158233982Y-122023366D02*
X158233982Y-122490033D01*
X158233982Y-122090033D02*
X158267316Y-122056700D01*
X158267316Y-122056700D02*
X158333982Y-122023366D01*
X158333982Y-122023366D02*
X158433982Y-122023366D01*
X158433982Y-122023366D02*
X158500649Y-122056700D01*
X158500649Y-122056700D02*
X158533982Y-122123366D01*
X158533982Y-122123366D02*
X158533982Y-122490033D01*
X158833982Y-122456700D02*
X158900649Y-122490033D01*
X158900649Y-122490033D02*
X159033982Y-122490033D01*
X159033982Y-122490033D02*
X159100649Y-122456700D01*
X159100649Y-122456700D02*
X159133982Y-122390033D01*
X159133982Y-122390033D02*
X159133982Y-122356700D01*
X159133982Y-122356700D02*
X159100649Y-122290033D01*
X159100649Y-122290033D02*
X159033982Y-122256700D01*
X159033982Y-122256700D02*
X158933982Y-122256700D01*
X158933982Y-122256700D02*
X158867315Y-122223366D01*
X158867315Y-122223366D02*
X158833982Y-122156700D01*
X158833982Y-122156700D02*
X158833982Y-122123366D01*
X158833982Y-122123366D02*
X158867315Y-122056700D01*
X158867315Y-122056700D02*
X158933982Y-122023366D01*
X158933982Y-122023366D02*
X159033982Y-122023366D01*
X159033982Y-122023366D02*
X159100649Y-122056700D01*
X159333982Y-121856700D02*
X159467316Y-121756700D01*
X159467316Y-121756700D02*
X159600649Y-121856700D01*
X169772969Y-123699342D02*
X170058684Y-123699342D01*
X169715826Y-123870771D02*
X169915826Y-123270771D01*
X169915826Y-123270771D02*
X170115826Y-123870771D01*
X170630112Y-123870771D02*
X170287255Y-123870771D01*
X170458684Y-123870771D02*
X170458684Y-123270771D01*
X170458684Y-123270771D02*
X170401541Y-123356485D01*
X170401541Y-123356485D02*
X170344398Y-123413628D01*
X170344398Y-123413628D02*
X170287255Y-123442200D01*
X171144399Y-123470771D02*
X171144399Y-123870771D01*
X171001541Y-123242200D02*
X170858684Y-123670771D01*
X170858684Y-123670771D02*
X171230113Y-123670771D01*
X176488969Y-123699342D02*
X176774684Y-123699342D01*
X176431826Y-123870771D02*
X176631826Y-123270771D01*
X176631826Y-123270771D02*
X176831826Y-123870771D01*
X177346112Y-123870771D02*
X177003255Y-123870771D01*
X177174684Y-123870771D02*
X177174684Y-123270771D01*
X177174684Y-123270771D02*
X177117541Y-123356485D01*
X177117541Y-123356485D02*
X177060398Y-123413628D01*
X177060398Y-123413628D02*
X177003255Y-123442200D01*
X177546113Y-123270771D02*
X177917541Y-123270771D01*
X177917541Y-123270771D02*
X177717541Y-123499342D01*
X177717541Y-123499342D02*
X177803256Y-123499342D01*
X177803256Y-123499342D02*
X177860399Y-123527914D01*
X177860399Y-123527914D02*
X177888970Y-123556485D01*
X177888970Y-123556485D02*
X177917541Y-123613628D01*
X177917541Y-123613628D02*
X177917541Y-123756485D01*
X177917541Y-123756485D02*
X177888970Y-123813628D01*
X177888970Y-123813628D02*
X177860399Y-123842200D01*
X177860399Y-123842200D02*
X177803256Y-123870771D01*
X177803256Y-123870771D02*
X177631827Y-123870771D01*
X177631827Y-123870771D02*
X177574684Y-123842200D01*
X177574684Y-123842200D02*
X177546113Y-123813628D01*
X166168571Y-122167771D02*
X165968571Y-121882057D01*
X165825714Y-122167771D02*
X165825714Y-121567771D01*
X165825714Y-121567771D02*
X166054285Y-121567771D01*
X166054285Y-121567771D02*
X166111428Y-121596342D01*
X166111428Y-121596342D02*
X166139999Y-121624914D01*
X166139999Y-121624914D02*
X166168571Y-121682057D01*
X166168571Y-121682057D02*
X166168571Y-121767771D01*
X166168571Y-121767771D02*
X166139999Y-121824914D01*
X166139999Y-121824914D02*
X166111428Y-121853485D01*
X166111428Y-121853485D02*
X166054285Y-121882057D01*
X166054285Y-121882057D02*
X165825714Y-121882057D01*
X166397142Y-121996342D02*
X166682857Y-121996342D01*
X166339999Y-122167771D02*
X166539999Y-121567771D01*
X166539999Y-121567771D02*
X166739999Y-122167771D01*
X166940000Y-122167771D02*
X166940000Y-121567771D01*
X166940000Y-121567771D02*
X167140000Y-121996342D01*
X167140000Y-121996342D02*
X167340000Y-121567771D01*
X167340000Y-121567771D02*
X167340000Y-122167771D01*
X167482857Y-122224914D02*
X167939999Y-122224914D01*
X168054285Y-121996342D02*
X168340000Y-121996342D01*
X167997142Y-122167771D02*
X168197142Y-121567771D01*
X168197142Y-121567771D02*
X168397142Y-122167771D01*
X168911428Y-122167771D02*
X168568571Y-122167771D01*
X168740000Y-122167771D02*
X168740000Y-121567771D01*
X168740000Y-121567771D02*
X168682857Y-121653485D01*
X168682857Y-121653485D02*
X168625714Y-121710628D01*
X168625714Y-121710628D02*
X168568571Y-121739200D01*
X169425715Y-121767771D02*
X169425715Y-122167771D01*
X169282857Y-121539200D02*
X169140000Y-121967771D01*
X169140000Y-121967771D02*
X169511429Y-121967771D01*
X196186033Y-106760000D02*
X195852700Y-106993333D01*
X196186033Y-107160000D02*
X195486033Y-107160000D01*
X195486033Y-107160000D02*
X195486033Y-106893333D01*
X195486033Y-106893333D02*
X195519366Y-106826667D01*
X195519366Y-106826667D02*
X195552700Y-106793333D01*
X195552700Y-106793333D02*
X195619366Y-106760000D01*
X195619366Y-106760000D02*
X195719366Y-106760000D01*
X195719366Y-106760000D02*
X195786033Y-106793333D01*
X195786033Y-106793333D02*
X195819366Y-106826667D01*
X195819366Y-106826667D02*
X195852700Y-106893333D01*
X195852700Y-106893333D02*
X195852700Y-107160000D01*
X196186033Y-106093333D02*
X196186033Y-106493333D01*
X196186033Y-106293333D02*
X195486033Y-106293333D01*
X195486033Y-106293333D02*
X195586033Y-106360000D01*
X195586033Y-106360000D02*
X195652700Y-106426667D01*
X195652700Y-106426667D02*
X195686033Y-106493333D01*
X195486033Y-105860000D02*
X195486033Y-105426666D01*
X195486033Y-105426666D02*
X195752700Y-105660000D01*
X195752700Y-105660000D02*
X195752700Y-105560000D01*
X195752700Y-105560000D02*
X195786033Y-105493333D01*
X195786033Y-105493333D02*
X195819366Y-105460000D01*
X195819366Y-105460000D02*
X195886033Y-105426666D01*
X195886033Y-105426666D02*
X196052700Y-105426666D01*
X196052700Y-105426666D02*
X196119366Y-105460000D01*
X196119366Y-105460000D02*
X196152700Y-105493333D01*
X196152700Y-105493333D02*
X196186033Y-105560000D01*
X196186033Y-105560000D02*
X196186033Y-105760000D01*
X196186033Y-105760000D02*
X196152700Y-105826666D01*
X196152700Y-105826666D02*
X196119366Y-105860000D01*
X193954819Y-107000476D02*
X193954819Y-107571904D01*
X193954819Y-107286190D02*
X192954819Y-107286190D01*
X192954819Y-107286190D02*
X193097676Y-107381428D01*
X193097676Y-107381428D02*
X193192914Y-107476666D01*
X193192914Y-107476666D02*
X193240533Y-107571904D01*
X192954819Y-106381428D02*
X192954819Y-106286190D01*
X192954819Y-106286190D02*
X193002438Y-106190952D01*
X193002438Y-106190952D02*
X193050057Y-106143333D01*
X193050057Y-106143333D02*
X193145295Y-106095714D01*
X193145295Y-106095714D02*
X193335771Y-106048095D01*
X193335771Y-106048095D02*
X193573866Y-106048095D01*
X193573866Y-106048095D02*
X193764342Y-106095714D01*
X193764342Y-106095714D02*
X193859580Y-106143333D01*
X193859580Y-106143333D02*
X193907200Y-106190952D01*
X193907200Y-106190952D02*
X193954819Y-106286190D01*
X193954819Y-106286190D02*
X193954819Y-106381428D01*
X193954819Y-106381428D02*
X193907200Y-106476666D01*
X193907200Y-106476666D02*
X193859580Y-106524285D01*
X193859580Y-106524285D02*
X193764342Y-106571904D01*
X193764342Y-106571904D02*
X193573866Y-106619523D01*
X193573866Y-106619523D02*
X193335771Y-106619523D01*
X193335771Y-106619523D02*
X193145295Y-106571904D01*
X193145295Y-106571904D02*
X193050057Y-106524285D01*
X193050057Y-106524285D02*
X193002438Y-106476666D01*
X193002438Y-106476666D02*
X192954819Y-106381428D01*
X193954819Y-105619523D02*
X192954819Y-105619523D01*
X193954819Y-105048095D02*
X193383390Y-105476666D01*
X192954819Y-105048095D02*
X193526247Y-105619523D01*
X185420095Y-121374819D02*
X185420095Y-122184342D01*
X185420095Y-122184342D02*
X185467714Y-122279580D01*
X185467714Y-122279580D02*
X185515333Y-122327200D01*
X185515333Y-122327200D02*
X185610571Y-122374819D01*
X185610571Y-122374819D02*
X185801047Y-122374819D01*
X185801047Y-122374819D02*
X185896285Y-122327200D01*
X185896285Y-122327200D02*
X185943904Y-122279580D01*
X185943904Y-122279580D02*
X185991523Y-122184342D01*
X185991523Y-122184342D02*
X185991523Y-121374819D01*
X186896285Y-121708152D02*
X186896285Y-122374819D01*
X186658190Y-121327200D02*
X186420095Y-122041485D01*
X186420095Y-122041485D02*
X187039142Y-122041485D01*
X185636819Y-118217856D02*
X185636819Y-117551190D01*
X185636819Y-117551190D02*
X186636819Y-117979761D01*
X185970152Y-116741666D02*
X186636819Y-116741666D01*
X185589200Y-116979761D02*
X186303485Y-117217856D01*
X186303485Y-117217856D02*
X186303485Y-116598809D01*
X186636819Y-115741666D02*
X186636819Y-116217856D01*
X186636819Y-116217856D02*
X185636819Y-116217856D01*
X186589200Y-115455951D02*
X186636819Y-115313094D01*
X186636819Y-115313094D02*
X186636819Y-115074999D01*
X186636819Y-115074999D02*
X186589200Y-114979761D01*
X186589200Y-114979761D02*
X186541580Y-114932142D01*
X186541580Y-114932142D02*
X186446342Y-114884523D01*
X186446342Y-114884523D02*
X186351104Y-114884523D01*
X186351104Y-114884523D02*
X186255866Y-114932142D01*
X186255866Y-114932142D02*
X186208247Y-114979761D01*
X186208247Y-114979761D02*
X186160628Y-115074999D01*
X186160628Y-115074999D02*
X186113009Y-115265475D01*
X186113009Y-115265475D02*
X186065390Y-115360713D01*
X186065390Y-115360713D02*
X186017771Y-115408332D01*
X186017771Y-115408332D02*
X185922533Y-115455951D01*
X185922533Y-115455951D02*
X185827295Y-115455951D01*
X185827295Y-115455951D02*
X185732057Y-115408332D01*
X185732057Y-115408332D02*
X185684438Y-115360713D01*
X185684438Y-115360713D02*
X185636819Y-115265475D01*
X185636819Y-115265475D02*
X185636819Y-115027380D01*
X185636819Y-115027380D02*
X185684438Y-114884523D01*
X185636819Y-114265475D02*
X185636819Y-114170237D01*
X185636819Y-114170237D02*
X185684438Y-114074999D01*
X185684438Y-114074999D02*
X185732057Y-114027380D01*
X185732057Y-114027380D02*
X185827295Y-113979761D01*
X185827295Y-113979761D02*
X186017771Y-113932142D01*
X186017771Y-113932142D02*
X186255866Y-113932142D01*
X186255866Y-113932142D02*
X186446342Y-113979761D01*
X186446342Y-113979761D02*
X186541580Y-114027380D01*
X186541580Y-114027380D02*
X186589200Y-114074999D01*
X186589200Y-114074999D02*
X186636819Y-114170237D01*
X186636819Y-114170237D02*
X186636819Y-114265475D01*
X186636819Y-114265475D02*
X186589200Y-114360713D01*
X186589200Y-114360713D02*
X186541580Y-114408332D01*
X186541580Y-114408332D02*
X186446342Y-114455951D01*
X186446342Y-114455951D02*
X186255866Y-114503570D01*
X186255866Y-114503570D02*
X186017771Y-114503570D01*
X186017771Y-114503570D02*
X185827295Y-114455951D01*
X185827295Y-114455951D02*
X185732057Y-114408332D01*
X185732057Y-114408332D02*
X185684438Y-114360713D01*
X185684438Y-114360713D02*
X185636819Y-114265475D01*
X185636819Y-113313094D02*
X185636819Y-113217856D01*
X185636819Y-113217856D02*
X185684438Y-113122618D01*
X185684438Y-113122618D02*
X185732057Y-113074999D01*
X185732057Y-113074999D02*
X185827295Y-113027380D01*
X185827295Y-113027380D02*
X186017771Y-112979761D01*
X186017771Y-112979761D02*
X186255866Y-112979761D01*
X186255866Y-112979761D02*
X186446342Y-113027380D01*
X186446342Y-113027380D02*
X186541580Y-113074999D01*
X186541580Y-113074999D02*
X186589200Y-113122618D01*
X186589200Y-113122618D02*
X186636819Y-113217856D01*
X186636819Y-113217856D02*
X186636819Y-113313094D01*
X186636819Y-113313094D02*
X186589200Y-113408332D01*
X186589200Y-113408332D02*
X186541580Y-113455951D01*
X186541580Y-113455951D02*
X186446342Y-113503570D01*
X186446342Y-113503570D02*
X186255866Y-113551189D01*
X186255866Y-113551189D02*
X186017771Y-113551189D01*
X186017771Y-113551189D02*
X185827295Y-113503570D01*
X185827295Y-113503570D02*
X185732057Y-113455951D01*
X185732057Y-113455951D02*
X185684438Y-113408332D01*
X185684438Y-113408332D02*
X185636819Y-113313094D01*
X146153524Y-114358057D02*
X146201143Y-114310438D01*
X146201143Y-114310438D02*
X146296381Y-114262819D01*
X146296381Y-114262819D02*
X146534476Y-114262819D01*
X146534476Y-114262819D02*
X146629714Y-114310438D01*
X146629714Y-114310438D02*
X146677333Y-114358057D01*
X146677333Y-114358057D02*
X146724952Y-114453295D01*
X146724952Y-114453295D02*
X146724952Y-114548533D01*
X146724952Y-114548533D02*
X146677333Y-114691390D01*
X146677333Y-114691390D02*
X146105905Y-115262819D01*
X146105905Y-115262819D02*
X146724952Y-115262819D01*
X147058286Y-114262819D02*
X147724952Y-114262819D01*
X147724952Y-114262819D02*
X147296381Y-115262819D01*
X148677333Y-115167580D02*
X148629714Y-115215200D01*
X148629714Y-115215200D02*
X148486857Y-115262819D01*
X148486857Y-115262819D02*
X148391619Y-115262819D01*
X148391619Y-115262819D02*
X148248762Y-115215200D01*
X148248762Y-115215200D02*
X148153524Y-115119961D01*
X148153524Y-115119961D02*
X148105905Y-115024723D01*
X148105905Y-115024723D02*
X148058286Y-114834247D01*
X148058286Y-114834247D02*
X148058286Y-114691390D01*
X148058286Y-114691390D02*
X148105905Y-114500914D01*
X148105905Y-114500914D02*
X148153524Y-114405676D01*
X148153524Y-114405676D02*
X148248762Y-114310438D01*
X148248762Y-114310438D02*
X148391619Y-114262819D01*
X148391619Y-114262819D02*
X148486857Y-114262819D01*
X148486857Y-114262819D02*
X148629714Y-114310438D01*
X148629714Y-114310438D02*
X148677333Y-114358057D01*
X149582095Y-114262819D02*
X149105905Y-114262819D01*
X149105905Y-114262819D02*
X149058286Y-114739009D01*
X149058286Y-114739009D02*
X149105905Y-114691390D01*
X149105905Y-114691390D02*
X149201143Y-114643771D01*
X149201143Y-114643771D02*
X149439238Y-114643771D01*
X149439238Y-114643771D02*
X149534476Y-114691390D01*
X149534476Y-114691390D02*
X149582095Y-114739009D01*
X149582095Y-114739009D02*
X149629714Y-114834247D01*
X149629714Y-114834247D02*
X149629714Y-115072342D01*
X149629714Y-115072342D02*
X149582095Y-115167580D01*
X149582095Y-115167580D02*
X149534476Y-115215200D01*
X149534476Y-115215200D02*
X149439238Y-115262819D01*
X149439238Y-115262819D02*
X149201143Y-115262819D01*
X149201143Y-115262819D02*
X149105905Y-115215200D01*
X149105905Y-115215200D02*
X149058286Y-115167580D01*
X150582095Y-115262819D02*
X150010667Y-115262819D01*
X150296381Y-115262819D02*
X150296381Y-114262819D01*
X150296381Y-114262819D02*
X150201143Y-114405676D01*
X150201143Y-114405676D02*
X150105905Y-114500914D01*
X150105905Y-114500914D02*
X150010667Y-114548533D01*
X150963048Y-114358057D02*
X151010667Y-114310438D01*
X151010667Y-114310438D02*
X151105905Y-114262819D01*
X151105905Y-114262819D02*
X151344000Y-114262819D01*
X151344000Y-114262819D02*
X151439238Y-114310438D01*
X151439238Y-114310438D02*
X151486857Y-114358057D01*
X151486857Y-114358057D02*
X151534476Y-114453295D01*
X151534476Y-114453295D02*
X151534476Y-114548533D01*
X151534476Y-114548533D02*
X151486857Y-114691390D01*
X151486857Y-114691390D02*
X150915429Y-115262819D01*
X150915429Y-115262819D02*
X151534476Y-115262819D01*
X185674095Y-88862819D02*
X185674095Y-89672342D01*
X185674095Y-89672342D02*
X185721714Y-89767580D01*
X185721714Y-89767580D02*
X185769333Y-89815200D01*
X185769333Y-89815200D02*
X185864571Y-89862819D01*
X185864571Y-89862819D02*
X186055047Y-89862819D01*
X186055047Y-89862819D02*
X186150285Y-89815200D01*
X186150285Y-89815200D02*
X186197904Y-89767580D01*
X186197904Y-89767580D02*
X186245523Y-89672342D01*
X186245523Y-89672342D02*
X186245523Y-88862819D01*
X186674095Y-88958057D02*
X186721714Y-88910438D01*
X186721714Y-88910438D02*
X186816952Y-88862819D01*
X186816952Y-88862819D02*
X187055047Y-88862819D01*
X187055047Y-88862819D02*
X187150285Y-88910438D01*
X187150285Y-88910438D02*
X187197904Y-88958057D01*
X187197904Y-88958057D02*
X187245523Y-89053295D01*
X187245523Y-89053295D02*
X187245523Y-89148533D01*
X187245523Y-89148533D02*
X187197904Y-89291390D01*
X187197904Y-89291390D02*
X186626476Y-89862819D01*
X186626476Y-89862819D02*
X187245523Y-89862819D01*
X185636819Y-99121047D02*
X185636819Y-98454381D01*
X185636819Y-98454381D02*
X186636819Y-98882952D01*
X185970152Y-97644857D02*
X186636819Y-97644857D01*
X185589200Y-97882952D02*
X186303485Y-98121047D01*
X186303485Y-98121047D02*
X186303485Y-97502000D01*
X186636819Y-96644857D02*
X186636819Y-97121047D01*
X186636819Y-97121047D02*
X185636819Y-97121047D01*
X186589200Y-96359142D02*
X186636819Y-96216285D01*
X186636819Y-96216285D02*
X186636819Y-95978190D01*
X186636819Y-95978190D02*
X186589200Y-95882952D01*
X186589200Y-95882952D02*
X186541580Y-95835333D01*
X186541580Y-95835333D02*
X186446342Y-95787714D01*
X186446342Y-95787714D02*
X186351104Y-95787714D01*
X186351104Y-95787714D02*
X186255866Y-95835333D01*
X186255866Y-95835333D02*
X186208247Y-95882952D01*
X186208247Y-95882952D02*
X186160628Y-95978190D01*
X186160628Y-95978190D02*
X186113009Y-96168666D01*
X186113009Y-96168666D02*
X186065390Y-96263904D01*
X186065390Y-96263904D02*
X186017771Y-96311523D01*
X186017771Y-96311523D02*
X185922533Y-96359142D01*
X185922533Y-96359142D02*
X185827295Y-96359142D01*
X185827295Y-96359142D02*
X185732057Y-96311523D01*
X185732057Y-96311523D02*
X185684438Y-96263904D01*
X185684438Y-96263904D02*
X185636819Y-96168666D01*
X185636819Y-96168666D02*
X185636819Y-95930571D01*
X185636819Y-95930571D02*
X185684438Y-95787714D01*
X186636819Y-94835333D02*
X186636819Y-95406761D01*
X186636819Y-95121047D02*
X185636819Y-95121047D01*
X185636819Y-95121047D02*
X185779676Y-95216285D01*
X185779676Y-95216285D02*
X185874914Y-95311523D01*
X185874914Y-95311523D02*
X185922533Y-95406761D01*
X185636819Y-94501999D02*
X185636819Y-93882952D01*
X185636819Y-93882952D02*
X186017771Y-94216285D01*
X186017771Y-94216285D02*
X186017771Y-94073428D01*
X186017771Y-94073428D02*
X186065390Y-93978190D01*
X186065390Y-93978190D02*
X186113009Y-93930571D01*
X186113009Y-93930571D02*
X186208247Y-93882952D01*
X186208247Y-93882952D02*
X186446342Y-93882952D01*
X186446342Y-93882952D02*
X186541580Y-93930571D01*
X186541580Y-93930571D02*
X186589200Y-93978190D01*
X186589200Y-93978190D02*
X186636819Y-94073428D01*
X186636819Y-94073428D02*
X186636819Y-94359142D01*
X186636819Y-94359142D02*
X186589200Y-94454380D01*
X186589200Y-94454380D02*
X186541580Y-94501999D01*
X186636819Y-93406761D02*
X186636819Y-93216285D01*
X186636819Y-93216285D02*
X186589200Y-93121047D01*
X186589200Y-93121047D02*
X186541580Y-93073428D01*
X186541580Y-93073428D02*
X186398723Y-92978190D01*
X186398723Y-92978190D02*
X186208247Y-92930571D01*
X186208247Y-92930571D02*
X185827295Y-92930571D01*
X185827295Y-92930571D02*
X185732057Y-92978190D01*
X185732057Y-92978190D02*
X185684438Y-93025809D01*
X185684438Y-93025809D02*
X185636819Y-93121047D01*
X185636819Y-93121047D02*
X185636819Y-93311523D01*
X185636819Y-93311523D02*
X185684438Y-93406761D01*
X185684438Y-93406761D02*
X185732057Y-93454380D01*
X185732057Y-93454380D02*
X185827295Y-93501999D01*
X185827295Y-93501999D02*
X186065390Y-93501999D01*
X186065390Y-93501999D02*
X186160628Y-93454380D01*
X186160628Y-93454380D02*
X186208247Y-93406761D01*
X186208247Y-93406761D02*
X186255866Y-93311523D01*
X186255866Y-93311523D02*
X186255866Y-93121047D01*
X186255866Y-93121047D02*
X186208247Y-93025809D01*
X186208247Y-93025809D02*
X186160628Y-92978190D01*
X186160628Y-92978190D02*
X186065390Y-92930571D01*
X172878571Y-122167771D02*
X172678571Y-121882057D01*
X172535714Y-122167771D02*
X172535714Y-121567771D01*
X172535714Y-121567771D02*
X172764285Y-121567771D01*
X172764285Y-121567771D02*
X172821428Y-121596342D01*
X172821428Y-121596342D02*
X172849999Y-121624914D01*
X172849999Y-121624914D02*
X172878571Y-121682057D01*
X172878571Y-121682057D02*
X172878571Y-121767771D01*
X172878571Y-121767771D02*
X172849999Y-121824914D01*
X172849999Y-121824914D02*
X172821428Y-121853485D01*
X172821428Y-121853485D02*
X172764285Y-121882057D01*
X172764285Y-121882057D02*
X172535714Y-121882057D01*
X173107142Y-121996342D02*
X173392857Y-121996342D01*
X173049999Y-122167771D02*
X173249999Y-121567771D01*
X173249999Y-121567771D02*
X173449999Y-122167771D01*
X173650000Y-122167771D02*
X173650000Y-121567771D01*
X173650000Y-121567771D02*
X173850000Y-121996342D01*
X173850000Y-121996342D02*
X174050000Y-121567771D01*
X174050000Y-121567771D02*
X174050000Y-122167771D01*
X174192857Y-122224914D02*
X174649999Y-122224914D01*
X174764285Y-121996342D02*
X175050000Y-121996342D01*
X174707142Y-122167771D02*
X174907142Y-121567771D01*
X174907142Y-121567771D02*
X175107142Y-122167771D01*
X175621428Y-122167771D02*
X175278571Y-122167771D01*
X175450000Y-122167771D02*
X175450000Y-121567771D01*
X175450000Y-121567771D02*
X175392857Y-121653485D01*
X175392857Y-121653485D02*
X175335714Y-121710628D01*
X175335714Y-121710628D02*
X175278571Y-121739200D01*
X175821429Y-121567771D02*
X176192857Y-121567771D01*
X176192857Y-121567771D02*
X175992857Y-121796342D01*
X175992857Y-121796342D02*
X176078572Y-121796342D01*
X176078572Y-121796342D02*
X176135715Y-121824914D01*
X176135715Y-121824914D02*
X176164286Y-121853485D01*
X176164286Y-121853485D02*
X176192857Y-121910628D01*
X176192857Y-121910628D02*
X176192857Y-122053485D01*
X176192857Y-122053485D02*
X176164286Y-122110628D01*
X176164286Y-122110628D02*
X176135715Y-122139200D01*
X176135715Y-122139200D02*
X176078572Y-122167771D01*
X176078572Y-122167771D02*
X175907143Y-122167771D01*
X175907143Y-122167771D02*
X175850000Y-122139200D01*
X175850000Y-122139200D02*
X175821429Y-122110628D01*
X193214666Y-122484819D02*
X193214666Y-123199104D01*
X193214666Y-123199104D02*
X193167047Y-123341961D01*
X193167047Y-123341961D02*
X193071809Y-123437200D01*
X193071809Y-123437200D02*
X192928952Y-123484819D01*
X192928952Y-123484819D02*
X192833714Y-123484819D01*
X193643238Y-122580057D02*
X193690857Y-122532438D01*
X193690857Y-122532438D02*
X193786095Y-122484819D01*
X193786095Y-122484819D02*
X194024190Y-122484819D01*
X194024190Y-122484819D02*
X194119428Y-122532438D01*
X194119428Y-122532438D02*
X194167047Y-122580057D01*
X194167047Y-122580057D02*
X194214666Y-122675295D01*
X194214666Y-122675295D02*
X194214666Y-122770533D01*
X194214666Y-122770533D02*
X194167047Y-122913390D01*
X194167047Y-122913390D02*
X193595619Y-123484819D01*
X193595619Y-123484819D02*
X194214666Y-123484819D01*
X149309523Y-124152819D02*
X148738095Y-124152819D01*
X149023809Y-124152819D02*
X149023809Y-123152819D01*
X149023809Y-123152819D02*
X148928571Y-123295676D01*
X148928571Y-123295676D02*
X148833333Y-123390914D01*
X148833333Y-123390914D02*
X148738095Y-123438533D01*
X149928571Y-123152819D02*
X150023809Y-123152819D01*
X150023809Y-123152819D02*
X150119047Y-123200438D01*
X150119047Y-123200438D02*
X150166666Y-123248057D01*
X150166666Y-123248057D02*
X150214285Y-123343295D01*
X150214285Y-123343295D02*
X150261904Y-123533771D01*
X150261904Y-123533771D02*
X150261904Y-123771866D01*
X150261904Y-123771866D02*
X150214285Y-123962342D01*
X150214285Y-123962342D02*
X150166666Y-124057580D01*
X150166666Y-124057580D02*
X150119047Y-124105200D01*
X150119047Y-124105200D02*
X150023809Y-124152819D01*
X150023809Y-124152819D02*
X149928571Y-124152819D01*
X149928571Y-124152819D02*
X149833333Y-124105200D01*
X149833333Y-124105200D02*
X149785714Y-124057580D01*
X149785714Y-124057580D02*
X149738095Y-123962342D01*
X149738095Y-123962342D02*
X149690476Y-123771866D01*
X149690476Y-123771866D02*
X149690476Y-123533771D01*
X149690476Y-123533771D02*
X149738095Y-123343295D01*
X149738095Y-123343295D02*
X149785714Y-123248057D01*
X149785714Y-123248057D02*
X149833333Y-123200438D01*
X149833333Y-123200438D02*
X149928571Y-123152819D01*
X150690476Y-124152819D02*
X150690476Y-123152819D01*
X151261904Y-124152819D02*
X150833333Y-123581390D01*
X151261904Y-123152819D02*
X150690476Y-123724247D01*
X170180095Y-117549819D02*
X170180095Y-118359342D01*
X170180095Y-118359342D02*
X170227714Y-118454580D01*
X170227714Y-118454580D02*
X170275333Y-118502200D01*
X170275333Y-118502200D02*
X170370571Y-118549819D01*
X170370571Y-118549819D02*
X170561047Y-118549819D01*
X170561047Y-118549819D02*
X170656285Y-118502200D01*
X170656285Y-118502200D02*
X170703904Y-118454580D01*
X170703904Y-118454580D02*
X170751523Y-118359342D01*
X170751523Y-118359342D02*
X170751523Y-117549819D01*
X171132476Y-117549819D02*
X171751523Y-117549819D01*
X171751523Y-117549819D02*
X171418190Y-117930771D01*
X171418190Y-117930771D02*
X171561047Y-117930771D01*
X171561047Y-117930771D02*
X171656285Y-117978390D01*
X171656285Y-117978390D02*
X171703904Y-118026009D01*
X171703904Y-118026009D02*
X171751523Y-118121247D01*
X171751523Y-118121247D02*
X171751523Y-118359342D01*
X171751523Y-118359342D02*
X171703904Y-118454580D01*
X171703904Y-118454580D02*
X171656285Y-118502200D01*
X171656285Y-118502200D02*
X171561047Y-118549819D01*
X171561047Y-118549819D02*
X171275333Y-118549819D01*
X171275333Y-118549819D02*
X171180095Y-118502200D01*
X171180095Y-118502200D02*
X171132476Y-118454580D01*
X166317952Y-115262819D02*
X166317952Y-114262819D01*
X166889380Y-115262819D02*
X166460809Y-114691390D01*
X166889380Y-114262819D02*
X166317952Y-114834247D01*
X167317952Y-115262819D02*
X167317952Y-114262819D01*
X167317952Y-114262819D02*
X167651285Y-114977104D01*
X167651285Y-114977104D02*
X167984618Y-114262819D01*
X167984618Y-114262819D02*
X167984618Y-115262819D01*
X168889380Y-114262819D02*
X168698904Y-114262819D01*
X168698904Y-114262819D02*
X168603666Y-114310438D01*
X168603666Y-114310438D02*
X168556047Y-114358057D01*
X168556047Y-114358057D02*
X168460809Y-114500914D01*
X168460809Y-114500914D02*
X168413190Y-114691390D01*
X168413190Y-114691390D02*
X168413190Y-115072342D01*
X168413190Y-115072342D02*
X168460809Y-115167580D01*
X168460809Y-115167580D02*
X168508428Y-115215200D01*
X168508428Y-115215200D02*
X168603666Y-115262819D01*
X168603666Y-115262819D02*
X168794142Y-115262819D01*
X168794142Y-115262819D02*
X168889380Y-115215200D01*
X168889380Y-115215200D02*
X168936999Y-115167580D01*
X168936999Y-115167580D02*
X168984618Y-115072342D01*
X168984618Y-115072342D02*
X168984618Y-114834247D01*
X168984618Y-114834247D02*
X168936999Y-114739009D01*
X168936999Y-114739009D02*
X168889380Y-114691390D01*
X168889380Y-114691390D02*
X168794142Y-114643771D01*
X168794142Y-114643771D02*
X168603666Y-114643771D01*
X168603666Y-114643771D02*
X168508428Y-114691390D01*
X168508428Y-114691390D02*
X168460809Y-114739009D01*
X168460809Y-114739009D02*
X168413190Y-114834247D01*
X169365571Y-114358057D02*
X169413190Y-114310438D01*
X169413190Y-114310438D02*
X169508428Y-114262819D01*
X169508428Y-114262819D02*
X169746523Y-114262819D01*
X169746523Y-114262819D02*
X169841761Y-114310438D01*
X169841761Y-114310438D02*
X169889380Y-114358057D01*
X169889380Y-114358057D02*
X169936999Y-114453295D01*
X169936999Y-114453295D02*
X169936999Y-114548533D01*
X169936999Y-114548533D02*
X169889380Y-114691390D01*
X169889380Y-114691390D02*
X169317952Y-115262819D01*
X169317952Y-115262819D02*
X169936999Y-115262819D01*
X170317952Y-114358057D02*
X170365571Y-114310438D01*
X170365571Y-114310438D02*
X170460809Y-114262819D01*
X170460809Y-114262819D02*
X170698904Y-114262819D01*
X170698904Y-114262819D02*
X170794142Y-114310438D01*
X170794142Y-114310438D02*
X170841761Y-114358057D01*
X170841761Y-114358057D02*
X170889380Y-114453295D01*
X170889380Y-114453295D02*
X170889380Y-114548533D01*
X170889380Y-114548533D02*
X170841761Y-114691390D01*
X170841761Y-114691390D02*
X170270333Y-115262819D01*
X170270333Y-115262819D02*
X170889380Y-115262819D01*
X171794142Y-114262819D02*
X171317952Y-114262819D01*
X171317952Y-114262819D02*
X171270333Y-114739009D01*
X171270333Y-114739009D02*
X171317952Y-114691390D01*
X171317952Y-114691390D02*
X171413190Y-114643771D01*
X171413190Y-114643771D02*
X171651285Y-114643771D01*
X171651285Y-114643771D02*
X171746523Y-114691390D01*
X171746523Y-114691390D02*
X171794142Y-114739009D01*
X171794142Y-114739009D02*
X171841761Y-114834247D01*
X171841761Y-114834247D02*
X171841761Y-115072342D01*
X171841761Y-115072342D02*
X171794142Y-115167580D01*
X171794142Y-115167580D02*
X171746523Y-115215200D01*
X171746523Y-115215200D02*
X171651285Y-115262819D01*
X171651285Y-115262819D02*
X171413190Y-115262819D01*
X171413190Y-115262819D02*
X171317952Y-115215200D01*
X171317952Y-115215200D02*
X171270333Y-115167580D01*
X172698904Y-114262819D02*
X172508428Y-114262819D01*
X172508428Y-114262819D02*
X172413190Y-114310438D01*
X172413190Y-114310438D02*
X172365571Y-114358057D01*
X172365571Y-114358057D02*
X172270333Y-114500914D01*
X172270333Y-114500914D02*
X172222714Y-114691390D01*
X172222714Y-114691390D02*
X172222714Y-115072342D01*
X172222714Y-115072342D02*
X172270333Y-115167580D01*
X172270333Y-115167580D02*
X172317952Y-115215200D01*
X172317952Y-115215200D02*
X172413190Y-115262819D01*
X172413190Y-115262819D02*
X172603666Y-115262819D01*
X172603666Y-115262819D02*
X172698904Y-115215200D01*
X172698904Y-115215200D02*
X172746523Y-115167580D01*
X172746523Y-115167580D02*
X172794142Y-115072342D01*
X172794142Y-115072342D02*
X172794142Y-114834247D01*
X172794142Y-114834247D02*
X172746523Y-114739009D01*
X172746523Y-114739009D02*
X172698904Y-114691390D01*
X172698904Y-114691390D02*
X172603666Y-114643771D01*
X172603666Y-114643771D02*
X172413190Y-114643771D01*
X172413190Y-114643771D02*
X172317952Y-114691390D01*
X172317952Y-114691390D02*
X172270333Y-114739009D01*
X172270333Y-114739009D02*
X172222714Y-114834247D01*
X173794142Y-115167580D02*
X173746523Y-115215200D01*
X173746523Y-115215200D02*
X173603666Y-115262819D01*
X173603666Y-115262819D02*
X173508428Y-115262819D01*
X173508428Y-115262819D02*
X173365571Y-115215200D01*
X173365571Y-115215200D02*
X173270333Y-115119961D01*
X173270333Y-115119961D02*
X173222714Y-115024723D01*
X173222714Y-115024723D02*
X173175095Y-114834247D01*
X173175095Y-114834247D02*
X173175095Y-114691390D01*
X173175095Y-114691390D02*
X173222714Y-114500914D01*
X173222714Y-114500914D02*
X173270333Y-114405676D01*
X173270333Y-114405676D02*
X173365571Y-114310438D01*
X173365571Y-114310438D02*
X173508428Y-114262819D01*
X173508428Y-114262819D02*
X173603666Y-114262819D01*
X173603666Y-114262819D02*
X173746523Y-114310438D01*
X173746523Y-114310438D02*
X173794142Y-114358057D01*
X174698904Y-115262819D02*
X174222714Y-115262819D01*
X174222714Y-115262819D02*
X174222714Y-114262819D01*
X175032238Y-115262819D02*
X175032238Y-114262819D01*
X175032238Y-114262819D02*
X175413190Y-114262819D01*
X175413190Y-114262819D02*
X175508428Y-114310438D01*
X175508428Y-114310438D02*
X175556047Y-114358057D01*
X175556047Y-114358057D02*
X175603666Y-114453295D01*
X175603666Y-114453295D02*
X175603666Y-114596152D01*
X175603666Y-114596152D02*
X175556047Y-114691390D01*
X175556047Y-114691390D02*
X175508428Y-114739009D01*
X175508428Y-114739009D02*
X175413190Y-114786628D01*
X175413190Y-114786628D02*
X175032238Y-114786628D01*
X193166666Y-91624819D02*
X193166666Y-92339104D01*
X193166666Y-92339104D02*
X193119047Y-92481961D01*
X193119047Y-92481961D02*
X193023809Y-92577200D01*
X193023809Y-92577200D02*
X192880952Y-92624819D01*
X192880952Y-92624819D02*
X192785714Y-92624819D01*
X194166666Y-92624819D02*
X193595238Y-92624819D01*
X193880952Y-92624819D02*
X193880952Y-91624819D01*
X193880952Y-91624819D02*
X193785714Y-91767676D01*
X193785714Y-91767676D02*
X193690476Y-91862914D01*
X193690476Y-91862914D02*
X193595238Y-91910533D01*
D11*
X166240000Y-123998000D02*
X166240000Y-123398000D01*
X166940000Y-122698000D02*
X168340000Y-122698000D01*
X168340000Y-124698000D02*
X166940000Y-124698000D01*
X169040000Y-123398000D02*
X169040000Y-123998000D01*
X166240000Y-123398000D02*
G75*
G02*
X166940000Y-122698000I699999J1D01*
G01*
X166940000Y-124698000D02*
G75*
G02*
X166240000Y-123998000I-1J699999D01*
G01*
X168340000Y-122698000D02*
G75*
G02*
X169040000Y-123398000I0J-700000D01*
G01*
X169040000Y-123998000D02*
G75*
G02*
X168340000Y-124698000I-700000J0D01*
G01*
X192130000Y-103040000D02*
X192130000Y-109580000D01*
X192130000Y-109580000D02*
X192460000Y-109580000D01*
X192460000Y-103040000D02*
X192130000Y-103040000D01*
X194540000Y-103040000D02*
X194870000Y-103040000D01*
X194870000Y-103040000D02*
X194870000Y-109580000D01*
X194870000Y-109580000D02*
X194540000Y-109580000D01*
X183932000Y-106620000D02*
X183932000Y-124520000D01*
X183932000Y-124520000D02*
X185182000Y-124520000D01*
X187182000Y-124520000D02*
X188432000Y-124520000D01*
X188432000Y-106620000D02*
X183932000Y-106620000D01*
X188432000Y-124520000D02*
X188432000Y-106620000D01*
X191432000Y-124580000D02*
X180932000Y-124580000D01*
X180932000Y-106560000D01*
X191432000Y-106560000D01*
X191432000Y-124580000D01*
X185182000Y-124520000D02*
G75*
G02*
X187182000Y-124520000I1000000J0D01*
G01*
X142027000Y-85553000D02*
X142027000Y-121233000D01*
X142027000Y-121233000D02*
X147087000Y-121233000D01*
X149087000Y-121233000D02*
X154147000Y-121233000D01*
X154147000Y-85553000D02*
X142027000Y-85553000D01*
X154147000Y-121233000D02*
X154147000Y-85553000D01*
X157147000Y-121293000D02*
X139027000Y-121293000D01*
X139027000Y-85493000D01*
X157147000Y-85493000D01*
X157147000Y-121293000D01*
X147087000Y-121233000D02*
G75*
G02*
X149087000Y-121233000I1000000J0D01*
G01*
X145679000Y-85553000D02*
X145679000Y-121233000D01*
X145679000Y-121233000D02*
X150739000Y-121233000D01*
X152739000Y-121233000D02*
X157799000Y-121233000D01*
X157799000Y-85553000D02*
X145679000Y-85553000D01*
X157799000Y-121233000D02*
X157799000Y-85553000D01*
X160799000Y-121293000D02*
X142679000Y-121293000D01*
X142679000Y-85493000D01*
X160799000Y-85493000D01*
X160799000Y-121293000D01*
X150739000Y-121233000D02*
G75*
G02*
X152739000Y-121233000I1000000J0D01*
G01*
X183932000Y-85538000D02*
X183932000Y-105978000D01*
X183932000Y-105978000D02*
X185182000Y-105978000D01*
X187182000Y-105978000D02*
X188432000Y-105978000D01*
X188432000Y-85538000D02*
X183932000Y-85538000D01*
X188432000Y-105978000D02*
X188432000Y-85538000D01*
X191432000Y-106038000D02*
X180932000Y-106038000D01*
X180932000Y-85478000D01*
X191432000Y-85478000D01*
X191432000Y-106038000D01*
X185182000Y-105978000D02*
G75*
G02*
X187182000Y-105978000I1000000J0D01*
G01*
X172950000Y-123998000D02*
X172950000Y-123398000D01*
X173650000Y-122698000D02*
X175050000Y-122698000D01*
X175050000Y-124698000D02*
X173650000Y-124698000D01*
X175750000Y-123398000D02*
X175750000Y-123998000D01*
X172950000Y-123398000D02*
G75*
G02*
X173650000Y-122698000I699999J1D01*
G01*
X173650000Y-124698000D02*
G75*
G02*
X172950000Y-123998000I-1J699999D01*
G01*
X175050000Y-122698000D02*
G75*
G02*
X175750000Y-123398000I0J-700000D01*
G01*
X175750000Y-123998000D02*
G75*
G02*
X175050000Y-124698000I-700000J0D01*
G01*
X192168000Y-119380000D02*
X192168000Y-114190000D01*
X194928000Y-114190000D02*
X192168000Y-114190000D01*
X194928000Y-119380000D02*
X192168000Y-119380000D01*
X194928000Y-119380000D02*
X194928000Y-114190000D01*
X194928000Y-120650000D02*
X194928000Y-122030000D01*
X194928000Y-122030000D02*
X193548000Y-122030000D01*
X146730000Y-122328000D02*
X153270000Y-122328000D01*
X146730000Y-122658000D02*
X146730000Y-122328000D01*
X146730000Y-124738000D02*
X146730000Y-125068000D01*
X146730000Y-125068000D02*
X153270000Y-125068000D01*
X153270000Y-122328000D02*
X153270000Y-122658000D01*
X153270000Y-125068000D02*
X153270000Y-124738000D01*
X164882000Y-85538000D02*
X164882000Y-121218000D01*
X164882000Y-121218000D02*
X169942000Y-121218000D01*
X171942000Y-121218000D02*
X177002000Y-121218000D01*
X177002000Y-85538000D02*
X164882000Y-85538000D01*
X177002000Y-121218000D02*
X177002000Y-85538000D01*
X180002000Y-121278000D02*
X161882000Y-121278000D01*
X161882000Y-85478000D01*
X180002000Y-85478000D01*
X180002000Y-121278000D01*
X169942000Y-121218000D02*
G75*
G02*
X171942000Y-121218000I1000000J0D01*
G01*
X192120000Y-93120000D02*
X193500000Y-93120000D01*
X192120000Y-94500000D02*
X192120000Y-93120000D01*
X192120000Y-95770000D02*
X192120000Y-98420000D01*
X192120000Y-95770000D02*
X194880000Y-95770000D01*
X192120000Y-98420000D02*
X194880000Y-98420000D01*
X194880000Y-95770000D02*
X194880000Y-98420000D01*
%LPC*%
G36*
X167490000Y-122948000D02*
G01*
X167790000Y-122948000D01*
X167790000Y-124448000D01*
X167490000Y-124448000D01*
X167490000Y-122948000D01*
G37*
G36*
X174200000Y-122948000D02*
G01*
X174500000Y-122948000D01*
X174500000Y-124448000D01*
X174200000Y-124448000D01*
X174200000Y-122948000D01*
G37*
D12*
X166990000Y-123698000D03*
D13*
X168290000Y-123698000D03*
D14*
X193500000Y-102500000D03*
X193500000Y-110120000D03*
D15*
X189992000Y-123190000D03*
D16*
X189992000Y-120650000D03*
X189992000Y-118110000D03*
X189992000Y-115570000D03*
X189992000Y-113030000D03*
X189992000Y-110490000D03*
X189992000Y-107950000D03*
X182372000Y-107950000D03*
X182372000Y-110490000D03*
X182372000Y-113030000D03*
X182372000Y-115570000D03*
X182372000Y-118110000D03*
X182372000Y-120650000D03*
X182372000Y-123190000D03*
D15*
X155707000Y-119903000D03*
D16*
X155707000Y-117363000D03*
X155707000Y-114823000D03*
X155707000Y-112283000D03*
X155707000Y-109743000D03*
X155707000Y-107203000D03*
X155707000Y-104663000D03*
X155707000Y-102123000D03*
X155707000Y-99583000D03*
X155707000Y-97043000D03*
X155707000Y-94503000D03*
X155707000Y-91963000D03*
X155707000Y-89423000D03*
X155707000Y-86883000D03*
X140467000Y-86883000D03*
X140467000Y-89423000D03*
X140467000Y-91963000D03*
X140467000Y-94503000D03*
X140467000Y-97043000D03*
X140467000Y-99583000D03*
X140467000Y-102123000D03*
X140467000Y-104663000D03*
X140467000Y-107203000D03*
X140467000Y-109743000D03*
X140467000Y-112283000D03*
X140467000Y-114823000D03*
X140467000Y-117363000D03*
X140467000Y-119903000D03*
D15*
X159359000Y-119903000D03*
D16*
X159359000Y-117363000D03*
X159359000Y-114823000D03*
X159359000Y-112283000D03*
X159359000Y-109743000D03*
X159359000Y-107203000D03*
X159359000Y-104663000D03*
X159359000Y-102123000D03*
X159359000Y-99583000D03*
X159359000Y-97043000D03*
X159359000Y-94503000D03*
X159359000Y-91963000D03*
X159359000Y-89423000D03*
X159359000Y-86883000D03*
X144119000Y-86883000D03*
X144119000Y-89423000D03*
X144119000Y-91963000D03*
X144119000Y-94503000D03*
X144119000Y-97043000D03*
X144119000Y-99583000D03*
X144119000Y-102123000D03*
X144119000Y-104663000D03*
X144119000Y-107203000D03*
X144119000Y-109743000D03*
X144119000Y-112283000D03*
X144119000Y-114823000D03*
X144119000Y-117363000D03*
X144119000Y-119903000D03*
D15*
X189992000Y-104648000D03*
D16*
X189992000Y-102108000D03*
X189992000Y-99568000D03*
X189992000Y-97028000D03*
X189992000Y-94488000D03*
X189992000Y-91948000D03*
X189992000Y-89408000D03*
X189992000Y-86868000D03*
X182372000Y-86868000D03*
X182372000Y-89408000D03*
X182372000Y-91948000D03*
X182372000Y-94488000D03*
X182372000Y-97028000D03*
X182372000Y-99568000D03*
X182372000Y-102108000D03*
X182372000Y-104648000D03*
D12*
X173700000Y-123698000D03*
D13*
X175000000Y-123698000D03*
D17*
X193548000Y-120650000D03*
D18*
X193548000Y-118110000D03*
X193548000Y-115570000D03*
D14*
X146190000Y-123698000D03*
X153810000Y-123698000D03*
D15*
X178562000Y-119888000D03*
D16*
X178562000Y-117348000D03*
X178562000Y-114808000D03*
X178562000Y-112268000D03*
X178562000Y-109728000D03*
X178562000Y-107188000D03*
X178562000Y-104648000D03*
X178562000Y-102108000D03*
X178562000Y-99568000D03*
X178562000Y-97028000D03*
X178562000Y-94488000D03*
X178562000Y-91948000D03*
X178562000Y-89408000D03*
X178562000Y-86868000D03*
X163322000Y-86868000D03*
X163322000Y-89408000D03*
X163322000Y-91948000D03*
X163322000Y-94488000D03*
X163322000Y-97028000D03*
X163322000Y-99568000D03*
X163322000Y-102108000D03*
X163322000Y-104648000D03*
X163322000Y-107188000D03*
X163322000Y-109728000D03*
X163322000Y-112268000D03*
X163322000Y-114808000D03*
X163322000Y-117348000D03*
X163322000Y-119888000D03*
D17*
X193500000Y-94500000D03*
D18*
X193500000Y-97040000D03*
%LPD*%
M02*
