G04 #@! TF.GenerationSoftware,KiCad,Pcbnew,9.0.6*
G04 #@! TF.CreationDate,2026-02-01T18:13:51+01:00*
G04 #@! TF.ProjectId,1551-RAMBoard2-FirstBank,31353531-2d52-4414-9d42-6f617264322d,1*
G04 #@! TF.SameCoordinates,Original*
G04 #@! TF.FileFunction,Copper,L1,Top*
G04 #@! TF.FilePolarity,Positive*
%FSLAX46Y46*%
G04 Gerber Fmt 4.6, Leading zero omitted, Abs format (unit mm)*
G04 Created by KiCad (PCBNEW 9.0.6) date 2026-02-01 18:13:51*
%MOMM*%
%LPD*%
G01*
G04 APERTURE LIST*
G04 Aperture macros list*
%AMRoundRect*
0 Rectangle with rounded corners*
0 $1 Rounding radius*
0 $2 $3 $4 $5 $6 $7 $8 $9 X,Y pos of 4 corners*
0 Add a 4 corners polygon primitive as box body*
4,1,4,$2,$3,$4,$5,$6,$7,$8,$9,$2,$3,0*
0 Add four circle primitives for the rounded corners*
1,1,$1+$1,$2,$3*
1,1,$1+$1,$4,$5*
1,1,$1+$1,$6,$7*
1,1,$1+$1,$8,$9*
0 Add four rect primitives between the rounded corners*
20,1,$1+$1,$2,$3,$4,$5,0*
20,1,$1+$1,$4,$5,$6,$7,0*
20,1,$1+$1,$6,$7,$8,$9,0*
20,1,$1+$1,$8,$9,$2,$3,0*%
%AMFreePoly0*
4,1,23,0.500000,-0.750000,0.000000,-0.750000,0.000000,-0.745722,-0.065263,-0.745722,-0.191342,-0.711940,-0.304381,-0.646677,-0.396677,-0.554381,-0.461940,-0.441342,-0.495722,-0.315263,-0.495722,-0.250000,-0.500000,-0.250000,-0.500000,0.250000,-0.495722,0.250000,-0.495722,0.315263,-0.461940,0.441342,-0.396677,0.554381,-0.304381,0.646677,-0.191342,0.711940,-0.065263,0.745722,0.000000,0.745722,
0.000000,0.750000,0.500000,0.750000,0.500000,-0.750000,0.500000,-0.750000,$1*%
%AMFreePoly1*
4,1,23,0.000000,0.745722,0.065263,0.745722,0.191342,0.711940,0.304381,0.646677,0.396677,0.554381,0.461940,0.441342,0.495722,0.315263,0.495722,0.250000,0.500000,0.250000,0.500000,-0.250000,0.495722,-0.250000,0.495722,-0.315263,0.461940,-0.441342,0.396677,-0.554381,0.304381,-0.646677,0.191342,-0.711940,0.065263,-0.745722,0.000000,-0.745722,0.000000,-0.750000,-0.500000,-0.750000,
-0.500000,0.750000,0.000000,0.750000,0.000000,0.745722,0.000000,0.745722,$1*%
G04 Aperture macros list end*
G04 #@! TA.AperFunction,EtchedComponent*
%ADD10C,0.000000*%
G04 #@! TD*
G04 #@! TA.AperFunction,SMDPad,CuDef*
%ADD11FreePoly0,0.000000*%
G04 #@! TD*
G04 #@! TA.AperFunction,SMDPad,CuDef*
%ADD12FreePoly1,0.000000*%
G04 #@! TD*
G04 #@! TA.AperFunction,ComponentPad*
%ADD13C,1.600000*%
G04 #@! TD*
G04 #@! TA.AperFunction,ComponentPad*
%ADD14RoundRect,0.250000X0.950000X0.550000X-0.950000X0.550000X-0.950000X-0.550000X0.950000X-0.550000X0*%
G04 #@! TD*
G04 #@! TA.AperFunction,ComponentPad*
%ADD15O,2.400000X1.600000*%
G04 #@! TD*
G04 #@! TA.AperFunction,ComponentPad*
%ADD16R,1.700000X1.700000*%
G04 #@! TD*
G04 #@! TA.AperFunction,ComponentPad*
%ADD17C,1.700000*%
G04 #@! TD*
G04 #@! TA.AperFunction,ViaPad*
%ADD18C,0.800000*%
G04 #@! TD*
G04 #@! TA.AperFunction,Conductor*
%ADD19C,0.250000*%
G04 #@! TD*
G04 APERTURE END LIST*
D10*
G04 #@! TA.AperFunction,EtchedComponent*
G36*
X167890000Y-123998000D02*
G01*
X167390000Y-123998000D01*
X167390000Y-123398000D01*
X167890000Y-123398000D01*
X167890000Y-123998000D01*
G37*
G04 #@! TD.AperFunction*
D11*
X166990000Y-123698000D03*
D12*
X168290000Y-123698000D03*
D13*
X193500000Y-102500000D03*
X193500000Y-110120000D03*
D14*
X189992000Y-123190000D03*
D15*
X189992000Y-120650000D03*
X189992000Y-118110000D03*
X189992000Y-115570000D03*
X189992000Y-113030000D03*
X189992000Y-110490000D03*
X189992000Y-107950000D03*
X182372000Y-107950000D03*
X182372000Y-110490000D03*
X182372000Y-113030000D03*
X182372000Y-115570000D03*
X182372000Y-118110000D03*
X182372000Y-120650000D03*
X182372000Y-123190000D03*
D14*
X155707000Y-119903000D03*
D15*
X155707000Y-117363000D03*
X155707000Y-114823000D03*
X155707000Y-112283000D03*
X155707000Y-109743000D03*
X155707000Y-107203000D03*
X155707000Y-104663000D03*
X155707000Y-102123000D03*
X155707000Y-99583000D03*
X155707000Y-97043000D03*
X155707000Y-94503000D03*
X155707000Y-91963000D03*
X155707000Y-89423000D03*
X155707000Y-86883000D03*
X140467000Y-86883000D03*
X140467000Y-89423000D03*
X140467000Y-91963000D03*
X140467000Y-94503000D03*
X140467000Y-97043000D03*
X140467000Y-99583000D03*
X140467000Y-102123000D03*
X140467000Y-104663000D03*
X140467000Y-107203000D03*
X140467000Y-109743000D03*
X140467000Y-112283000D03*
X140467000Y-114823000D03*
X140467000Y-117363000D03*
X140467000Y-119903000D03*
D14*
X159359000Y-119903000D03*
D15*
X159359000Y-117363000D03*
X159359000Y-114823000D03*
X159359000Y-112283000D03*
X159359000Y-109743000D03*
X159359000Y-107203000D03*
X159359000Y-104663000D03*
X159359000Y-102123000D03*
X159359000Y-99583000D03*
X159359000Y-97043000D03*
X159359000Y-94503000D03*
X159359000Y-91963000D03*
X159359000Y-89423000D03*
X159359000Y-86883000D03*
X144119000Y-86883000D03*
X144119000Y-89423000D03*
X144119000Y-91963000D03*
X144119000Y-94503000D03*
X144119000Y-97043000D03*
X144119000Y-99583000D03*
X144119000Y-102123000D03*
X144119000Y-104663000D03*
X144119000Y-107203000D03*
X144119000Y-109743000D03*
X144119000Y-112283000D03*
X144119000Y-114823000D03*
X144119000Y-117363000D03*
X144119000Y-119903000D03*
D14*
X189992000Y-104648000D03*
D15*
X189992000Y-102108000D03*
X189992000Y-99568000D03*
X189992000Y-97028000D03*
X189992000Y-94488000D03*
X189992000Y-91948000D03*
X189992000Y-89408000D03*
X189992000Y-86868000D03*
X182372000Y-86868000D03*
X182372000Y-89408000D03*
X182372000Y-91948000D03*
X182372000Y-94488000D03*
X182372000Y-97028000D03*
X182372000Y-99568000D03*
X182372000Y-102108000D03*
X182372000Y-104648000D03*
D11*
X173700000Y-123698000D03*
D12*
X175000000Y-123698000D03*
D16*
X193548000Y-120650000D03*
D17*
X193548000Y-118110000D03*
X193548000Y-115570000D03*
D13*
X146190000Y-123698000D03*
X153810000Y-123698000D03*
D14*
X178562000Y-119888000D03*
D15*
X178562000Y-117348000D03*
X178562000Y-114808000D03*
X178562000Y-112268000D03*
X178562000Y-109728000D03*
X178562000Y-107188000D03*
X178562000Y-104648000D03*
X178562000Y-102108000D03*
X178562000Y-99568000D03*
X178562000Y-97028000D03*
X178562000Y-94488000D03*
X178562000Y-91948000D03*
X178562000Y-89408000D03*
X178562000Y-86868000D03*
X163322000Y-86868000D03*
X163322000Y-89408000D03*
X163322000Y-91948000D03*
X163322000Y-94488000D03*
X163322000Y-97028000D03*
X163322000Y-99568000D03*
X163322000Y-102108000D03*
X163322000Y-104648000D03*
X163322000Y-107188000D03*
X163322000Y-109728000D03*
X163322000Y-112268000D03*
X163322000Y-114808000D03*
X163322000Y-117348000D03*
X163322000Y-119888000D03*
D16*
X193500000Y-94500000D03*
D17*
X193500000Y-97040000D03*
D18*
X195619000Y-120162600D03*
X192109000Y-99742900D03*
X142640800Y-121122500D03*
X164771100Y-120885300D03*
X184452400Y-104060900D03*
X184372400Y-117964500D03*
X143695500Y-123664600D03*
X184191000Y-113568100D03*
X184372400Y-110441700D03*
X184887100Y-108614700D03*
X158895700Y-85464500D03*
X195851700Y-108868400D03*
X195595000Y-97730000D03*
X194933000Y-86647000D03*
X191921000Y-96616500D03*
X186983500Y-123664600D03*
X191921000Y-94652100D03*
X165851400Y-123667800D03*
X179797300Y-85632700D03*
X165901200Y-124765300D03*
X165724100Y-117085900D03*
X166511400Y-119074200D03*
X161626000Y-100975400D03*
X161851600Y-95901300D03*
X165036500Y-92692100D03*
X152994800Y-98955900D03*
X186984000Y-118749300D03*
X180349900Y-105918000D03*
X180467000Y-101833600D03*
X186984000Y-105155600D03*
X175007000Y-115937400D03*
X176739300Y-103551800D03*
X180467000Y-99603100D03*
X180358300Y-100718300D03*
X170381100Y-122511100D03*
X193688000Y-92905400D03*
X184242400Y-93218000D03*
X184256900Y-98298000D03*
X171438500Y-97146400D03*
X191946000Y-110441700D03*
X180543700Y-123687500D03*
X192367500Y-111652700D03*
X180506500Y-111749900D03*
X180506500Y-115794200D03*
X176981600Y-122651800D03*
X191945000Y-115169500D03*
D19*
X143302300Y-121784000D02*
X189100800Y-121784000D01*
X189992000Y-99568000D02*
X191518700Y-99568000D01*
X192109000Y-99742900D02*
X191693600Y-99742900D01*
X189164100Y-121847300D02*
X194557800Y-121847300D01*
X195619000Y-120786100D02*
X195619000Y-120162600D01*
X194557800Y-121847300D02*
X195619000Y-120786100D01*
X142640800Y-121122500D02*
X143302300Y-121784000D01*
X189100800Y-121784000D02*
X189164100Y-121847300D01*
X191693600Y-99742900D02*
X191518700Y-99568000D01*
X191197300Y-119476000D02*
X181560000Y-119476000D01*
X166333000Y-117868100D02*
X165368800Y-117868100D01*
X181560000Y-119476000D02*
X180774500Y-118690500D01*
X167155400Y-118690500D02*
X166333000Y-117868100D01*
X180774500Y-118690500D02*
X167155400Y-118690500D01*
X192371300Y-120650000D02*
X191197300Y-119476000D01*
X163322000Y-117348000D02*
X164848700Y-117348000D01*
X193548000Y-120650000D02*
X192371300Y-120650000D01*
X165368800Y-117868100D02*
X164848700Y-117348000D01*
X153724200Y-120382200D02*
X146124900Y-120382200D01*
X188465300Y-113030000D02*
X187927200Y-113568100D01*
X144119000Y-119903000D02*
X145645700Y-119903000D01*
X184372400Y-110441700D02*
X183947000Y-110441700D01*
X184372400Y-117964500D02*
X184044200Y-117964500D01*
X144119000Y-119903000D02*
X140467000Y-119903000D01*
X184044200Y-117964500D02*
X183898700Y-118110000D01*
X161795300Y-119888000D02*
X161795300Y-120020600D01*
X184452400Y-104060900D02*
X185039400Y-103473900D01*
X146156600Y-123664600D02*
X146190000Y-123698000D01*
X154449300Y-121107400D02*
X153724200Y-120382300D01*
X187927200Y-113568100D02*
X184191000Y-113568100D01*
X164900500Y-121014700D02*
X164771100Y-120885300D01*
X146124900Y-120382200D02*
X145645700Y-119903000D01*
X185039400Y-103473900D02*
X192526100Y-103473900D01*
X182372000Y-120650000D02*
X180845300Y-120650000D01*
X182372000Y-118110000D02*
X183898700Y-118110000D01*
X180845300Y-120650000D02*
X180480600Y-121014700D01*
X153724200Y-120382300D02*
X153724200Y-120382200D01*
X182372000Y-110490000D02*
X183898700Y-110490000D01*
X192526100Y-103473900D02*
X193500000Y-102500000D01*
X160708500Y-121107400D02*
X154449300Y-121107400D01*
X163322000Y-119888000D02*
X161795300Y-119888000D01*
X184452400Y-104094300D02*
X183898700Y-104648000D01*
X161795300Y-120020600D02*
X160708500Y-121107400D01*
X184452400Y-104060900D02*
X184452400Y-104094300D01*
X183947000Y-110441700D02*
X183898700Y-110490000D01*
X189992000Y-113030000D02*
X188465300Y-113030000D01*
X143695500Y-123664600D02*
X146156600Y-123664600D01*
X180480600Y-121014700D02*
X164900500Y-121014700D01*
X182372000Y-104648000D02*
X183898700Y-104648000D01*
X191739700Y-86647000D02*
X191518700Y-86868000D01*
X195366700Y-97730000D02*
X194676700Y-97040000D01*
X165901200Y-124765300D02*
X165912100Y-124776200D01*
X195851700Y-108868400D02*
X194933300Y-107950000D01*
X178562000Y-86868000D02*
X177035300Y-86868000D01*
X173700000Y-124776200D02*
X173700000Y-123698000D01*
X158895700Y-85464500D02*
X175631800Y-85464500D01*
X190845300Y-95727800D02*
X191921000Y-94652100D01*
X185551800Y-107950000D02*
X184887100Y-108614700D01*
X192323300Y-97018800D02*
X192323300Y-97040000D01*
X193500000Y-97040000D02*
X192323300Y-97040000D01*
X188465300Y-86868000D02*
X187230000Y-85632700D01*
X191921000Y-96616500D02*
X192323300Y-97018800D01*
X189992000Y-107950000D02*
X185551800Y-107950000D01*
X194933300Y-107950000D02*
X189992000Y-107950000D01*
X187230000Y-85632700D02*
X179797300Y-85632700D01*
X193500000Y-97040000D02*
X194676700Y-97040000D01*
X195595000Y-97730000D02*
X195366700Y-97730000D01*
X175631800Y-85464500D02*
X177035300Y-86868000D01*
X166959800Y-123667800D02*
X166990000Y-123698000D01*
X182372000Y-97028000D02*
X183898700Y-97028000D01*
X165851400Y-123667800D02*
X166959800Y-123667800D01*
X183898700Y-97028000D02*
X185198900Y-95727800D01*
X185198900Y-95727800D02*
X190845300Y-95727800D01*
X173700000Y-124776200D02*
X185871900Y-124776200D01*
X159359000Y-86883000D02*
X155707000Y-86883000D01*
X189992000Y-86868000D02*
X188465300Y-86868000D01*
X185871900Y-124776200D02*
X186983500Y-123664600D01*
X194933000Y-86647000D02*
X191739700Y-86647000D01*
X189992000Y-86868000D02*
X191518700Y-86868000D01*
X165912100Y-124776200D02*
X173700000Y-124776200D01*
X155707000Y-117363000D02*
X159359000Y-117363000D01*
X162155700Y-118633000D02*
X166070200Y-118633000D01*
X166070200Y-118633000D02*
X166511400Y-119074200D01*
X159359000Y-117363000D02*
X160885700Y-117363000D01*
X165986200Y-117348000D02*
X165724100Y-117085900D01*
X178562000Y-117348000D02*
X165986200Y-117348000D01*
X160885700Y-117363000D02*
X162155700Y-118633000D01*
X159359000Y-114823000D02*
X160885700Y-114823000D01*
X162098200Y-113610500D02*
X175837800Y-113610500D01*
X175837800Y-113610500D02*
X177035300Y-114808000D01*
X160885700Y-114823000D02*
X162098200Y-113610500D01*
X155707000Y-114823000D02*
X159359000Y-114823000D01*
X178562000Y-114808000D02*
X177035300Y-114808000D01*
X159359000Y-112283000D02*
X160885700Y-112283000D01*
X162068100Y-111100600D02*
X175867900Y-111100600D01*
X160885700Y-112283000D02*
X162068100Y-111100600D01*
X178562000Y-112268000D02*
X177035300Y-112268000D01*
X155707000Y-112283000D02*
X159359000Y-112283000D01*
X175867900Y-111100600D02*
X177035300Y-112268000D01*
X175850700Y-108543400D02*
X162085300Y-108543400D01*
X162085300Y-108543400D02*
X160885700Y-109743000D01*
X159359000Y-109743000D02*
X160885700Y-109743000D01*
X159359000Y-109743000D02*
X155707000Y-109743000D01*
X177035300Y-109728000D02*
X175850700Y-108543400D01*
X178562000Y-109728000D02*
X177035300Y-109728000D01*
X155707000Y-107203000D02*
X159359000Y-107203000D01*
X162027400Y-106061300D02*
X164466700Y-106061300D01*
X165593400Y-107188000D02*
X178562000Y-107188000D01*
X159359000Y-107203000D02*
X160885700Y-107203000D01*
X160885700Y-107203000D02*
X162027400Y-106061300D01*
X164466700Y-106061300D02*
X165593400Y-107188000D01*
X162028400Y-103520300D02*
X175680200Y-103520300D01*
X178562000Y-104648000D02*
X177035300Y-104648000D01*
X159359000Y-104663000D02*
X160885700Y-104663000D01*
X176807900Y-104648000D02*
X177035300Y-104648000D01*
X155707000Y-104663000D02*
X159359000Y-104663000D01*
X160885700Y-104663000D02*
X162028400Y-103520300D01*
X175680200Y-103520300D02*
X176807900Y-104648000D01*
X161626000Y-100975400D02*
X175902700Y-100975400D01*
X159359000Y-102123000D02*
X155707000Y-102123000D01*
X175902700Y-100975400D02*
X177035300Y-102108000D01*
X178562000Y-102108000D02*
X177035300Y-102108000D01*
X174593300Y-98391500D02*
X175045000Y-98843200D01*
X178562000Y-99568000D02*
X177035300Y-99568000D01*
X155707000Y-99583000D02*
X157233700Y-99583000D01*
X157233700Y-99583000D02*
X159359000Y-99583000D01*
X159359000Y-99583000D02*
X160885700Y-99583000D01*
X162077200Y-98391500D02*
X174593300Y-98391500D01*
X176310500Y-98843200D02*
X177035300Y-99568000D01*
X175045000Y-98843200D02*
X176310500Y-98843200D01*
X160885700Y-99583000D02*
X162077200Y-98391500D01*
X178562000Y-97028000D02*
X177035300Y-97028000D01*
X175908600Y-95901300D02*
X161851600Y-95901300D01*
X155707000Y-97043000D02*
X159359000Y-97043000D01*
X177035300Y-97028000D02*
X175908600Y-95901300D01*
X155707000Y-94503000D02*
X159359000Y-94503000D01*
X164665200Y-93348400D02*
X165804800Y-94488000D01*
X178562000Y-94488000D02*
X177035300Y-94488000D01*
X160885700Y-94503000D02*
X162040300Y-93348400D01*
X159359000Y-94503000D02*
X160885700Y-94503000D01*
X162040300Y-93348400D02*
X164665200Y-93348400D01*
X165804800Y-94488000D02*
X177035300Y-94488000D01*
X175837800Y-90750500D02*
X177035300Y-91948000D01*
X159359000Y-91963000D02*
X161107000Y-91963000D01*
X155707000Y-91963000D02*
X159359000Y-91963000D01*
X161107000Y-91963000D02*
X162319500Y-90750500D01*
X178562000Y-91948000D02*
X177035300Y-91948000D01*
X162319500Y-90750500D02*
X175837800Y-90750500D01*
X155707000Y-89423000D02*
X159359000Y-89423000D01*
X161000600Y-89423000D02*
X162206100Y-88217500D01*
X162206100Y-88217500D02*
X175844800Y-88217500D01*
X159359000Y-89423000D02*
X161000600Y-89423000D01*
X178562000Y-89408000D02*
X177035300Y-89408000D01*
X175844800Y-88217500D02*
X177035300Y-89408000D01*
X146836200Y-88073500D02*
X145645700Y-86883000D01*
X163322000Y-86868000D02*
X161795300Y-86868000D01*
X144119000Y-86883000D02*
X145645700Y-86883000D01*
X160589800Y-88073500D02*
X146836200Y-88073500D01*
X140467000Y-86883000D02*
X144119000Y-86883000D01*
X161795300Y-86868000D02*
X160589800Y-88073500D01*
X160589800Y-90613500D02*
X146836200Y-90613500D01*
X146836200Y-90613500D02*
X145645700Y-89423000D01*
X163322000Y-89408000D02*
X161795300Y-89408000D01*
X144119000Y-89423000D02*
X145645700Y-89423000D01*
X140467000Y-89423000D02*
X144119000Y-89423000D01*
X161795300Y-89408000D02*
X160589800Y-90613500D01*
X160589800Y-93153500D02*
X146836200Y-93153500D01*
X163322000Y-91948000D02*
X161795300Y-91948000D01*
X140467000Y-91963000D02*
X144119000Y-91963000D01*
X161795300Y-91948000D02*
X160589800Y-93153500D01*
X144119000Y-91963000D02*
X145645700Y-91963000D01*
X146836200Y-93153500D02*
X145645700Y-91963000D01*
X160649100Y-95634200D02*
X146776900Y-95634200D01*
X144119000Y-94503000D02*
X145645700Y-94503000D01*
X144119000Y-94503000D02*
X140467000Y-94503000D01*
X146776900Y-95634200D02*
X145645700Y-94503000D01*
X161795300Y-94488000D02*
X160649100Y-95634200D01*
X163322000Y-94488000D02*
X161795300Y-94488000D01*
X161795300Y-97028000D02*
X160622900Y-98200400D01*
X163322000Y-97028000D02*
X161795300Y-97028000D01*
X140467000Y-97043000D02*
X144119000Y-97043000D01*
X160622900Y-98200400D02*
X146803100Y-98200400D01*
X144119000Y-97043000D02*
X145645700Y-97043000D01*
X146803100Y-98200400D02*
X145645700Y-97043000D01*
X140467000Y-99583000D02*
X141993700Y-99583000D01*
X180845300Y-91948000D02*
X179677300Y-93116000D01*
X145161400Y-98425400D02*
X145691900Y-98955900D01*
X165460400Y-93116000D02*
X165036500Y-92692100D01*
X182372000Y-91948000D02*
X180845300Y-91948000D01*
X143151300Y-98425400D02*
X145161400Y-98425400D01*
X179677300Y-93116000D02*
X165460400Y-93116000D01*
X141993700Y-99583000D02*
X143151300Y-98425400D01*
X145691900Y-98955900D02*
X152994800Y-98955900D01*
X163322000Y-102108000D02*
X161795300Y-102108000D01*
X140467000Y-102123000D02*
X144119000Y-102123000D01*
X160363400Y-100995600D02*
X161475800Y-102108000D01*
X146773100Y-100995600D02*
X160363400Y-100995600D01*
X144119000Y-102123000D02*
X145645700Y-102123000D01*
X161475800Y-102108000D02*
X161795300Y-102108000D01*
X145645700Y-102123000D02*
X146773100Y-100995600D01*
X143130900Y-105800200D02*
X160643100Y-105800200D01*
X187957700Y-105155600D02*
X186984000Y-105155600D01*
X180349900Y-105918000D02*
X166118700Y-105918000D01*
X180467000Y-101833600D02*
X180570900Y-101833600D01*
X163322000Y-104648000D02*
X164848700Y-104648000D01*
X141993700Y-104663000D02*
X143130900Y-105800200D01*
X182372000Y-102108000D02*
X180845300Y-102108000D01*
X162558700Y-104648000D02*
X161795300Y-104648000D01*
X187623300Y-118110000D02*
X186984000Y-118749300D01*
X166118700Y-105918000D02*
X164848700Y-104648000D01*
X162558700Y-104648000D02*
X163322000Y-104648000D01*
X180570900Y-101833600D02*
X180845300Y-102108000D01*
X140467000Y-104663000D02*
X141993700Y-104663000D01*
X160643100Y-105800200D02*
X161795300Y-104648000D01*
X188465300Y-104648000D02*
X187957700Y-105155600D01*
X189992000Y-118110000D02*
X187623300Y-118110000D01*
X189992000Y-104648000D02*
X188465300Y-104648000D01*
X186221600Y-105918000D02*
X180349900Y-105918000D01*
X186984000Y-105155600D02*
X186221600Y-105918000D01*
X144119000Y-107203000D02*
X145645700Y-107203000D01*
X160589800Y-108393500D02*
X146836200Y-108393500D01*
X163322000Y-107188000D02*
X161795300Y-107188000D01*
X140467000Y-107203000D02*
X144119000Y-107203000D01*
X146836200Y-108393500D02*
X145645700Y-107203000D01*
X161795300Y-107188000D02*
X160589800Y-108393500D01*
X145645700Y-109743000D02*
X146836300Y-110933600D01*
X146836300Y-110933600D02*
X160589700Y-110933600D01*
X160589700Y-110933600D02*
X161795300Y-109728000D01*
X144119000Y-109743000D02*
X145645700Y-109743000D01*
X163322000Y-109728000D02*
X161795300Y-109728000D01*
X140467000Y-109743000D02*
X144119000Y-109743000D01*
X160632100Y-113431200D02*
X161795300Y-112268000D01*
X145645700Y-112283000D02*
X146793900Y-113431200D01*
X144119000Y-112283000D02*
X145645700Y-112283000D01*
X146793900Y-113431200D02*
X160632100Y-113431200D01*
X163322000Y-112268000D02*
X161795300Y-112268000D01*
X140467000Y-112283000D02*
X144119000Y-112283000D01*
X184682000Y-102108000D02*
X183326400Y-103463600D01*
X144119000Y-114823000D02*
X145645700Y-114823000D01*
X175007000Y-115937400D02*
X174929300Y-116015100D01*
X146837800Y-116015100D02*
X145645700Y-114823000D01*
X176827500Y-103463600D02*
X176739300Y-103551800D01*
X140467000Y-114823000D02*
X144119000Y-114823000D01*
X174929300Y-116015100D02*
X146837800Y-116015100D01*
X183326400Y-103463600D02*
X176827500Y-103463600D01*
X189992000Y-102108000D02*
X184682000Y-102108000D01*
X185925300Y-99568000D02*
X188465300Y-97028000D01*
X176776500Y-100718300D02*
X180358300Y-100718300D01*
X182372000Y-99568000D02*
X183898700Y-99568000D01*
X180810200Y-99603100D02*
X180845300Y-99568000D01*
X189992000Y-97028000D02*
X188465300Y-97028000D01*
X183898700Y-99568000D02*
X185925300Y-99568000D01*
X175626200Y-99568000D02*
X176776500Y-100718300D01*
X164848700Y-99568000D02*
X175626200Y-99568000D01*
X163322000Y-99568000D02*
X164848700Y-99568000D01*
X182372000Y-99568000D02*
X180845300Y-99568000D01*
X180467000Y-99603100D02*
X180810200Y-99603100D01*
X174305200Y-97146400D02*
X171438500Y-97146400D01*
X156123600Y-122511100D02*
X170381100Y-122511100D01*
X153810000Y-123698000D02*
X154936700Y-123698000D01*
X184256900Y-98298000D02*
X175456800Y-98298000D01*
X175456800Y-98298000D02*
X174305200Y-97146400D01*
X193688000Y-92905400D02*
X193375400Y-93218000D01*
X154936700Y-123698000D02*
X156123600Y-122511100D01*
X193375400Y-93218000D02*
X184242400Y-93218000D01*
X163322000Y-114808000D02*
X175514000Y-114808000D01*
X193500000Y-110120000D02*
X193178300Y-110441700D01*
X175000000Y-123698000D02*
X180533200Y-123698000D01*
X193178300Y-110441700D02*
X191946000Y-110441700D01*
X180356400Y-115944300D02*
X180506500Y-115794200D01*
X180533200Y-123698000D02*
X180543700Y-123687500D01*
X192270300Y-111749900D02*
X192367500Y-111652700D01*
X180506500Y-111749900D02*
X192270300Y-111749900D01*
X176650300Y-115944300D02*
X180356400Y-115944300D01*
X175514000Y-114808000D02*
X176650300Y-115944300D01*
X171286700Y-123698000D02*
X168290000Y-123698000D01*
X172428600Y-122556100D02*
X171286700Y-123698000D01*
X176981600Y-122651800D02*
X176885900Y-122556100D01*
X176885900Y-122556100D02*
X172428600Y-122556100D01*
X192345500Y-115570000D02*
X191945000Y-115169500D01*
X193548000Y-115570000D02*
X192345500Y-115570000D01*
G04 #@! TA.AperFunction,Conductor*
G36*
X188319341Y-93871185D02*
G01*
X188365096Y-93923989D01*
X188375040Y-93993147D01*
X188370233Y-94013818D01*
X188315720Y-94181587D01*
X188315720Y-94181590D01*
X188283500Y-94385019D01*
X188283500Y-94590980D01*
X188315719Y-94794408D01*
X188379367Y-94990294D01*
X188428900Y-95087505D01*
X188467690Y-95163635D01*
X188472873Y-95173806D01*
X188593926Y-95340423D01*
X188593930Y-95340428D01*
X188739571Y-95486069D01*
X188739576Y-95486073D01*
X188906195Y-95607128D01*
X188985459Y-95647516D01*
X189036254Y-95695490D01*
X189053049Y-95763311D01*
X189030511Y-95829446D01*
X188985459Y-95868484D01*
X188906195Y-95908871D01*
X188739576Y-96029926D01*
X188739571Y-96029930D01*
X188593930Y-96175571D01*
X188593926Y-96175576D01*
X188470007Y-96346138D01*
X188468497Y-96345041D01*
X188422558Y-96386565D01*
X188392886Y-96396492D01*
X188280520Y-96418843D01*
X188280514Y-96418845D01*
X188171828Y-96463864D01*
X188171828Y-96463865D01*
X188166187Y-96466201D01*
X188165220Y-96466602D01*
X188061467Y-96535928D01*
X188061463Y-96535931D01*
X185699215Y-98898181D01*
X185637892Y-98931666D01*
X185611534Y-98934500D01*
X185156236Y-98934500D01*
X185089197Y-98914815D01*
X185043442Y-98862011D01*
X185033498Y-98792853D01*
X185053134Y-98741610D01*
X185061995Y-98728347D01*
X185061996Y-98728344D01*
X185062002Y-98728336D01*
X185130487Y-98563000D01*
X185165400Y-98387479D01*
X185165400Y-98208521D01*
X185130487Y-98033000D01*
X185062002Y-97867664D01*
X185062000Y-97867661D01*
X185061998Y-97867657D01*
X184962578Y-97718865D01*
X184962575Y-97718861D01*
X184836038Y-97592324D01*
X184836034Y-97592321D01*
X184687242Y-97492901D01*
X184687232Y-97492896D01*
X184521900Y-97424413D01*
X184521892Y-97424411D01*
X184346383Y-97389500D01*
X184346379Y-97389500D01*
X184176135Y-97389500D01*
X184109096Y-97369815D01*
X184063341Y-97317011D01*
X184059578Y-97290842D01*
X184048610Y-97278000D01*
X182687686Y-97278000D01*
X182692080Y-97273606D01*
X182744741Y-97182394D01*
X182772000Y-97080661D01*
X182772000Y-96975339D01*
X182744741Y-96873606D01*
X182692080Y-96782394D01*
X182687686Y-96778000D01*
X184048609Y-96778000D01*
X184039990Y-96723586D01*
X183976755Y-96528970D01*
X183883859Y-96346650D01*
X183763582Y-96181105D01*
X183763582Y-96181104D01*
X183618895Y-96036417D01*
X183453349Y-95916140D01*
X183369180Y-95873254D01*
X183318384Y-95825280D01*
X183301589Y-95757459D01*
X183324126Y-95691324D01*
X183369179Y-95652284D01*
X183457803Y-95607129D01*
X183624430Y-95486068D01*
X183770068Y-95340430D01*
X183891129Y-95173803D01*
X183984634Y-94990290D01*
X184048280Y-94794408D01*
X184080500Y-94590981D01*
X184080500Y-94385019D01*
X184062266Y-94269896D01*
X184071220Y-94200605D01*
X184116216Y-94147153D01*
X184182968Y-94126513D01*
X184184739Y-94126500D01*
X184331880Y-94126500D01*
X184331881Y-94126499D01*
X184507400Y-94091587D01*
X184672736Y-94023102D01*
X184821535Y-93923678D01*
X184857393Y-93887820D01*
X184918715Y-93854334D01*
X184945075Y-93851500D01*
X188252302Y-93851500D01*
X188319341Y-93871185D01*
G37*
G04 #@! TD.AperFunction*
G04 #@! TA.AperFunction,Conductor*
G36*
X180948326Y-92815144D02*
G01*
X180974685Y-92817030D01*
X180983738Y-92822848D01*
X180990779Y-92824380D01*
X181019033Y-92845531D01*
X181119571Y-92946069D01*
X181119576Y-92946073D01*
X181286195Y-93067128D01*
X181365459Y-93107516D01*
X181416254Y-93155490D01*
X181433049Y-93223311D01*
X181410511Y-93289446D01*
X181365459Y-93328484D01*
X181286195Y-93368871D01*
X181119576Y-93489926D01*
X181119571Y-93489930D01*
X180973930Y-93635571D01*
X180973926Y-93635576D01*
X180852873Y-93802193D01*
X180759367Y-93985705D01*
X180695719Y-94181591D01*
X180663500Y-94385019D01*
X180663500Y-94590980D01*
X180695719Y-94794408D01*
X180759367Y-94990294D01*
X180808900Y-95087505D01*
X180847690Y-95163635D01*
X180852873Y-95173806D01*
X180973926Y-95340423D01*
X180973930Y-95340428D01*
X181119571Y-95486069D01*
X181119576Y-95486073D01*
X181264908Y-95591661D01*
X181286197Y-95607129D01*
X181374819Y-95652284D01*
X181425615Y-95700259D01*
X181442410Y-95768080D01*
X181419873Y-95834214D01*
X181374819Y-95873254D01*
X181290650Y-95916140D01*
X181125105Y-96036417D01*
X181125104Y-96036417D01*
X180980417Y-96181104D01*
X180980417Y-96181105D01*
X180860140Y-96346650D01*
X180767244Y-96528970D01*
X180704009Y-96723586D01*
X180695391Y-96778000D01*
X182056314Y-96778000D01*
X182051920Y-96782394D01*
X181999259Y-96873606D01*
X181972000Y-96975339D01*
X181972000Y-97080661D01*
X181999259Y-97182394D01*
X182051920Y-97273606D01*
X182056314Y-97278000D01*
X180695391Y-97278000D01*
X180704009Y-97332411D01*
X180759171Y-97502181D01*
X180761166Y-97572023D01*
X180725086Y-97631856D01*
X180662385Y-97662684D01*
X180641240Y-97664500D01*
X180301698Y-97664500D01*
X180234659Y-97644815D01*
X180188904Y-97592011D01*
X180178960Y-97522853D01*
X180183767Y-97502182D01*
X180238279Y-97334412D01*
X180238279Y-97334411D01*
X180238280Y-97334408D01*
X180270500Y-97130981D01*
X180270500Y-96925019D01*
X180238280Y-96721591D01*
X180207280Y-96626185D01*
X180174634Y-96525710D01*
X180174632Y-96525707D01*
X180174632Y-96525705D01*
X180120182Y-96418843D01*
X180081129Y-96342197D01*
X180027004Y-96267700D01*
X179960073Y-96175576D01*
X179960069Y-96175571D01*
X179814428Y-96029930D01*
X179814423Y-96029926D01*
X179647806Y-95908873D01*
X179647805Y-95908872D01*
X179647803Y-95908871D01*
X179568540Y-95868484D01*
X179517745Y-95820510D01*
X179500950Y-95752689D01*
X179523487Y-95686554D01*
X179568541Y-95647515D01*
X179647803Y-95607129D01*
X179814430Y-95486068D01*
X179960068Y-95340430D01*
X180081129Y-95173803D01*
X180174634Y-94990290D01*
X180238280Y-94794408D01*
X180270500Y-94590981D01*
X180270500Y-94385019D01*
X180238280Y-94181591D01*
X180208749Y-94090707D01*
X180174634Y-93985710D01*
X180174632Y-93985707D01*
X180174632Y-93985705D01*
X180122883Y-93884144D01*
X180081129Y-93802197D01*
X180070087Y-93786999D01*
X180061487Y-93775161D01*
X180038007Y-93709355D01*
X180053833Y-93641301D01*
X180077541Y-93613094D01*
X180076826Y-93612379D01*
X180456204Y-93233000D01*
X180843673Y-92845529D01*
X180851616Y-92841192D01*
X180857042Y-92833945D01*
X180881801Y-92824710D01*
X180904994Y-92812046D01*
X180914023Y-92812691D01*
X180922506Y-92809528D01*
X180948326Y-92815144D01*
G37*
G04 #@! TD.AperFunction*
G04 #@! TA.AperFunction,Conductor*
G36*
X196792539Y-84856185D02*
G01*
X196838294Y-84908989D01*
X196849500Y-84960500D01*
X196849500Y-125351500D01*
X196829815Y-125418539D01*
X196777011Y-125464294D01*
X196725500Y-125475500D01*
X138300500Y-125475500D01*
X138233461Y-125455815D01*
X138187706Y-125403011D01*
X138176500Y-125351500D01*
X138176500Y-86780019D01*
X138758500Y-86780019D01*
X138758500Y-86985980D01*
X138790719Y-87189408D01*
X138854367Y-87385294D01*
X138882242Y-87440000D01*
X138945584Y-87564315D01*
X138947873Y-87568806D01*
X139068926Y-87735423D01*
X139068930Y-87735428D01*
X139214571Y-87881069D01*
X139214576Y-87881073D01*
X139381195Y-88002128D01*
X139460459Y-88042516D01*
X139511254Y-88090490D01*
X139528049Y-88158311D01*
X139505511Y-88224446D01*
X139460459Y-88263484D01*
X139381195Y-88303871D01*
X139214576Y-88424926D01*
X139214571Y-88424930D01*
X139068930Y-88570571D01*
X139068926Y-88570576D01*
X138947873Y-88737193D01*
X138854367Y-88920705D01*
X138790719Y-89116591D01*
X138758500Y-89320019D01*
X138758500Y-89525980D01*
X138790719Y-89729408D01*
X138854367Y-89925294D01*
X138947873Y-90108806D01*
X139068926Y-90275423D01*
X139068930Y-90275428D01*
X139214571Y-90421069D01*
X139214576Y-90421073D01*
X139381195Y-90542128D01*
X139460459Y-90582516D01*
X139511254Y-90630490D01*
X139528049Y-90698311D01*
X139505511Y-90764446D01*
X139460459Y-90803484D01*
X139381195Y-90843871D01*
X139214576Y-90964926D01*
X139214571Y-90964930D01*
X139068930Y-91110571D01*
X139068926Y-91110576D01*
X138947873Y-91277193D01*
X138854367Y-91460705D01*
X138790719Y-91656591D01*
X138758500Y-91860019D01*
X138758500Y-92065980D01*
X138790719Y-92269408D01*
X138854367Y-92465294D01*
X138915067Y-92584421D01*
X138943589Y-92640400D01*
X138947873Y-92648806D01*
X139068926Y-92815423D01*
X139068930Y-92815428D01*
X139214571Y-92961069D01*
X139214576Y-92961073D01*
X139381195Y-93082128D01*
X139460459Y-93122516D01*
X139511254Y-93170490D01*
X139528049Y-93238311D01*
X139505511Y-93304446D01*
X139460459Y-93343484D01*
X139381195Y-93383871D01*
X139214576Y-93504926D01*
X139214571Y-93504930D01*
X139068930Y-93650571D01*
X139068926Y-93650576D01*
X138947873Y-93817193D01*
X138854367Y-94000705D01*
X138790719Y-94196591D01*
X138758500Y-94400019D01*
X138758500Y-94605980D01*
X138790719Y-94809408D01*
X138854367Y-95005294D01*
X138947873Y-95188806D01*
X139068926Y-95355423D01*
X139068930Y-95355428D01*
X139214571Y-95501069D01*
X139214576Y-95501073D01*
X139381195Y-95622128D01*
X139460459Y-95662516D01*
X139511254Y-95710490D01*
X139528049Y-95778311D01*
X139505511Y-95844446D01*
X139460459Y-95883484D01*
X139381195Y-95923871D01*
X139214576Y-96044926D01*
X139214571Y-96044930D01*
X139068930Y-96190571D01*
X139068926Y-96190576D01*
X138947873Y-96357193D01*
X138854367Y-96540705D01*
X138790719Y-96736591D01*
X138758500Y-96940019D01*
X138758500Y-97145980D01*
X138790719Y-97349408D01*
X138854367Y-97545294D01*
X138914946Y-97664184D01*
X138942807Y-97718865D01*
X138947873Y-97728806D01*
X139068926Y-97895423D01*
X139068930Y-97895428D01*
X139214571Y-98041069D01*
X139214576Y-98041073D01*
X139381195Y-98162128D01*
X139460459Y-98202516D01*
X139511254Y-98250490D01*
X139528049Y-98318311D01*
X139505511Y-98384446D01*
X139460459Y-98423484D01*
X139381195Y-98463871D01*
X139214576Y-98584926D01*
X139214571Y-98584930D01*
X139068930Y-98730571D01*
X139068926Y-98730576D01*
X138947873Y-98897193D01*
X138854367Y-99080705D01*
X138790719Y-99276591D01*
X138758500Y-99480019D01*
X138758500Y-99685981D01*
X138762905Y-99713794D01*
X138790719Y-99889408D01*
X138854367Y-100085294D01*
X138947873Y-100268806D01*
X139068926Y-100435423D01*
X139068930Y-100435428D01*
X139214571Y-100581069D01*
X139214576Y-100581073D01*
X139381195Y-100702128D01*
X139460459Y-100742516D01*
X139511254Y-100790490D01*
X139528049Y-100858311D01*
X139505511Y-100924446D01*
X139460459Y-100963484D01*
X139381195Y-101003871D01*
X139214576Y-101124926D01*
X139214571Y-101124930D01*
X139068930Y-101270571D01*
X139068926Y-101270576D01*
X138947873Y-101437193D01*
X138854367Y-101620705D01*
X138790719Y-101816591D01*
X138758500Y-102020019D01*
X138758500Y-102225980D01*
X138790719Y-102429408D01*
X138854367Y-102625294D01*
X138916226Y-102746696D01*
X138927035Y-102767911D01*
X138947873Y-102808806D01*
X139068926Y-102975423D01*
X139068930Y-102975428D01*
X139214571Y-103121069D01*
X139214576Y-103121073D01*
X139381195Y-103242128D01*
X139460459Y-103282516D01*
X139511254Y-103330490D01*
X139528049Y-103398311D01*
X139505511Y-103464446D01*
X139460459Y-103503484D01*
X139381195Y-103543871D01*
X139214576Y-103664926D01*
X139214571Y-103664930D01*
X139068930Y-103810571D01*
X139068926Y-103810576D01*
X138947873Y-103977193D01*
X138854367Y-104160705D01*
X138790719Y-104356591D01*
X138758500Y-104560019D01*
X138758500Y-104765980D01*
X138790719Y-104969408D01*
X138854367Y-105165294D01*
X138947873Y-105348806D01*
X139068926Y-105515423D01*
X139068930Y-105515428D01*
X139214571Y-105661069D01*
X139214576Y-105661073D01*
X139381195Y-105782128D01*
X139460459Y-105822516D01*
X139511254Y-105870490D01*
X139528049Y-105938311D01*
X139505511Y-106004446D01*
X139460459Y-106043484D01*
X139381195Y-106083871D01*
X139214576Y-106204926D01*
X139214571Y-106204930D01*
X139068930Y-106350571D01*
X139068926Y-106350576D01*
X138947873Y-106517193D01*
X138854367Y-106700705D01*
X138790719Y-106896591D01*
X138758500Y-107100019D01*
X138758500Y-107305980D01*
X138790719Y-107509408D01*
X138854367Y-107705294D01*
X138947873Y-107888806D01*
X139068926Y-108055423D01*
X139068930Y-108055428D01*
X139214571Y-108201069D01*
X139214576Y-108201073D01*
X139381195Y-108322128D01*
X139460459Y-108362516D01*
X139511254Y-108410490D01*
X139528049Y-108478311D01*
X139505511Y-108544446D01*
X139460459Y-108583484D01*
X139381195Y-108623871D01*
X139214576Y-108744926D01*
X139214571Y-108744930D01*
X139068930Y-108890571D01*
X139068926Y-108890576D01*
X138947873Y-109057193D01*
X138854367Y-109240705D01*
X138790719Y-109436591D01*
X138758500Y-109640019D01*
X138758500Y-109845980D01*
X138790719Y-110049408D01*
X138854367Y-110245294D01*
X138947873Y-110428806D01*
X139068926Y-110595423D01*
X139068930Y-110595428D01*
X139214571Y-110741069D01*
X139214576Y-110741073D01*
X139381195Y-110862128D01*
X139460459Y-110902516D01*
X139511254Y-110950490D01*
X139528049Y-111018311D01*
X139505511Y-111084446D01*
X139460459Y-111123484D01*
X139381195Y-111163871D01*
X139214576Y-111284926D01*
X139214571Y-111284930D01*
X139068930Y-111430571D01*
X139068926Y-111430576D01*
X138947873Y-111597193D01*
X138854367Y-111780705D01*
X138790719Y-111976591D01*
X138758500Y-112180019D01*
X138758500Y-112385980D01*
X138790719Y-112589408D01*
X138854367Y-112785294D01*
X138947873Y-112968806D01*
X139068926Y-113135423D01*
X139068930Y-113135428D01*
X139214571Y-113281069D01*
X139214576Y-113281073D01*
X139381195Y-113402128D01*
X139460459Y-113442516D01*
X139511254Y-113490490D01*
X139528049Y-113558311D01*
X139505511Y-113624446D01*
X139460459Y-113663484D01*
X139381195Y-113703871D01*
X139214576Y-113824926D01*
X139214571Y-113824930D01*
X139068930Y-113970571D01*
X139068926Y-113970576D01*
X138947873Y-114137193D01*
X138854367Y-114320705D01*
X138790719Y-114516591D01*
X138758500Y-114720019D01*
X138758500Y-114925980D01*
X138790719Y-115129408D01*
X138854367Y-115325294D01*
X138947873Y-115508806D01*
X139068926Y-115675423D01*
X139068930Y-115675428D01*
X139214571Y-115821069D01*
X139214576Y-115821073D01*
X139381195Y-115942128D01*
X139460459Y-115982516D01*
X139511254Y-116030490D01*
X139528049Y-116098311D01*
X139505511Y-116164446D01*
X139460459Y-116203484D01*
X139381195Y-116243871D01*
X139214576Y-116364926D01*
X139214571Y-116364930D01*
X139068930Y-116510571D01*
X139068926Y-116510576D01*
X138947873Y-116677193D01*
X138854367Y-116860705D01*
X138790719Y-117056591D01*
X138758500Y-117260019D01*
X138758500Y-117465980D01*
X138790719Y-117669408D01*
X138854367Y-117865294D01*
X138894573Y-117944201D01*
X138945232Y-118043624D01*
X138947873Y-118048806D01*
X139068926Y-118215423D01*
X139068930Y-118215428D01*
X139214571Y-118361069D01*
X139214576Y-118361073D01*
X139381195Y-118482128D01*
X139460459Y-118522516D01*
X139511254Y-118570490D01*
X139528049Y-118638311D01*
X139505511Y-118704446D01*
X139460459Y-118743484D01*
X139381195Y-118783871D01*
X139214576Y-118904926D01*
X139214571Y-118904930D01*
X139068930Y-119050571D01*
X139068926Y-119050576D01*
X138947873Y-119217193D01*
X138854367Y-119400705D01*
X138790719Y-119596591D01*
X138761690Y-119779878D01*
X138758500Y-119800019D01*
X138758500Y-120005981D01*
X138759265Y-120010810D01*
X138790719Y-120209408D01*
X138854367Y-120405294D01*
X138947873Y-120588806D01*
X139068926Y-120755423D01*
X139068930Y-120755428D01*
X139214571Y-120901069D01*
X139214576Y-120901073D01*
X139328261Y-120983669D01*
X139381197Y-121022129D01*
X139490871Y-121078011D01*
X139564705Y-121115632D01*
X139564707Y-121115632D01*
X139564710Y-121115634D01*
X139618219Y-121133020D01*
X139760591Y-121179280D01*
X139862305Y-121195390D01*
X139964019Y-121211500D01*
X139964020Y-121211500D01*
X140969980Y-121211500D01*
X140969981Y-121211500D01*
X141173408Y-121179280D01*
X141369290Y-121115634D01*
X141552006Y-121022534D01*
X141620674Y-121009639D01*
X141685414Y-121035915D01*
X141725672Y-121093021D01*
X141732300Y-121133020D01*
X141732300Y-121211983D01*
X141767211Y-121387492D01*
X141767213Y-121387500D01*
X141835696Y-121552832D01*
X141835701Y-121552842D01*
X141935121Y-121701634D01*
X141935124Y-121701638D01*
X142061661Y-121828175D01*
X142061665Y-121828178D01*
X142210457Y-121927598D01*
X142210461Y-121927600D01*
X142210464Y-121927602D01*
X142375800Y-121996087D01*
X142551316Y-122030999D01*
X142551320Y-122031000D01*
X142551321Y-122031000D01*
X142602034Y-122031000D01*
X142669073Y-122050685D01*
X142689715Y-122067319D01*
X142898463Y-122276068D01*
X142898467Y-122276071D01*
X143002218Y-122345396D01*
X143002224Y-122345399D01*
X143002225Y-122345400D01*
X143117515Y-122393155D01*
X143239901Y-122417499D01*
X143239905Y-122417500D01*
X143239906Y-122417500D01*
X143364693Y-122417500D01*
X145344671Y-122417500D01*
X145411710Y-122437185D01*
X145457465Y-122489989D01*
X145467409Y-122559147D01*
X145438384Y-122622703D01*
X145417556Y-122641818D01*
X145337576Y-122699926D01*
X145337571Y-122699930D01*
X145191930Y-122845571D01*
X145191926Y-122845576D01*
X145094273Y-122979985D01*
X145038943Y-123022651D01*
X144993955Y-123031100D01*
X144398175Y-123031100D01*
X144331136Y-123011415D01*
X144310493Y-122994780D01*
X144274638Y-122958924D01*
X144274634Y-122958921D01*
X144125842Y-122859501D01*
X144125832Y-122859496D01*
X143960500Y-122791013D01*
X143960492Y-122791011D01*
X143784983Y-122756100D01*
X143784979Y-122756100D01*
X143606021Y-122756100D01*
X143606016Y-122756100D01*
X143430507Y-122791011D01*
X143430499Y-122791013D01*
X143265167Y-122859496D01*
X143265157Y-122859501D01*
X143116365Y-122958921D01*
X143116361Y-122958924D01*
X142989824Y-123085461D01*
X142989821Y-123085465D01*
X142890401Y-123234257D01*
X142890396Y-123234267D01*
X142821913Y-123399599D01*
X142821911Y-123399607D01*
X142787000Y-123575116D01*
X142787000Y-123754083D01*
X142821911Y-123929592D01*
X142821913Y-123929600D01*
X142890396Y-124094932D01*
X142890401Y-124094942D01*
X142989821Y-124243734D01*
X142989824Y-124243738D01*
X143116361Y-124370275D01*
X143116365Y-124370278D01*
X143265157Y-124469698D01*
X143265161Y-124469700D01*
X143265164Y-124469702D01*
X143430500Y-124538187D01*
X143606016Y-124573099D01*
X143606020Y-124573100D01*
X143606021Y-124573100D01*
X143784980Y-124573100D01*
X143784981Y-124573099D01*
X143960500Y-124538187D01*
X144125836Y-124469702D01*
X144274635Y-124370278D01*
X144310493Y-124334420D01*
X144371815Y-124300934D01*
X144398175Y-124298100D01*
X144951216Y-124298100D01*
X145018255Y-124317785D01*
X145061701Y-124365806D01*
X145070871Y-124383804D01*
X145191926Y-124550423D01*
X145191930Y-124550428D01*
X145337571Y-124696069D01*
X145337576Y-124696073D01*
X145470704Y-124792795D01*
X145504197Y-124817129D01*
X145585653Y-124858633D01*
X145687705Y-124910632D01*
X145687707Y-124910632D01*
X145687710Y-124910634D01*
X145780244Y-124940700D01*
X145883591Y-124974280D01*
X145985305Y-124990390D01*
X146087019Y-125006500D01*
X146087020Y-125006500D01*
X146292980Y-125006500D01*
X146292981Y-125006500D01*
X146496408Y-124974280D01*
X146692290Y-124910634D01*
X146693682Y-124909925D01*
X146696927Y-124908271D01*
X146875803Y-124817129D01*
X147042430Y-124696068D01*
X147188068Y-124550430D01*
X147309129Y-124383803D01*
X147402634Y-124200290D01*
X147466280Y-124004408D01*
X147498500Y-123800981D01*
X147498500Y-123595019D01*
X147482881Y-123496408D01*
X147466280Y-123391591D01*
X147415161Y-123234264D01*
X147402634Y-123195710D01*
X147402632Y-123195707D01*
X147402632Y-123195705D01*
X147346459Y-123085461D01*
X147309129Y-123012197D01*
X147244217Y-122922853D01*
X147188073Y-122845576D01*
X147188069Y-122845571D01*
X147042428Y-122699930D01*
X147042423Y-122699926D01*
X146962444Y-122641818D01*
X146919778Y-122586488D01*
X146913799Y-122516875D01*
X146946404Y-122455080D01*
X147007243Y-122420723D01*
X147035329Y-122417500D01*
X152964671Y-122417500D01*
X153031710Y-122437185D01*
X153077465Y-122489989D01*
X153087409Y-122559147D01*
X153058384Y-122622703D01*
X153037556Y-122641818D01*
X152957576Y-122699926D01*
X152957571Y-122699930D01*
X152811930Y-122845571D01*
X152811926Y-122845576D01*
X152690873Y-123012193D01*
X152597367Y-123195705D01*
X152533719Y-123391591D01*
X152501500Y-123595019D01*
X152501500Y-123800980D01*
X152533719Y-124004408D01*
X152597367Y-124200294D01*
X152654579Y-124312577D01*
X152671641Y-124346063D01*
X152690873Y-124383806D01*
X152811926Y-124550423D01*
X152811930Y-124550428D01*
X152957571Y-124696069D01*
X152957576Y-124696073D01*
X153090704Y-124792795D01*
X153124197Y-124817129D01*
X153205653Y-124858633D01*
X153307705Y-124910632D01*
X153307707Y-124910632D01*
X153307710Y-124910634D01*
X153400244Y-124940700D01*
X153503591Y-124974280D01*
X153605305Y-124990390D01*
X153707019Y-125006500D01*
X153707020Y-125006500D01*
X153912980Y-125006500D01*
X153912981Y-125006500D01*
X154116408Y-124974280D01*
X154312290Y-124910634D01*
X154313682Y-124909925D01*
X154316927Y-124908271D01*
X154495803Y-124817129D01*
X154662430Y-124696068D01*
X154808068Y-124550430D01*
X154836158Y-124511767D01*
X154931993Y-124379862D01*
X154933517Y-124380969D01*
X154979361Y-124339473D01*
X155009114Y-124329507D01*
X155040529Y-124323258D01*
X155121485Y-124307155D01*
X155236775Y-124259400D01*
X155340533Y-124190071D01*
X156349685Y-123180919D01*
X156411008Y-123147434D01*
X156437366Y-123144600D01*
X167152500Y-123144600D01*
X167219539Y-123164285D01*
X167265294Y-123217089D01*
X167276500Y-123268600D01*
X167276500Y-124448002D01*
X167281726Y-124521077D01*
X167281727Y-124521083D01*
X167322902Y-124661313D01*
X167322902Y-124661314D01*
X167401921Y-124784269D01*
X167401922Y-124784270D01*
X167401923Y-124784271D01*
X167512381Y-124879984D01*
X167577942Y-124909925D01*
X167645326Y-124940699D01*
X167645329Y-124940699D01*
X167645330Y-124940700D01*
X167790000Y-124961500D01*
X167790003Y-124961500D01*
X168355819Y-124961500D01*
X168355826Y-124961500D01*
X168488732Y-124944002D01*
X168615899Y-124909927D01*
X168707006Y-124872189D01*
X168739734Y-124858633D01*
X168739737Y-124858631D01*
X168739743Y-124858629D01*
X168853757Y-124792803D01*
X168960106Y-124711198D01*
X168960110Y-124711193D01*
X168960115Y-124711190D01*
X169053190Y-124618115D01*
X169053193Y-124618110D01*
X169053198Y-124618106D01*
X169134803Y-124511757D01*
X169171613Y-124448000D01*
X169202659Y-124394228D01*
X169204257Y-124395150D01*
X169246497Y-124349237D01*
X169310405Y-124331500D01*
X171349095Y-124331500D01*
X171349096Y-124331499D01*
X171471485Y-124307155D01*
X171586775Y-124259400D01*
X171690533Y-124190071D01*
X172654685Y-123225919D01*
X172716008Y-123192434D01*
X172742366Y-123189600D01*
X173862500Y-123189600D01*
X173929539Y-123209285D01*
X173975294Y-123262089D01*
X173986500Y-123313600D01*
X173986500Y-124448002D01*
X173991726Y-124521077D01*
X173991727Y-124521083D01*
X174032902Y-124661313D01*
X174032902Y-124661314D01*
X174111921Y-124784269D01*
X174111922Y-124784270D01*
X174111923Y-124784271D01*
X174222381Y-124879984D01*
X174287942Y-124909925D01*
X174355326Y-124940699D01*
X174355329Y-124940699D01*
X174355330Y-124940700D01*
X174500000Y-124961500D01*
X174500003Y-124961500D01*
X175065819Y-124961500D01*
X175065826Y-124961500D01*
X175198732Y-124944002D01*
X175325899Y-124909927D01*
X175417006Y-124872189D01*
X175449734Y-124858633D01*
X175449737Y-124858631D01*
X175449743Y-124858629D01*
X175563757Y-124792803D01*
X175670106Y-124711198D01*
X175670110Y-124711193D01*
X175670115Y-124711190D01*
X175763190Y-124618115D01*
X175763193Y-124618110D01*
X175763198Y-124618106D01*
X175844803Y-124511757D01*
X175881613Y-124448000D01*
X175912659Y-124394228D01*
X175914257Y-124395150D01*
X175956497Y-124349237D01*
X176020405Y-124331500D01*
X179851524Y-124331500D01*
X179918563Y-124351185D01*
X179939205Y-124367819D01*
X179964561Y-124393175D01*
X179964565Y-124393178D01*
X180113357Y-124492598D01*
X180113361Y-124492600D01*
X180113364Y-124492602D01*
X180278700Y-124561087D01*
X180454216Y-124595999D01*
X180454220Y-124596000D01*
X180454221Y-124596000D01*
X180633180Y-124596000D01*
X180633181Y-124595999D01*
X180808700Y-124561087D01*
X180974036Y-124492602D01*
X181122835Y-124393178D01*
X181169950Y-124346063D01*
X181231273Y-124312577D01*
X181300964Y-124317561D01*
X181313924Y-124323256D01*
X181335833Y-124334420D01*
X181469705Y-124402632D01*
X181469707Y-124402632D01*
X181469710Y-124402634D01*
X181560437Y-124432113D01*
X181665591Y-124466280D01*
X181767305Y-124482390D01*
X181869019Y-124498500D01*
X181869020Y-124498500D01*
X182874980Y-124498500D01*
X182874981Y-124498500D01*
X183078408Y-124466280D01*
X183274290Y-124402634D01*
X183457803Y-124309129D01*
X183624430Y-124188068D01*
X183770068Y-124042430D01*
X183891129Y-123875803D01*
X183984634Y-123692290D01*
X184048280Y-123496408D01*
X184080500Y-123292981D01*
X184080500Y-123087019D01*
X184076484Y-123061666D01*
X184048280Y-122883591D01*
X184002040Y-122741280D01*
X183984634Y-122687710D01*
X183984632Y-122687707D01*
X183984632Y-122687705D01*
X183938820Y-122597795D01*
X183925924Y-122529126D01*
X183952200Y-122464385D01*
X184009307Y-122424128D01*
X184049305Y-122417500D01*
X188163754Y-122417500D01*
X188230793Y-122437185D01*
X188276548Y-122489989D01*
X188287111Y-122554102D01*
X188286412Y-122560954D01*
X188283500Y-122589450D01*
X188283500Y-123790537D01*
X188283501Y-123790553D01*
X188294113Y-123894427D01*
X188349884Y-124062735D01*
X188349886Y-124062740D01*
X188369745Y-124094936D01*
X188442970Y-124213652D01*
X188568348Y-124339030D01*
X188719262Y-124432115D01*
X188887574Y-124487887D01*
X188991455Y-124498500D01*
X190992544Y-124498499D01*
X191096426Y-124487887D01*
X191264738Y-124432115D01*
X191415652Y-124339030D01*
X191541030Y-124213652D01*
X191634115Y-124062738D01*
X191689887Y-123894426D01*
X191700500Y-123790545D01*
X191700499Y-122604799D01*
X191720184Y-122537761D01*
X191772987Y-122492006D01*
X191824499Y-122480800D01*
X194620195Y-122480800D01*
X194620196Y-122480799D01*
X194742585Y-122456455D01*
X194857875Y-122408700D01*
X194961633Y-122339371D01*
X196111071Y-121189933D01*
X196180400Y-121086175D01*
X196228155Y-120970885D01*
X196231035Y-120956408D01*
X196247373Y-120874271D01*
X196253689Y-120842519D01*
X196256484Y-120843075D01*
X196278005Y-120789609D01*
X196287652Y-120778761D01*
X196324675Y-120741738D01*
X196324678Y-120741735D01*
X196424102Y-120592936D01*
X196492587Y-120427600D01*
X196527500Y-120252079D01*
X196527500Y-120073121D01*
X196492587Y-119897600D01*
X196424102Y-119732264D01*
X196424100Y-119732261D01*
X196424098Y-119732257D01*
X196324678Y-119583465D01*
X196324675Y-119583461D01*
X196198138Y-119456924D01*
X196198134Y-119456921D01*
X196049342Y-119357501D01*
X196049332Y-119357496D01*
X195884000Y-119289013D01*
X195883992Y-119289011D01*
X195708483Y-119254100D01*
X195708479Y-119254100D01*
X195529521Y-119254100D01*
X195529516Y-119254100D01*
X195354007Y-119289011D01*
X195353999Y-119289013D01*
X195188667Y-119357496D01*
X195188657Y-119357501D01*
X195039865Y-119456921D01*
X195039860Y-119456925D01*
X194990363Y-119506422D01*
X194929040Y-119539906D01*
X194859348Y-119534921D01*
X194803417Y-119493052D01*
X194761261Y-119436739D01*
X194749838Y-119428188D01*
X194644204Y-119349111D01*
X194644202Y-119349110D01*
X194644204Y-119349110D01*
X194523375Y-119304043D01*
X194467441Y-119262172D01*
X194443025Y-119196707D01*
X194457877Y-119128434D01*
X194479022Y-119100187D01*
X194584206Y-118995004D01*
X194709894Y-118822009D01*
X194806972Y-118631483D01*
X194873049Y-118428116D01*
X194906500Y-118216916D01*
X194906500Y-118003084D01*
X194873049Y-117791884D01*
X194813208Y-117607710D01*
X194806973Y-117588519D01*
X194806972Y-117588516D01*
X194723852Y-117425385D01*
X194709894Y-117397991D01*
X194584206Y-117224996D01*
X194433004Y-117073794D01*
X194285340Y-116966510D01*
X194260005Y-116948103D01*
X194256132Y-116945730D01*
X194209254Y-116893920D01*
X194197829Y-116824991D01*
X194225483Y-116760827D01*
X194256132Y-116734270D01*
X194260005Y-116731896D01*
X194260004Y-116731896D01*
X194260009Y-116731894D01*
X194433004Y-116606206D01*
X194584206Y-116455004D01*
X194709894Y-116282009D01*
X194806972Y-116091483D01*
X194873049Y-115888116D01*
X194906500Y-115676916D01*
X194906500Y-115463084D01*
X194873049Y-115251884D01*
X194813208Y-115067710D01*
X194806973Y-115048519D01*
X194806972Y-115048516D01*
X194744536Y-114925980D01*
X194709894Y-114857991D01*
X194584206Y-114684996D01*
X194433004Y-114533794D01*
X194260009Y-114408106D01*
X194224869Y-114390201D01*
X194069483Y-114311027D01*
X194069480Y-114311026D01*
X193866117Y-114244951D01*
X193737853Y-114224636D01*
X193654916Y-114211500D01*
X193441084Y-114211500D01*
X193370684Y-114222650D01*
X193229882Y-114244951D01*
X193026519Y-114311026D01*
X193026516Y-114311027D01*
X192835991Y-114408105D01*
X192708775Y-114500533D01*
X192642968Y-114524012D01*
X192574915Y-114508186D01*
X192548209Y-114487895D01*
X192524138Y-114463824D01*
X192524134Y-114463821D01*
X192375342Y-114364401D01*
X192375332Y-114364396D01*
X192210000Y-114295913D01*
X192209992Y-114295911D01*
X192034483Y-114261000D01*
X192034479Y-114261000D01*
X191855521Y-114261000D01*
X191855516Y-114261000D01*
X191680007Y-114295911D01*
X191679999Y-114295913D01*
X191514667Y-114364396D01*
X191514657Y-114364401D01*
X191365868Y-114463819D01*
X191365862Y-114463823D01*
X191327032Y-114502653D01*
X191300832Y-114516958D01*
X191275947Y-114533447D01*
X191270494Y-114533523D01*
X191265708Y-114536137D01*
X191235930Y-114534006D01*
X191206084Y-114534424D01*
X191199879Y-114531427D01*
X191196017Y-114531151D01*
X191173778Y-114520212D01*
X191170021Y-114517871D01*
X191077803Y-114450871D01*
X190993790Y-114408064D01*
X190989261Y-114405242D01*
X190969423Y-114382984D01*
X190947745Y-114362510D01*
X190946425Y-114357180D01*
X190942773Y-114353083D01*
X190938116Y-114323630D01*
X190930950Y-114294689D01*
X190932720Y-114289493D01*
X190931863Y-114284070D01*
X190943869Y-114256776D01*
X190953487Y-114228554D01*
X190958007Y-114224636D01*
X190959997Y-114220115D01*
X190973719Y-114211022D01*
X190998541Y-114189515D01*
X191077803Y-114149129D01*
X191244430Y-114028068D01*
X191390068Y-113882430D01*
X191511129Y-113715803D01*
X191604634Y-113532290D01*
X191668280Y-113336408D01*
X191700500Y-113132981D01*
X191700500Y-112927019D01*
X191696458Y-112901500D01*
X191668280Y-112723591D01*
X191624419Y-112588603D01*
X191610484Y-112545717D01*
X191609681Y-112517597D01*
X191605678Y-112489753D01*
X191608697Y-112483141D01*
X191608490Y-112475877D01*
X191623016Y-112451787D01*
X191634703Y-112426197D01*
X191640816Y-112422267D01*
X191644570Y-112416044D01*
X191669816Y-112403631D01*
X191693481Y-112388423D01*
X191703751Y-112386946D01*
X191707271Y-112385216D01*
X191728416Y-112383400D01*
X191788199Y-112383400D01*
X191855238Y-112403085D01*
X191857050Y-112404272D01*
X191937164Y-112457802D01*
X192102500Y-112526287D01*
X192278016Y-112561199D01*
X192278020Y-112561200D01*
X192278021Y-112561200D01*
X192456980Y-112561200D01*
X192456981Y-112561199D01*
X192632500Y-112526287D01*
X192797836Y-112457802D01*
X192946635Y-112358378D01*
X193073178Y-112231835D01*
X193172602Y-112083036D01*
X193241087Y-111917700D01*
X193276000Y-111742179D01*
X193276000Y-111563221D01*
X193276000Y-111557129D01*
X193277568Y-111557129D01*
X193289159Y-111496010D01*
X193337223Y-111445299D01*
X193399544Y-111428500D01*
X193602980Y-111428500D01*
X193602981Y-111428500D01*
X193806408Y-111396280D01*
X194002290Y-111332634D01*
X194185803Y-111239129D01*
X194352430Y-111118068D01*
X194498068Y-110972430D01*
X194619129Y-110805803D01*
X194712634Y-110622290D01*
X194776280Y-110426408D01*
X194808500Y-110222981D01*
X194808500Y-110017019D01*
X194776280Y-109813592D01*
X194773227Y-109804197D01*
X194722913Y-109649345D01*
X194712634Y-109617710D01*
X194712632Y-109617707D01*
X194712632Y-109617705D01*
X194654102Y-109502835D01*
X194619129Y-109434197D01*
X194550124Y-109339219D01*
X194498073Y-109267576D01*
X194498069Y-109267571D01*
X194352428Y-109121930D01*
X194352423Y-109121926D01*
X194185806Y-109000873D01*
X194185805Y-109000872D01*
X194185803Y-109000871D01*
X194128496Y-108971671D01*
X194002294Y-108907367D01*
X193806408Y-108843719D01*
X193630794Y-108815905D01*
X193602981Y-108811500D01*
X193397019Y-108811500D01*
X193372550Y-108815375D01*
X193193591Y-108843719D01*
X192997705Y-108907367D01*
X192814193Y-109000873D01*
X192647576Y-109121926D01*
X192647571Y-109121930D01*
X192501930Y-109267571D01*
X192501926Y-109267576D01*
X192380871Y-109434195D01*
X192345897Y-109502835D01*
X192297922Y-109553630D01*
X192230101Y-109570425D01*
X192211222Y-109568156D01*
X192035483Y-109533200D01*
X192035479Y-109533200D01*
X191856521Y-109533200D01*
X191856516Y-109533200D01*
X191681007Y-109568111D01*
X191680999Y-109568113D01*
X191515661Y-109636598D01*
X191514290Y-109637332D01*
X191513488Y-109637498D01*
X191510036Y-109638929D01*
X191509764Y-109638274D01*
X191445887Y-109651575D01*
X191380643Y-109626576D01*
X191368154Y-109615656D01*
X191244428Y-109491930D01*
X191244423Y-109491926D01*
X191077806Y-109370873D01*
X191077805Y-109370872D01*
X191077803Y-109370871D01*
X190998541Y-109330485D01*
X190989180Y-109325715D01*
X190938384Y-109277740D01*
X190921589Y-109209919D01*
X190944127Y-109143784D01*
X190989181Y-109104745D01*
X191073347Y-109061861D01*
X191238894Y-108941582D01*
X191238895Y-108941582D01*
X191383582Y-108796895D01*
X191383582Y-108796894D01*
X191503859Y-108631349D01*
X191596755Y-108449029D01*
X191659990Y-108254413D01*
X191668609Y-108200000D01*
X190307686Y-108200000D01*
X190312080Y-108195606D01*
X190364741Y-108104394D01*
X190392000Y-108002661D01*
X190392000Y-107897339D01*
X190364741Y-107795606D01*
X190312080Y-107704394D01*
X190307686Y-107700000D01*
X191668609Y-107700000D01*
X191659990Y-107645586D01*
X191596755Y-107450970D01*
X191503859Y-107268650D01*
X191383582Y-107103105D01*
X191383582Y-107103104D01*
X191238895Y-106958417D01*
X191073349Y-106838140D01*
X190891031Y-106745244D01*
X190696417Y-106682009D01*
X190494317Y-106650000D01*
X190242000Y-106650000D01*
X190242000Y-107634314D01*
X190237606Y-107629920D01*
X190146394Y-107577259D01*
X190044661Y-107550000D01*
X189939339Y-107550000D01*
X189837606Y-107577259D01*
X189746394Y-107629920D01*
X189742000Y-107634314D01*
X189742000Y-106650000D01*
X189489683Y-106650000D01*
X189287582Y-106682009D01*
X189092968Y-106745244D01*
X188910650Y-106838140D01*
X188745105Y-106958417D01*
X188745104Y-106958417D01*
X188600417Y-107103104D01*
X188600417Y-107103105D01*
X188480140Y-107268650D01*
X188387244Y-107450970D01*
X188324009Y-107645586D01*
X188315391Y-107700000D01*
X189676314Y-107700000D01*
X189671920Y-107704394D01*
X189619259Y-107795606D01*
X189592000Y-107897339D01*
X189592000Y-108002661D01*
X189619259Y-108104394D01*
X189671920Y-108195606D01*
X189676314Y-108200000D01*
X188315391Y-108200000D01*
X188324009Y-108254413D01*
X188387244Y-108449029D01*
X188480140Y-108631349D01*
X188600417Y-108796894D01*
X188600417Y-108796895D01*
X188745104Y-108941582D01*
X188910652Y-109061861D01*
X188994818Y-109104745D01*
X189045614Y-109152719D01*
X189062410Y-109220540D01*
X189039873Y-109286675D01*
X188994820Y-109325714D01*
X188906195Y-109370871D01*
X188739576Y-109491926D01*
X188739571Y-109491930D01*
X188593930Y-109637571D01*
X188593926Y-109637576D01*
X188472873Y-109804193D01*
X188379367Y-109987705D01*
X188315719Y-110183591D01*
X188283500Y-110387019D01*
X188283500Y-110592980D01*
X188315719Y-110796408D01*
X188340292Y-110872032D01*
X188366952Y-110954083D01*
X188368947Y-111023922D01*
X188332867Y-111083755D01*
X188270167Y-111114584D01*
X188249021Y-111116400D01*
X185246212Y-111116400D01*
X185179173Y-111096715D01*
X185133418Y-111043911D01*
X185123474Y-110974753D01*
X185143109Y-110923510D01*
X185174644Y-110876313D01*
X185177502Y-110872036D01*
X185245987Y-110706700D01*
X185280900Y-110531179D01*
X185280900Y-110352221D01*
X185245987Y-110176700D01*
X185177502Y-110011364D01*
X185177500Y-110011361D01*
X185177498Y-110011357D01*
X185078078Y-109862565D01*
X185078075Y-109862561D01*
X184951538Y-109736024D01*
X184951534Y-109736021D01*
X184802742Y-109636601D01*
X184802732Y-109636596D01*
X184637400Y-109568113D01*
X184637392Y-109568111D01*
X184461883Y-109533200D01*
X184461879Y-109533200D01*
X184282921Y-109533200D01*
X184282916Y-109533200D01*
X184107407Y-109568111D01*
X184107399Y-109568113D01*
X183942063Y-109636598D01*
X183922984Y-109649345D01*
X183856306Y-109670219D01*
X183788927Y-109651731D01*
X183766418Y-109633920D01*
X183624428Y-109491930D01*
X183624423Y-109491926D01*
X183457806Y-109370873D01*
X183457805Y-109370872D01*
X183457803Y-109370871D01*
X183378540Y-109330484D01*
X183327745Y-109282510D01*
X183310950Y-109214689D01*
X183333487Y-109148554D01*
X183378541Y-109109515D01*
X183457803Y-109069129D01*
X183624430Y-108948068D01*
X183770068Y-108802430D01*
X183891129Y-108635803D01*
X183984634Y-108452290D01*
X184048280Y-108256408D01*
X184080500Y-108052981D01*
X184080500Y-107847019D01*
X184072357Y-107795606D01*
X184066157Y-107756461D01*
X184048280Y-107643591D01*
X183984632Y-107447705D01*
X183950709Y-107381128D01*
X183891129Y-107264197D01*
X183875661Y-107242908D01*
X183770073Y-107097576D01*
X183770069Y-107097571D01*
X183624428Y-106951930D01*
X183624423Y-106951926D01*
X183457806Y-106830873D01*
X183457805Y-106830872D01*
X183457803Y-106830871D01*
X183369710Y-106785985D01*
X183318914Y-106738010D01*
X183302119Y-106670189D01*
X183324657Y-106604054D01*
X183379372Y-106560603D01*
X183426005Y-106551500D01*
X186283995Y-106551500D01*
X186283996Y-106551499D01*
X186406385Y-106527155D01*
X186521675Y-106479400D01*
X186625433Y-106410071D01*
X186935085Y-106100419D01*
X186996408Y-106066934D01*
X187022766Y-106064100D01*
X187073480Y-106064100D01*
X187073481Y-106064099D01*
X187249000Y-106029187D01*
X187414336Y-105960702D01*
X187563135Y-105861278D01*
X187598993Y-105825420D01*
X187660315Y-105791934D01*
X187686675Y-105789100D01*
X188020095Y-105789100D01*
X188020096Y-105789099D01*
X188142485Y-105764755D01*
X188257775Y-105717000D01*
X188311362Y-105681193D01*
X188378036Y-105660316D01*
X188445417Y-105678799D01*
X188467933Y-105696615D01*
X188568348Y-105797030D01*
X188719262Y-105890115D01*
X188887574Y-105945887D01*
X188991455Y-105956500D01*
X190992544Y-105956499D01*
X191096426Y-105945887D01*
X191264738Y-105890115D01*
X191415652Y-105797030D01*
X191541030Y-105671652D01*
X191634115Y-105520738D01*
X191689887Y-105352426D01*
X191700500Y-105248545D01*
X191700499Y-104231399D01*
X191720183Y-104164361D01*
X191772987Y-104118606D01*
X191824499Y-104107400D01*
X192588495Y-104107400D01*
X192588496Y-104107399D01*
X192710885Y-104083055D01*
X192826175Y-104035300D01*
X192929933Y-103965971D01*
X193085062Y-103810840D01*
X193146383Y-103777357D01*
X193192140Y-103776050D01*
X193193591Y-103776279D01*
X193193592Y-103776280D01*
X193397019Y-103808500D01*
X193397020Y-103808500D01*
X193602980Y-103808500D01*
X193602981Y-103808500D01*
X193806408Y-103776280D01*
X194002290Y-103712634D01*
X194185803Y-103619129D01*
X194352430Y-103498068D01*
X194498068Y-103352430D01*
X194619129Y-103185803D01*
X194712634Y-103002290D01*
X194776280Y-102806408D01*
X194808500Y-102602981D01*
X194808500Y-102397019D01*
X194776280Y-102193592D01*
X194712634Y-101997710D01*
X194712632Y-101997707D01*
X194712632Y-101997705D01*
X194678709Y-101931128D01*
X194619129Y-101814197D01*
X194554594Y-101725372D01*
X194498073Y-101647576D01*
X194498069Y-101647571D01*
X194352428Y-101501930D01*
X194352423Y-101501926D01*
X194185806Y-101380873D01*
X194185805Y-101380872D01*
X194185803Y-101380871D01*
X194128496Y-101351671D01*
X194002294Y-101287367D01*
X193806408Y-101223719D01*
X193630794Y-101195905D01*
X193602981Y-101191500D01*
X193397019Y-101191500D01*
X193372550Y-101195375D01*
X193193591Y-101223719D01*
X192997705Y-101287367D01*
X192814193Y-101380873D01*
X192647576Y-101501926D01*
X192647571Y-101501930D01*
X192501930Y-101647571D01*
X192501926Y-101647576D01*
X192380873Y-101814193D01*
X192287367Y-101997705D01*
X192223719Y-102193591D01*
X192191500Y-102397019D01*
X192191500Y-102602981D01*
X192202019Y-102669396D01*
X192206392Y-102697002D01*
X192197438Y-102766295D01*
X192152442Y-102819747D01*
X192085690Y-102840387D01*
X192083919Y-102840400D01*
X191689737Y-102840400D01*
X191622698Y-102820715D01*
X191576943Y-102767911D01*
X191566999Y-102698753D01*
X191579252Y-102660105D01*
X191604632Y-102610294D01*
X191604632Y-102610293D01*
X191604634Y-102610290D01*
X191668280Y-102414408D01*
X191700500Y-102210981D01*
X191700500Y-102005019D01*
X191670656Y-101816591D01*
X191668280Y-101801591D01*
X191628290Y-101678516D01*
X191604634Y-101605710D01*
X191604632Y-101605707D01*
X191604632Y-101605705D01*
X191550182Y-101498843D01*
X191511129Y-101422197D01*
X191481104Y-101380871D01*
X191390073Y-101255576D01*
X191390069Y-101255571D01*
X191244428Y-101109930D01*
X191244423Y-101109926D01*
X191077806Y-100988873D01*
X191077805Y-100988872D01*
X191077803Y-100988871D01*
X190998540Y-100948484D01*
X190947745Y-100900510D01*
X190930950Y-100832689D01*
X190953487Y-100766554D01*
X190998541Y-100727515D01*
X191077803Y-100687129D01*
X191244430Y-100566068D01*
X191358211Y-100452287D01*
X191419534Y-100418802D01*
X191489226Y-100423786D01*
X191523992Y-100446129D01*
X191525155Y-100444713D01*
X191529865Y-100448578D01*
X191678657Y-100547998D01*
X191678661Y-100548000D01*
X191678664Y-100548002D01*
X191844000Y-100616487D01*
X192019516Y-100651399D01*
X192019520Y-100651400D01*
X192019521Y-100651400D01*
X192198480Y-100651400D01*
X192198481Y-100651399D01*
X192374000Y-100616487D01*
X192539336Y-100548002D01*
X192688135Y-100448578D01*
X192814678Y-100322035D01*
X192914102Y-100173236D01*
X192982587Y-100007900D01*
X193017500Y-99832379D01*
X193017500Y-99653421D01*
X192982587Y-99477900D01*
X192914102Y-99312564D01*
X192914100Y-99312561D01*
X192914098Y-99312557D01*
X192814678Y-99163765D01*
X192814675Y-99163761D01*
X192688138Y-99037224D01*
X192688134Y-99037221D01*
X192539342Y-98937801D01*
X192539332Y-98937796D01*
X192374000Y-98869313D01*
X192373992Y-98869311D01*
X192198483Y-98834400D01*
X192198479Y-98834400D01*
X192019521Y-98834400D01*
X192019516Y-98834400D01*
X191844007Y-98869311D01*
X191843999Y-98869313D01*
X191687141Y-98934286D01*
X191668337Y-98936307D01*
X191650741Y-98943231D01*
X191619511Y-98941557D01*
X191617671Y-98941755D01*
X191615497Y-98941342D01*
X191591114Y-98936492D01*
X191529203Y-98904108D01*
X191514486Y-98885779D01*
X191513993Y-98886138D01*
X191390073Y-98715576D01*
X191390069Y-98715571D01*
X191244428Y-98569930D01*
X191244423Y-98569926D01*
X191077806Y-98448873D01*
X191077805Y-98448872D01*
X191077803Y-98448871D01*
X190998540Y-98408484D01*
X190947745Y-98360510D01*
X190930950Y-98292689D01*
X190953487Y-98226554D01*
X190998541Y-98187515D01*
X191077803Y-98147129D01*
X191244430Y-98026068D01*
X191390068Y-97880430D01*
X191511129Y-97713803D01*
X191604634Y-97530290D01*
X191668280Y-97334408D01*
X191700500Y-97130981D01*
X191700500Y-96925019D01*
X191668280Y-96721591D01*
X191637280Y-96626185D01*
X191604634Y-96525710D01*
X191604632Y-96525707D01*
X191604632Y-96525705D01*
X191550182Y-96418843D01*
X191511129Y-96342197D01*
X191457004Y-96267700D01*
X191390073Y-96175576D01*
X191390069Y-96175571D01*
X191244428Y-96029930D01*
X191244423Y-96029926D01*
X191077806Y-95908873D01*
X191077805Y-95908872D01*
X191077803Y-95908871D01*
X190998540Y-95868484D01*
X190947745Y-95820510D01*
X190930950Y-95752689D01*
X190953487Y-95686554D01*
X190998541Y-95647515D01*
X191077803Y-95607129D01*
X191244430Y-95486068D01*
X191390068Y-95340430D01*
X191511129Y-95173803D01*
X191604634Y-94990290D01*
X191668280Y-94794408D01*
X191700500Y-94590981D01*
X191700500Y-94385019D01*
X191668280Y-94181592D01*
X191668279Y-94181588D01*
X191668279Y-94181587D01*
X191613767Y-94013818D01*
X191611772Y-93943977D01*
X191647852Y-93884144D01*
X191710553Y-93853316D01*
X191731698Y-93851500D01*
X192017500Y-93851500D01*
X192084539Y-93871185D01*
X192130294Y-93923989D01*
X192141500Y-93975500D01*
X192141500Y-95398654D01*
X192148011Y-95459202D01*
X192148011Y-95459204D01*
X192199111Y-95596204D01*
X192286739Y-95713261D01*
X192403796Y-95800889D01*
X192540799Y-95851989D01*
X192568050Y-95854918D01*
X192601345Y-95858499D01*
X192601362Y-95858500D01*
X192620692Y-95858500D01*
X192687731Y-95878185D01*
X192708373Y-95894819D01*
X193370591Y-96557037D01*
X193307007Y-96574075D01*
X193192993Y-96639901D01*
X193099901Y-96732993D01*
X193034075Y-96847007D01*
X193017037Y-96910591D01*
X192384728Y-96278282D01*
X192384727Y-96278282D01*
X192345380Y-96332439D01*
X192248904Y-96521782D01*
X192183242Y-96723869D01*
X192183242Y-96723872D01*
X192150000Y-96933753D01*
X192150000Y-97146246D01*
X192183242Y-97356127D01*
X192183242Y-97356130D01*
X192248904Y-97558217D01*
X192345375Y-97747550D01*
X192384728Y-97801716D01*
X193017037Y-97169408D01*
X193034075Y-97232993D01*
X193099901Y-97347007D01*
X193192993Y-97440099D01*
X193307007Y-97505925D01*
X193370590Y-97522962D01*
X192738282Y-98155269D01*
X192738282Y-98155270D01*
X192792449Y-98194624D01*
X192981782Y-98291095D01*
X193183870Y-98356757D01*
X193393754Y-98390000D01*
X193606246Y-98390000D01*
X193816127Y-98356757D01*
X193816130Y-98356757D01*
X194018217Y-98291095D01*
X194207554Y-98194622D01*
X194261716Y-98155270D01*
X194261717Y-98155270D01*
X193629408Y-97522962D01*
X193692993Y-97505925D01*
X193807007Y-97440099D01*
X193900099Y-97347007D01*
X193965925Y-97232993D01*
X193982962Y-97169408D01*
X194615270Y-97801717D01*
X194615270Y-97801716D01*
X194654622Y-97747554D01*
X194751095Y-97558217D01*
X194816757Y-97356130D01*
X194816757Y-97356127D01*
X194850000Y-97146246D01*
X194850000Y-96933753D01*
X194816757Y-96723872D01*
X194816757Y-96723869D01*
X194751095Y-96521782D01*
X194654624Y-96332449D01*
X194615270Y-96278282D01*
X194615269Y-96278282D01*
X193982962Y-96910590D01*
X193965925Y-96847007D01*
X193900099Y-96732993D01*
X193807007Y-96639901D01*
X193692993Y-96574075D01*
X193629409Y-96557037D01*
X194291626Y-95894819D01*
X194352949Y-95861334D01*
X194379307Y-95858500D01*
X194398638Y-95858500D01*
X194398654Y-95858499D01*
X194425692Y-95855591D01*
X194459201Y-95851989D01*
X194596204Y-95800889D01*
X194713261Y-95713261D01*
X194800889Y-95596204D01*
X194851989Y-95459201D01*
X194855591Y-95425692D01*
X194858499Y-95398654D01*
X194858500Y-95398637D01*
X194858500Y-93601362D01*
X194858499Y-93601345D01*
X194855157Y-93570270D01*
X194851989Y-93540799D01*
X194838610Y-93504930D01*
X194829522Y-93480564D01*
X194800889Y-93403796D01*
X194713261Y-93286739D01*
X194623650Y-93219657D01*
X194581781Y-93163725D01*
X194576346Y-93096200D01*
X194579145Y-93082128D01*
X194596500Y-92994879D01*
X194596500Y-92815921D01*
X194561587Y-92640400D01*
X194493102Y-92475064D01*
X194493100Y-92475061D01*
X194493098Y-92475057D01*
X194393678Y-92326265D01*
X194393675Y-92326261D01*
X194267138Y-92199724D01*
X194267134Y-92199721D01*
X194118342Y-92100301D01*
X194118332Y-92100296D01*
X193953000Y-92031813D01*
X193952992Y-92031811D01*
X193777483Y-91996900D01*
X193777479Y-91996900D01*
X193598521Y-91996900D01*
X193598516Y-91996900D01*
X193423007Y-92031811D01*
X193422999Y-92031813D01*
X193257667Y-92100296D01*
X193257657Y-92100301D01*
X193108865Y-92199721D01*
X193108861Y-92199724D01*
X192982324Y-92326261D01*
X192982321Y-92326265D01*
X192882901Y-92475057D01*
X192882894Y-92475070D01*
X192869275Y-92507952D01*
X192825435Y-92562356D01*
X192759141Y-92584421D01*
X192754714Y-92584500D01*
X191731698Y-92584500D01*
X191664659Y-92564815D01*
X191618904Y-92512011D01*
X191608960Y-92442853D01*
X191613767Y-92422182D01*
X191668279Y-92254412D01*
X191668279Y-92254411D01*
X191668280Y-92254408D01*
X191700500Y-92050981D01*
X191700500Y-91845019D01*
X191668280Y-91641592D01*
X191604634Y-91445710D01*
X191604632Y-91445707D01*
X191604632Y-91445705D01*
X191550182Y-91338843D01*
X191511129Y-91262197D01*
X191482400Y-91222655D01*
X191390073Y-91095576D01*
X191390069Y-91095571D01*
X191244428Y-90949930D01*
X191244423Y-90949926D01*
X191077806Y-90828873D01*
X191077805Y-90828872D01*
X191077803Y-90828871D01*
X190998540Y-90788484D01*
X190947745Y-90740510D01*
X190930950Y-90672689D01*
X190953487Y-90606554D01*
X190998541Y-90567515D01*
X191077803Y-90527129D01*
X191244430Y-90406068D01*
X191390068Y-90260430D01*
X191511129Y-90093803D01*
X191604634Y-89910290D01*
X191668280Y-89714408D01*
X191700500Y-89510981D01*
X191700500Y-89305019D01*
X191668280Y-89101592D01*
X191604634Y-88905710D01*
X191604632Y-88905707D01*
X191604632Y-88905705D01*
X191557825Y-88813843D01*
X191511129Y-88722197D01*
X191482400Y-88682655D01*
X191390073Y-88555576D01*
X191390069Y-88555571D01*
X191244428Y-88409930D01*
X191244423Y-88409926D01*
X191077806Y-88288873D01*
X191077805Y-88288872D01*
X191077803Y-88288871D01*
X190998541Y-88248485D01*
X190989180Y-88243715D01*
X190938384Y-88195740D01*
X190921589Y-88127919D01*
X190944127Y-88061784D01*
X190989181Y-88022745D01*
X191073347Y-87979861D01*
X191238894Y-87859582D01*
X191238895Y-87859582D01*
X191383582Y-87714895D01*
X191383582Y-87714894D01*
X191503859Y-87549349D01*
X191596755Y-87367029D01*
X191659990Y-87172413D01*
X191668609Y-87118000D01*
X190307686Y-87118000D01*
X190312080Y-87113606D01*
X190364741Y-87022394D01*
X190392000Y-86920661D01*
X190392000Y-86815339D01*
X190364741Y-86713606D01*
X190312080Y-86622394D01*
X190307686Y-86618000D01*
X191668609Y-86618000D01*
X191659990Y-86563586D01*
X191596755Y-86368970D01*
X191503859Y-86186650D01*
X191383582Y-86021105D01*
X191383582Y-86021104D01*
X191238895Y-85876417D01*
X191073349Y-85756140D01*
X190891031Y-85663244D01*
X190696417Y-85600009D01*
X190494317Y-85568000D01*
X190242000Y-85568000D01*
X190242000Y-86552314D01*
X190237606Y-86547920D01*
X190146394Y-86495259D01*
X190044661Y-86468000D01*
X189939339Y-86468000D01*
X189837606Y-86495259D01*
X189746394Y-86547920D01*
X189742000Y-86552314D01*
X189742000Y-85568000D01*
X189489683Y-85568000D01*
X189287582Y-85600009D01*
X189092968Y-85663244D01*
X188910650Y-85756140D01*
X188745105Y-85876417D01*
X188745104Y-85876417D01*
X188600417Y-86021104D01*
X188600417Y-86021105D01*
X188480140Y-86186650D01*
X188387244Y-86368970D01*
X188324009Y-86563586D01*
X188315391Y-86618000D01*
X189676314Y-86618000D01*
X189671920Y-86622394D01*
X189619259Y-86713606D01*
X189592000Y-86815339D01*
X189592000Y-86920661D01*
X189619259Y-87022394D01*
X189671920Y-87113606D01*
X189676314Y-87118000D01*
X188315391Y-87118000D01*
X188324009Y-87172413D01*
X188387244Y-87367029D01*
X188480140Y-87549349D01*
X188600417Y-87714894D01*
X188600417Y-87714895D01*
X188745104Y-87859582D01*
X188910652Y-87979861D01*
X188994818Y-88022745D01*
X189045614Y-88070719D01*
X189062410Y-88138540D01*
X189039873Y-88204675D01*
X188994820Y-88243714D01*
X188906195Y-88288871D01*
X188739576Y-88409926D01*
X188739571Y-88409930D01*
X188593930Y-88555571D01*
X188593926Y-88555576D01*
X188472873Y-88722193D01*
X188379367Y-88905705D01*
X188315719Y-89101591D01*
X188283500Y-89305019D01*
X188283500Y-89510980D01*
X188315719Y-89714408D01*
X188379367Y-89910294D01*
X188472873Y-90093806D01*
X188593926Y-90260423D01*
X188593930Y-90260428D01*
X188739571Y-90406069D01*
X188739576Y-90406073D01*
X188906195Y-90527128D01*
X188985459Y-90567516D01*
X189036254Y-90615490D01*
X189053049Y-90683311D01*
X189030511Y-90749446D01*
X188985459Y-90788484D01*
X188906195Y-90828871D01*
X188739576Y-90949926D01*
X188739571Y-90949930D01*
X188593930Y-91095571D01*
X188593926Y-91095576D01*
X188472873Y-91262193D01*
X188379367Y-91445705D01*
X188315719Y-91641591D01*
X188283500Y-91845019D01*
X188283500Y-92050980D01*
X188315720Y-92254409D01*
X188315720Y-92254412D01*
X188370233Y-92422182D01*
X188372228Y-92492023D01*
X188336148Y-92551856D01*
X188273447Y-92582684D01*
X188252302Y-92584500D01*
X184945075Y-92584500D01*
X184878036Y-92564815D01*
X184857393Y-92548180D01*
X184821538Y-92512324D01*
X184821534Y-92512321D01*
X184672742Y-92412901D01*
X184672732Y-92412896D01*
X184507400Y-92344413D01*
X184507392Y-92344411D01*
X184331883Y-92309500D01*
X184331879Y-92309500D01*
X184184739Y-92309500D01*
X184117700Y-92289815D01*
X184071945Y-92237011D01*
X184062001Y-92167853D01*
X184062266Y-92166102D01*
X184070683Y-92112965D01*
X184080500Y-92050981D01*
X184080500Y-91845019D01*
X184048280Y-91641592D01*
X183984634Y-91445710D01*
X183984632Y-91445707D01*
X183984632Y-91445705D01*
X183930182Y-91338843D01*
X183891129Y-91262197D01*
X183862400Y-91222655D01*
X183770073Y-91095576D01*
X183770069Y-91095571D01*
X183624428Y-90949930D01*
X183624423Y-90949926D01*
X183457806Y-90828873D01*
X183457805Y-90828872D01*
X183457803Y-90828871D01*
X183378540Y-90788484D01*
X183327745Y-90740510D01*
X183310950Y-90672689D01*
X183333487Y-90606554D01*
X183378541Y-90567515D01*
X183457803Y-90527129D01*
X183624430Y-90406068D01*
X183770068Y-90260430D01*
X183891129Y-90093803D01*
X183984634Y-89910290D01*
X184048280Y-89714408D01*
X184080500Y-89510981D01*
X184080500Y-89305019D01*
X184048280Y-89101592D01*
X183984634Y-88905710D01*
X183984632Y-88905707D01*
X183984632Y-88905705D01*
X183937825Y-88813843D01*
X183891129Y-88722197D01*
X183862400Y-88682655D01*
X183770073Y-88555576D01*
X183770069Y-88555571D01*
X183624428Y-88409930D01*
X183624423Y-88409926D01*
X183457806Y-88288873D01*
X183457805Y-88288872D01*
X183457803Y-88288871D01*
X183378540Y-88248484D01*
X183327745Y-88200510D01*
X183310950Y-88132689D01*
X183333487Y-88066554D01*
X183378541Y-88027515D01*
X183457803Y-87987129D01*
X183624430Y-87866068D01*
X183770068Y-87720430D01*
X183891129Y-87553803D01*
X183984634Y-87370290D01*
X184048280Y-87174408D01*
X184080500Y-86970981D01*
X184080500Y-86765019D01*
X184048280Y-86561592D01*
X184042650Y-86544266D01*
X183990566Y-86383968D01*
X183984634Y-86365710D01*
X183984632Y-86365707D01*
X183984632Y-86365705D01*
X183930182Y-86258843D01*
X183891129Y-86182197D01*
X183875661Y-86160908D01*
X183770073Y-86015576D01*
X183770069Y-86015571D01*
X183624428Y-85869930D01*
X183624423Y-85869926D01*
X183457806Y-85748873D01*
X183457805Y-85748872D01*
X183457803Y-85748871D01*
X183400496Y-85719671D01*
X183274294Y-85655367D01*
X183078408Y-85591719D01*
X182902794Y-85563905D01*
X182874981Y-85559500D01*
X181869019Y-85559500D01*
X181844550Y-85563375D01*
X181665591Y-85591719D01*
X181469705Y-85655367D01*
X181286193Y-85748873D01*
X181119576Y-85869926D01*
X181119571Y-85869930D01*
X180973930Y-86015571D01*
X180973926Y-86015576D01*
X180852873Y-86182193D01*
X180759367Y-86365705D01*
X180695719Y-86561591D01*
X180663500Y-86765019D01*
X180663500Y-86970980D01*
X180695719Y-87174408D01*
X180759367Y-87370294D01*
X180852873Y-87553806D01*
X180973926Y-87720423D01*
X180973930Y-87720428D01*
X181119571Y-87866069D01*
X181119576Y-87866073D01*
X181286195Y-87987128D01*
X181365459Y-88027516D01*
X181416254Y-88075490D01*
X181433049Y-88143311D01*
X181410511Y-88209446D01*
X181365459Y-88248484D01*
X181286195Y-88288871D01*
X181119576Y-88409926D01*
X181119571Y-88409930D01*
X180973930Y-88555571D01*
X180973926Y-88555576D01*
X180852873Y-88722193D01*
X180759367Y-88905705D01*
X180695719Y-89101591D01*
X180663500Y-89305019D01*
X180663500Y-89510980D01*
X180695719Y-89714408D01*
X180759367Y-89910294D01*
X180852873Y-90093806D01*
X180973926Y-90260423D01*
X180973930Y-90260428D01*
X181119571Y-90406069D01*
X181119576Y-90406073D01*
X181286195Y-90527128D01*
X181365459Y-90567516D01*
X181416254Y-90615490D01*
X181433049Y-90683311D01*
X181410511Y-90749446D01*
X181365459Y-90788484D01*
X181286195Y-90828871D01*
X181119576Y-90949926D01*
X181119571Y-90949930D01*
X180973930Y-91095571D01*
X180973926Y-91095576D01*
X180850007Y-91266138D01*
X180848497Y-91265041D01*
X180802558Y-91306565D01*
X180772886Y-91316492D01*
X180660520Y-91338843D01*
X180660514Y-91338845D01*
X180545227Y-91386598D01*
X180545218Y-91386603D01*
X180441467Y-91455928D01*
X180385659Y-91511736D01*
X180324335Y-91545220D01*
X180254643Y-91540235D01*
X180198710Y-91498364D01*
X180180049Y-91462376D01*
X180174634Y-91445710D01*
X180081129Y-91262197D01*
X180052400Y-91222655D01*
X179960073Y-91095576D01*
X179960069Y-91095571D01*
X179814428Y-90949930D01*
X179814423Y-90949926D01*
X179647806Y-90828873D01*
X179647805Y-90828872D01*
X179647803Y-90828871D01*
X179568540Y-90788484D01*
X179517745Y-90740510D01*
X179500950Y-90672689D01*
X179523487Y-90606554D01*
X179568541Y-90567515D01*
X179647803Y-90527129D01*
X179814430Y-90406068D01*
X179960068Y-90260430D01*
X180081129Y-90093803D01*
X180174634Y-89910290D01*
X180238280Y-89714408D01*
X180270500Y-89510981D01*
X180270500Y-89305019D01*
X180238280Y-89101592D01*
X180174634Y-88905710D01*
X180174632Y-88905707D01*
X180174632Y-88905705D01*
X180127825Y-88813843D01*
X180081129Y-88722197D01*
X180052400Y-88682655D01*
X179960073Y-88555576D01*
X179960069Y-88555571D01*
X179814428Y-88409930D01*
X179814423Y-88409926D01*
X179647806Y-88288873D01*
X179647805Y-88288872D01*
X179647803Y-88288871D01*
X179568541Y-88248485D01*
X179559180Y-88243715D01*
X179508384Y-88195740D01*
X179491589Y-88127919D01*
X179514127Y-88061784D01*
X179559181Y-88022745D01*
X179643347Y-87979861D01*
X179808894Y-87859582D01*
X179808895Y-87859582D01*
X179953582Y-87714895D01*
X179953582Y-87714894D01*
X180073859Y-87549349D01*
X180166755Y-87367029D01*
X180229990Y-87172413D01*
X180238609Y-87118000D01*
X178877686Y-87118000D01*
X178882080Y-87113606D01*
X178934741Y-87022394D01*
X178962000Y-86920661D01*
X178962000Y-86815339D01*
X178934741Y-86713606D01*
X178882080Y-86622394D01*
X178877686Y-86618000D01*
X180238609Y-86618000D01*
X180229990Y-86563586D01*
X180166755Y-86368970D01*
X180073859Y-86186650D01*
X179953582Y-86021105D01*
X179953582Y-86021104D01*
X179808895Y-85876417D01*
X179643349Y-85756140D01*
X179461031Y-85663244D01*
X179266417Y-85600009D01*
X179064317Y-85568000D01*
X178812000Y-85568000D01*
X178812000Y-86552314D01*
X178807606Y-86547920D01*
X178716394Y-86495259D01*
X178614661Y-86468000D01*
X178509339Y-86468000D01*
X178407606Y-86495259D01*
X178316394Y-86547920D01*
X178312000Y-86552314D01*
X178312000Y-85568000D01*
X178059683Y-85568000D01*
X177857582Y-85600009D01*
X177662968Y-85663244D01*
X177480650Y-85756140D01*
X177315105Y-85876417D01*
X177315104Y-85876417D01*
X177170417Y-86021104D01*
X177170417Y-86021105D01*
X177050140Y-86186650D01*
X176957244Y-86368970D01*
X176894009Y-86563586D01*
X176885391Y-86618000D01*
X178246314Y-86618000D01*
X178241920Y-86622394D01*
X178189259Y-86713606D01*
X178162000Y-86815339D01*
X178162000Y-86920661D01*
X178189259Y-87022394D01*
X178241920Y-87113606D01*
X178246314Y-87118000D01*
X176885391Y-87118000D01*
X176894009Y-87172413D01*
X176957244Y-87367029D01*
X177050140Y-87549349D01*
X177170417Y-87714894D01*
X177170417Y-87714895D01*
X177315104Y-87859582D01*
X177480652Y-87979861D01*
X177564818Y-88022745D01*
X177615614Y-88070719D01*
X177632410Y-88138540D01*
X177609873Y-88204675D01*
X177564820Y-88243714D01*
X177476195Y-88288871D01*
X177309576Y-88409926D01*
X177309571Y-88409930D01*
X177209032Y-88510468D01*
X177147709Y-88543952D01*
X177078017Y-88538967D01*
X177033671Y-88510467D01*
X176248636Y-87725431D01*
X176248632Y-87725428D01*
X176144881Y-87656103D01*
X176144872Y-87656098D01*
X176029585Y-87608345D01*
X176029577Y-87608343D01*
X175907198Y-87584000D01*
X175907194Y-87584000D01*
X165028093Y-87584000D01*
X164961054Y-87564315D01*
X164915299Y-87511511D01*
X164905355Y-87442353D01*
X164917609Y-87403704D01*
X164934631Y-87370296D01*
X164934632Y-87370294D01*
X164934634Y-87370290D01*
X164998280Y-87174408D01*
X165030500Y-86970981D01*
X165030500Y-86765019D01*
X164998280Y-86561592D01*
X164992650Y-86544266D01*
X164940566Y-86383968D01*
X164934634Y-86365710D01*
X164934632Y-86365707D01*
X164934632Y-86365705D01*
X164880182Y-86258843D01*
X164841129Y-86182197D01*
X164825661Y-86160908D01*
X164720073Y-86015576D01*
X164720069Y-86015571D01*
X164574428Y-85869930D01*
X164574423Y-85869926D01*
X164407806Y-85748873D01*
X164407805Y-85748872D01*
X164407803Y-85748871D01*
X164350496Y-85719671D01*
X164224294Y-85655367D01*
X164028408Y-85591719D01*
X163852794Y-85563905D01*
X163824981Y-85559500D01*
X162819019Y-85559500D01*
X162794550Y-85563375D01*
X162615591Y-85591719D01*
X162419705Y-85655367D01*
X162236193Y-85748873D01*
X162069576Y-85869926D01*
X162069571Y-85869930D01*
X161923930Y-86015571D01*
X161923926Y-86015576D01*
X161800007Y-86186138D01*
X161798497Y-86185041D01*
X161752558Y-86226565D01*
X161722886Y-86236492D01*
X161610520Y-86258843D01*
X161610514Y-86258845D01*
X161501828Y-86303864D01*
X161501828Y-86303865D01*
X161496187Y-86306201D01*
X161495220Y-86306602D01*
X161391467Y-86375928D01*
X161391463Y-86375931D01*
X161209757Y-86557637D01*
X161148434Y-86591122D01*
X161078742Y-86586138D01*
X161022809Y-86544266D01*
X161004145Y-86508275D01*
X160963754Y-86383968D01*
X160870859Y-86201650D01*
X160750582Y-86036105D01*
X160750582Y-86036104D01*
X160605895Y-85891417D01*
X160440349Y-85771140D01*
X160258031Y-85678244D01*
X160063417Y-85615009D01*
X159861317Y-85583000D01*
X159609000Y-85583000D01*
X159609000Y-86567314D01*
X159604606Y-86562920D01*
X159513394Y-86510259D01*
X159411661Y-86483000D01*
X159306339Y-86483000D01*
X159204606Y-86510259D01*
X159113394Y-86562920D01*
X159109000Y-86567314D01*
X159109000Y-85583000D01*
X158856683Y-85583000D01*
X158654582Y-85615009D01*
X158459968Y-85678244D01*
X158277650Y-85771140D01*
X158112105Y-85891417D01*
X158112104Y-85891417D01*
X157967417Y-86036104D01*
X157967417Y-86036105D01*
X157847140Y-86201650D01*
X157754244Y-86383970D01*
X157691009Y-86578586D01*
X157682391Y-86633000D01*
X159043314Y-86633000D01*
X159038920Y-86637394D01*
X158986259Y-86728606D01*
X158959000Y-86830339D01*
X158959000Y-86935661D01*
X158986259Y-87037394D01*
X159038920Y-87128606D01*
X159043314Y-87133000D01*
X157682391Y-87133000D01*
X157691009Y-87187413D01*
X157691009Y-87187414D01*
X157720339Y-87277682D01*
X157721142Y-87305801D01*
X157725146Y-87333647D01*
X157722126Y-87340258D01*
X157722334Y-87347523D01*
X157707809Y-87371609D01*
X157696121Y-87397203D01*
X157690005Y-87401133D01*
X157686253Y-87407356D01*
X157661010Y-87419766D01*
X157637343Y-87434977D01*
X157627070Y-87436453D01*
X157623552Y-87438184D01*
X157602408Y-87440000D01*
X157463592Y-87440000D01*
X157396553Y-87420315D01*
X157350798Y-87367511D01*
X157340854Y-87298353D01*
X157345661Y-87277682D01*
X157374990Y-87187414D01*
X157374990Y-87187413D01*
X157383609Y-87133000D01*
X156022686Y-87133000D01*
X156027080Y-87128606D01*
X156079741Y-87037394D01*
X156107000Y-86935661D01*
X156107000Y-86830339D01*
X156079741Y-86728606D01*
X156027080Y-86637394D01*
X156022686Y-86633000D01*
X157383609Y-86633000D01*
X157374990Y-86578586D01*
X157311755Y-86383970D01*
X157218859Y-86201650D01*
X157098582Y-86036105D01*
X157098582Y-86036104D01*
X156953895Y-85891417D01*
X156788349Y-85771140D01*
X156606031Y-85678244D01*
X156411417Y-85615009D01*
X156209317Y-85583000D01*
X155957000Y-85583000D01*
X155957000Y-86567314D01*
X155952606Y-86562920D01*
X155861394Y-86510259D01*
X155759661Y-86483000D01*
X155654339Y-86483000D01*
X155552606Y-86510259D01*
X155461394Y-86562920D01*
X155457000Y-86567314D01*
X155457000Y-85583000D01*
X155204683Y-85583000D01*
X155002582Y-85615009D01*
X154807968Y-85678244D01*
X154625650Y-85771140D01*
X154460105Y-85891417D01*
X154460104Y-85891417D01*
X154315417Y-86036104D01*
X154315417Y-86036105D01*
X154195140Y-86201650D01*
X154102244Y-86383970D01*
X154039009Y-86578586D01*
X154030391Y-86633000D01*
X155391314Y-86633000D01*
X155386920Y-86637394D01*
X155334259Y-86728606D01*
X155307000Y-86830339D01*
X155307000Y-86935661D01*
X155334259Y-87037394D01*
X155386920Y-87128606D01*
X155391314Y-87133000D01*
X154030391Y-87133000D01*
X154039009Y-87187413D01*
X154039009Y-87187414D01*
X154068339Y-87277682D01*
X154070334Y-87347523D01*
X154034253Y-87407356D01*
X153971552Y-87438184D01*
X153950408Y-87440000D01*
X147149966Y-87440000D01*
X147082927Y-87420315D01*
X147062285Y-87403681D01*
X146416349Y-86757744D01*
X146049536Y-86390931D01*
X146049532Y-86390928D01*
X145945781Y-86321603D01*
X145945772Y-86321598D01*
X145830485Y-86273845D01*
X145830479Y-86273843D01*
X145718113Y-86251492D01*
X145656202Y-86219107D01*
X145641486Y-86200779D01*
X145640993Y-86201138D01*
X145517073Y-86030576D01*
X145517069Y-86030571D01*
X145371428Y-85884930D01*
X145371423Y-85884926D01*
X145204806Y-85763873D01*
X145204805Y-85763872D01*
X145204803Y-85763871D01*
X145147496Y-85734671D01*
X145021294Y-85670367D01*
X144825408Y-85606719D01*
X144649794Y-85578905D01*
X144621981Y-85574500D01*
X143616019Y-85574500D01*
X143591550Y-85578375D01*
X143412591Y-85606719D01*
X143216705Y-85670367D01*
X143033193Y-85763873D01*
X142866576Y-85884926D01*
X142866571Y-85884930D01*
X142720930Y-86030571D01*
X142720926Y-86030576D01*
X142599007Y-86198385D01*
X142543677Y-86241051D01*
X142498689Y-86249500D01*
X142087311Y-86249500D01*
X142020272Y-86229815D01*
X141986993Y-86198385D01*
X141865073Y-86030576D01*
X141865069Y-86030571D01*
X141719428Y-85884930D01*
X141719423Y-85884926D01*
X141552806Y-85763873D01*
X141552805Y-85763872D01*
X141552803Y-85763871D01*
X141495496Y-85734671D01*
X141369294Y-85670367D01*
X141173408Y-85606719D01*
X140997794Y-85578905D01*
X140969981Y-85574500D01*
X139964019Y-85574500D01*
X139939550Y-85578375D01*
X139760591Y-85606719D01*
X139564705Y-85670367D01*
X139381193Y-85763873D01*
X139214576Y-85884926D01*
X139214571Y-85884930D01*
X139068930Y-86030571D01*
X139068926Y-86030576D01*
X138947873Y-86197193D01*
X138854367Y-86380705D01*
X138790719Y-86576591D01*
X138758500Y-86780019D01*
X138176500Y-86780019D01*
X138176500Y-84960500D01*
X138196185Y-84893461D01*
X138248989Y-84847706D01*
X138300500Y-84836500D01*
X196725500Y-84836500D01*
X196792539Y-84856185D01*
G37*
G04 #@! TD.AperFunction*
M02*
